<svg width="54" height="40" viewBox="0 0 54 40" fill="none" xmlns="http://www.w3.org/2000/svg">
<mask id="mask0_145_1147" style="mask-type:luminance" maskUnits="userSpaceOnUse" x="0" y="1" width="29" height="39">
<path d="M0 1.11255H28.4092V40H0V1.11255Z" fill="white"/>
</mask>
<g mask="url(#mask0_145_1147)">
<path d="M28.3682 37.5664L25.123 38.8925C19.9056 41.0229 13.5506 40.1147 8.26562 35.8696C0.0567358 29.2778 -2.46257 17.1378 2.63643 8.75261C4.45284 5.76954 6.98906 3.66206 9.8731 2.48454L13.1327 1.15363C12.7209 1.32633 12.3151 1.51715 11.9202 1.72729C11.8344 1.77319 11.7475 1.82029 11.6617 1.86739C11.576 1.91449 11.4914 1.96401 11.4057 2.01352L11.3936 2.02077C11.3224 2.06183 11.2523 2.1029 11.1823 2.14637C11.1726 2.15241 11.1617 2.15845 11.1521 2.16449C11.0687 2.21521 10.9854 2.26835 10.9021 2.32028C10.7366 2.42656 10.5724 2.53647 10.4081 2.64999C10.3284 2.70676 10.2475 2.76352 10.1666 2.82149C10.0059 2.93743 9.84653 3.0582 9.68952 3.1826C9.61465 3.24178 9.53977 3.30337 9.46489 3.36376C9.43953 3.38429 9.41537 3.40482 9.39122 3.42535C9.31634 3.48694 9.24146 3.54975 9.169 3.61376C8.99871 3.76231 8.82963 3.91448 8.66417 4.07148C8.58084 4.14998 8.49871 4.22969 8.41779 4.31061C8.25354 4.47245 8.09412 4.63911 7.93712 4.80819C7.86707 4.88428 7.79823 4.95916 7.7306 5.03766C7.49026 5.30819 7.25597 5.5908 7.03133 5.88427C6.96007 5.97606 6.89123 6.06785 6.82119 6.16205C6.81635 6.1705 6.80911 6.17896 6.80307 6.18741C6.73785 6.27799 6.67143 6.36857 6.60742 6.46156C6.52046 6.58354 6.43713 6.70794 6.3538 6.83233C6.30911 6.89876 6.26684 6.96398 6.22578 7.0304C6.15211 7.14513 6.07964 7.25987 6.00839 7.37702C0.909387 15.761 3.42869 27.9023 11.6364 34.4928C13.2608 35.7971 14.9854 36.7863 16.7474 37.4686C16.8054 37.4916 16.8646 37.5145 16.9226 37.5363C17.0989 37.6027 17.2764 37.6667 17.454 37.7259C17.6907 37.8068 17.9262 37.8817 18.1641 37.9505C18.3996 38.0193 18.6363 38.0833 18.873 38.1425H18.8755C19.1122 38.2005 19.3501 38.2548 19.588 38.3019C19.9781 38.3804 20.3682 38.4445 20.7571 38.494C20.9238 38.5157 21.0904 38.5338 21.2571 38.5495C21.7716 38.599 22.2824 38.6232 22.7909 38.6232C22.8682 38.6232 22.9467 38.622 23.0252 38.622C23.1025 38.6208 23.181 38.6184 23.2583 38.616C23.2679 38.616 23.2764 38.6147 23.2848 38.6147C23.338 38.6135 23.3911 38.6123 23.4443 38.6087C23.5034 38.6063 23.5626 38.6039 23.6218 38.6003C23.6762 38.5978 23.7329 38.5954 23.7873 38.5906C23.8464 38.5882 23.9056 38.5833 23.9636 38.5785C24.123 38.5652 24.2824 38.5519 24.4406 38.535C24.524 38.5254 24.6085 38.5169 24.6918 38.5061C24.7112 38.5024 24.7293 38.5012 24.7486 38.4988C24.838 38.4867 24.9286 38.4747 25.0191 38.4614C25.0674 38.4541 25.1182 38.4457 25.1665 38.4384C25.2269 38.43 25.286 38.4203 25.3464 38.4094C25.6351 38.3611 25.9201 38.3044 26.2027 38.2391C26.2752 38.2234 26.3464 38.2065 26.4189 38.1884C27.0095 38.0447 27.588 37.8647 28.1568 37.6486C28.1918 37.6353 28.2281 37.6208 28.2643 37.6063C28.2981 37.5942 28.3331 37.5797 28.3682 37.5664Z" fill="#8E0507"/>
</g>
<path d="M33.2535 29.2573C29.9625 34.6691 23.8019 36.6135 18.0169 34.651C17.8684 34.6003 17.7222 34.5471 17.5761 34.4928C17.43 34.4372 17.2826 34.3805 17.1365 34.3201C17.0387 34.279 16.9408 34.2379 16.843 34.1969C16.7524 34.157 16.6619 34.116 16.5725 34.0737C16.4807 34.0314 16.3889 33.9904 16.2995 33.9457C16.1788 33.8865 16.058 33.8273 15.9384 33.7657C15.8189 33.7041 15.6993 33.6401 15.5797 33.5749C15.5206 33.5423 15.4602 33.5085 15.401 33.4747C15.2114 33.3672 15.0218 33.2549 14.8346 33.1389C14.674 33.0387 14.5145 32.936 14.3575 32.8285C14.3056 32.7959 14.2549 32.7621 14.2054 32.7259C14.1353 32.6788 14.0665 32.6305 13.9976 32.5822C13.8128 32.4505 13.6305 32.3153 13.4481 32.1764C13.3575 32.1051 13.267 32.0339 13.1764 31.9626C12.9034 31.7428 12.6377 31.5169 12.3793 31.2826C12.2935 31.2054 12.2078 31.1256 12.1232 31.0471C12.0109 30.9409 11.901 30.8334 11.7911 30.7247C6.07981 25.052 4.54479 15.8455 8.48559 9.36612C12.7283 2.39032 21.7355 1.17656 28.564 6.66082C30.477 8.19705 32.0193 10.098 33.1557 12.1946C33.1763 12.232 33.198 12.2707 33.2173 12.3093C33.2378 12.348 33.2584 12.3866 33.2789 12.4241C33.2946 12.4555 33.3115 12.4869 33.3272 12.5171C33.4045 12.6668 33.4794 12.8178 33.5519 12.9688C33.5712 13.0074 33.5905 13.0473 33.6086 13.0859C33.6279 13.1258 33.6473 13.1656 33.6654 13.2043C33.7741 13.4386 33.8779 13.6741 33.9782 13.9108C34.0905 14.1789 34.1968 14.4494 34.2946 14.72H34.2958C34.3151 14.7743 34.3357 14.8286 34.355 14.8818C34.7765 16.0678 35.0796 17.2876 35.2572 18.517C35.2632 18.5593 35.2692 18.6028 35.2753 18.645C35.2813 18.6885 35.2873 18.732 35.2934 18.7755C35.32 18.9772 35.3417 19.1777 35.3622 19.3806C35.3659 19.4228 35.3707 19.4663 35.3731 19.5098C35.3779 19.5533 35.3815 19.5967 35.3852 19.639C35.4069 19.9047 35.4238 20.1716 35.4335 20.4361C35.4431 20.7272 35.448 21.017 35.4444 21.3069C35.413 24.1172 34.704 26.8721 33.2535 29.2573ZM38.3501 20.6173C38.3368 20.2513 38.3127 19.883 38.2789 19.5158C38.2753 19.4723 38.2704 19.4301 38.2668 19.3866C38.2632 19.3443 38.2583 19.2996 38.2535 19.2562C38.2342 19.0557 38.2088 18.8528 38.1835 18.6511C38.1774 18.6088 38.1726 18.5653 38.1653 18.5219C38.1593 18.4784 38.1545 18.4361 38.1484 18.3926C37.9214 16.8105 37.5216 15.2393 36.9576 13.7188C36.8574 13.447 36.7511 13.1777 36.64 12.9096C36.4951 12.563 36.3429 12.2188 36.1799 11.8782C36.1617 11.8383 36.1436 11.7997 36.1243 11.761C36.1062 11.7212 36.0869 11.6813 36.0663 11.6427C35.9782 11.4603 35.8876 11.2792 35.7922 11.0992C35.7729 11.0593 35.7523 11.0219 35.7318 10.9833C35.7125 10.9446 35.6919 10.906 35.6714 10.8685C34.3018 8.31661 32.4311 6.0002 30.1026 4.13065C24.8176 -0.114495 18.4626 -1.0227 13.2452 1.10772C13.2078 1.12342 13.1703 1.13912 13.1329 1.15361C12.7211 1.32632 12.3153 1.51714 11.9203 1.72728C11.8346 1.77317 11.7476 1.82028 11.6619 1.86738C11.5761 1.91448 11.4916 1.96399 11.4059 2.01351L11.3938 2.02076C11.3225 2.06182 11.2525 2.10288 11.1824 2.14636C11.1728 2.1524 11.1619 2.15844 11.1522 2.16448C11.0689 2.2152 10.9856 2.26834 10.9022 2.32027C10.7368 2.42655 10.5725 2.53645 10.4083 2.64998C10.3286 2.70674 10.2477 2.76351 10.1667 2.82148C10.0061 2.93742 9.84669 3.05819 9.68969 3.18259C9.61481 3.24176 9.53993 3.30336 9.46505 3.36374C9.43969 3.38428 9.41553 3.40481 9.39138 3.42534C9.3165 3.48693 9.24162 3.54973 9.16916 3.61374C8.99887 3.76229 8.82979 3.91446 8.66433 4.07147C8.581 4.14997 8.49887 4.22968 8.41796 4.3106C8.25371 4.47243 8.09429 4.6391 7.93728 4.80818C7.86723 4.88427 7.7984 4.95914 7.73076 5.03765C7.49043 5.30818 7.25613 5.59078 7.03149 5.88426C6.96024 5.97605 6.8914 6.06783 6.82135 6.16204C6.81652 6.17049 6.80927 6.17894 6.80323 6.1874C6.73802 6.27798 6.67159 6.36856 6.60758 6.46155C6.52063 6.58353 6.43729 6.70793 6.35396 6.83232C6.30927 6.89875 6.267 6.96396 6.22594 7.03039C6.15227 7.14512 6.07981 7.25985 6.00855 7.377C0.909551 15.761 3.42886 27.9022 11.6365 34.4928C13.2609 35.7971 14.9855 36.7862 16.7476 37.4686C16.8056 37.4916 16.8648 37.5145 16.9227 37.5362C17.0991 37.6027 17.2766 37.6655 17.4541 37.7258C17.6908 37.8068 17.9263 37.8816 18.1643 37.9505C18.3998 38.0193 18.6365 38.0833 18.8732 38.1425H18.8756C19.1123 38.2005 19.3503 38.2548 19.5882 38.3019C19.9783 38.3804 20.3684 38.4444 20.7572 38.494C20.9239 38.5157 21.0906 38.5338 21.2572 38.5495C21.7717 38.599 22.2826 38.6232 22.7911 38.6232C22.8683 38.6232 22.9468 38.622 23.0253 38.622C23.1026 38.6208 23.1811 38.6184 23.2584 38.6159C23.2681 38.6159 23.2766 38.6147 23.285 38.6147C23.3382 38.6135 23.3913 38.6123 23.4444 38.6087C23.5036 38.6063 23.5628 38.6039 23.622 38.6002C23.6763 38.5978 23.7331 38.5954 23.7874 38.5906C23.8466 38.5882 23.9058 38.5833 23.9638 38.5785C24.1232 38.5652 24.2826 38.5519 24.4408 38.535C24.5241 38.5254 24.6087 38.5169 24.692 38.506C24.7113 38.5024 24.7294 38.5012 24.7488 38.4988C24.8381 38.4867 24.9287 38.4746 25.0193 38.4613C25.0676 38.4541 25.1183 38.4456 25.1666 38.4384C25.227 38.4299 25.2862 38.4203 25.3466 38.4094C25.6352 38.3611 25.9203 38.3043 26.2029 38.2391C26.2753 38.2234 26.3466 38.2065 26.419 38.1884C27.0096 38.0447 27.5881 37.8647 28.157 37.6486C28.192 37.6353 28.2282 37.6208 28.2644 37.6063C28.2983 37.5942 28.3333 37.5797 28.3683 37.5664L28.4951 37.5157C31.3792 36.3382 33.9166 34.2307 35.7306 31.2452C37.5108 28.3189 38.3622 24.9349 38.367 21.488C38.3682 21.1982 38.3622 20.9095 38.3501 20.6173Z" fill="#E61C23"/>
<path d="M30.7774 27.2682C27.3837 32.8491 20.1785 33.8201 14.7147 29.4324C9.25101 25.0448 7.56865 16.9361 10.9624 11.3552C14.3573 5.77435 21.5625 4.80334 27.0251 9.19099C28.525 10.3951 29.7412 11.8806 30.6434 13.5183C30.6651 13.5557 30.6869 13.5943 30.7062 13.633C30.7279 13.6704 30.7485 13.7091 30.7678 13.7489C30.8632 13.9277 30.955 14.1076 31.0431 14.2912C31.0613 14.3311 31.0806 14.3697 31.0987 14.4108C31.1168 14.4494 31.1349 14.4893 31.153 14.5291C31.2122 14.6559 31.2678 14.7827 31.3221 14.9108C31.4357 15.1777 31.5419 15.447 31.6398 15.7199C31.9828 16.6716 32.2291 17.6511 32.3753 18.639C32.3813 18.6825 32.3873 18.726 32.3934 18.7694C32.3994 18.8117 32.4055 18.8564 32.4115 18.8987C32.4369 19.1004 32.4586 19.3032 32.4767 19.5037C32.4803 19.5472 32.4827 19.5907 32.4864 19.633C32.4912 19.6776 32.4936 19.7199 32.496 19.7634C32.5081 19.9276 32.5166 20.0907 32.5226 20.2561C32.5335 20.5448 32.5335 20.8358 32.5262 21.1245C32.467 23.2984 31.9006 25.4216 30.7774 27.2682ZM35.4332 20.4361C35.4235 20.1716 35.4066 19.9047 35.3849 19.639C35.3813 19.5967 35.3777 19.5532 35.3728 19.5098C35.3704 19.4663 35.3656 19.4228 35.362 19.3805C35.3414 19.1776 35.3197 18.9772 35.2931 18.7755C35.2871 18.732 35.281 18.6885 35.275 18.645C35.269 18.6028 35.2629 18.5593 35.2569 18.517C35.0793 17.2876 34.7762 16.0678 34.3547 14.8818C34.3342 14.8286 34.3149 14.7743 34.2943 14.7199C34.1965 14.4494 34.0902 14.1789 33.9779 13.9108C33.8777 13.6741 33.7738 13.4386 33.6651 13.2043C33.647 13.1644 33.6277 13.1258 33.6083 13.0859C33.5902 13.0473 33.5709 13.0074 33.5516 12.9687C33.4791 12.8178 33.4042 12.6668 33.3269 12.5171C33.3112 12.4857 33.2943 12.4555 33.2774 12.4253C33.2581 12.3866 33.2376 12.3492 33.217 12.3093C33.1977 12.2707 33.176 12.232 33.1554 12.1946C32.019 10.098 30.4767 8.19704 28.5637 6.66082C21.7352 1.17655 12.728 2.39031 8.48532 9.36611C4.54452 15.8455 6.07953 25.052 11.7909 30.7247C12.2293 31.1595 12.6906 31.5725 13.1761 31.9626C13.8971 32.5411 14.6411 33.0447 15.4007 33.4747C15.8766 33.744 16.3585 33.9843 16.8427 34.1969C16.9406 34.2379 17.0384 34.279 17.1362 34.3201C17.4285 34.4408 17.722 34.5507 18.0167 34.651C23.8016 36.6135 29.9622 34.6691 33.2533 29.2573C34.7037 26.872 35.4127 24.1172 35.4441 21.3069C35.4477 21.017 35.4429 20.7272 35.4332 20.4361Z" fill="#FAFAFA"/>
<path d="M28.3007 25.2778C25.7548 29.4638 20.3515 30.1921 16.2537 26.901C12.1571 23.6112 10.8938 17.5291 13.4397 13.3443C15.9856 9.15958 21.3889 8.43011 25.4867 11.7212C26.5737 12.5943 27.4626 13.6644 28.1304 14.8431C28.1534 14.8806 28.1739 14.9192 28.1957 14.9578C28.2174 14.9953 28.2367 15.0327 28.2572 15.0714C28.3551 15.2513 28.4457 15.4325 28.5326 15.6161C28.5519 15.6547 28.5688 15.6934 28.587 15.7332C28.6051 15.7731 28.6232 15.8129 28.6401 15.8528C28.6486 15.8721 28.657 15.8902 28.6655 15.9095C28.7826 16.1764 28.8889 16.447 28.9831 16.7187C29.2174 17.3866 29.3877 18.0726 29.4915 18.7634C29.4988 18.8057 29.5048 18.8491 29.5109 18.8914C29.5169 18.9349 29.5217 18.9784 29.529 19.0218C29.5543 19.2247 29.5749 19.4252 29.5882 19.6281C29.5918 19.6704 29.5942 19.7139 29.5966 19.7561C29.6002 19.7996 29.6014 19.8443 29.6039 19.8866C29.6075 19.9494 29.6099 20.011 29.6111 20.075C29.6196 20.3636 29.6171 20.6535 29.6014 20.9433C29.5205 22.4783 29.0954 23.9711 28.3007 25.2778ZM32.5229 20.2561C32.5169 20.0907 32.5084 19.9276 32.4964 19.7634C32.4939 19.7199 32.4915 19.6776 32.4867 19.6329C32.4831 19.5907 32.4807 19.5472 32.477 19.5037C32.4589 19.3032 32.4372 19.1003 32.4118 18.8986C32.4058 18.8564 32.3997 18.8117 32.3937 18.7694C32.3877 18.7259 32.3816 18.6825 32.3756 18.639C32.2294 17.6511 31.9831 16.6716 31.6401 15.7199C31.5423 15.447 31.436 15.1777 31.3224 14.9107C31.2681 14.7827 31.2125 14.6559 31.1534 14.5291C31.1353 14.4893 31.1171 14.4494 31.099 14.4108C31.0809 14.3697 31.0616 14.331 31.0435 14.2912C30.9553 14.1076 30.8635 13.9277 30.7681 13.7489C30.7488 13.7091 30.7282 13.6704 30.7065 13.633C30.6872 13.5943 30.6654 13.5557 30.6437 13.5182C29.7415 11.8806 28.5254 10.3951 27.0254 9.19098C21.5628 4.80332 14.3576 5.77433 10.9627 11.3552C7.56897 16.9361 9.25133 25.0447 14.7151 29.4324C20.1788 33.8201 27.3841 32.849 30.7778 27.2682C31.9009 25.4216 32.4674 23.2984 32.5265 21.1245C32.5338 20.8358 32.5338 20.5448 32.5229 20.2561Z" fill="#E61C23"/>
<path d="M25.8234 23.29C24.1265 26.081 20.5239 26.5653 17.792 24.3721C15.0602 22.1776 14.2184 18.1233 15.9152 15.3335C15.9768 15.232 16.0408 15.1342 16.1073 15.0388C16.1725 14.9446 16.2413 14.8528 16.3126 14.7646C16.3669 14.697 16.4225 14.6306 16.4792 14.5654C16.7341 14.2755 17.0143 14.0231 17.315 13.8069C17.3826 13.7586 17.4527 13.7091 17.5239 13.6644C18.9877 12.7224 20.8669 12.6125 22.5964 13.4096C22.7123 13.4627 22.8282 13.5207 22.943 13.5823C23.0577 13.6451 23.1724 13.7103 23.2848 13.7816C23.3222 13.8045 23.3596 13.8287 23.3971 13.8528C23.5843 13.9736 23.7679 14.1076 23.9478 14.2514C24.0589 14.3407 24.1664 14.4337 24.2715 14.5279C24.8041 15.011 25.2533 15.5666 25.6157 16.1692C25.6386 16.2067 25.6604 16.2441 25.6821 16.2815C25.7038 16.319 25.7256 16.3576 25.7461 16.3963C25.8403 16.5642 25.9273 16.7357 26.007 16.9096C26.0118 16.9204 26.0166 16.9301 26.0203 16.941C26.0384 16.9808 26.0565 17.0195 26.0734 17.0593C26.0903 17.0992 26.1072 17.139 26.1253 17.1789C26.199 17.3576 26.2654 17.5376 26.3246 17.7199C26.4502 18.1016 26.5456 18.4917 26.6072 18.8854C26.6157 18.9289 26.6217 18.9711 26.6277 19.0158C26.6338 19.0581 26.6398 19.1016 26.6434 19.1451C26.67 19.3467 26.6857 19.5496 26.6942 19.7513C26.6966 19.7948 26.6978 19.8383 26.6978 19.8818V19.8926C26.699 19.9325 26.7002 19.9711 26.7002 20.011C26.7014 20.261 26.6881 20.5122 26.6603 20.7598C26.5661 21.6559 26.2908 22.5206 25.8234 23.29ZM29.6108 20.075C29.6096 20.011 29.6072 19.9494 29.6036 19.8866C29.6011 19.8443 29.5999 19.7996 29.5963 19.7562C29.5939 19.7139 29.5915 19.6704 29.5879 19.6281C29.5746 19.4252 29.554 19.2248 29.5287 19.0219C29.5214 18.9784 29.5166 18.9349 29.5106 18.8914C29.5045 18.8492 29.4985 18.8057 29.4912 18.7634C29.3874 18.0726 29.2171 17.3866 28.9828 16.7187C28.8886 16.447 28.7823 16.1765 28.6652 15.9096C28.6567 15.8902 28.6483 15.8721 28.6398 15.8528C28.6229 15.813 28.6048 15.7731 28.5867 15.7332C28.5685 15.6934 28.5516 15.6547 28.5323 15.6161C28.4454 15.4325 28.3548 15.2514 28.257 15.0714C28.2364 15.0328 28.2171 14.9953 28.1954 14.9579C28.1736 14.9192 28.1531 14.8806 28.1301 14.8432C27.4623 13.6644 26.5734 12.5944 25.4864 11.7212C21.3886 8.43015 15.9853 9.15961 13.4394 13.3444C10.8935 17.5291 12.1568 23.6112 16.2534 26.901C20.3512 30.1921 25.7546 29.4638 28.3004 25.2779C29.0951 23.9711 29.5202 22.4784 29.6011 20.9434C29.6168 20.6535 29.6193 20.3636 29.6108 20.075Z" fill="#FAFAFA"/>
<path d="M23.3465 21.3009C22.4987 22.6958 20.6967 22.9385 19.3308 21.8407C17.9649 20.7441 17.5446 18.7175 18.3936 17.3226C19.2426 15.9277 21.0434 15.6837 22.4093 16.7816C22.6702 16.9905 22.8972 17.2345 23.0868 17.5038C23.1134 17.5376 23.1375 17.575 23.1605 17.6113C23.1846 17.6487 23.2088 17.6849 23.2305 17.7224C23.2704 17.784 23.3054 17.848 23.3392 17.9132C23.4008 18.0279 23.4564 18.1451 23.5059 18.2659C23.5228 18.3069 23.5385 18.348 23.553 18.3878C23.5687 18.4289 23.5832 18.4712 23.5953 18.5134C23.6194 18.5823 23.64 18.6523 23.6581 18.7224C23.6834 18.8178 23.7064 18.9144 23.7233 19.0098C23.7317 19.0521 23.739 19.0956 23.745 19.1378C23.7523 19.1825 23.7571 19.2248 23.7619 19.2683C23.7788 19.4168 23.7873 19.5654 23.7837 19.7127C23.7837 19.767 23.7813 19.8214 23.7788 19.8757C23.7764 19.9204 23.7728 19.9639 23.7692 20.0062C23.7644 20.0509 23.7595 20.0943 23.7523 20.1378C23.733 20.2852 23.7016 20.4313 23.6605 20.5738C23.5892 20.8286 23.4854 21.0726 23.3465 21.3009ZM26.6979 19.8927V19.8818C26.6979 19.8383 26.6967 19.7948 26.6943 19.7513C26.6858 19.5497 26.6701 19.3468 26.6436 19.1451C26.6399 19.1016 26.6339 19.0581 26.6279 19.0158C26.6218 18.9712 26.6158 18.9289 26.6073 18.8854C26.5457 18.4917 26.4503 18.1016 26.3247 17.72C26.2655 17.5376 26.1991 17.3576 26.1254 17.1789C26.1073 17.139 26.0904 17.0992 26.0735 17.0593C26.0566 17.0195 26.0385 16.9808 26.0204 16.941C26.0168 16.9301 26.0119 16.9204 26.0071 16.9096C25.9274 16.7357 25.8404 16.5642 25.7462 16.3963C25.7257 16.3577 25.704 16.319 25.6822 16.2816C25.6605 16.2441 25.6387 16.2067 25.617 16.1692H25.6158C25.2535 15.5666 24.8042 15.011 24.2716 14.528C24.1665 14.4325 24.059 14.3395 23.9479 14.2514C23.768 14.1065 23.5844 13.9736 23.3972 13.8528C23.3598 13.8287 23.3223 13.8045 23.2849 13.7816C23.1726 13.7103 23.0578 13.6451 22.9431 13.5823C22.8284 13.5207 22.7136 13.4627 22.5965 13.4096C20.867 12.6125 18.9878 12.7224 17.5241 13.6644C17.4528 13.7091 17.3828 13.7586 17.3151 13.8069C17.0144 14.0231 16.7342 14.2755 16.4794 14.5654C16.4226 14.6294 16.3671 14.6958 16.3127 14.7647C16.2415 14.8528 16.1738 14.9446 16.1074 15.0388C16.041 15.1342 15.977 15.2321 15.9154 15.3335C14.2185 18.1233 15.0603 22.1777 17.7922 24.3721C20.524 26.5653 24.1267 26.081 25.8235 23.29C26.2909 22.5207 26.5663 21.6559 26.6605 20.7598C26.6882 20.5122 26.7015 20.261 26.7003 20.011C26.7003 19.9712 26.6991 19.9325 26.6979 19.8927Z" fill="#E61C23"/>
<path d="M18.3934 17.3226C19.2413 15.9277 21.0432 15.6849 22.4091 16.7815C23.7738 17.8782 24.1953 19.9047 23.3463 21.3008C22.4985 22.6958 20.6966 22.9385 19.3306 21.8419C17.9659 20.7453 17.5444 18.7175 18.3934 17.3226Z" fill="#FAFAFA"/>
<path d="M38.3669 21.488L35.4442 21.3069C35.4454 21.2429 35.4454 21.1801 35.4454 21.116C35.4454 20.8902 35.4406 20.6631 35.4333 20.4361L38.35 20.6173C38.3609 20.8866 38.3669 21.1535 38.3669 21.4204C38.3669 21.4433 38.3669 21.4651 38.3669 21.488Z" fill="#BE171D"/>
<path d="M35.4442 21.3068L32.5263 21.1245C32.53 20.9964 32.5312 20.8672 32.5312 20.738C32.5312 20.5774 32.5287 20.4167 32.5227 20.2561L35.4333 20.4361C35.4406 20.6631 35.4454 20.8902 35.4454 21.116C35.4454 21.18 35.4454 21.2428 35.4442 21.3068Z" fill="#CFCECE"/>
<path d="M32.5264 21.1245L29.6013 20.9434C29.611 20.7574 29.6158 20.5726 29.6158 20.3866C29.6158 20.2827 29.6146 20.1789 29.611 20.075L32.5228 20.2562C32.5288 20.4168 32.5313 20.5774 32.5313 20.7381C32.5313 20.8673 32.53 20.9965 32.5264 21.1245Z" fill="#BE171D"/>
<path d="M29.6012 20.9433L26.6604 20.7598C26.687 20.5218 26.7003 20.2803 26.7003 20.04C26.7003 20.0303 26.7003 20.0206 26.7003 20.011L27.8162 19.9639L29.6109 20.075C29.6145 20.1788 29.6157 20.2827 29.6157 20.3866C29.6157 20.5726 29.6109 20.7573 29.6012 20.9433Z" fill="#CFCECE"/>
<path d="M26.6604 20.7598L23.6616 20.5738C23.7027 20.4313 23.7329 20.2851 23.7534 20.1378L26.7002 20.011C26.7002 20.0206 26.7002 20.0303 26.7002 20.04C26.7002 20.2803 26.687 20.5219 26.6604 20.7598Z" fill="#BE171D"/>
<path d="M23.6617 20.5737H23.6605L21.1702 20.4179L21.181 20.2465L23.7523 20.1378H23.7535C23.733 20.2851 23.7028 20.4312 23.6617 20.5737Z" fill="#CFCECE"/>
<path d="M52.8222 20.5532L51.4393 18.8226L51.9719 18.7996L51.9345 17.9337L51.513 17.9518L52.6772 16.348L48.0601 16.7018L46.4273 18.1692L21.0349 19.2549L21.0724 20.1221L46.5154 19.0327L48.193 20.4083L52.8222 20.5532Z" fill="#231F20"/>
<mask id="mask1_145_1147" style="mask-type:luminance" maskUnits="userSpaceOnUse" x="20" y="15" width="34" height="6">
<path d="M20.7798 15.9506H53.1008V20.8975H20.7798V15.9506Z" fill="white"/>
</mask>
<g mask="url(#mask1_145_1147)">
<path d="M26.6943 19.7513L25.3404 19.8093L23.7788 19.8757L21.1979 19.9869L21.1895 19.7815L21.1774 19.4941L21.1714 19.3794L21.2728 19.3757L21.4141 19.3685L21.7161 19.3564H21.7173L22.0071 19.3443H22.0083L22.0216 19.3431L23.7619 19.2683L26.6436 19.1451L29.5288 19.0219L32.4116 18.8987L35.2933 18.7755L38.1833 18.6511L46.4333 18.2997L46.4816 18.2973L48.1156 16.8287L52.4055 16.5002L51.2485 18.0931L51.8076 18.069L51.8342 18.6753L51.1772 18.7043L52.5419 20.4144L48.2425 20.2791L46.5613 18.9011L38.2534 19.2562L35.3621 19.3806L32.4769 19.5038L29.588 19.6282L26.6943 19.7513ZM51.7026 18.9422L52.1096 18.9241L52.0601 17.7985L51.7787 17.8093L52.9501 16.197L48.0057 16.575L46.3741 18.04L38.1483 18.3927L35.257 18.5171L32.3754 18.639L29.4914 18.7634L26.6073 18.8854L23.7233 19.0098L22.7909 19.0485H22.7897L22.5602 19.0593L22.2547 19.0726L21.9516 19.0847L21.1738 19.1185L21.0289 19.1245L20.9214 19.1294L20.8972 19.1306L20.9081 19.383L20.9226 19.6849L20.9467 20.2574L21.181 20.2465L23.7523 20.1378L26.7003 20.011L27.8163 19.9639L29.6037 19.8866L32.4962 19.7634L35.385 19.639L38.2787 19.5158L46.4707 19.1656L48.1434 20.5364L53.1011 20.6934L51.7026 18.9422Z" fill="white"/>
</g>
<path d="M34.2957 14.7199H34.2945C34.1966 14.4494 34.0903 14.1789 33.978 13.9107L36.6398 12.9095C36.751 13.1777 36.8572 13.447 36.9575 13.7187L34.2957 14.7199Z" fill="#BE171D"/>
<path d="M31.6399 15.7199C31.5421 15.447 31.4358 15.1777 31.3223 14.9108L33.978 13.9108C34.0904 14.1789 34.1966 14.4494 34.2945 14.7199L31.6399 15.7199Z" fill="#CFCECE"/>
<path d="M28.9829 16.7187C28.8887 16.447 28.7824 16.1765 28.6653 15.9096L31.3223 14.9108C31.4358 15.1777 31.5421 15.447 31.6399 15.7199L28.9829 16.7187Z" fill="#BE171D"/>
<path d="M26.3247 17.7199C26.2655 17.5376 26.1991 17.3576 26.1254 17.1789C26.1073 17.139 26.0904 17.0992 26.0735 17.0593C26.0566 17.0194 26.0385 16.9808 26.0204 16.9409C26.0167 16.9301 26.0119 16.9204 26.0071 16.9095L26.245 16.8214L26.2486 16.819L27.2208 16.4542L27.2245 16.453L28.2003 16.0859V16.0847L28.6653 15.9095C28.7824 16.1765 28.8887 16.447 28.9829 16.7187L26.3247 17.7199Z" fill="#CFCECE"/>
<path d="M23.6592 18.7223C23.5843 18.4434 23.478 18.1716 23.3403 17.9132L26.007 16.9095C26.0118 16.9204 26.0166 16.9301 26.0203 16.9409C26.0384 16.9808 26.0565 17.0194 26.0734 17.0593C26.0903 17.0992 26.1072 17.139 26.1253 17.1789C26.199 17.3576 26.2654 17.5376 26.3246 17.7199L23.6592 18.7223Z" fill="#BE171D"/>
<path d="M21.1739 19.1185L21.0736 18.8588H21.0724L21.0422 18.7791L21.6884 18.5351L23.3393 17.9131H23.3405C23.4782 18.1716 23.5845 18.4433 23.6594 18.7223H23.6582L22.791 19.0484H22.7898L22.5603 19.0593L22.2548 19.0726L21.9517 19.0846L21.1739 19.1185Z" fill="#CFCECE"/>
<path d="M21.3548 19.5895L21.344 19.5605L21.3415 19.5532L21.2944 19.4313L21.2727 19.3757L21.414 19.3685L21.7159 19.3564H21.7171L22.007 19.3443L21.4188 19.5653H21.4176L21.3548 19.5895Z" fill="#1D1A1A"/>
<path d="M21.2729 19.3758L21.2221 19.2465L21.1738 19.1185L21.9516 19.0847L22.2547 19.0726L22.5603 19.0593L22.7898 19.0485L22.3997 19.1958H22.3985L22.053 19.3262L22.0084 19.3444H22.0072L21.7173 19.3564H21.7161L21.4142 19.3685L21.2729 19.3758Z" fill="#D3D2D2"/>
<path d="M49.896 6.52557L47.8924 5.55577L48.3622 5.30698L47.9491 4.54129L47.5772 4.73815L47.9262 2.79492L43.9166 5.08597L43.0869 7.10528L20.6631 18.9289L21.0773 19.6946L43.5434 7.84803L45.6581 8.37097L49.896 6.52557Z" fill="#231F20"/>
<path d="M26.245 16.8214L26.0203 16.9409L23.5059 18.2658L21.9515 19.0846L21.6858 19.2259L21.6846 19.2272H21.6834L21.4141 19.3685L21.2945 19.4313L21.1774 19.4941L21.1315 19.5182L21.0385 19.3467L20.9213 19.1293L20.8416 18.982L21.0723 18.8588H21.0735L21.6882 18.5351L23.2305 17.7223L25.7462 16.3963L28.257 15.0714L30.7679 13.7489L33.2775 12.4253L33.2787 12.4241L35.792 11.0992L43.1483 7.21999L43.1905 7.19825L44.0226 5.17652L47.746 3.04852L47.4006 4.97846L47.8946 4.7188L48.1832 5.25382L47.6035 5.56058L49.583 6.51951L45.6458 8.23447L43.5263 7.71032L36.0662 11.6427L33.5517 12.9687L31.0433 14.2912L28.5324 15.6161L26.2486 16.819L26.245 16.8214ZM48.182 5.54971L48.5407 5.3613L48.0033 4.36614L47.7533 4.49657L48.1047 2.54248L43.8125 4.99657L42.9816 7.01226L35.6712 10.8685L33.1556 12.1946L30.6435 13.5183L28.1302 14.8431L25.617 16.1692H25.6158L23.0868 17.5037L20.6001 18.8141L20.4854 18.8745L20.9225 19.6849L21.0216 19.8697L21.0614 19.8491L21.1895 19.7815L21.2124 19.7694L21.5808 19.575L22.0216 19.3431L22.053 19.3262L22.2909 19.2006H22.2933L22.5602 19.0593L23.5952 18.5134L26.1254 17.1801L28.2003 16.0859V16.0847L28.6399 15.8528L31.1532 14.5291L33.6652 13.2042L36.1797 11.8782L43.5601 7.98689L45.67 8.50742L50.2074 6.53279L48.182 5.54971Z" fill="white"/>
</svg>
