<svg width="136" height="160" viewBox="0 0 136 160" fill="none" xmlns="http://www.w3.org/2000/svg">
<g filter="url(#filter0_dd_265_230)">
<path d="M53.8607 78.3105L48.7202 65.191C48.2302 63.949 46.6184 63.684 45.7493 64.6486C42.1435 68.3006 38.7843 72.2731 35.6654 76.5723C32.5343 80.89 29.6466 85.5806 27.0054 90.641C25.2765 93.9478 33.1999 99.2578 35.4774 100.099C36.2232 100.373 37.0276 100.118 37.4899 99.5229C42.6397 93.4424 47.8757 87.3619 54.1165 82.36C55.4448 81.2875 54.3384 79.534 53.8607 78.3105ZM46.4242 69.0464L50.8806 80.4185C45.2346 85.1275 40.316 90.7026 35.5761 96.2962C33.3602 95.2607 31.622 93.7259 30.5311 91.5193C32.9688 86.9273 35.6377 82.6436 38.5254 78.6464C41.0186 75.2163 43.6505 72.0235 46.4242 69.0464Z" fill="#1A2E05"/>
<path fill-rule="evenodd" clip-rule="evenodd" d="M53.0098 80.9787L47.071 65.8283C39.9612 73.0183 33.7574 81.518 28.5737 91.457C29.8774 94.6837 32.3398 97.0413 36.0904 98.4313C41.7178 91.7837 46.883 85.8881 53.0098 80.9787Z" fill="#C5D7EB"/>
<path fill-rule="evenodd" clip-rule="evenodd" d="M38.8394 75.2766C35.0733 80.1798 31.6432 85.57 28.5675 91.4625C28.8942 92.2885 29.3041 93.0497 29.791 93.7585C32.201 87.5979 35.2058 81.4372 38.8394 75.2766Z" fill="#F7FEE7"/>
<path fill-rule="evenodd" clip-rule="evenodd" d="M53.0098 80.9787L47.071 65.8283C44.171 68.753 41.4251 71.8996 38.8456 75.268C42.026 77.601 43.8967 81.9248 45.0154 88.3721C47.5672 85.7124 50.1806 83.2377 53.0098 80.9787Z" fill="#90AFCF"/>
<mask id="mask0_265_230" style="mask-type:luminance" maskUnits="userSpaceOnUse" x="18" y="87" width="22" height="27">
<path d="M39.2588 87.1492H18.0001V113.974H39.2588V87.1492Z" fill="white"/>
</mask>
<g mask="url(#mask0_265_230)">
<path d="M27.5823 92.6106C28.4329 93.7602 29.416 94.8265 30.4977 95.8281C31.826 97.0577 33.2806 98.1857 34.7969 99.2767L33.3145 101.89C32.8646 102.698 33.4933 105.551 33.4316 106.935C29.681 107.955 31.1634 106.368 28.6085 109.604C28.4852 109.761 28.3527 109.921 28.2202 110.082C25.4003 109.194 22.867 107.706 21.7144 104.833C22.9287 100.5 25.0305 96.2965 27.5823 92.6106ZM32.9354 93.1931C31.2774 91.6614 29.6194 88.6381 28.815 88.0094C28.0322 87.3961 26.8981 87.5286 26.2879 88.3084C22.6266 92.9712 19.6588 98.5925 18.1333 104.337C18.01 104.691 18.0008 105.092 18.1241 105.48C19.2335 108.824 21.5449 111.003 24.4264 112.421C25.6499 113.025 28.8921 114.717 30.1525 113.308C30.5778 112.84 30.9939 112.359 31.4192 111.82C31.675 111.49 31.9246 111.163 32.1557 110.818C32.5903 110.763 33.0402 110.692 33.484 110.606C34.2021 110.455 34.9294 110.251 35.6197 109.992C36.2854 109.798 36.8093 109.222 36.8956 108.485C37.022 107.484 37.0559 106.464 37.0035 105.437C36.9665 104.648 36.8802 103.859 36.7539 103.086L38.6769 99.6835C39.1639 98.8853 38.9512 97.822 38.1715 97.2796C36.2947 95.9514 34.4856 94.6292 32.9354 93.1931Z" fill="#1A2E05"/>
</g>
<path fill-rule="evenodd" clip-rule="evenodd" d="M27.7046 89.4176C29.6893 93.273 33.2797 96.0313 37.1628 98.7341C36.4078 100.072 35.6466 101.421 34.8915 102.759C35.2459 104.593 35.363 106.42 35.1319 108.254C33.8375 108.753 32.3675 109.052 31.1347 109.089C30.4444 110.276 29.6369 111.197 28.8295 112.103C25.2761 111.182 21.3067 109.336 19.8428 104.904C21.3159 99.2487 24.2838 93.7692 27.7046 89.4176Z" fill="#65A30D"/>
<path fill-rule="evenodd" clip-rule="evenodd" d="M34.3436 96.6967C35.2466 97.387 36.1958 98.0619 37.1543 98.7338C36.3992 100.071 35.638 101.421 34.883 102.759C35.2374 104.592 35.3545 106.42 35.1234 108.254C33.829 108.753 32.3589 109.052 31.1262 109.089C30.4359 110.275 29.6284 111.197 28.821 112.103C27.767 109.576 28.8672 108.494 30.5314 105.471C32.0292 102.759 34.0077 99.1159 34.3436 96.6967Z" fill="#4D7C0F"/>
<path fill-rule="evenodd" clip-rule="evenodd" d="M27.703 89.4186C27.8879 89.7822 28.0944 90.1367 28.307 90.4818C24.5379 95.9799 22.3929 100.729 21.1078 104.923C22.8891 108.344 25.5672 110.535 28.8186 112.113C25.2652 111.192 21.2958 109.346 19.8319 104.914C21.3143 99.2497 24.2821 93.7702 27.703 89.4186Z" fill="#BDE5FF"/>
<path fill-rule="evenodd" clip-rule="evenodd" d="M32.4723 105.853L30.5307 110.472L32.6233 110.038L32.4723 105.853Z" fill="#1A2E05"/>
<path d="M84.765 80.4273L89.2214 69.0553C95.5146 75.7922 100.797 83.3983 105.115 91.5282C104.024 93.744 102.285 95.2665 100.07 96.3051C95.3296 90.7115 90.4172 85.1364 84.765 80.4273ZM86.9347 65.1814L81.5291 78.982C81.0946 80.0914 80.3241 81.3766 81.5383 82.3597C87.776 87.3708 93.0152 93.442 98.165 99.5225C98.6241 100.117 99.4316 100.373 100.177 100.099C102.455 99.2575 110.378 93.9474 108.649 90.6406C103.669 81.0838 97.4808 72.3251 89.9056 64.6482C89.7268 64.4448 89.4957 64.2846 89.2307 64.1798C88.3184 63.8254 87.2891 64.2753 86.9347 65.1814Z" fill="#1A2E05"/>
<path fill-rule="evenodd" clip-rule="evenodd" d="M82.645 80.9787L88.5838 65.8283C95.6936 73.0183 101.897 81.518 107.081 91.457C105.777 94.6837 103.315 97.0413 99.5552 98.4313C93.9369 91.7837 88.7687 85.8881 82.645 80.9787Z" fill="#C5D7EB"/>
<path fill-rule="evenodd" clip-rule="evenodd" d="M96.8183 75.2766C100.584 80.1798 104.014 85.57 107.09 91.4625C106.76 92.2885 106.354 93.0497 105.867 93.7585C103.457 87.5979 100.443 81.4372 96.8183 75.2766Z" fill="#F7FEE7"/>
<path fill-rule="evenodd" clip-rule="evenodd" d="M82.6449 80.9787L88.5836 65.8283C91.4806 68.753 94.2296 71.8996 96.8091 75.268C93.6255 77.601 91.7579 81.9248 90.6392 88.3721C88.0874 85.7124 85.474 83.2377 82.6449 80.9787Z" fill="#90AFCF"/>
<mask id="mask1_265_230" style="mask-type:luminance" maskUnits="userSpaceOnUse" x="96" y="87" width="22" height="27">
<path d="M118 87.1492H96.0633V113.974H118V87.1492Z" fill="white"/>
</mask>
<g mask="url(#mask1_265_230)">
<path d="M106.31 88.6739C104.403 92.3198 100.769 94.9702 97.4654 97.2754C96.6857 97.824 96.4731 98.878 96.96 99.6762L98.8831 103.082C98.5903 104.863 98.5102 106.687 98.7321 108.478C98.8214 109.215 99.3423 109.791 100.008 109.985C101.117 110.404 102.295 110.688 103.472 110.82C104.076 111.705 104.766 112.512 105.475 113.31C107.028 115.048 111.966 112.105 113.115 111.307C115.032 109.97 116.644 108.114 117.504 105.482C118 103.975 115.109 97.6822 114.339 96.1567C112.896 93.3121 111.183 90.6525 109.34 88.3103C108.526 87.2378 106.859 87.4597 106.31 88.6739ZM108.064 92.6126C110.616 96.2985 112.718 100.502 113.923 104.826C113.303 106.388 112.274 107.523 111.069 108.355C109.962 109.125 108.693 109.668 107.417 110.065C107.284 109.905 107.152 109.748 107.028 109.587C106.329 108.691 105.867 107.335 104.572 107.291C103.792 107.264 102.97 107.122 102.215 106.919C102.162 105.723 102.828 102.77 102.332 101.874L100.849 99.2601C103.5 97.3617 106.113 95.2537 108.064 92.6126Z" fill="#1A2E05"/>
</g>
<path fill-rule="evenodd" clip-rule="evenodd" d="M107.949 89.4176C105.965 93.273 102.384 96.0313 98.4912 98.7341C99.2463 100.072 100.008 101.421 100.759 102.759C100.405 104.593 100.291 106.42 100.522 108.254C101.817 108.753 103.287 109.052 104.519 109.089C105.21 110.276 106.017 111.197 106.825 112.103C110.378 111.182 114.347 109.336 115.811 104.904C114.338 99.2487 111.361 93.7692 107.949 89.4176Z" fill="#65A30D"/>
<path fill-rule="evenodd" clip-rule="evenodd" d="M101.312 96.6967C100.406 97.387 99.46 98.0619 98.5015 98.7338C99.2566 100.071 100.018 101.421 100.77 102.759C100.415 104.592 100.301 106.42 100.532 108.254C101.827 108.753 103.297 109.052 104.53 109.089C105.22 110.275 106.027 111.197 106.832 112.103C107.889 109.576 106.789 108.494 105.121 105.471C103.624 102.759 101.648 99.1159 101.312 96.6967Z" fill="#4D7C0F"/>
<path fill-rule="evenodd" clip-rule="evenodd" d="M107.95 89.4176C107.762 89.7813 107.559 90.1357 107.346 90.4808C111.112 95.9789 113.257 100.728 114.542 104.922C112.761 108.343 110.086 110.534 106.832 112.112C110.388 111.191 114.357 109.345 115.821 104.913C114.33 99.2487 111.362 93.7692 107.95 89.4176Z" fill="#BDE5FF"/>
<path fill-rule="evenodd" clip-rule="evenodd" d="M103.175 105.853L105.123 110.472L103.033 110.038L103.175 105.853Z" fill="#1A2E05"/>
<mask id="mask2_265_230" style="mask-type:luminance" maskUnits="userSpaceOnUse" x="39" y="56" width="54" height="78">
<path d="M92.1189 56.3792H39.2589V133.98H92.1189V56.3792Z" fill="white"/>
</mask>
<g mask="url(#mask2_265_230)">
<path d="M86.1366 60.4111C87.6621 69.9771 88.2908 81.2444 88.2292 92.7058C88.1583 105.517 87.2091 118.59 85.6682 129.895C83.6835 130.197 81.7511 130.363 79.7911 130.419C77.8588 130.471 75.8833 130.409 73.8277 130.249C73.4979 122.732 73.0202 115.222 71.8584 107.776C71.7012 106.741 69.2111 106.1 66.7456 106.066C65.0875 106.038 62.0396 106.1 61.6944 108.192C60.4987 115.444 58.7235 122.591 56.7203 129.654C54.224 129.734 51.6784 129.716 49.216 129.583C47.1573 129.469 45.1634 129.281 43.2865 128.998C45.5886 117.475 46.9909 106.235 47.7275 94.9217C48.4609 83.6298 48.5226 72.2454 48.1528 60.4203C60.8161 60.4573 73.4733 60.3679 86.1366 60.4111ZM91.6593 92.7151C91.7302 80.4647 91.0121 68.4424 89.2924 58.4079C89.1599 57.6004 88.4511 56.981 87.6097 56.981C81.6618 56.9532 75.7138 56.9625 69.7689 56.9717C62.5543 56.9902 55.3304 57.0087 48.1158 56.981C46.7967 56.981 44.5963 56.7252 44.6672 58.7469C45.1017 71.0774 45.0678 82.9271 44.2974 94.6998C43.5793 105.711 42.2325 116.643 40.0228 127.82C39.7578 129.167 38.7839 131.694 40.9474 132.092C43.4529 132.563 46.2019 132.862 49.028 133.023C51.9712 133.183 55.0191 133.192 58.0054 133.05C58.7697 133.069 59.4786 132.573 59.7005 131.799C61.7653 124.585 63.6175 117.296 64.8934 109.896C66.16 109.912 67.4359 109.903 68.7056 109.859C69.7412 117.148 70.1664 124.557 70.4592 131.907C70.4962 132.758 71.1496 133.466 72.0094 133.547C74.7492 133.812 77.3287 133.929 79.8712 133.858C82.4507 133.787 84.9501 133.537 87.4865 133.094C88.2015 132.97 88.787 132.394 88.8949 131.639C90.5591 119.94 91.5884 106.189 91.6593 92.7151Z" fill="#1A2E05"/>
</g>
<path fill-rule="evenodd" clip-rule="evenodd" d="M87.6004 58.6921C91.1815 79.6055 90.3648 109.185 87.1936 131.384C82.238 132.262 77.5227 132.352 72.1695 131.818C71.8429 123.806 71.3621 115.756 70.1571 108.036C68.0121 108.211 65.4788 108.184 63.4325 108.131C62.1288 116.144 60.1441 123.938 58.0238 131.313C52.2731 131.587 46.245 131.322 41.237 130.391C46.2296 106.307 47.2281 83.4794 46.3713 58.6828C59.6295 58.7537 74.3515 58.6397 87.6004 58.6921Z" fill="#C5D7EB"/>
<path fill-rule="evenodd" clip-rule="evenodd" d="M43.8062 130.808C42.7276 130.694 42.2314 130.604 41.2452 130.401C46.0591 107.167 47.1654 85.1101 46.4566 61.3274C50.95 77.7968 48.993 108.018 43.8062 130.808Z" fill="#90AFCF"/>
<path fill-rule="evenodd" clip-rule="evenodd" d="M74.2275 131.996C73.7221 131.978 72.6774 131.888 72.1719 131.817C71.8453 123.805 71.3645 115.755 70.1595 108.035L72.9178 107.733C73.6697 114.913 74.4402 123.395 74.2275 131.996Z" fill="#90AFCF"/>
<path fill-rule="evenodd" clip-rule="evenodd" d="M89.3823 74.0359C90.6952 92.6164 89.6473 114.211 87.1942 131.383C86.4915 131.506 85.7919 131.614 85.0923 131.713C87.5917 114.461 88.7782 93.6457 89.3823 74.0359Z" fill="#F7FEE7"/>
<path d="M86.1381 60.4107C87.0965 66.4234 87.7006 73.0957 87.9995 80.073C88.3385 87.8023 88.2923 95.8983 87.9471 103.874C74.8492 106.925 60.1365 106.934 46.9646 104.303C47.7104 96.9955 48.1265 89.8147 48.296 82.52C48.4624 75.3054 48.3915 68.0075 48.1542 60.4292C54.2409 60.4477 60.6141 60.4385 66.9874 60.42C73.4747 60.4015 79.9528 60.3861 86.1381 60.4107ZM91.4296 79.922C91.1368 73.1234 90.5605 66.6084 89.6668 60.7035C89.4634 59.3752 89.4973 56.9899 87.6112 56.9806C80.9821 56.9529 73.9894 56.9621 66.9967 56.9806C60.42 56.9899 53.8341 57.0084 47.5594 56.9806C46.3082 56.9806 44.607 56.8913 44.6686 58.7465C44.9522 66.9196 45.0508 74.729 44.8751 82.4306C44.6964 90.0736 44.2341 97.6426 43.402 105.39C43.2602 106.287 43.8365 107.156 44.7395 107.341C58.8852 110.417 75.0526 110.497 89.1984 107.11C90.2 106.873 91.2694 106.642 91.3402 105.31C91.7316 96.8383 91.7933 88.1752 91.4296 79.922Z" fill="#1A2E05"/>
<path fill-rule="evenodd" clip-rule="evenodd" d="M87.6006 58.6921C89.8965 72.0612 90.3835 88.9744 89.613 105.234C76.9928 108.396 60.7176 109.053 45.0926 105.65C46.7691 90.0284 46.954 75.0845 46.3777 58.6828C59.6297 58.7537 74.3517 58.6397 87.6006 58.6921Z" fill="#65A30D"/>
<path fill-rule="evenodd" clip-rule="evenodd" d="M47.814 106.208C46.7693 106.029 46.1313 105.897 45.0928 105.659C46.6799 90.8818 46.9295 76.7053 46.4673 61.3268C47.0806 63.5766 49.5861 65.0929 49.694 67.8326C50.0823 77.6977 49.207 92.6169 47.814 106.208Z" fill="#4D7C0F"/>
<path fill-rule="evenodd" clip-rule="evenodd" d="M89.2309 72.1028C90.0815 81.4655 90.251 94.2028 89.6038 105.233C89.009 105.381 88.4142 105.526 87.804 105.658C88.5744 95.2598 88.9196 82.5472 89.2309 72.1028Z" fill="#BDE5FF"/>
<path fill-rule="evenodd" clip-rule="evenodd" d="M87.6007 58.6921C88.3712 62.9574 88.929 67.1764 89.2402 72.1228C81.7698 72.9302 74.6415 73.3987 67.6857 72.9641C60.7916 72.7977 53.7896 72.3262 46.6613 71.4941C46.6274 67.2997 46.5288 63.0467 46.3778 58.6828C59.6298 58.7537 74.3518 58.6397 87.6007 58.6921Z" fill="#4D7C0F"/>
<path d="M78.8789 52.2196C78.5522 57.505 78.1084 62.7873 77.5229 68.0727C76.9281 73.4782 76.1761 78.8777 75.2454 84.2925C70.2836 84.6407 65.3464 84.6561 60.3816 84.3017C59.5587 78.9824 58.8653 73.5769 58.2921 68.0881C57.7219 62.7688 57.272 57.3725 56.8898 51.9207L78.8789 52.2196ZM80.9437 68.4517C81.5293 63.151 81.9731 57.8317 82.309 52.4877C82.3891 51.1564 82.8421 48.8357 80.7218 48.808L56.3659 48.4721C55.0808 48.4536 53.2039 48.3118 53.3272 50.2811C53.7248 56.3801 54.2302 62.4329 54.8681 68.4333C55.4999 74.3751 56.2611 80.2522 57.1826 86.0491C57.2535 86.872 57.9099 87.5562 58.7605 87.627C64.7424 88.1417 70.8322 88.114 76.814 87.627C77.5937 87.5839 78.2779 87.0076 78.4197 86.2001C79.4552 80.323 80.2873 74.3997 80.9437 68.4517Z" fill="#1A2E05"/>
<path fill-rule="evenodd" clip-rule="evenodd" d="M80.697 50.5275C80.0221 62.3803 78.7894 74.1777 76.706 85.9072C70.7704 86.3849 64.8316 86.4219 58.8929 85.9072C57.0407 74.3133 55.8449 62.3526 55.0375 50.1731C63.5989 50.2871 72.1418 50.4135 80.697 50.5275Z" fill="#C5D7EB"/>
<path fill-rule="evenodd" clip-rule="evenodd" d="M79.0117 58.6821C78.6666 63.4714 78.2228 68.239 77.6742 73.0097C74.315 73.0898 70.9927 73.0713 67.7044 72.9727C64.5116 72.8833 61.2941 72.7262 58.052 72.4673C57.5651 67.9216 57.1552 63.3388 56.81 58.7099C64.1418 58.7099 71.717 58.676 79.0117 58.6821Z" fill="#90AFCF"/>
<path fill-rule="evenodd" clip-rule="evenodd" d="M67.8709 94.7086C64.4593 93.3187 61.2696 91.562 58.2833 89.4355C64.6442 89.941 71.036 89.9841 77.4524 89.4355C74.4137 91.5713 71.2209 93.3279 67.8709 94.7086Z" fill="#1A2E05"/>
<path fill-rule="evenodd" clip-rule="evenodd" d="M82.7005 117.802L76.9467 118.043C76.62 118.061 76.3611 118.336 76.3704 118.671L76.4505 120.579C76.469 120.906 76.7433 121.165 77.0792 121.155L82.833 120.915C83.1597 120.897 83.4155 120.622 83.4093 120.286L83.3292 118.379C83.3107 118.052 83.0364 117.793 82.7005 117.802Z" fill="#1A2E05"/>
<path d="M61.5001 79.0193C60.8252 79.0625 60.3105 79.648 60.3475 80.323C60.3999 81.1828 60.5417 82.1228 60.6403 82.9918C60.7358 83.9287 61.5155 84.0643 61.9963 84.1167C66.0551 84.5513 70.2464 84.542 74.3052 84.089C74.9 84.0274 75.35 83.5404 75.3962 82.9641L75.6798 80.3846C75.7414 79.8083 75.3592 79.3368 74.8384 79.1519C73.2235 78.5755 63.8393 78.8683 61.5001 79.0193Z" fill="#1A2E05"/>
<path fill-rule="evenodd" clip-rule="evenodd" d="M74.4587 80.2425C72.3415 80.1007 70.1688 80.0483 68.0146 80.0483C65.8604 80.0483 63.7 80.1007 61.5735 80.2425L61.857 82.8559C63.9126 83.087 65.959 83.1949 68.0146 83.1949C70.0702 83.1949 72.1196 83.087 74.1752 82.8559L74.4587 80.2425Z" fill="#EAB308"/>
<path fill-rule="evenodd" clip-rule="evenodd" d="M72.2407 80.2425C70.8508 80.1007 69.4239 80.0483 68.0124 80.0483C66.604 80.0483 65.1771 80.1007 63.7872 80.2425L63.9721 82.8559C65.3189 83.087 66.6656 83.1949 68.0124 83.1949C69.3592 83.1949 70.709 83.087 72.0558 82.8559L72.2407 80.2425Z" fill="#FACC15"/>
<path fill-rule="evenodd" clip-rule="evenodd" d="M89.142 117.963C82.8859 118.85 76.6451 119.214 70.4259 119.044C70.4506 119.488 70.4783 119.941 70.503 120.382C76.753 120.588 82.9907 120.206 89.2222 119.3C89.1975 118.859 89.1698 118.416 89.142 117.963Z" fill="#1A2E05"/>
<path fill-rule="evenodd" clip-rule="evenodd" d="M49.0883 117.519L54.8329 117.972C55.1595 118 55.4092 118.293 55.3814 118.619L55.2304 120.518C55.2058 120.844 54.913 121.094 54.5832 121.066L48.8417 120.613C48.512 120.589 48.2654 120.296 48.2932 119.966L48.4411 118.071C48.4688 117.741 48.7616 117.494 49.0883 117.519Z" fill="#1A2E05"/>
<path fill-rule="evenodd" clip-rule="evenodd" d="M42.6471 117.448C48.8693 118.557 55.0885 119.143 61.3108 119.204C61.2676 119.648 61.2307 120.089 61.1875 120.533C54.9375 120.517 48.7183 119.913 42.5207 118.779C42.5577 118.335 42.6008 117.892 42.6471 117.448Z" fill="#1A2E05"/>
<path d="M107.559 27.3364C106.628 27.133 105.706 26.9481 104.766 26.7785C103.836 26.609 102.942 27.2316 102.772 28.1715C102.72 28.489 102.748 28.9235 102.757 29.2533C102.791 37.0874 102.276 44.9245 101.099 52.6723C100.957 53.6123 101.604 54.4906 102.544 54.6324C103.632 54.7926 107.038 54.3735 108.314 54.2595C109.5 54.1547 109.784 53.2671 109.944 52.3179C111.238 44.8197 111.796 37.2661 111.627 29.6508C111.593 27.7986 108.89 27.6291 107.559 27.3364ZM108.215 31.0161C108.286 37.6914 107.771 44.3482 106.683 50.9341C106.052 50.9896 105.432 51.0328 104.803 51.0759C105.734 44.2773 106.169 37.4171 106.184 30.5538C106.868 30.6956 107.543 30.8466 108.215 31.0161Z" fill="#1A2E05"/>
<path fill-rule="evenodd" clip-rule="evenodd" d="M109.907 29.6786C108.092 29.1886 106.283 28.791 104.468 28.4644C104.545 36.921 103.996 45.0663 102.801 52.922C104.6 52.8326 106.382 52.7001 108.154 52.5398C109.491 45.0139 110.086 37.4418 109.907 29.6786Z" fill="#BED2E8"/>
<path fill-rule="evenodd" clip-rule="evenodd" d="M104.369 35.9288C104.255 39.1986 104.033 42.4253 103.722 45.6089C105.593 45.6613 107.408 45.689 109.165 45.7044C109.519 42.675 109.756 39.6239 109.864 36.5482C108.101 36.3263 106.265 36.1229 104.369 35.9288Z" fill="#F7FEE7"/>
<path d="M29.3969 30.1039C30.0718 29.9529 30.7529 29.8204 31.4279 29.6879C31.2861 36.5481 31.5696 43.4176 32.3401 50.2346C31.7114 50.1822 31.0919 50.1206 30.4602 50.0497C29.5233 43.4361 29.1596 36.7792 29.3969 30.1039ZM27.3783 27.0344C26.6232 27.1947 26.0469 27.8419 26.013 28.6401C25.6679 36.1475 26.0377 43.6579 27.1287 51.0945C27.5293 53.8065 28.8483 53.3565 31.4463 53.5938C32.3062 53.674 33.1013 53.7449 33.8194 53.7972C34.9905 53.8866 36.177 53.3288 35.9921 51.8927C34.9812 44.0216 34.6638 36.0704 34.8919 28.1439C34.9288 26.9574 34.4851 25.6784 32.9256 25.9188C31.0642 26.23 29.2305 26.5937 27.3783 27.0344Z" fill="#1A2E05"/>
<path fill-rule="evenodd" clip-rule="evenodd" d="M27.7309 28.7204C29.5553 28.2766 31.3798 27.913 33.1981 27.6295C32.9238 36.0861 33.2875 44.2437 34.2891 52.124C32.4893 51.9915 30.7079 51.822 28.9451 51.6186C27.7925 44.065 27.3672 36.4775 27.7309 28.7204Z" fill="#BED2E8"/>
<path fill-rule="evenodd" clip-rule="evenodd" d="M33.1199 35.0934C33.1661 38.3725 33.3079 41.5992 33.5452 44.7828C31.6745 44.792 29.85 44.7736 28.1026 44.7489C27.8191 41.7071 27.6619 38.6592 27.6157 35.5804C29.3877 35.4047 31.2245 35.2445 33.1199 35.0934Z" fill="#F7FEE7"/>
<path d="M101.958 16.2202C102.738 30.8929 102.054 47.9756 99.6255 62.4696C94.5035 63.1168 89.4338 63.576 84.4258 63.8595C73.8088 64.4636 63.0038 64.3403 52.4053 63.4866C47.3696 63.0798 42.3092 62.5127 37.2334 61.7423C35.1408 47.1959 34.8758 30.0947 35.9914 15.4497C47.5483 13.9951 58.2732 13.3232 68.9888 13.4465C79.6859 13.5698 90.4108 14.4913 101.958 16.2202ZM105.318 14.7132C105.308 13.8811 104.695 13.1537 103.845 13.0305C91.6589 11.1505 80.367 10.1489 69.0227 10.0164C57.7493 9.88388 46.4759 10.6081 34.2994 12.2045C33.4489 12.2507 32.7369 12.9041 32.6661 13.7732C31.3285 29.2256 31.6398 48.1328 34.0159 63.4804C34.1115 64.2139 34.6785 64.8272 35.449 64.9505C41.1319 65.8381 46.6885 66.4853 52.1311 66.926C62.8282 67.7858 73.8982 67.9122 84.6138 67.3081C90.0471 66.9968 95.576 66.4853 101.194 65.7487C101.983 65.7117 102.667 65.1354 102.809 64.331C105.54 49.0481 106.292 30.1841 105.318 14.7132Z" fill="#1A2E05"/>
<path fill-rule="evenodd" clip-rule="evenodd" d="M103.598 14.7318C104.403 27.4167 103.829 48.8603 101.117 64.0107C89.8871 65.49 79.002 66.0663 68.3943 65.9338C57.7865 65.8197 46.9107 64.9938 35.7266 63.2495C33.369 48.0374 33.2981 26.5846 34.3953 13.9244C58.708 10.7346 79.3318 10.9904 103.598 14.7318Z" fill="#65A30D"/>
<path fill-rule="evenodd" clip-rule="evenodd" d="M103.599 14.7318C104.289 25.6447 103.962 43.0448 102.126 57.3354C102.277 43.7475 102.905 28.668 101.284 16.7782C87.1477 13.8011 70.9988 12.2756 53.4877 12.0907C70.1482 11.1322 85.9088 12.0013 103.599 14.7318Z" fill="#BDE5FF"/>
<path fill-rule="evenodd" clip-rule="evenodd" d="M101.119 64.0106C89.8886 65.4899 79.0035 66.0662 68.3957 65.9337C57.788 65.8197 46.9121 64.9938 35.7281 63.2494C34.3536 54.3737 33.7588 43.3838 33.7156 33.2414C34.7265 42.9123 35.7989 52.5307 37.685 61.388C58.7803 64.5592 80.0051 64.3312 101.119 64.0106Z" fill="#4D7C0F"/>
<path d="M83.6655 14.1123C83.4159 30.7512 82.8057 47.3809 81.8318 63.9921C72.3304 64.4266 62.7582 64.2849 53.2846 63.5514C53.5311 46.9279 54.1352 30.3167 55.109 13.7209C64.6443 13.2524 74.1457 13.3572 83.6655 14.1123ZM87.1141 13.0213C87.1295 11.958 86.8737 10.9287 85.5547 10.8147C74.873 9.88395 64.1235 9.77609 53.4171 10.3616C52.5388 10.3894 51.8114 11.089 51.7591 11.9827C50.739 28.9606 50.101 45.9725 49.8452 62.9751C49.8267 64.3465 49.3737 66.698 51.3862 66.8551C62.0216 67.752 72.8266 67.9122 83.4868 67.3544C84.3743 67.3359 85.1109 66.6363 85.1633 65.7303C86.2265 48.1883 86.8737 30.6002 87.1141 13.0213Z" fill="#1A2E05"/>
<path fill-rule="evenodd" clip-rule="evenodd" d="M85.4041 12.5251C85.2869 21.2653 85.0743 30.0239 84.7291 39.1708C84.3932 48.3209 83.9587 57.0703 83.444 65.6347C78.3558 65.8998 73.3417 65.9891 68.386 65.9244C62.8387 65.8628 57.2266 65.6162 51.5283 65.1355C51.6454 56.3522 51.8735 47.1159 52.2125 37.9751C52.5484 28.8343 52.9552 20.5811 53.4699 12.0813C64.2194 11.4865 74.7316 11.6036 85.4041 12.5251Z" fill="#C5D7EB"/>
<path fill-rule="evenodd" clip-rule="evenodd" d="M85.4041 12.525L85.3856 14.2878C75.4928 12.8979 64.9375 12.2045 53.4884 12.0812C63.9913 11.4433 74.9257 11.5234 85.4041 12.525Z" fill="#F7FEE7"/>
<path fill-rule="evenodd" clip-rule="evenodd" d="M83.542 64.1518L83.4526 65.6404C72.8788 66.2259 62.1724 66.0749 51.5369 65.1442L51.5554 62.9468C62.2094 64.2227 72.8449 64.2751 83.542 64.1518Z" fill="#90AFCF"/>
<path fill-rule="evenodd" clip-rule="evenodd" d="M97.4807 20.2975C98.1556 30.0485 97.7026 46.5395 95.4713 58.1859C86.1918 59.32 77.1866 59.7484 68.4126 59.6313C59.6386 59.5357 50.6519 58.8885 41.3971 57.5387C39.4401 45.8369 39.3599 29.349 40.2537 19.6072C60.5138 17.2773 77.575 17.4807 97.4807 20.2975Z" fill="#1A2E05"/>
<path fill-rule="evenodd" clip-rule="evenodd" d="M81.054 30.0946C77.7379 30.1378 75.1153 34.2336 75.1769 39.2416C75.2478 44.2527 77.9876 48.2745 81.3005 48.2314C84.6166 48.1882 87.2393 44.0924 87.1776 39.0752C87.1068 34.0733 84.367 30.0484 81.054 30.0946Z" fill="#FACC15"/>
<path fill-rule="evenodd" clip-rule="evenodd" d="M55.5956 30.44C52.2826 30.4832 49.6569 34.579 49.7216 39.5962C49.7925 44.6073 52.5292 48.6322 55.8453 48.586C59.1583 48.5429 61.784 44.4471 61.7193 39.4298C61.6484 34.4218 58.9117 30.3969 55.5956 30.44Z" fill="#FACC15"/>
</g>
<defs>
<filter id="filter0_dd_265_230" x="0.0361328" y="0" width="135.524" height="159.878" filterUnits="userSpaceOnUse" color-interpolation-filters="sRGB">
<feFlood flood-opacity="0" result="BackgroundImageFix"/>
<feColorMatrix in="SourceAlpha" type="matrix" values="0 0 0 0 0 0 0 0 0 0 0 0 0 0 0 0 0 0 127 0" result="hardAlpha"/>
<feOffset dy="4"/>
<feGaussianBlur stdDeviation="2"/>
<feColorMatrix type="matrix" values="0 0 0 0 0 0 0 0 0 0 0 0 0 0 0 0 0 0 0.3 0"/>
<feBlend mode="normal" in2="BackgroundImageFix" result="effect1_dropShadow_265_230"/>
<feColorMatrix in="SourceAlpha" type="matrix" values="0 0 0 0 0 0 0 0 0 0 0 0 0 0 0 0 0 0 127 0" result="hardAlpha"/>
<feMorphology radius="6" operator="dilate" in="SourceAlpha" result="effect2_dropShadow_265_230"/>
<feOffset dy="8"/>
<feGaussianBlur stdDeviation="6"/>
<feColorMatrix type="matrix" values="0 0 0 0 0 0 0 0 0 0 0 0 0 0 0 0 0 0 0.15 0"/>
<feBlend mode="normal" in2="effect1_dropShadow_265_230" result="effect2_dropShadow_265_230"/>
<feBlend mode="normal" in="SourceGraphic" in2="effect2_dropShadow_265_230" result="shape"/>
</filter>
</defs>
</svg>
