<svg width="70" height="87" viewBox="0 0 70 87" fill="none" xmlns="http://www.w3.org/2000/svg">
<path d="M25.1024 47.8172L21.5041 38.6336C21.161 37.7642 20.0328 37.5787 19.4244 38.2539C16.9004 40.8103 14.5489 43.5911 12.3657 46.6005C10.1739 49.6229 8.15255 52.9063 6.30374 56.4486C5.0935 58.7633 10.6399 62.4804 12.2342 63.0693C12.7562 63.2613 13.3193 63.0823 13.6429 62.6659C17.2477 58.4095 20.913 54.1532 25.2815 50.6519C26.2113 49.9012 25.4368 48.6737 25.1024 47.8172ZM19.8969 41.3324L23.0163 49.2928C19.0642 52.5892 15.6211 56.4917 12.3032 60.4072C10.7521 59.6824 9.53537 58.608 8.77169 57.0634C10.4781 53.849 12.3463 50.8504 14.3677 48.0524C16.113 45.6513 17.9553 43.4163 19.8969 41.3324Z" fill="#083344"/>
<path fill-rule="evenodd" clip-rule="evenodd" d="M24.5071 49.6855L20.35 39.0802C15.3731 44.1132 11.0304 50.063 7.40187 57.0203C8.31441 59.279 10.0381 60.9293 12.6635 61.9022C16.6027 57.249 20.2184 53.122 24.5071 49.6855Z" fill="#C5D7EB"/>
<path fill-rule="evenodd" clip-rule="evenodd" d="M14.5854 45.6945C11.9492 49.1267 9.54816 52.8998 7.39518 57.0246C7.62385 57.6027 7.91077 58.1356 8.25163 58.6318C9.93863 54.3193 12.042 50.0069 14.5854 45.6945Z" fill="#ECFEFF"/>
<path fill-rule="evenodd" clip-rule="evenodd" d="M24.5071 49.6855L20.35 39.0802C18.32 41.1275 16.3978 43.3301 14.5921 45.688C16.8185 47.3211 18.128 50.3478 18.9111 54.8608C20.6973 52.9991 22.5267 51.2668 24.5071 49.6855Z" fill="#90AFCF"/>
<mask id="mask0_265_230" style="mask-type:luminance" maskUnits="userSpaceOnUse" x="0" y="54" width="15" height="19">
<path d="M14.8811 54.0043H6.89104e-05V72.7814H14.8811V54.0043Z" fill="white"/>
</mask>
<g mask="url(#mask0_265_230)">
<path d="M6.70695 57.8271C7.30237 58.6318 7.99055 59.3782 8.74776 60.0793C9.67755 60.9401 10.6958 61.7297 11.7572 62.4933L10.7195 64.3227C10.4046 64.8879 10.8446 66.8856 10.8015 67.8542C8.17607 68.5683 9.21373 67.4573 7.42533 69.7224C7.33904 69.8325 7.24628 69.9446 7.15351 70.0568C5.17959 69.4355 3.40629 68.3935 2.59946 66.3829C3.44944 63.3498 4.92071 60.4072 6.70695 57.8271ZM10.4542 58.2348C9.29355 57.1627 8.13293 55.0463 7.56987 54.6063C7.02192 54.177 6.22803 54.2697 5.80089 54.8155C3.23802 58.0795 1.16054 62.0144 0.0926819 66.0356C0.00639001 66.2837 -8.18832e-05 66.5642 0.08621 66.836C0.862837 69.1766 2.48081 70.7018 4.49788 71.6942C5.35433 72.117 7.6238 73.3014 8.50614 72.3155C8.80385 71.9876 9.09508 71.6511 9.39279 71.2735C9.57184 71.0427 9.74658 70.814 9.90838 70.5724C10.2126 70.5336 10.5275 70.484 10.8382 70.4236C11.3408 70.3178 11.8499 70.1755 12.3332 69.9943C12.7992 69.8583 13.1659 69.4549 13.2263 68.9393C13.3148 68.2382 13.3385 67.5241 13.3018 66.8058C13.2759 66.2535 13.2155 65.7012 13.1271 65.1598L14.4732 62.7781C14.8141 62.2194 14.6652 61.4751 14.1194 61.0954C12.8056 60.1656 11.5393 59.2401 10.4542 58.2348Z" fill="#083344"/>
</g>
<path fill-rule="evenodd" clip-rule="evenodd" d="M6.79332 55.5921C8.18262 58.2909 10.6959 60.2217 13.4141 62.1136C12.8855 63.0499 12.3527 63.9948 11.8241 64.931C12.0722 66.2146 12.1542 67.4939 11.9924 68.7775C11.0863 69.127 10.0573 69.3362 9.19439 69.3621C8.71116 70.1927 8.14594 70.8377 7.58073 71.472C5.09337 70.8269 2.31477 69.5347 1.29005 66.4325C2.32124 62.4739 4.39872 58.6382 6.79332 55.5921Z" fill="#0891B2"/>
<path fill-rule="evenodd" clip-rule="evenodd" d="M11.4403 60.6877C12.0723 61.1709 12.7368 61.6434 13.4077 62.1137C12.8792 63.0499 12.3463 63.9948 11.8178 64.9311C12.0659 66.2147 12.1479 67.494 11.9861 68.7775C11.08 69.127 10.051 69.3363 9.18804 69.3622C8.70481 70.1927 8.1396 70.8378 7.57439 71.472C6.83659 69.703 7.60674 68.9458 8.77168 66.8295C9.82013 64.9311 11.2051 62.3812 11.4403 60.6877Z" fill="#0E7490"/>
<path fill-rule="evenodd" clip-rule="evenodd" d="M6.79328 55.5921C6.92272 55.8467 7.06725 56.0948 7.21611 56.3364C4.57773 60.185 3.07625 63.5094 2.17666 66.4455C3.42358 68.8401 5.29827 70.3739 7.57422 71.4784C5.08686 70.8334 2.30826 69.5412 1.28354 66.439C2.3212 62.4739 4.39868 58.6382 6.79328 55.5921Z" fill="#BDE5FF"/>
<path fill-rule="evenodd" clip-rule="evenodd" d="M10.1306 67.097L8.77152 70.3308L10.2363 70.0267L10.1306 67.097Z" fill="#083344"/>
<path d="M46.7357 49.2993L49.8551 41.3389C54.2603 46.0547 57.958 51.3789 60.9803 57.0699C60.2166 58.621 58.9999 59.6867 57.4488 60.4137C54.1309 56.4982 50.6922 52.5957 46.7357 49.2993ZM48.2544 38.6272L44.4705 48.2875C44.1664 49.0642 43.627 49.9638 44.477 50.6519C48.8434 54.1597 52.5108 58.4096 56.1156 62.6659C56.4371 63.0823 57.0023 63.2613 57.5243 63.0693C59.1186 62.4804 64.665 58.7634 63.4547 56.4486C59.9686 49.7588 55.6367 43.6278 50.3341 38.254C50.2089 38.1116 50.0471 37.9994 49.8616 37.926C49.2231 37.678 48.5025 37.9929 48.2544 38.6272Z" fill="#083344"/>
<path fill-rule="evenodd" clip-rule="evenodd" d="M45.2515 49.6855L49.4086 39.0802C54.3855 44.1132 58.7281 50.063 62.3567 57.0203C61.4442 59.279 59.7205 60.9293 57.0886 61.9022C53.1558 57.249 49.538 53.122 45.2515 49.6855Z" fill="#C5D7EB"/>
<path fill-rule="evenodd" clip-rule="evenodd" d="M55.173 45.6945C57.8092 49.1267 60.2103 52.8998 62.3633 57.0246C62.1325 57.6027 61.8477 58.1356 61.5068 58.6318C59.8198 54.3193 57.71 50.0069 55.173 45.6945Z" fill="#ECFEFF"/>
<path fill-rule="evenodd" clip-rule="evenodd" d="M45.2516 49.6855L49.4087 39.0802C51.4365 41.1275 53.3608 43.3301 55.1665 45.688C52.938 47.3211 51.6307 50.3478 50.8476 54.8608C49.0614 52.9991 47.232 51.2668 45.2516 49.6855Z" fill="#90AFCF"/>
<mask id="mask1_265_230" style="mask-type:luminance" maskUnits="userSpaceOnUse" x="54" y="54" width="16" height="19">
<path d="M70 54.0043H54.6444V72.7814H70V54.0043Z" fill="white"/>
</mask>
<g mask="url(#mask1_265_230)">
<path d="M61.8173 55.07C60.4819 57.6221 57.9384 59.4774 55.6258 61.0911C55.08 61.475 54.9312 62.2128 55.272 62.7716L56.6182 65.1554C56.4132 66.4023 56.3571 67.6794 56.5125 68.9328C56.575 69.4484 56.9396 69.8518 57.4056 69.9877C58.1822 70.2811 59.0063 70.4796 59.8304 70.5724C60.2532 71.1915 60.7364 71.7567 61.2326 72.3155C62.3199 73.5322 65.7759 71.472 66.5806 70.9132C67.9224 69.977 69.0507 68.6783 69.6526 66.8359C69.9999 65.781 67.9763 61.3758 67.437 60.308C66.4274 58.3168 65.2279 56.455 63.9379 54.8155C63.3683 54.0647 62.2012 54.2201 61.8173 55.07ZM63.0448 57.8271C64.831 60.4072 66.3023 63.3497 67.1458 66.3764C66.7122 67.4702 65.9916 68.2641 65.1481 68.8465C64.3736 69.3859 63.4848 69.7655 62.5917 70.0438C62.499 69.9317 62.4062 69.8216 62.3199 69.7094C61.8302 69.0817 61.5066 68.1325 60.6005 68.1023C60.0547 68.0828 59.4787 67.9836 58.9502 67.8412C58.9135 67.0042 59.3795 64.9375 59.0322 64.3097L57.9945 62.4803C59.8498 61.1515 61.6792 59.6759 63.0448 57.8271Z" fill="#083344"/>
</g>
<path fill-rule="evenodd" clip-rule="evenodd" d="M62.965 55.5921C61.5757 58.2909 59.0689 60.2217 56.3443 62.1136C56.8728 63.0499 57.4056 63.9948 57.932 64.931C57.6839 66.2146 57.6041 67.4939 57.7659 68.7775C58.672 69.127 59.701 69.3362 60.5639 69.3621C61.0472 70.1927 61.6124 70.8377 62.1776 71.472C64.6649 70.8269 67.4435 69.5347 68.4683 66.4325C67.4371 62.4739 65.3531 58.6382 62.965 55.5921Z" fill="#0891B2"/>
<path fill-rule="evenodd" clip-rule="evenodd" d="M58.3182 60.6877C57.6839 61.1709 57.0216 61.6434 56.3507 62.1137C56.8792 63.0499 57.4121 63.9948 57.9385 64.9311C57.6904 66.2147 57.6106 67.494 57.7724 68.7775C58.6784 69.127 59.7074 69.3363 60.5704 69.3622C61.0536 70.1927 61.6188 70.8378 62.1819 71.472C62.9218 69.703 62.1517 68.9458 60.9846 66.8295C59.9361 64.9311 58.5533 62.3812 58.3182 60.6877Z" fill="#0E7490"/>
<path fill-rule="evenodd" clip-rule="evenodd" d="M62.9651 55.5921C62.8335 55.8467 62.6911 56.0948 62.5423 56.3364C65.1785 60.185 66.68 63.5094 67.5796 66.4455C66.3327 68.8401 64.4601 70.3739 62.182 71.4784C64.6715 70.8334 67.4501 69.5412 68.4749 66.439C67.4307 62.4739 65.3532 58.6382 62.9651 55.5921Z" fill="#BDE5FF"/>
<path fill-rule="evenodd" clip-rule="evenodd" d="M59.6212 67.097L60.9846 70.3308L59.522 70.0267L59.6212 67.097Z" fill="#083344"/>
<mask id="mask2_265_230" style="mask-type:luminance" maskUnits="userSpaceOnUse" x="14" y="32" width="38" height="55">
<path d="M51.8831 32.4659H14.8811V86.7866H51.8831V32.4659Z" fill="white"/>
</mask>
<g mask="url(#mask2_265_230)">
<path d="M47.6957 35.2877C48.7636 41.9839 49.2037 49.871 49.1605 57.894C49.1109 66.8619 48.4465 76.0131 47.3678 83.9261C45.9785 84.1375 44.6259 84.254 43.2539 84.2928C41.9012 84.3295 40.5184 84.2864 39.0795 84.1742C38.8487 78.9125 38.5143 73.6552 37.701 68.4432C37.591 67.7183 35.8479 67.2696 34.122 67.2459C32.9614 67.2265 30.8278 67.2696 30.5862 68.7344C29.7492 73.8105 28.5066 78.8133 27.1043 83.7578C25.3569 83.8139 23.575 83.801 21.8513 83.7082C20.4102 83.6284 19.0145 83.4968 17.7007 83.2983C19.3122 75.2322 20.2938 67.3645 20.8093 59.4451C21.3228 51.5407 21.3659 43.5717 21.1071 35.2941C29.9714 35.32 38.8314 35.2575 47.6957 35.2877ZM51.5616 57.9005C51.6112 49.3252 51.1086 40.9096 49.9048 33.8854C49.812 33.3202 49.3159 32.8866 48.7269 32.8866C44.5633 32.8672 40.3998 32.8737 36.2383 32.8801C31.1881 32.8931 26.1314 32.906 21.0812 32.8866C20.1578 32.8866 18.6175 32.7075 18.6672 34.1227C18.9713 42.7541 18.9476 51.0489 18.4083 59.2898C17.9056 66.9978 16.9629 74.6497 15.4161 82.4742C15.2306 83.417 14.5489 85.1859 16.0633 85.4642C17.8172 85.7943 19.7415 86.0036 21.7197 86.1157C23.7799 86.2279 25.9135 86.2344 28.0039 86.1352C28.5389 86.1481 29.0351 85.8008 29.1904 85.2593C30.6358 80.2091 31.9324 75.1071 32.8255 69.9274C33.7121 69.9382 34.6053 69.9317 35.4941 69.9015C36.2189 75.0035 36.5166 80.1896 36.7216 85.3348C36.7475 85.9302 37.2048 86.4264 37.8067 86.4825C39.7245 86.668 41.5302 86.75 43.31 86.7004C45.1156 86.6508 46.8652 86.476 48.6406 86.1654C49.1411 86.0791 49.551 85.6757 49.6265 85.1471C50.7915 76.958 51.512 67.3322 51.5616 57.9005Z" fill="#083344"/>
</g>
<path fill-rule="evenodd" clip-rule="evenodd" d="M48.7205 34.0839C51.2272 48.7233 50.6556 69.4291 48.4357 84.9681C44.9668 85.5829 41.6661 85.6455 37.9189 85.2722C37.6902 79.6633 37.3537 74.0284 36.5102 68.6244C35.0087 68.7473 33.2354 68.7279 31.8029 68.6913C30.8904 74.3002 29.5011 79.756 28.0169 84.9184C23.9914 85.1104 19.7717 84.9249 16.2661 84.2734C19.7609 67.4141 20.4599 51.435 19.8602 34.0774C29.1408 34.1271 39.4462 34.0472 48.7205 34.0839Z" fill="#C5D7EB"/>
<path fill-rule="evenodd" clip-rule="evenodd" d="M18.0653 84.5646C17.3103 84.4848 16.963 84.4222 16.2726 84.2798C19.6423 68.016 20.4168 52.5762 19.9206 35.9283C23.0659 47.4569 21.6961 68.6114 18.0653 84.5646Z" fill="#90AFCF"/>
<path fill-rule="evenodd" clip-rule="evenodd" d="M39.3577 85.3974C39.0039 85.3844 38.2726 85.3219 37.9188 85.2722C37.6901 79.6633 37.3536 74.0284 36.5101 68.6244L38.4408 68.413C38.9672 73.4395 39.5065 79.3763 39.3577 85.3974Z" fill="#90AFCF"/>
<path fill-rule="evenodd" clip-rule="evenodd" d="M49.9674 44.8251C50.8864 57.8314 50.1529 72.9476 48.4357 84.9681C47.9438 85.0543 47.4541 85.1298 46.9644 85.1989C48.714 73.1223 49.5446 58.552 49.9674 44.8251Z" fill="#ECFEFF"/>
<path d="M47.6956 35.2877C48.3665 39.4965 48.7894 44.1671 48.9986 49.0512C49.2359 54.4617 49.2036 60.1289 48.962 65.712C39.7935 67.8477 29.4945 67.8542 20.2742 66.0119C20.7963 60.8969 21.0875 55.8704 21.2062 50.7641C21.3227 45.7139 21.2731 40.6054 21.107 35.3006C25.3676 35.3135 29.8289 35.3071 34.2902 35.2941C38.8313 35.2812 43.3659 35.2704 47.6956 35.2877ZM51.3997 48.9455C51.1948 44.1865 50.7914 39.626 50.1657 35.4926C50.0234 34.5628 50.0471 32.8931 48.7268 32.8866C44.0865 32.8672 39.1916 32.8736 34.2967 32.8866C29.693 32.8931 25.0828 32.906 20.6906 32.8866C19.8147 32.8866 18.6239 32.824 18.667 34.1227C18.8655 39.8439 18.9346 45.3105 18.8116 50.7015C18.6865 56.0516 18.3629 61.35 17.7804 66.7734C17.6812 67.4012 18.0846 68.0095 18.7167 68.139C28.6187 70.292 39.9358 70.348 49.8378 67.9772C50.5389 67.8111 51.2875 67.6493 51.3371 66.7173C51.6111 60.7869 51.6543 54.7227 51.3997 48.9455Z" fill="#083344"/>
<path fill-rule="evenodd" clip-rule="evenodd" d="M48.7205 34.0839C50.3277 43.4423 50.6685 55.2815 50.1292 66.6634C41.2951 68.8768 29.9024 69.3363 18.9649 66.9546C20.1385 56.0193 20.2679 45.5586 19.8645 34.0774C29.1409 34.1271 39.4463 34.0472 48.7205 34.0839Z" fill="#0891B2"/>
<path fill-rule="evenodd" clip-rule="evenodd" d="M20.8699 67.3451C20.1385 67.2199 19.692 67.1272 18.965 66.9611C20.076 56.6168 20.2507 46.6933 19.9271 35.9283C20.3564 37.5032 22.1103 38.5646 22.1858 40.4824C22.4576 47.3879 21.8449 57.8314 20.8699 67.3451Z" fill="#0E7490"/>
<path fill-rule="evenodd" clip-rule="evenodd" d="M49.8617 43.4725C50.4571 50.0263 50.5758 58.9424 50.1227 66.6634C49.7064 66.767 49.29 66.8684 48.8629 66.9611C49.4022 59.6824 49.6438 50.7836 49.8617 43.4725Z" fill="#BDE5FF"/>
<path fill-rule="evenodd" clip-rule="evenodd" d="M48.7205 34.0839C49.2598 37.0696 49.6503 40.0229 49.8682 43.4854C44.6389 44.0506 39.6491 44.3785 34.78 44.0743C29.9542 43.9579 25.0528 43.6278 20.063 43.0453C20.0392 40.1092 19.9702 37.1322 19.8645 34.0774C29.1409 34.1271 39.4463 34.0472 48.7205 34.0839Z" fill="#0E7490"/>
<path d="M42.6152 29.5535C42.3865 33.2533 42.0759 36.9509 41.666 40.6507C41.2496 44.4346 40.7233 48.2142 40.0718 52.0045C36.5985 52.2483 33.1425 52.2591 29.6671 52.011C29.0911 48.2875 28.6057 44.5036 28.2045 40.6615C27.8054 36.938 27.4904 33.1605 27.2229 29.3443L42.6152 29.5535ZM44.0606 40.916C44.4705 37.2055 44.7811 33.482 45.0163 29.7412C45.0724 28.8093 45.3895 27.1848 43.9053 27.1654L26.8562 26.9303C25.9566 26.9173 24.6428 26.8181 24.7291 28.1966C25.0074 32.4659 25.3612 36.7028 25.8077 40.9031C26.25 45.0623 26.7828 49.1763 27.4278 53.2342C27.4775 53.8102 27.937 54.2891 28.5324 54.3387C32.7197 54.699 36.9825 54.6796 41.1698 54.3387C41.7156 54.3085 42.1945 53.9051 42.2938 53.3399C43.0186 49.2259 43.6011 45.0796 44.0606 40.916Z" fill="#083344"/>
<path fill-rule="evenodd" clip-rule="evenodd" d="M43.8879 28.3692C43.4155 36.6661 42.5526 44.9243 41.0942 53.1349C36.9393 53.4693 32.7822 53.4952 28.6251 53.1349C27.3285 45.0192 26.4915 36.6467 25.9263 28.1211C31.9193 28.2009 37.8993 28.2894 43.8879 28.3692Z" fill="#C5D7EB"/>
<path fill-rule="evenodd" clip-rule="evenodd" d="M42.708 34.0774C42.4664 37.4299 42.1557 40.7672 41.7717 44.1067C39.4203 44.1628 37.0947 44.1498 34.7929 44.0808C32.5579 44.0183 30.3057 43.9082 28.0362 43.727C27.6954 40.545 27.4085 37.3371 27.1668 34.0968C32.2991 34.0968 37.6017 34.0731 42.708 34.0774Z" fill="#90AFCF"/>
<path fill-rule="evenodd" clip-rule="evenodd" d="M34.9094 59.2962C32.5213 58.3232 30.2885 57.0936 28.1981 55.605C32.6507 55.9588 37.125 55.989 41.6165 55.605C39.4894 57.1 37.2544 58.3297 34.9094 59.2962Z" fill="#083344"/>
<path fill-rule="evenodd" clip-rule="evenodd" d="M45.2904 75.4609L41.2627 75.6291C41.034 75.6421 40.8528 75.8341 40.8593 76.0692L40.9154 77.4046C40.9283 77.6333 41.1203 77.8145 41.3555 77.808L45.3831 77.6397C45.6118 77.6268 45.7909 77.4348 45.7865 77.1996L45.7305 75.8643C45.7175 75.6356 45.5255 75.4544 45.2904 75.4609Z" fill="#083344"/>
<path d="M30.4503 48.3134C29.9779 48.3436 29.6176 48.7535 29.6435 49.226C29.6802 49.8279 29.7794 50.4858 29.8484 51.0942C29.9153 51.75 30.4611 51.8449 30.7976 51.8816C33.6388 52.1858 36.5727 52.1793 39.4139 51.8622C39.8303 51.819 40.1452 51.4782 40.1776 51.0748L40.376 49.2691C40.4192 48.8657 40.1517 48.5356 39.7871 48.4062C38.6567 48.0028 32.0877 48.2077 30.4503 48.3134Z" fill="#083344"/>
<path fill-rule="evenodd" clip-rule="evenodd" d="M39.5195 49.1698C38.0375 49.0706 36.5166 49.0339 35.0086 49.0339C33.5007 49.0339 31.9884 49.0706 30.4999 49.1698L30.6983 50.9992C32.1373 51.161 33.5697 51.2365 35.0086 51.2365C36.4475 51.2365 37.8821 51.161 39.3211 50.9992L39.5195 49.1698Z" fill="#EAB308"/>
<path fill-rule="evenodd" clip-rule="evenodd" d="M37.9685 49.1698C36.9956 49.0706 35.9967 49.0339 35.0087 49.0339C34.0228 49.0339 33.024 49.0706 32.051 49.1698L32.1805 50.9992C33.1232 51.161 34.066 51.2365 35.0087 51.2365C35.9514 51.2365 36.8963 51.161 37.8391 50.9992L37.9685 49.1698Z" fill="#FACC15"/>
<path fill-rule="evenodd" clip-rule="evenodd" d="M49.7991 75.573C45.4198 76.1943 41.0513 76.4489 36.6979 76.3302C36.7151 76.6409 36.7345 76.958 36.7518 77.2665C41.1268 77.411 45.4932 77.1435 49.8552 76.5093C49.838 76.2008 49.8186 75.8901 49.7991 75.573Z" fill="#083344"/>
<path fill-rule="evenodd" clip-rule="evenodd" d="M21.7628 75.2624L25.784 75.5795C26.0126 75.599 26.1874 75.8039 26.168 76.0326L26.0623 77.3615C26.045 77.5901 25.8401 77.7649 25.6092 77.7455L21.5902 77.4283C21.3593 77.4111 21.1868 77.2061 21.2062 76.9753L21.3097 75.6486C21.3291 75.4177 21.5341 75.2452 21.7628 75.2624Z" fill="#083344"/>
<path fill-rule="evenodd" clip-rule="evenodd" d="M17.254 75.2128C21.6096 75.9894 25.963 76.3993 30.3186 76.4424C30.2884 76.7531 30.2625 77.0616 30.2323 77.3722C25.8573 77.3614 21.5039 76.9386 17.1656 76.1447C17.1915 75.8341 17.2217 75.5234 17.254 75.2128Z" fill="#083344"/>
<path d="M62.6912 12.1355C62.0397 11.9931 61.3947 11.8637 60.7367 11.7451C60.0852 11.6264 59.4596 12.0622 59.3409 12.7202C59.3043 12.9424 59.3237 13.2465 59.3301 13.4774C59.3539 18.9612 58.9936 24.4472 58.1695 29.8707C58.0703 30.5286 58.5233 31.1435 59.1813 31.2427C59.9428 31.3549 62.3266 31.0615 63.2197 30.9817C64.0503 30.9083 64.2488 30.287 64.361 29.6226C65.267 24.3739 65.6575 19.0863 65.5388 13.7557C65.5151 12.4591 63.6232 12.3405 62.6912 12.1355ZM63.1507 14.7113C63.2003 19.384 62.8401 24.0438 62.0785 28.654C61.6363 28.6928 61.2027 28.723 60.7626 28.7532C61.4141 23.9942 61.7183 19.192 61.7291 14.3877C62.208 14.487 62.6804 14.5927 63.1507 14.7113Z" fill="#083344"/>
<path fill-rule="evenodd" clip-rule="evenodd" d="M64.335 13.7751C63.0643 13.4321 61.798 13.1538 60.5273 12.9251C60.5813 18.8447 60.1973 24.5465 59.3602 30.0454C60.6201 29.9829 61.867 29.8901 63.1075 29.7779C64.0437 24.5098 64.4601 19.2093 64.335 13.7751Z" fill="#BED2E8"/>
<path fill-rule="evenodd" clip-rule="evenodd" d="M60.4582 18.1501C60.3784 20.439 60.2231 22.6977 60.0052 24.9262C61.3147 24.9628 62.5853 24.9822 63.815 24.993C64.0631 22.8724 64.2292 20.7367 64.3047 18.5837C63.0707 18.4284 61.785 18.286 60.4582 18.1501Z" fill="#ECFEFF"/>
<path d="M7.97765 14.0728C8.4501 13.9671 8.92686 13.8743 9.39931 13.7816C9.30007 18.5837 9.49854 23.3923 10.0379 28.1643C9.59778 28.1276 9.16416 28.0844 8.72192 28.0348C8.0661 23.4053 7.81154 18.7455 7.97765 14.0728ZM6.56462 11.9241C6.03608 12.0363 5.63267 12.4893 5.60894 13.0481C5.36732 18.3033 5.62619 23.5606 6.38988 28.7661C6.67033 30.6646 7.59365 30.3496 9.41225 30.5157C10.0141 30.5718 10.5707 30.6214 11.0734 30.6581C11.8931 30.7206 12.7237 30.3302 12.5943 29.3249C11.8867 23.8151 11.6645 18.2493 11.8241 12.7008C11.85 11.8702 11.5393 10.9749 10.4478 11.1432C9.14475 11.3611 7.86115 11.6156 6.56462 11.9241Z" fill="#083344"/>
<path fill-rule="evenodd" clip-rule="evenodd" d="M6.81284 13.1042C8.08996 12.7935 9.36708 12.539 10.6399 12.3405C10.4479 18.2601 10.7024 23.9705 11.4036 29.4867C10.1437 29.3939 8.89679 29.2753 7.66281 29.1329C6.85598 23.8454 6.55828 18.5341 6.81284 13.1042Z" fill="#BED2E8"/>
<path fill-rule="evenodd" clip-rule="evenodd" d="M10.5836 17.5655C10.616 19.8609 10.7152 22.1195 10.8813 24.348C9.57187 24.3545 8.29475 24.3416 7.07156 24.3243C6.87309 22.195 6.76307 20.0615 6.73071 17.9063C7.97115 17.7834 9.2569 17.6712 10.5836 17.5655Z" fill="#ECFEFF"/>
<path d="M58.7714 4.35419C59.3172 14.6251 58.8382 26.583 57.1383 36.7287C53.5529 37.1818 50.0041 37.5032 46.4985 37.7017C39.0666 38.1245 31.5031 38.0382 24.0842 37.4406C20.5592 37.1559 17.0169 36.7589 13.4638 36.2196C11.999 26.0372 11.8135 14.0663 12.5944 3.81486C20.6843 2.79662 28.1917 2.32633 35.6926 2.41262C43.1806 2.49891 50.688 3.14394 58.7714 4.35419ZM61.1228 3.29927C61.1163 2.7168 60.687 2.20768 60.0916 2.12139C51.5617 0.805435 43.6573 0.104314 35.7163 0.0115498C27.8249 -0.0812141 19.9336 0.425751 11.4101 1.54323C10.8147 1.57559 10.3163 2.03294 10.2667 2.64129C9.33044 13.458 9.54832 26.693 11.2116 37.4363C11.2785 37.9498 11.6754 38.3791 12.2147 38.4654C16.1928 39.0867 20.0824 39.5397 23.8922 39.8482C31.3802 40.4501 39.1292 40.5385 46.6301 40.1157C50.4334 39.8978 54.3036 39.5397 58.2364 39.0241C58.7886 38.9982 59.2675 38.5948 59.3668 38.0317C61.2781 27.3337 61.8045 14.1289 61.1228 3.29927Z" fill="#083344"/>
<path fill-rule="evenodd" clip-rule="evenodd" d="M59.9189 3.31218C60.4819 12.1916 60.0807 27.2021 58.1822 37.8074C50.3211 38.8429 42.7015 39.2463 35.2761 39.1535C27.8506 39.0737 20.2375 38.4955 12.4087 37.2745C10.7584 26.6261 10.7088 11.6091 11.4768 2.74697C28.4957 0.51417 42.9323 0.693226 59.9189 3.31218Z" fill="#0891B2"/>
<path fill-rule="evenodd" clip-rule="evenodd" d="M59.9189 3.31223C60.4021 10.9512 60.1734 23.1313 58.8877 33.1347C58.9934 23.6232 59.4335 13.0675 58.2988 4.74467C48.4032 2.66072 37.099 1.59286 24.8412 1.46342C36.5036 0.792505 47.536 1.40086 59.9189 3.31223Z" fill="#BDE5FF"/>
<path fill-rule="evenodd" clip-rule="evenodd" d="M58.1824 37.8074C50.3212 38.8429 42.7016 39.2463 35.2762 39.1535C27.8508 39.0737 20.2377 38.4955 12.4089 37.2745C11.4467 31.0615 11.0303 23.3686 11.0001 16.2689C11.7077 23.0385 12.4585 29.7714 13.7787 35.9715C28.5454 38.1914 43.4027 38.0317 58.1824 37.8074Z" fill="#0E7490"/>
<path d="M45.9657 2.87858C45.7909 14.5258 45.3638 26.1666 44.6821 37.7944C38.0311 38.0986 31.3306 37.9994 24.699 37.4859C24.8716 25.8495 25.2944 14.2216 25.9762 2.6046C32.6508 2.27669 39.3018 2.35004 45.9657 2.87858ZM48.3797 2.1149C48.3905 1.37063 48.2114 0.650091 47.2881 0.570271C39.8109 -0.0812325 32.2862 -0.156737 24.7918 0.253149C24.177 0.272564 23.6678 0.762271 23.6312 1.38789C22.9171 13.2724 22.4705 25.1807 22.2915 37.0825C22.2785 38.0425 21.9614 39.6885 23.3701 39.7986C30.815 40.4263 38.3785 40.5385 45.8405 40.148C46.4618 40.1351 46.9774 39.6454 47.0141 39.0111C47.7584 26.7318 48.2114 14.4201 48.3797 2.1149Z" fill="#083344"/>
<path fill-rule="evenodd" clip-rule="evenodd" d="M47.1821 1.76758C47.1002 7.88567 46.9513 14.0167 46.7097 20.4196C46.4745 26.8246 46.1704 32.9491 45.8101 38.9443C42.2484 39.1298 38.7385 39.1924 35.2695 39.1471C31.3864 39.1039 27.458 38.9313 23.4691 38.5948C23.5511 32.4465 23.7107 25.9811 23.948 19.5825C24.1832 13.184 24.468 7.40675 24.8282 1.45693C32.3529 1.04057 39.7114 1.12254 47.1821 1.76758Z" fill="#C5D7EB"/>
<path fill-rule="evenodd" clip-rule="evenodd" d="M47.1821 1.76754L47.1692 3.00152C40.2443 2.02858 32.8555 1.54318 24.8412 1.45689C32.1932 1.01033 39.8473 1.06642 47.1821 1.76754Z" fill="#ECFEFF"/>
<path fill-rule="evenodd" clip-rule="evenodd" d="M45.8792 37.9066L45.8166 38.9486C38.4149 39.3585 30.9205 39.2528 23.4756 38.6013L23.4886 37.0631C30.9463 37.9562 38.3912 37.9929 45.8792 37.9066Z" fill="#90AFCF"/>
<path fill-rule="evenodd" clip-rule="evenodd" d="M55.6367 7.20828C56.1092 14.034 55.792 25.5777 54.2302 33.7301C47.7345 34.524 41.4309 34.8238 35.2891 34.7419C29.1473 34.675 22.8566 34.222 16.3782 33.2771C15.0083 25.0858 14.9523 13.5443 15.5779 6.72505C29.7599 5.09413 41.7027 5.23651 55.6367 7.20828Z" fill="#083344"/>
<path fill-rule="evenodd" clip-rule="evenodd" d="M44.136 14.0663C41.8148 14.0965 39.9789 16.9636 40.0221 20.4692C40.0717 23.9769 41.9895 26.7922 44.3086 26.762C46.6299 26.7318 48.4657 23.8648 48.4226 20.3527C48.373 16.8514 46.4551 14.034 44.136 14.0663Z" fill="#FACC15"/>
<path fill-rule="evenodd" clip-rule="evenodd" d="M26.3169 14.3079C23.9978 14.3381 22.1598 17.2052 22.2051 20.7172C22.2547 24.225 24.1704 27.0424 26.4916 27.0101C28.8107 26.9799 30.6487 24.1128 30.6034 20.6008C30.5538 17.0951 28.6381 14.2777 26.3169 14.3079Z" fill="#FACC15"/>
</svg>
