<svg width="41" height="40" viewBox="0 0 41 40" fill="none" xmlns="http://www.w3.org/2000/svg">
<mask id="mask0_147_1358" style="mask-type:luminance" maskUnits="userSpaceOnUse" x="0" y="0" width="41" height="40">
<path d="M0 0H40.0931V40H0V0Z" fill="white"/>
</mask>
<g mask="url(#mask0_147_1358)">
<path fill-rule="evenodd" clip-rule="evenodd" d="M17.9947 0.253973L5.72277 0.512174C5.72277 0.512174 0.427532 0.512174 0.298431 5.49207C0.169331 10.472 0.492082 29.3545 0.232823 32.3302C-0.0253782 35.3048 -0.41268 38.6667 4.23811 39.4434C8.88785 40.2191 32.7207 39.9608 33.9482 39.8963C35.1746 39.8317 40.2127 38.7968 39.6318 33.1704C39.0498 27.5439 39.8254 8.14392 39.8254 6.52699C39.8254 4.91006 39.4381 0.253973 33.9482 0.124873C28.4582 -0.00528607 17.9947 0.253973 17.9947 0.253973Z" fill="#7F1D1D"/>
</g>
<path fill-rule="evenodd" clip-rule="evenodd" d="M20.9629 36.9524L31.6539 36.727C31.6539 36.727 36.2687 36.727 36.3809 32.3884C36.4931 28.0508 36.2116 11.5989 36.437 9.00741C36.6624 6.41587 36.9999 3.48677 32.9481 2.81058C28.8973 2.13439 8.13432 2.35979 7.06448 2.41587C5.9957 2.47196 1.60734 3.37355 2.11316 8.27513C2.62004 13.1767 1.94385 30.0783 1.94385 31.4868C1.94385 32.8952 2.28141 36.9524 7.06448 37.0646C11.8476 37.1778 20.9629 36.9524 20.9629 36.9524Z" fill="#DC2626"/>
<path fill-rule="evenodd" clip-rule="evenodd" d="M20.9629 36.9524L31.6539 36.727C31.6539 36.727 34.8571 36.727 35.9904 34.218L36.002 34.1926L36.0126 34.1672L36.0137 34.1661L36.0454 34.0899L36.056 34.0635L36.0666 34.0381L36.0772 34.0116L36.0973 33.9577L36.1068 33.9312L36.1259 33.8772L36.1354 33.8497L36.1534 33.7936L36.1629 33.7661L36.1798 33.709L36.1883 33.6815L36.1968 33.6529L36.2052 33.6233L36.2317 33.5217L36.2433 33.4751L36.2698 33.3556L36.2761 33.328L36.2772 33.3249L36.2825 33.2942L36.3058 33.1725L36.3121 33.1354C36.3206 33.0825 36.329 33.0296 36.3354 32.9757L36.3364 32.9704C36.3428 32.9175 36.3491 32.8635 36.3544 32.8085L36.3576 32.7831V32.7746C36.3692 32.6508 36.3766 32.5217 36.3809 32.3894L36.3819 32.3291L36.383 32.2836L36.3841 32.2677L36.3851 32.2042L36.3862 32.1746V32.1397L36.3883 32.0741V32.0614L36.3893 32.0063L36.3904 31.9429V31.9376L36.3915 31.8667L36.3925 31.8212V31.7958L36.3936 31.7217L36.3946 31.6942V31.6476L36.3957 31.5725V31.564L36.3968 31.4952L36.3978 31.4296V31.4169L36.3989 31.3365V31.2561L36.3999 31.1735L36.401 31.1492V31.0899L36.402 31.0053V30.9185L36.4031 30.854V30.7429L36.4042 30.7005V30.5439L36.4052 30.4709V30.3778L36.4063 30.2836V30.0921L36.4073 30.0529V29.5936L36.4084 29.5344V28.5238L36.4073 28.4159V27.8222L36.4063 27.7217V27.4868L36.4052 27.4148V27.127L36.4042 27.0053V26.7873L36.4031 26.7608V26.5735L36.402 26.5143V26.3587L36.401 26.2656V26.1397C36.3925 24.182 36.3777 22.018 36.3661 19.9016C36.2888 21.8444 35.1502 29.1598 22.692 33.4815C14.8867 35.1651 6.40416 34.8772 2.63696 34.6265C3.2994 35.8868 4.58405 37.0063 7.06448 37.0645C11.8475 37.1778 20.9629 36.9524 20.9629 36.9524ZM36.3364 32.9704C36.3428 32.9175 36.3491 32.8635 36.3544 32.8085L36.3364 32.9704Z" fill="#B91C1C"/>
<path fill-rule="evenodd" clip-rule="evenodd" d="M21.5767 38.3704L32.4655 38.1407C32.4655 38.1407 37.165 38.1407 37.2793 33.7227C37.3936 29.3048 37.1079 12.5492 37.3364 9.91005C37.5174 7.82645 37.7693 5.53121 35.8423 4.31534C36.7682 5.57142 36.5798 7.35767 36.437 9.0074C36.2126 11.5989 36.4931 28.0508 36.3809 32.3884C36.2687 36.727 31.6539 36.727 31.6539 36.727L20.9629 36.9524C20.9629 36.9524 11.8476 37.1778 7.06449 37.0645C3.96819 36.9915 2.73433 35.2656 2.25073 33.6751C2.4338 35.4614 3.33221 38.3884 7.4211 38.4857C12.292 38.6 21.5767 38.3704 21.5767 38.3704Z" fill="#450A0A"/>
<path fill-rule="evenodd" clip-rule="evenodd" d="M7.88889 4.25926C7.88889 4.25926 3.91217 4.09312 3.8709 6.73016C3.82858 9.36719 3.64551 11.3153 5.30688 11.1238C6.22434 11.019 5.37249 7.03386 7.67831 7C9.98519 6.96719 10.0624 4.21693 7.88889 4.25926ZM11.8646 4.13756C11.8646 4.13756 10.5058 4.01164 10.4222 5.39259C10.3386 6.7746 11.7185 7.08783 12.4921 6.58518C13.2656 6.0836 13.2656 4.1164 11.8646 4.13756Z" fill="white"/>
<path fill-rule="evenodd" clip-rule="evenodd" d="M15.4433 10.4455C15.4433 10.4455 16.9692 12.2296 19.0274 14.4423C20.0327 13.4519 20.8867 12.6 21.4359 12.0169C23.5914 9.72805 25.1449 8.04445 27.4306 10.7217C29.7163 13.3989 29.802 14.5217 28.5089 15.9037C28.5089 15.9037 26.6009 17.5397 24.2835 19.7101C25.2919 20.6222 26.2549 21.4159 27.0877 21.9757C31.2718 24.782 29.1576 26.855 28.3385 27.8487C27.5195 28.8413 25.7935 31.1302 23.0337 28.8413C22.0422 28.0201 20.5787 26.6085 19.0041 25.036C18.1988 25.9429 17.4993 26.8064 16.9935 27.563C14.1893 31.7513 12.1195 29.636 11.1279 28.8148C10.1353 27.9947 7.84961 26.2677 10.1353 23.5037C10.9195 22.5556 12.2422 21.1757 13.7279 19.6794C12.8475 18.7852 12.093 18.0296 11.5618 17.527C9.27607 15.3683 7.59353 13.8138 10.2676 11.5249C12.9417 9.23599 14.0634 9.15027 15.4433 10.4455Z" fill="#450A0A"/>
<path fill-rule="evenodd" clip-rule="evenodd" d="M29.2391 14.8032C29.1068 15.1746 28.8581 15.5302 28.5089 15.9037C28.5089 15.9037 26.6137 17.5291 24.3068 19.6878L24.2835 19.6794V20.9788H24.3163L24.2835 21.0095C25.292 21.9217 26.2549 22.7164 27.0877 23.2751C28.5883 24.2815 29.2782 25.1947 29.5089 25.9958C29.2825 26.7947 28.6909 27.4212 28.3385 27.8487C27.5195 28.8413 25.7936 31.1302 23.0338 28.8413C22.0422 28.0201 20.5788 26.6085 19.0041 25.036C18.1989 25.9429 17.4994 26.8064 16.9936 27.563C14.1904 31.7513 12.1195 29.636 11.128 28.8148C10.5512 28.3386 9.53748 27.5545 9.23801 26.4392C9.36605 25.9407 9.64542 25.3958 10.1354 24.8032C10.9195 23.855 12.2422 22.4751 13.728 20.9788V19.6794C12.8475 18.7852 12.093 18.0296 11.5618 17.527C10.3692 16.4011 9.34171 15.4402 9.0105 14.4529C9.18828 13.9429 9.58616 13.4074 10.2676 12.8243C12.9417 10.5355 14.0634 10.4497 15.4433 11.745C15.4433 11.745 16.9692 13.5291 19.0264 15.7418C20.0327 14.7513 20.8867 13.8995 21.4359 13.3164C23.5915 11.0275 25.1449 9.34392 27.4306 12.0212C28.4348 13.1979 29.0147 14.0741 29.2391 14.8032Z" fill="#7F1D1D"/>
</svg>
