<svg width="100" height="39" viewBox="0 0 100 39" fill="none" xmlns="http://www.w3.org/2000/svg">
<path d="M93.1088 37.1602C63.8027 38.427 34.4967 38.3691 5.19061 36.9835C1.2112 25.8542 1.2112 14.725 5.19061 3.59422C34.4967 2.20864 63.8027 2.15072 93.1088 3.4175C95.5817 3.52443 97.698 5.39118 98.3896 8.02425C100.537 16.2011 100.537 24.378 98.3896 32.5535C97.698 35.1865 95.5817 37.0533 93.1088 37.1602Z" fill="#CA8A04"/>
<path d="M90.9027 34.6509C61.5967 35.9177 32.2906 35.8598 2.98455 34.4742C-0.994851 23.345 -0.994851 12.2157 2.98455 1.08495C32.2906 -0.300641 61.5967 -0.358559 90.9027 0.908222C93.3756 1.01515 95.492 2.88191 96.1836 5.51497C98.3308 13.6919 98.3308 21.8688 96.1836 30.0442C95.492 32.6773 93.3756 34.544 90.9027 34.6509Z" fill="#EAB308"/>
</svg>
