<svg width="50" height="50" viewBox="0 0 50 50" fill="none" xmlns="http://www.w3.org/2000/svg">
<mask id="mask0_163_160" style="mask-type:luminance" maskUnits="userSpaceOnUse" x="1" y="2" width="48" height="47">
<path d="M1.63489 2.00885H48.0349V48.4089H1.63489V2.00885Z" fill="white"/>
</mask>
<g mask="url(#mask0_163_160)">
<path d="M1.63489 25.2073C1.63489 12.3937 12.0224 2.00726 24.8359 2.00726C37.6495 2.00726 48.0364 12.3937 48.0364 25.2073C48.0364 38.0213 37.6495 48.4083 24.8359 48.4083C12.0224 48.4083 1.63489 38.0213 1.63489 25.2073Z" fill="#FACC15"/>
</g>
<mask id="mask1_163_160" style="mask-type:luminance" maskUnits="userSpaceOnUse" x="1" y="24" width="48" height="25">
<path d="M1.63489 24.5333H48.0349V48.4088H1.63489V24.5333Z" fill="white"/>
</mask>
<g mask="url(#mask1_163_160)">
<path d="M24.8359 47.0766C12.2453 47.0766 1.99687 37.0474 1.64478 24.5411C1.63853 24.763 1.63489 24.9849 1.63489 25.2073C1.63489 38.0213 12.0224 48.4083 24.8359 48.4083C37.6495 48.4083 48.0364 38.0213 48.0364 25.2073C48.0364 24.9849 48.0333 24.763 48.0271 24.5411C47.6739 37.0474 37.4266 47.0766 24.8359 47.0766Z" fill="#CA8A04"/>
</g>
<path d="M6.65735 25.2073C6.65735 15.1682 14.7964 7.02917 24.8355 7.02917C34.8751 7.02917 43.0136 15.1682 43.0136 25.2073C43.0136 35.2464 34.8751 43.3854 24.8355 43.3854C14.7964 43.3854 6.65735 35.2464 6.65735 25.2073Z" fill="#EAB308"/>
<path d="M38.9974 21.6005C39.3823 21.2516 39.2006 20.613 38.6902 20.5193L29.873 18.9031C29.6709 18.8661 29.499 18.7312 29.4141 18.5427L25.7474 10.363C25.5349 9.8901 24.8714 9.86458 24.6245 10.3219L20.3631 18.2078C20.2646 18.3891 20.0839 18.5109 19.8787 18.5328L10.9662 19.4927C10.4501 19.5484 10.2214 20.1713 10.5803 20.5479L16.7626 27.038C16.9047 27.187 16.9646 27.3969 16.9219 27.5984L15.0808 36.3713C14.9745 36.8797 15.4969 37.2896 15.9652 37.0656L24.048 33.1906C24.2339 33.101 24.4521 33.1094 24.6308 33.212L32.4053 37.674C32.8558 37.9328 33.4073 37.562 33.3381 37.0479L32.1511 28.1625C32.1235 27.9583 32.1985 27.7536 32.3516 27.6151L38.9974 21.6005Z" fill="#FACC15"/>
</svg>
