<svg width="51" height="50" viewBox="0 0 51 50" fill="none" xmlns="http://www.w3.org/2000/svg">
<mask id="mask0_135_835" style="mask-type:luminance" maskUnits="userSpaceOnUse" x="2" y="19" width="49" height="14">
<path d="M2.85864 19.2989H50.2161V32.5586H2.85864V19.2989Z" fill="white"/>
</mask>
<g mask="url(#mask0_135_835)">
<path d="M44.6959 19.4611C45.8995 19.4338 47.1821 19.427 48.1989 20.0745C49.8782 21.1458 50.1099 23.4643 50.1644 25.4571C50.2148 27.3068 50.1562 29.4195 48.7564 30.6271C47.7109 31.5281 46.2198 31.6399 44.8417 31.7012C32.8047 32.2478 20.75 32.395 8.70342 32.1401C7.598 32.1169 6.43668 32.0733 5.49073 31.5036C3.11086 30.071 2.89278 25.757 3.40528 23.3594C3.95322 20.7996 5.62704 20.3471 7.99055 20.2748C15.6631 20.0418 23.3411 19.9409 31.015 19.7691C35.5758 19.6656 40.1365 19.5633 44.6973 19.4611H44.6959Z" fill="#0891B2"/>
</g>
<path d="M21.771 4.01373C19.7551 5.82385 17.3343 7.53856 18.5611 9.95387C18.8677 10.5577 21.1018 12.5914 21.5925 13.0548C23.0605 14.4437 25.2113 15.1321 27.2 14.7109C29.8498 14.152 31.9707 11.674 32.1151 8.96839C32.2242 6.95381 31.4295 5.25274 30.1769 4.08461C29.7271 3.66616 27.7943 1.518 27.2464 1.24676C25.1336 0.202669 23.8674 2.13001 21.7697 4.01373H21.771Z" fill="#0891B2"/>
<path d="M21.7709 39.1802C19.755 40.9903 17.1352 42.4242 18.3606 44.8409C18.8213 45.7473 21.5433 48.284 22.3802 48.8564C23.7732 49.8092 25.5438 50.2277 27.1999 49.8773C29.8497 49.3185 31.9706 46.8405 32.115 44.1349C32.1832 42.8836 31.9024 41.7536 31.3804 40.7981C30.966 40.0403 28.1677 37.1302 27.5011 36.6163C25.2985 34.918 24.2394 36.9625 21.7696 39.1802H21.7709Z" fill="#0891B2"/>
<path d="M42.3038 17.0676C43.5073 17.0403 44.7913 17.0349 45.8068 17.681C47.4861 18.7523 47.7178 21.0708 47.7723 23.065C47.8241 24.9133 47.7641 27.026 46.3643 28.235C45.3188 29.136 43.8277 29.2464 42.4496 29.3091C30.414 29.8543 18.3579 30.0015 6.31131 29.7466C5.20588 29.7234 4.04457 29.6812 3.09862 29.1101C0.717384 27.6775 0.497934 23.3635 1.0118 20.9659C1.55974 18.4061 3.23356 17.9536 5.59843 17.8813C13.2696 17.6482 20.9476 17.5474 28.6216 17.3756C33.1823 17.272 37.743 17.1698 42.3038 17.0676Z" fill="#06B6D4"/>
<path d="M17.784 28.5621C13.9852 28.5621 10.1346 28.5212 6.33855 28.4422C5.2672 28.419 4.39894 28.3713 3.76922 27.9924C2.07905 26.9742 1.82143 23.4166 2.28759 21.2398C2.597 19.7909 3.1504 19.2621 5.63795 19.1871C10.6076 19.0358 15.6536 18.939 20.5346 18.845C23.2403 18.7932 25.9459 18.7414 28.6515 18.6801L42.3337 18.372C42.5368 18.3679 42.7413 18.3638 42.9471 18.3638C43.69 18.3638 44.5282 18.4129 45.1062 18.7809C46.2211 19.4924 46.4201 21.3639 46.4692 23.099C46.5115 24.6679 46.4774 26.414 45.5124 27.244C44.8131 27.8465 43.6368 27.9474 42.391 28.0033C34.2332 28.374 25.9554 28.5621 17.7867 28.5621H17.784ZM42.9458 18.7359C42.744 18.7359 42.5409 18.74 42.3419 18.7455L28.6597 19.0535C25.9541 19.1149 23.2471 19.1667 20.5414 19.2185C15.6618 19.3111 10.6171 19.4079 5.64885 19.5592C3.24854 19.6328 2.90778 20.1249 2.65289 21.3189C2.21126 23.3771 2.4975 26.7915 3.96277 27.6734C4.51344 28.006 5.33263 28.0482 6.34673 28.07C10.1414 28.1491 13.9893 28.19 17.7854 28.19C25.9486 28.19 34.2223 28.0033 42.3733 27.6325C43.5523 27.5794 44.6605 27.488 45.2697 26.9633C46.1107 26.2395 46.1366 24.5957 46.0957 23.1113C46.0508 21.4729 45.8736 19.7146 44.9058 19.0971C44.4083 18.7809 43.6354 18.7373 42.9471 18.7373L42.9458 18.7359Z" fill="#22D3EE"/>
<path d="M19.3788 1.62024C17.3629 3.43036 16.7632 6.63623 17.9899 9.0529C19.2166 11.4696 22.1581 12.879 24.8078 12.3188C27.4576 11.7585 29.5785 9.28189 29.7243 6.57489C30.0201 1.04776 23.5348 -2.11177 19.3788 1.62024Z" fill="#06B6D4"/>
<path d="M23.6219 11.1356C21.79 11.1356 19.9526 10.037 19.1539 8.46272C18.1997 6.58036 18.6809 4.00148 20.2497 2.59074C21.1875 1.74974 22.3148 1.30539 23.5074 1.30539C24.8609 1.30539 26.1762 1.87378 27.1167 2.86607C27.7642 3.55032 28.5166 4.73616 28.4212 6.50539C28.308 8.61402 26.6029 10.6054 24.5392 11.0416C24.2421 11.1029 23.934 11.1356 23.6233 11.1356H23.6219ZM23.5074 1.67886C22.4061 1.67886 21.3661 2.0905 20.4978 2.8688C19.0475 4.17187 18.6018 6.55446 19.4851 8.2937C20.2225 9.7467 21.9236 10.7622 23.6205 10.7622C23.9068 10.7622 24.1889 10.7335 24.4602 10.6763C26.3671 10.2728 27.9427 8.43273 28.0477 6.48495C28.1349 4.8493 27.4412 3.75477 26.8441 3.12369C25.9745 2.205 24.7573 1.67886 23.506 1.67886H23.5074Z" fill="#22D3EE"/>
<path d="M19.3788 36.7881C17.3629 38.5982 16.7632 41.804 17.9899 44.2207C19.2166 46.6374 22.1581 48.0454 24.8078 47.4866C27.4576 46.9264 29.5785 44.4483 29.7243 41.7427C30.0201 36.2156 23.5348 33.056 19.3788 36.7881Z" fill="#06B6D4"/>
<path d="M23.622 46.3035C21.7901 46.3035 19.9513 45.2035 19.1526 43.6305C18.1985 41.7482 18.6796 39.1693 20.2498 37.7586C21.1862 36.9176 22.3135 36.4732 23.5075 36.4732C24.861 36.4732 26.175 37.0416 27.1155 38.0339C27.7629 38.7181 28.5153 39.904 28.4199 41.6732C28.3068 43.7805 26.6016 45.7732 24.538 46.2094C24.2422 46.2707 23.9328 46.3035 23.622 46.3035ZM23.5075 36.8453C22.4062 36.8453 21.3662 37.2583 20.4979 38.0366C19.0476 39.3397 18.6019 41.7223 19.4852 43.4615C20.2226 44.9145 21.9236 45.93 23.6206 45.93C23.9069 45.93 24.189 45.9014 24.4603 45.8441C26.3672 45.4407 27.9428 43.5992 28.0478 41.6528C28.135 40.0171 27.4412 38.9212 26.8442 38.2901C25.9746 37.3728 24.7574 36.8453 23.5061 36.8453H23.5075Z" fill="#22D3EE"/>
<path d="M17.8959 19.2989C16.7264 20.1249 16.1689 21.7278 16.5724 23.1018C16.9772 24.4757 18.3116 25.5212 19.7414 25.5825C21.1726 25.6452 22.5916 24.7183 23.1122 23.3839C24.3376 20.2421 20.6492 17.3538 17.8959 19.2989Z" fill="#ECFEFF"/>
<path d="M22.0789 24.0913C21.7259 24.995 20.7622 25.6248 19.7931 25.5825C18.8213 25.5389 17.9162 24.8315 17.6436 23.8992C17.5223 23.4902 17.5305 23.0486 17.6436 22.637C17.8004 22.9764 18.1547 23.2217 18.5296 23.2381C18.9508 23.2558 19.3706 22.9818 19.526 22.5865C19.7822 21.9268 19.3052 21.3026 18.7136 21.2085C20.5578 20.1208 22.8845 22.025 22.0789 24.0913Z" fill="#7A2C14"/>
<path d="M26.6657 19.2989C25.4962 20.1249 24.9387 21.7278 25.3421 23.1018C25.7456 24.4757 27.0814 25.5212 28.5112 25.5825C29.941 25.6452 31.3613 24.7183 31.882 23.3839C33.1074 20.2421 29.419 17.3538 26.6657 19.2989Z" fill="#ECFEFF"/>
<path d="M30.8487 24.0913C30.4957 24.995 29.532 25.6248 28.5629 25.5825C27.591 25.5389 26.686 24.8315 26.4134 23.8992C26.2921 23.4875 26.3003 23.0459 26.4134 22.6315C26.5674 22.9737 26.9232 23.2231 27.298 23.2381C27.7205 23.2558 28.1404 22.9818 28.2957 22.5865C28.552 21.9268 28.0736 21.3026 27.4834 21.2085C29.3276 20.1208 31.6543 22.025 30.8487 24.0913Z" fill="#7A2C14"/>
<path d="M24.5132 29.1482C24.0403 29.1482 23.5591 29.0596 23.1611 28.8811C22.3651 28.524 21.9262 28.1641 21.7354 27.18C21.6972 26.9783 21.8281 26.782 22.0311 26.7425C22.2315 26.7029 22.4278 26.8351 22.4673 27.0382C22.5982 27.7129 22.8204 27.9106 23.4664 28.1996C24.0866 28.4776 25.0339 28.4681 25.5764 28.1764C26.0317 27.9324 26.1775 27.5507 26.3193 27.0764C26.3779 26.8801 26.5851 26.7684 26.7827 26.827C26.979 26.8856 27.0921 27.0941 27.0321 27.2918C26.8972 27.7429 26.6928 28.4245 25.9281 28.8334C25.5396 29.0419 25.0298 29.1482 24.5132 29.1482Z" fill="#7A2C14"/>
</svg>
