<svg width="495" height="102" viewBox="0 0 495 102" fill="none" xmlns="http://www.w3.org/2000/svg">
<mask id="mask0_288_240" style="mask-type:luminance" maskUnits="userSpaceOnUse" x="0" y="0" width="495" height="102">
<path d="M0 0H494.422V102H0V0Z" fill="white"/>
</mask>
<g mask="url(#mask0_288_240)">
<path d="M309.37 -1.03314e-06C305.146 0.0260403 300.922 0.552082 296.818 1.54167C290.953 2.96875 285.307 5.32812 280.219 8.58333C275.589 11.5469 271.417 15.2552 268.063 19.625C266.188 22.0573 264.578 24.6979 263.255 27.4688C261.057 32.0625 259.651 37.026 259.094 42.0781C258.448 47.7865 258.849 53.5781 260.021 59.1927C261.089 64.3698 262.787 69.4375 265.271 74.1094C267.474 78.2656 270.302 82.1042 273.672 85.3906C276.745 88.3906 280.25 90.9427 284.042 92.9479C289.427 95.7865 295.396 97.4323 301.443 97.9792C305.917 98.3802 310.438 98.1771 314.87 97.4531C320.182 96.5729 325.365 94.9167 330.208 92.5469C335.568 89.9167 340.505 86.3698 344.604 82.0104C344.682 81.8854 344.682 82.099 344.719 82.1563C346.099 86.3333 347.479 90.5156 348.86 94.6927C358.625 95.2552 368.391 95.8125 378.151 96.3802C380.229 91.9583 382.302 87.5365 384.38 83.1146C384.557 85.6198 384.729 88.125 384.901 90.6302C396.099 89.8542 407.297 89.0833 418.5 88.3021C418.375 89.2552 418.255 90.1979 418.136 91.1406C430.672 92.776 443.214 94.3958 455.75 96.0312C455.693 95.8906 455.807 95.9271 455.896 95.9427C468.745 97.6042 481.589 99.2708 494.427 100.932C488.979 90.3385 483.542 79.7448 478.094 69.151C480.474 67.2813 482.5 64.9635 484.068 62.3698C485.547 59.9323 486.62 57.2656 487.349 54.5208C487.833 52.6875 488.177 50.8229 488.375 48.9427C488.745 45.2292 488.36 41.4167 487.094 37.8958C485.594 33.651 482.922 29.8385 479.5 26.9167C476.068 23.9583 471.964 21.8437 467.651 20.5104C464.849 19.6354 461.948 19.0781 459.031 18.7292C452.36 17.8646 445.677 16.9948 439 16.1302C438.849 13.974 438.703 11.8125 438.557 9.65625C418.906 11.0156 399.261 12.3698 379.615 13.7292C379.74 15.5781 379.87 17.4271 379.99 19.276C377.995 19.1615 375.99 19.0469 373.99 18.9323C371.818 23.1823 369.651 27.4323 367.485 31.6823C365.849 27.2135 364.224 22.75 362.594 18.2812C356.948 17.9531 351.302 17.6302 345.651 17.3073C342.917 13.7187 339.656 10.5365 335.958 7.95833C332.37 5.44271 328.386 3.49479 324.203 2.1875C319.412 0.677082 314.386 -0.0156264 309.37 -1.03314e-06ZM56.6199 0.390624C53.2501 0.401041 49.8803 0.546873 46.5366 0.953124C40.1199 1.67187 33.7657 3.24479 27.8595 5.88542C22.8803 8.10417 18.2189 11.0833 14.2241 14.8073C10.9012 17.8906 8.047 21.4844 5.82825 25.4375C3.70845 29.2031 2.15637 33.276 1.20325 37.4896C0.093871 42.401 -0.218629 47.4792 0.145954 52.5052C0.531371 58.0156 1.70325 63.4844 3.77616 68.6094C5.37512 72.5469 7.50012 76.2708 10.1095 79.6198C13.0105 83.349 16.4949 86.6146 20.396 89.2812C25.8751 93.026 32.1303 95.599 38.6303 96.9062C45.1616 98.2292 51.9532 98.2917 58.5001 97.0052C63.8178 95.9583 68.9845 93.9792 73.5262 90.9896C75.698 89.5625 77.7293 87.901 79.5418 86.026C84.1251 86.5677 88.7189 87.1042 93.3074 87.6406C94.922 84.3802 96.5418 81.1146 98.1616 77.8438C99.6564 78.0208 101.151 78.1979 102.646 78.3698C103.568 81.9323 104.49 85.5 105.412 89.0625C109.406 89.526 113.401 90 117.396 90.4687C117.792 94.3177 118.188 98.1719 118.589 102.021C130.656 100.76 142.719 99.5052 154.787 98.2396C154.057 91.224 153.333 84.2083 152.604 77.1927C154.896 78.8385 157.188 80.4844 159.474 82.1302C161 80.4219 162.526 78.7135 164.047 77C164.745 83.6875 165.432 90.375 166.13 97.0625C178.464 95.776 190.807 94.4896 203.141 93.2083C203.042 92.224 202.943 91.2448 202.839 90.2604C213.292 91.7604 223.745 93.2552 234.198 94.7552C235.813 83.401 237.427 72.0521 239.042 60.7031C236.537 60.3438 234.031 59.9844 231.526 59.625C231.912 56.901 232.297 54.1771 232.688 51.4583C234.781 51.7552 236.875 52.0573 238.969 52.3594C240.589 40.9948 242.203 29.6354 243.828 18.2656C224.328 15.4792 204.828 12.6875 185.333 9.89062C184.964 12.4844 184.599 15.0677 184.229 17.6562C177.328 18.375 170.432 19.099 163.531 19.8177C160.36 24.0052 157.182 28.1979 154.005 32.3958C149.917 28.9583 145.828 25.5208 141.74 22.0885C136.37 22.6458 131.005 23.2031 125.641 23.7604C124.662 20.3385 123.682 16.9115 122.708 13.4844C113.078 12.3594 103.448 11.2292 93.8178 10.099C89.6876 17.4427 85.5522 24.7865 81.4168 32.1302C80.9532 32.1979 80.4949 32.2656 80.0314 32.3333C78.9532 22.1563 77.8699 11.9844 76.7918 1.80208C73.4324 1.47917 70.0835 1.13541 66.7293 0.812499C63.3699 0.505207 59.9949 0.390624 56.6199 0.390624ZM308.787 41.6719C309.896 41.6875 311.037 41.8906 311.985 42.5C312.865 43.0573 313.542 43.901 313.974 44.8438C314.547 46.0365 314.854 47.3385 315.042 48.6458C315.193 49.849 315.193 51.1146 314.75 52.2552C314.427 53.0938 313.865 53.8229 313.167 54.3802C311.901 55.4219 310.339 56.0625 308.735 56.3698C307.365 56.6302 305.922 56.6302 304.583 56.224C303.49 55.8802 302.542 55.1354 301.901 54.1927C301.344 53.3698 300.995 52.4167 300.74 51.4635C300.485 50.4531 300.297 49.4115 300.292 48.3698C300.287 47.3646 300.485 46.3438 300.969 45.4583C301.323 44.8073 301.828 44.2448 302.406 43.7917C303.636 42.8073 305.125 42.1979 306.656 41.875C307.354 41.7344 308.073 41.6615 308.787 41.6719Z" fill="#333333"/>
</g>
<path d="M306.198 3.2448C300.031 3.27605 293.875 4.50521 288.146 6.79167C282.515 9.03646 277.271 12.3229 272.943 16.5885C270.229 19.2604 267.896 22.3177 266.094 25.6719C263.937 29.6354 262.479 33.9688 261.781 38.4271C260.969 43.599 261.167 48.901 262.099 54.0417C262.625 56.9427 263.354 59.8073 264.328 62.5885C265.745 66.6302 267.703 70.4896 270.234 73.9531C272.864 77.5417 276.114 80.6719 279.807 83.1667C282.161 84.7656 284.687 86.1094 287.338 87.1354C292.708 89.224 298.5 90.0938 304.239 89.9219C310.375 89.7344 316.463 88.375 322.109 85.9635C327.708 83.5781 332.89 80.1302 337.094 75.6927C339.562 73.0885 341.672 70.1354 343.312 66.9375C345.489 73.5208 347.661 80.1042 349.838 86.6875C357.021 87.1042 364.208 87.5156 371.385 87.9271C376.036 78.026 380.687 68.1198 385.344 58.2135C385.89 66.1458 386.432 74.0781 386.979 82.0104C398.599 81.2031 410.213 80.401 421.833 79.599C421.656 80.9635 421.484 82.3281 421.307 83.6875C429.776 84.7917 438.25 85.8906 446.719 86.9896C446.995 84.8333 447.271 82.6771 447.552 80.5208C448.672 82.8229 449.792 85.1302 450.917 87.4323C460.979 88.7344 471.042 90.0365 481.109 91.3386C476.515 82.4167 471.927 73.4896 467.344 64.5625C469.693 63.4844 471.838 61.9531 473.588 60.0365C475.292 58.1823 476.614 55.9844 477.557 53.6458C478.495 51.3125 479.073 48.8385 479.396 46.3542C479.739 43.4375 479.521 40.4323 478.578 37.6406C477.484 34.3698 475.5 31.4219 472.937 29.125C470.281 26.7344 467.088 24.9896 463.724 23.8333C461.036 22.8958 458.229 22.3125 455.401 21.974C447.057 20.8906 438.719 19.8073 430.375 18.724C430.25 16.9115 430.125 15.0938 430 13.2813C414.161 14.3802 398.323 15.474 382.479 16.5677C382.625 18.6719 382.771 20.776 382.917 22.8854C379.989 22.7188 377.068 22.5521 374.151 22.3854C370.552 29.4219 366.958 36.4635 363.364 43.5C360.672 36.1042 357.974 28.7031 355.276 21.3021C349.974 21 344.667 20.6875 339.354 20.3854C337.073 16.9583 334.271 13.8698 331.021 11.3333C327.958 8.93751 324.515 7.03126 320.864 5.71355C316.172 4.01042 311.177 3.22917 306.198 3.2448ZM53.4165 3.63542C50.328 3.65105 47.229 3.76563 44.1561 4.14063C40.5259 4.53126 36.9165 5.21876 33.4061 6.26042C27.9478 7.87501 22.7082 10.349 18.1457 13.7865C14.4946 16.526 11.2915 19.8906 8.80192 23.7292C6.60921 27.1042 4.96859 30.8385 3.92692 34.7292C2.75504 39.099 2.33317 43.6563 2.53629 48.1719C2.66129 51.0313 3.01546 53.8906 3.61963 56.6875C4.59358 61.2188 6.26546 65.6094 8.64567 69.5938C11.1509 73.7813 14.4373 77.5 18.2811 80.5C23.3071 84.4323 29.229 87.1458 35.4373 88.5521C41.2655 89.875 47.3592 90.0677 53.2498 89.0469C57.9738 88.2188 62.5832 86.5781 66.6561 84.0156C69.4373 82.2656 71.953 80.0677 73.9946 77.4792C78.2394 77.9792 82.4894 78.4792 86.7394 78.9792C88.3592 75.7083 89.9738 72.4427 91.5884 69.1719C95.7186 69.6563 99.8384 70.1458 103.969 70.625C104.89 74.1875 105.812 77.7552 106.734 81.3177C110.948 81.8125 115.161 82.3073 119.375 82.8021C119.739 86.276 120.094 89.75 120.453 93.2188C128.724 92.3542 136.995 91.4896 145.265 90.6302C144.297 81.2865 143.333 71.9427 142.364 62.599C146.713 65.724 151.052 68.8438 155.401 71.9635C158.656 68.3125 161.917 64.6615 165.172 61.0104C166.109 70.0938 167.052 79.1771 168 88.2604C176.542 87.375 185.078 86.4844 193.625 85.5885C193.469 84.0729 193.307 82.5573 193.156 81.0417C204.135 82.6146 215.125 84.1875 226.104 85.7604C227.177 78.1979 228.255 70.6354 229.333 63.0781C226.828 62.724 224.318 62.3646 221.818 62C222.739 55.4896 223.667 48.9792 224.599 42.4635C226.693 42.7656 228.786 43.0625 230.88 43.3646C231.958 35.7917 233.036 28.224 234.114 20.6458C218.39 18.3958 202.672 16.1458 186.953 13.8958C186.646 16.0677 186.338 18.2344 186.031 20.4063C178.469 21.1979 170.911 21.9844 163.354 22.7708C159.463 27.9063 155.583 33.0365 151.693 38.1615C146.693 33.9635 141.687 29.7552 136.687 25.5521C130.531 26.1927 124.38 26.8333 118.224 27.474C117.156 23.7344 116.088 19.9896 115.021 16.25C107.911 15.4167 100.802 14.5833 93.6978 13.75C88.3905 23.1771 83.078 32.6094 77.7759 42.0365C77.5103 39.8958 77.2498 37.7552 76.9894 35.6146C64.7603 37.4427 52.5415 39.276 40.3123 41.099C41.1196 47.7188 41.9321 54.3438 42.7394 60.9635C40.328 60.4167 38.0571 59.1927 36.3488 57.3854C35.0519 56.026 34.0988 54.3646 33.4738 52.5938C32.8019 50.6875 32.4738 48.6667 32.3853 46.6458C32.3123 44.5365 32.578 42.3802 33.4321 40.4323C34.1353 38.8385 35.229 37.4271 36.5675 36.3125C38.4269 34.7552 40.6665 33.7135 42.9686 33.0104C45.8853 32.1198 48.9373 31.75 51.9738 31.724C53.8332 31.7083 55.6873 31.8281 57.5207 32.0781C57.5103 32.0781 57.6873 32.099 57.7498 32.1146C59.6925 32.3854 61.6196 32.8073 63.4998 33.3906C66.229 34.224 68.9582 35.0521 71.6821 35.8802C70.578 25.4427 69.4686 15 68.3592 4.56251C66.3905 4.37501 64.4165 4.16667 62.4425 3.98438C60.2967 3.80209 58.1457 3.70834 55.9894 3.65626C55.1353 3.64584 54.2759 3.63542 53.4165 3.63542ZM305.599 33.4271C307.703 33.4531 309.838 33.9323 311.635 35.0469C313.198 35.9948 314.505 37.349 315.411 38.9323C316.479 40.7604 317.068 42.8281 317.411 44.9115C317.734 46.9792 317.724 49.1406 317.088 51.1563C316.552 52.875 315.573 54.4583 314.265 55.6979C312.51 57.3802 310.292 58.5365 307.953 59.1927C305.594 59.849 303.068 60.0052 300.667 59.4792C299.239 59.1719 297.875 58.5938 296.693 57.7448C295.255 56.7344 294.088 55.3698 293.271 53.8281C292.328 52.0521 291.792 50.0833 291.495 48.1094C291.208 46.099 291.271 44.0104 291.911 42.0729C292.458 40.3802 293.417 38.8229 294.703 37.599C296.432 35.9323 298.614 34.7708 300.906 34.0938C302.427 33.6458 304.015 33.4167 305.599 33.4323V33.4271ZM425.984 47.3958C425.734 43.8021 425.489 40.2083 425.245 36.6146C425.958 36.5677 426.677 36.5156 427.396 36.4688C426.927 40.1094 426.458 43.7552 425.984 47.3958Z" fill="white"/>
<path d="M303.063 9.11977C300.552 9.31769 298.042 9.74478 295.584 10.3802C285.755 12.9219 276.781 18.8385 271.797 27.2239C266.323 36.4323 266.011 46.5521 268.459 56.4271C270.818 65.9323 275.787 74.0989 284.558 79.401C301.328 89.5364 327.172 82.9323 337.214 66.1198C341.443 59.0521 342.505 51.4062 341.693 43.7708L354.042 81.1771L367.86 81.9739L389.537 35.8021L392.297 75.8906L428.406 73.3906L427.714 78.7344L441.771 80.5573L444.318 60.8229L454.703 82.1302L471.016 84.2448L459.026 60.9062C465.87 60.1198 472.177 56.6875 473.688 45.8958C473.985 43.5469 473.834 41.1667 472.943 38.8906C472.125 36.7969 470.844 34.9479 469.089 33.375C467.313 31.7864 465.219 30.5625 462.933 29.6614C460.474 28.6823 457.87 28.0833 455.229 27.7396L434.63 25.0677L429.214 67.1198L428.854 61.901L405.688 63.5052L404.99 53.3177L420.578 52.2396L419.797 40.8385L404.209 41.9166L403.547 32.3541L425.474 30.8437L424.683 19.4062L388.584 21.901L389.073 28.9896L377.547 28.3281L362.49 57.8177L351.193 26.8177L336.068 25.9479C333.318 21.1302 329.63 16.9062 324.485 13.776C318.188 9.9479 310.604 8.52082 303.063 9.11977ZM54.0679 9.38019C50.8231 9.36978 47.5887 9.50519 45.0106 9.8229C21.396 12.2812 5.64082 27.7396 8.55749 51.5781C13.0575 88.3906 59.3752 92.0885 71.2242 71.375L83.4012 72.8021L88.2554 63.0052L108.521 65.3802L111.287 76.0677L124.594 77.6354L125.557 86.9167L138.979 85.5156L135.36 50.5L154.557 64.3021L169.526 47.5156L173.094 81.9583L187.339 80.4739L186.703 74.3177L221.245 79.2656L222.854 67.9479L199.865 64.6614L201.308 54.5521L216.776 56.7708L218.386 45.4583L202.917 43.2396L204.271 33.7552L226.021 36.8698L227.636 25.5208L191.808 20.3906L185.62 63.8906L181.766 26.6302L166.412 28.2292L152.698 46.3333C152.703 46.375 152.651 46.4271 152.651 46.4635L134.865 31.5156L119.979 33.0677L123.459 66.6667L110.568 21.5104L96.8127 19.8958L73.9169 60.5625C73.9117 59.625 74.0419 58.7552 73.9325 57.7708L72.021 42.1666L46.6721 45.9583L48.4898 60.8021L55.8283 59.8958C57.5002 69.75 29.6669 72.1667 26.8544 49.2031C24.1564 27.1666 48.7919 22.8385 65.0783 27.875L63.1617 9.8229C60.5523 9.55207 57.3075 9.39061 54.0679 9.38019ZM303.761 27.7552C307.558 27.4531 311.37 28.1667 314.537 30.0989C318.938 32.7708 321.401 36.9062 322.589 41.6771C323.823 46.651 323.724 51.7917 320.953 56.4375C315.891 64.8958 302.886 68.2187 294.448 63.125C290.031 60.4531 287.537 56.3437 286.349 51.5573C285.115 46.5885 285.271 41.5 288.026 36.8646C290.537 32.6406 295.052 29.6667 299.995 28.3906C301.235 28.0677 302.5 27.8542 303.761 27.7552ZM447.266 37.9427C450.334 38.3385 456.698 38.3958 458.86 40.6302C460.542 42.3594 460.365 45.401 459.136 47.3333C458.703 48.0104 458.151 48.6042 457.448 49.0625C456.719 49.526 455.906 49.8229 455.031 49.9896C452.792 50.4219 448.094 49.8125 445.771 49.5104L447.266 37.9427ZM101.297 39.1666L104.787 52.5521L94.8648 51.3854L101.297 39.1666Z" fill="#D19E3A"/>
<path d="M12.0679 63.9531C24.172 88.9167 60.8752 89.4687 71.2241 71.375L83.4012 72.8021L87.7866 63.9479H54.6304C51.4637 67.3125 42.2033 67.6406 35.5783 64.0938L12.0679 63.9531ZM96.3335 63.9479L108.521 65.3802L111.287 76.0677L124.594 77.6354L125.557 86.9167L138.979 85.5104L136.75 63.9479H123.177L123.458 66.6667L122.682 63.9479H96.3335ZM171.229 63.9479L173.094 81.9583L187.339 80.474L186.703 74.3177L221.245 79.2656L222.854 67.9479L199.865 64.6615L199.969 63.9479H171.229ZM271.011 63.9375C273.834 70.0677 278.313 75.6302 284.557 79.401C301.328 89.5365 327.172 82.9323 337.214 66.125C337.63 65.4219 338.078 64.6615 338.443 63.9479L311.714 63.9375C307.089 65.625 300.511 65.6979 296.078 63.9479L271.011 63.9375ZM348.354 63.9479L354.042 81.1771L367.86 81.974L376.323 63.9479H348.354ZM391.474 63.9479L392.297 75.8906L428.406 73.3906L427.714 78.7344L441.771 80.5573L443.912 63.9479H429.625L429.214 67.1198L428.995 63.9479H391.474ZM445.839 63.9479L454.703 82.1302L471.016 84.2448L460.589 63.9479H445.839Z" fill="#A77B24"/>
<path d="M303.172 9.11977C300.656 9.31769 298.146 9.74478 295.693 10.3802C285.865 12.9219 276.891 18.625 271.901 27.0104C269.578 30.9271 268.005 35.1875 267.365 39.3437L286.818 39.4166C287.151 38.5677 287.646 37.6875 288.136 36.8646C290.646 32.6406 295.162 29.6667 300.104 28.3906C301.339 28.0677 302.604 27.8542 303.875 27.7552C307.667 27.4531 311.479 28.1667 314.646 30.0989C318.292 32.3125 320.474 35.6458 321.839 39.401L355.813 39.4323L351.214 26.8333L336.177 25.9479C333.422 21.1354 329.74 16.9062 324.589 13.776C318.292 9.9479 310.719 8.52082 303.172 9.11977ZM54.172 9.38019C50.9272 9.36978 47.6981 9.50519 45.12 9.8229C25.9272 11.8229 11.8595 22.151 8.8335 39.276L27.797 39.4114C32.5522 26.1146 51.745 23.7135 65.1877 27.875L63.271 9.81769C60.6668 9.54686 57.4116 9.39061 54.172 9.38019ZM424.792 19.4062L388.49 21.901L388.974 28.9896L377.511 28.3073L371.849 39.401L387.948 39.4219L389.537 35.8021L389.792 39.4219H404.141L403.656 32.3541L425.584 30.8437L424.792 19.4062ZM96.922 19.8958L85.9272 39.4219H101.271L101.406 39.1666L101.474 39.4219H115.787L110.672 21.5052L96.922 19.8958ZM191.917 20.3906L189.209 39.4219H203.568L204.375 33.7552L226.13 36.8698L227.745 25.5208L191.917 20.3906ZM434.563 25.1042L432.709 39.4583L447.016 39.3646L447.375 37.9427C449.531 38.2239 453.891 38.5 456.703 39.3177L473.11 39.4219C472.495 37.1094 470.703 34.7448 469.198 33.375C467.422 31.7864 465.328 30.5625 463.047 29.6614C460.584 28.6823 457.979 28.0833 455.339 27.7396L434.563 25.1042ZM181.875 26.6302L166.521 28.2239L158.042 39.4219H183.198L181.875 26.6302ZM134.979 31.5104L120.089 33.0625L120.745 39.4219H144.38L134.979 31.5104Z" fill="#F0BB53"/>
</svg>
