<svg width="240" height="326" viewBox="0 0 240 326" fill="none" xmlns="http://www.w3.org/2000/svg">
<mask id="path-1-outside-1_175_241" maskUnits="userSpaceOnUse" x="24" y="22" width="193" height="268" fill="black">
<rect fill="white" x="24" y="22" width="193" height="268"/>
<path d="M42.638 67.47C33.958 58.79 36.198 44.16 43.128 35.2C46.488 30.79 56.498 21.34 62.238 26.87C66.158 30.72 65.528 36.04 60.628 37.51C54.258 39.4 48.868 44.72 48.518 51.72C48.378 55.29 49.778 59.07 53.068 60.75C54.818 61.59 58.808 62.29 60.138 60.19C61.818 57.46 58.108 58.09 56.778 56.62C55.238 55.01 55.168 51.37 56.148 49.41C59.228 43.18 70.498 47.31 72.108 52.98C77.218 71.18 54.538 79.3 42.638 67.47ZM100.526 80.07C94.9958 88.82 91.8458 73.42 91.6358 69.71C83.5158 77.62 76.1658 69.15 75.2558 60.54C74.8358 56.2 74.6958 51.51 75.7458 47.24C76.6558 43.95 80.3658 36.88 84.7058 40.31C87.7858 42.76 84.6358 49.9 84.3558 53.12C84.1458 55.71 83.9358 63.83 88.1358 59.49C90.9358 56.62 91.1458 51.58 94.7158 49.27C99.4758 46.19 102.276 52.84 102.626 56.55C102.906 60.96 102.416 65.3 102.276 69.64C102.206 73.14 102.416 77.06 100.526 80.07ZM113.11 69.85C102.05 67.89 103.24 52.07 109.4 45.56C112.48 42.27 117.66 40.38 122.14 41.71C126.83 43.11 130.61 49.06 126.83 53.33C125.08 55.29 122.21 56.06 119.69 56.55C117.17 57.04 113.95 56.27 113.74 59.91C113.39 66.21 120.95 58.51 122.42 57.88C128.3 55.36 127.11 63.97 124.66 66.42C121.72 69.36 117.1 70.55 113.11 69.85ZM117.73 52.14C119.13 52.63 122.49 51.44 121.86 49.97C120.11 49.69 118.5 50.46 117.73 52.14ZM139.654 76.36C136.994 77.34 133.494 77.97 131.254 75.87C129.014 73.84 128.944 71.53 130.694 69.29C133.494 65.79 139.584 65.37 141.264 60.96C142.454 57.88 140.074 56.62 138.254 54.73C136.154 52.49 135.174 49.62 135.944 46.54C137.064 41.64 141.404 39.12 145.884 37.72C149.104 36.74 155.054 35.62 156.594 39.82C159.254 46.82 145.814 46.33 145.394 51.93C145.184 54.8 148.894 56.27 150.154 58.37C151.484 60.61 151.484 63.2 150.714 65.58C149.104 70.69 144.554 74.54 139.654 76.36ZM168.228 76.36C165.568 77.34 162.068 77.97 159.828 75.87C157.588 73.84 157.518 71.53 159.268 69.29C162.068 65.79 168.158 65.37 169.838 60.96C171.028 57.88 168.648 56.62 166.828 54.73C164.728 52.49 163.748 49.62 164.518 46.54C165.638 41.64 169.978 39.12 174.458 37.72C177.678 36.74 183.628 35.62 185.168 39.82C187.828 46.82 174.388 46.33 173.968 51.93C173.758 54.8 177.468 56.27 178.728 58.37C180.058 60.61 180.058 63.2 179.288 65.58C177.678 70.69 173.128 74.54 168.228 76.36ZM85.1955 179.97C81.0655 183.26 79.8055 175.77 79.3155 172.97C78.1955 166.25 77.6355 159.32 77.3555 152.53C77.0755 147.98 78.2655 141.75 76.4455 140.49L73.4355 140C72.0355 139.79 70.4955 139.58 69.2355 139.02C66.8555 137.9 65.6655 135.59 67.6255 133.28C69.0955 131.53 71.9655 131.25 74.1355 131.04L78.1255 129.78C78.7555 128.8 78.6155 126.56 78.8255 125.37C79.3155 122.85 79.8755 119.63 82.0455 117.81C86.6655 113.26 87.9255 125.79 88.9755 128.38C89.6755 130.06 89.1155 129.85 91.3555 129.99C95.5555 130.27 95.8355 130.27 98.0755 131.11C99.9655 131.81 102.416 133.07 102.976 135.17C103.886 138.46 99.1955 139.72 96.8855 140.21L91.1455 140.91C89.4655 141.4 90.3055 140.49 89.6755 141.82V144.27C89.6755 152.53 89.3955 160.93 88.4855 169.19C88.0655 172.27 87.8555 177.87 85.1955 179.97ZM127.999 183.4C126.039 185.01 124.289 182.98 123.379 181.23C121.419 177.38 123.099 171.78 119.809 168.49C115.679 172.13 107.139 179.9 104.969 169.96C103.149 161.91 104.899 151.83 106.369 143.78C106.999 140.07 107.559 135.17 109.659 131.95C111.969 128.38 116.799 129.5 117.639 133.42C118.549 138.18 116.519 143.78 116.239 148.61C115.959 153.44 115.819 158.34 115.119 163.1C118.059 160.16 123.309 155.68 126.669 160.72C129.049 164.43 128.769 171.15 128.909 175.35C128.909 177.31 129.819 181.86 127.999 183.4ZM139.531 171.85C128.471 169.89 129.661 154.07 135.821 147.56C138.901 144.27 144.081 142.38 148.561 143.71C153.251 145.11 157.031 151.06 153.251 155.33C151.501 157.29 148.631 158.06 146.111 158.55C143.591 159.04 140.371 158.27 140.161 161.91C139.811 168.21 147.371 160.51 148.841 159.88C154.721 157.36 153.531 165.97 151.081 168.42C148.141 171.36 143.521 172.55 139.531 171.85ZM144.151 154.14C145.551 154.63 148.911 153.44 148.281 151.97C146.531 151.69 144.921 152.46 144.151 154.14ZM53.3026 281.83C50.2226 278.19 49.7326 271.68 48.8926 267.2C48.3326 264.26 47.7726 260.55 43.9226 260.9C41.7526 261.11 40.0026 262.65 38.5326 264.12C36.5026 266.01 36.7826 266.92 36.7826 269.51C36.6426 273.22 34.5426 280.01 29.9926 275.32C26.7026 271.96 27.1226 265.24 27.4026 260.97C27.6826 256.42 28.4526 250.33 31.6726 246.83C36.5026 241.51 37.6226 251.31 37.6926 254.6C43.2226 249.21 51.4826 247.39 55.2626 255.44C58.3426 262.02 58.9026 270.84 58.9026 277.91C58.9026 281.41 56.8726 286.17 53.3026 281.83ZM86.5805 284.07C81.0505 292.82 77.9005 277.42 77.6905 273.71C69.5705 281.62 62.2205 273.15 61.3105 264.54C60.8905 260.2 60.7505 255.51 61.8005 251.24C62.7105 247.95 66.4205 240.88 70.7605 244.31C73.8405 246.76 70.6905 253.9 70.4105 257.12C70.2005 259.71 69.9905 267.83 74.1905 263.49C76.9905 260.62 77.2005 255.58 80.7705 253.27C85.5305 250.19 88.3305 256.84 88.6805 260.55C88.9605 264.96 88.4705 269.3 88.3305 273.64C88.2605 277.14 88.4705 281.06 86.5805 284.07ZM126.465 280.29C122.965 277.07 121.915 268.46 120.725 264.05C120.865 264.75 114.425 268.95 113.865 269.16C109.385 270.77 108.265 266.5 107.075 263.28C105.815 259.85 103.995 259.29 101.055 261.88C97.5552 264.82 98.7452 270.63 97.9752 274.76C97.0652 280.29 93.2852 278.33 91.9552 273.99C90.5552 269.16 90.6952 263.49 91.0452 258.45C91.2552 254.81 91.1152 248.51 94.0552 245.78C98.6052 241.58 100.565 249.42 100.215 252.64C102.315 250.05 105.885 248.86 109.035 250.4C110.785 251.24 111.975 252.85 112.745 254.6C113.375 255.93 113.375 257.82 114.285 258.94C117.925 256.56 121.635 254.32 125.275 258.1C128.425 261.46 129.825 267.27 130.595 271.68C131.015 273.92 131.785 285.19 126.465 280.29ZM140.645 277C135.745 277.07 134.205 274.55 133.575 270.14C132.735 264.68 132.945 259.15 133.155 253.69C133.365 248.72 133.015 243.75 133.715 238.85C133.925 236.89 134.275 233.88 136.375 233.04C138.265 232.34 140.015 233.67 140.855 235.28C141.835 237.17 141.625 239.48 141.695 241.51C141.765 244.52 141.975 247.53 141.695 250.47C143.865 248.02 147.085 246.2 150.375 247.67C158.845 251.38 155.065 264.61 151.215 270.21C148.835 273.64 144.985 276.93 140.645 277ZM140.505 267.69C143.795 267.41 146.245 263.07 147.155 260.34C147.855 258.38 147.995 255.44 145.405 256.35C141.065 257.96 141.275 264.26 140.505 267.69ZM165.884 273.85C154.824 271.89 156.014 256.07 162.174 249.56C165.254 246.27 170.434 244.38 174.914 245.71C179.604 247.11 183.384 253.06 179.604 257.33C177.854 259.29 174.984 260.06 172.464 260.55C169.944 261.04 166.724 260.27 166.514 263.91C166.164 270.21 173.724 262.51 175.194 261.88C181.074 259.36 179.884 267.97 177.434 270.42C174.494 273.36 169.874 274.55 165.884 273.85ZM170.504 256.14C171.904 256.63 175.264 255.44 174.634 253.97C172.884 253.69 171.274 254.46 170.504 256.14ZM186.127 274.55C181.787 267.06 183.257 255.37 184.867 247.18C185.287 245.01 186.057 240.88 188.437 239.9C192.427 238.22 194.317 244.38 194.807 247.11C197.047 243.4 200.617 239.69 205.307 240.81C209.297 241.79 212.657 246.41 213.147 250.4C213.357 252.57 212.377 254.67 210.067 254.81C207.897 254.88 206.987 253.13 205.447 252.01C201.737 249.28 199.077 252.29 197.117 255.58C195.717 257.96 194.597 260.48 194.107 263.14C193.547 266.15 193.547 269.23 193.057 272.17C192.357 276.44 188.927 279.31 186.127 274.55Z"/>
</mask>
<path d="M42.638 67.47C33.958 58.79 36.198 44.16 43.128 35.2C46.488 30.79 56.498 21.34 62.238 26.87C66.158 30.72 65.528 36.04 60.628 37.51C54.258 39.4 48.868 44.72 48.518 51.72C48.378 55.29 49.778 59.07 53.068 60.75C54.818 61.59 58.808 62.29 60.138 60.19C61.818 57.46 58.108 58.09 56.778 56.62C55.238 55.01 55.168 51.37 56.148 49.41C59.228 43.18 70.498 47.31 72.108 52.98C77.218 71.18 54.538 79.3 42.638 67.47ZM100.526 80.07C94.9958 88.82 91.8458 73.42 91.6358 69.71C83.5158 77.62 76.1658 69.15 75.2558 60.54C74.8358 56.2 74.6958 51.51 75.7458 47.24C76.6558 43.95 80.3658 36.88 84.7058 40.31C87.7858 42.76 84.6358 49.9 84.3558 53.12C84.1458 55.71 83.9358 63.83 88.1358 59.49C90.9358 56.62 91.1458 51.58 94.7158 49.27C99.4758 46.19 102.276 52.84 102.626 56.55C102.906 60.96 102.416 65.3 102.276 69.64C102.206 73.14 102.416 77.06 100.526 80.07ZM113.11 69.85C102.05 67.89 103.24 52.07 109.4 45.56C112.48 42.27 117.66 40.38 122.14 41.71C126.83 43.11 130.61 49.06 126.83 53.33C125.08 55.29 122.21 56.06 119.69 56.55C117.17 57.04 113.95 56.27 113.74 59.91C113.39 66.21 120.95 58.51 122.42 57.88C128.3 55.36 127.11 63.97 124.66 66.42C121.72 69.36 117.1 70.55 113.11 69.85ZM117.73 52.14C119.13 52.63 122.49 51.44 121.86 49.97C120.11 49.69 118.5 50.46 117.73 52.14ZM139.654 76.36C136.994 77.34 133.494 77.97 131.254 75.87C129.014 73.84 128.944 71.53 130.694 69.29C133.494 65.79 139.584 65.37 141.264 60.96C142.454 57.88 140.074 56.62 138.254 54.73C136.154 52.49 135.174 49.62 135.944 46.54C137.064 41.64 141.404 39.12 145.884 37.72C149.104 36.74 155.054 35.62 156.594 39.82C159.254 46.82 145.814 46.33 145.394 51.93C145.184 54.8 148.894 56.27 150.154 58.37C151.484 60.61 151.484 63.2 150.714 65.58C149.104 70.69 144.554 74.54 139.654 76.36ZM168.228 76.36C165.568 77.34 162.068 77.97 159.828 75.87C157.588 73.84 157.518 71.53 159.268 69.29C162.068 65.79 168.158 65.37 169.838 60.96C171.028 57.88 168.648 56.62 166.828 54.73C164.728 52.49 163.748 49.62 164.518 46.54C165.638 41.64 169.978 39.12 174.458 37.72C177.678 36.74 183.628 35.62 185.168 39.82C187.828 46.82 174.388 46.33 173.968 51.93C173.758 54.8 177.468 56.27 178.728 58.37C180.058 60.61 180.058 63.2 179.288 65.58C177.678 70.69 173.128 74.54 168.228 76.36ZM85.1955 179.97C81.0655 183.26 79.8055 175.77 79.3155 172.97C78.1955 166.25 77.6355 159.32 77.3555 152.53C77.0755 147.98 78.2655 141.75 76.4455 140.49L73.4355 140C72.0355 139.79 70.4955 139.58 69.2355 139.02C66.8555 137.9 65.6655 135.59 67.6255 133.28C69.0955 131.53 71.9655 131.25 74.1355 131.04L78.1255 129.78C78.7555 128.8 78.6155 126.56 78.8255 125.37C79.3155 122.85 79.8755 119.63 82.0455 117.81C86.6655 113.26 87.9255 125.79 88.9755 128.38C89.6755 130.06 89.1155 129.85 91.3555 129.99C95.5555 130.27 95.8355 130.27 98.0755 131.11C99.9655 131.81 102.416 133.07 102.976 135.17C103.886 138.46 99.1955 139.72 96.8855 140.21L91.1455 140.91C89.4655 141.4 90.3055 140.49 89.6755 141.82V144.27C89.6755 152.53 89.3955 160.93 88.4855 169.19C88.0655 172.27 87.8555 177.87 85.1955 179.97ZM127.999 183.4C126.039 185.01 124.289 182.98 123.379 181.23C121.419 177.38 123.099 171.78 119.809 168.49C115.679 172.13 107.139 179.9 104.969 169.96C103.149 161.91 104.899 151.83 106.369 143.78C106.999 140.07 107.559 135.17 109.659 131.95C111.969 128.38 116.799 129.5 117.639 133.42C118.549 138.18 116.519 143.78 116.239 148.61C115.959 153.44 115.819 158.34 115.119 163.1C118.059 160.16 123.309 155.68 126.669 160.72C129.049 164.43 128.769 171.15 128.909 175.35C128.909 177.31 129.819 181.86 127.999 183.4ZM139.531 171.85C128.471 169.89 129.661 154.07 135.821 147.56C138.901 144.27 144.081 142.38 148.561 143.71C153.251 145.11 157.031 151.06 153.251 155.33C151.501 157.29 148.631 158.06 146.111 158.55C143.591 159.04 140.371 158.27 140.161 161.91C139.811 168.21 147.371 160.51 148.841 159.88C154.721 157.36 153.531 165.97 151.081 168.42C148.141 171.36 143.521 172.55 139.531 171.85ZM144.151 154.14C145.551 154.63 148.911 153.44 148.281 151.97C146.531 151.69 144.921 152.46 144.151 154.14ZM53.3026 281.83C50.2226 278.19 49.7326 271.68 48.8926 267.2C48.3326 264.26 47.7726 260.55 43.9226 260.9C41.7526 261.11 40.0026 262.65 38.5326 264.12C36.5026 266.01 36.7826 266.92 36.7826 269.51C36.6426 273.22 34.5426 280.01 29.9926 275.32C26.7026 271.96 27.1226 265.24 27.4026 260.97C27.6826 256.42 28.4526 250.33 31.6726 246.83C36.5026 241.51 37.6226 251.31 37.6926 254.6C43.2226 249.21 51.4826 247.39 55.2626 255.44C58.3426 262.02 58.9026 270.84 58.9026 277.91C58.9026 281.41 56.8726 286.17 53.3026 281.83ZM86.5805 284.07C81.0505 292.82 77.9005 277.42 77.6905 273.71C69.5705 281.62 62.2205 273.15 61.3105 264.54C60.8905 260.2 60.7505 255.51 61.8005 251.24C62.7105 247.95 66.4205 240.88 70.7605 244.31C73.8405 246.76 70.6905 253.9 70.4105 257.12C70.2005 259.71 69.9905 267.83 74.1905 263.49C76.9905 260.62 77.2005 255.58 80.7705 253.27C85.5305 250.19 88.3305 256.84 88.6805 260.55C88.9605 264.96 88.4705 269.3 88.3305 273.64C88.2605 277.14 88.4705 281.06 86.5805 284.07ZM126.465 280.29C122.965 277.07 121.915 268.46 120.725 264.05C120.865 264.75 114.425 268.95 113.865 269.16C109.385 270.77 108.265 266.5 107.075 263.28C105.815 259.85 103.995 259.29 101.055 261.88C97.5552 264.82 98.7452 270.63 97.9752 274.76C97.0652 280.29 93.2852 278.33 91.9552 273.99C90.5552 269.16 90.6952 263.49 91.0452 258.45C91.2552 254.81 91.1152 248.51 94.0552 245.78C98.6052 241.58 100.565 249.42 100.215 252.64C102.315 250.05 105.885 248.86 109.035 250.4C110.785 251.24 111.975 252.85 112.745 254.6C113.375 255.93 113.375 257.82 114.285 258.94C117.925 256.56 121.635 254.32 125.275 258.1C128.425 261.46 129.825 267.27 130.595 271.68C131.015 273.92 131.785 285.19 126.465 280.29ZM140.645 277C135.745 277.07 134.205 274.55 133.575 270.14C132.735 264.68 132.945 259.15 133.155 253.69C133.365 248.72 133.015 243.75 133.715 238.85C133.925 236.89 134.275 233.88 136.375 233.04C138.265 232.34 140.015 233.67 140.855 235.28C141.835 237.17 141.625 239.48 141.695 241.51C141.765 244.52 141.975 247.53 141.695 250.47C143.865 248.02 147.085 246.2 150.375 247.67C158.845 251.38 155.065 264.61 151.215 270.21C148.835 273.64 144.985 276.93 140.645 277ZM140.505 267.69C143.795 267.41 146.245 263.07 147.155 260.34C147.855 258.38 147.995 255.44 145.405 256.35C141.065 257.96 141.275 264.26 140.505 267.69ZM165.884 273.85C154.824 271.89 156.014 256.07 162.174 249.56C165.254 246.27 170.434 244.38 174.914 245.71C179.604 247.11 183.384 253.06 179.604 257.33C177.854 259.29 174.984 260.06 172.464 260.55C169.944 261.04 166.724 260.27 166.514 263.91C166.164 270.21 173.724 262.51 175.194 261.88C181.074 259.36 179.884 267.97 177.434 270.42C174.494 273.36 169.874 274.55 165.884 273.85ZM170.504 256.14C171.904 256.63 175.264 255.44 174.634 253.97C172.884 253.69 171.274 254.46 170.504 256.14ZM186.127 274.55C181.787 267.06 183.257 255.37 184.867 247.18C185.287 245.01 186.057 240.88 188.437 239.9C192.427 238.22 194.317 244.38 194.807 247.11C197.047 243.4 200.617 239.69 205.307 240.81C209.297 241.79 212.657 246.41 213.147 250.4C213.357 252.57 212.377 254.67 210.067 254.81C207.897 254.88 206.987 253.13 205.447 252.01C201.737 249.28 199.077 252.29 197.117 255.58C195.717 257.96 194.597 260.48 194.107 263.14C193.547 266.15 193.547 269.23 193.057 272.17C192.357 276.44 188.927 279.31 186.127 274.55Z" fill="#06B6D4"/>
<path d="M42.638 67.47L40.5166 69.5913L40.5229 69.5976L42.638 67.47ZM43.128 35.2L45.501 37.0354L45.5077 37.0268L45.5143 37.0181L43.128 35.2ZM62.238 26.87L64.3401 24.7297L64.3298 24.7195L64.3194 24.7095L62.238 26.87ZM60.628 37.51L61.4813 40.3861L61.49 40.3835L60.628 37.51ZM48.518 51.72L45.5217 51.5702L45.5209 51.5863L45.5203 51.6024L48.518 51.72ZM53.068 60.75L51.7036 63.4218L51.7365 63.4386L51.7698 63.4546L53.068 60.75ZM60.138 60.19L62.6724 61.7952L62.6828 61.7788L62.6929 61.7623L60.138 60.19ZM56.778 56.62L59.0026 54.6073L58.9747 54.5764L58.9459 54.5463L56.778 56.62ZM56.148 49.41L58.8313 50.7517L58.8373 50.7395L56.148 49.41ZM72.108 52.98L74.9963 52.169L74.9939 52.1605L72.108 52.98ZM44.7593 65.3487C41.1562 61.7456 39.7207 56.827 40.0241 51.6143C40.3293 46.3725 42.3955 41.0506 45.501 37.0354L40.7549 33.3646C36.9305 38.3094 34.4117 44.7825 34.0343 51.2657C33.6552 57.778 35.4397 64.5144 40.5166 69.5913L44.7593 65.3487ZM45.5143 37.0181C47.0307 35.0278 50.1091 31.8491 53.3538 29.868C54.9772 28.8768 56.4266 28.3193 57.5972 28.204C58.6478 28.1004 59.4409 28.341 60.1565 29.0305L64.3194 24.7095C62.1651 22.634 59.5543 21.9821 57.0088 22.2329C54.5831 22.4719 52.2438 23.5157 50.2271 24.747C46.1918 27.2109 42.5852 30.9622 40.7417 33.3819L45.5143 37.0181ZM60.1358 29.0103C61.5681 30.417 61.8905 31.8039 61.7696 32.6655C61.6666 33.3991 61.1946 34.2079 59.7659 34.6365L61.49 40.3835C64.9613 39.3421 67.2543 36.7559 67.7114 33.4995C68.1504 30.3711 66.8279 27.173 64.3401 24.7297L60.1358 29.0103ZM59.7746 34.6339C52.5008 36.7921 45.9503 42.9978 45.5217 51.5702L51.5142 51.8698C51.7856 46.4422 56.0152 42.0079 61.4813 40.3861L59.7746 34.6339ZM45.5203 51.6024C45.3534 55.8581 47.001 61.0205 51.7036 63.4218L54.4323 58.0782C52.5549 57.1195 51.4026 54.7218 51.5157 51.8376L45.5203 51.6024ZM51.7698 63.4546C53.034 64.0614 54.8986 64.5492 56.7225 64.5723C58.4033 64.5935 61.1435 64.2092 62.6724 61.7952L57.6035 58.5848C57.6989 58.4342 57.7977 58.4237 57.6821 58.4662C57.5396 58.5186 57.2507 58.5785 56.7984 58.5727C55.8574 58.5608 54.852 58.2786 54.3662 58.0454L51.7698 63.4546ZM62.6929 61.7623C63.2528 60.8525 63.9568 59.3131 63.3126 57.6203C62.7016 56.0144 61.2657 55.3816 60.7386 55.1625C60.3972 55.0205 60.0503 54.9061 59.8029 54.8249C59.5201 54.7323 59.333 54.6722 59.1517 54.6043C58.7452 54.4522 58.8332 54.4201 59.0026 54.6073L54.5534 58.6327C55.3877 59.5549 56.4382 59.9953 57.0489 60.2238C57.3763 60.3463 57.7114 60.4535 57.9342 60.5265C58.1923 60.6111 58.3344 60.6608 58.4348 60.7025C58.5411 60.7467 58.4694 60.73 58.3335 60.6253C58.1765 60.5044 57.8849 60.2271 57.7049 59.7541C57.3254 58.7569 57.8631 58.1625 57.583 58.6177L62.6929 61.7623ZM58.9459 54.5463C58.872 54.4691 58.5779 53.979 58.5117 52.9531C58.4487 51.9766 58.6381 51.1379 58.8313 50.7516L53.4647 48.0684C52.6778 49.6421 52.4122 51.6034 52.5242 53.3394C52.633 55.026 53.1439 57.1609 54.61 58.6937L58.9459 54.5463ZM58.8373 50.7395C59.4053 49.5906 60.9777 48.8034 63.8629 49.6193C65.1845 49.993 66.4692 50.6598 67.4704 51.4775C68.4931 52.3128 69.0379 53.1508 69.2221 53.7995L74.9939 52.1605C74.3731 49.9742 72.9054 48.1697 71.2659 46.8306C69.6048 45.4739 67.5777 44.4345 65.4955 43.8457C61.5732 42.7366 55.9707 42.9994 53.4587 48.0805L58.8373 50.7395ZM69.2197 53.7909C70.3161 57.6962 69.8749 60.8322 68.658 63.2266C67.4245 65.6539 65.2712 67.5576 62.5584 68.7338C57.067 71.1146 49.7577 70.3177 44.753 65.3424L40.5229 69.5976C47.4182 76.4523 57.3989 77.5104 64.9451 74.2387C68.751 72.5886 72.0533 69.7893 74.007 65.9449C75.9773 62.0678 76.4548 57.3638 74.9963 52.169L69.2197 53.7909ZM100.526 80.07L103.062 81.6727L103.066 81.6653L100.526 80.07ZM91.6358 69.71L94.631 69.5405L94.2589 62.9666L89.5424 67.5611L91.6358 69.71ZM75.2558 60.54L72.2697 60.829L72.271 60.8422L72.2724 60.8553L75.2558 60.54ZM75.7458 47.24L72.8543 46.4402L72.8429 46.4818L72.8326 46.5236L75.7458 47.24ZM84.7058 40.31L86.5734 37.9622L86.5659 37.9563L84.7058 40.31ZM84.3558 53.12L81.3671 52.8601L81.3663 52.8688L81.3656 52.8776L84.3558 53.12ZM88.1358 59.49L85.9884 57.395L85.98 57.4037L88.1358 59.49ZM94.7158 49.27L96.3455 51.7887L96.3455 51.7887L94.7158 49.27ZM102.626 56.55L105.62 56.3599L105.617 56.314L105.613 56.2682L102.626 56.55ZM102.276 69.64L99.2773 69.5433L99.2768 69.5616L99.2764 69.58L102.276 69.64ZM97.9898 78.4673C96.6826 80.5356 96.5445 79.4978 97.5665 79.7553C97.8639 79.8303 97.8654 79.9572 97.626 79.6749C97.402 79.4108 97.1162 78.9611 96.8036 78.2922C95.5016 75.5066 94.7207 71.1256 94.631 69.5405L88.6406 69.8795C88.7608 72.0044 89.66 77.1784 91.368 80.8328C91.8079 81.7739 92.3577 82.7395 93.0503 83.556C93.7274 84.3543 94.7264 85.2272 96.1001 85.5734C99.2746 86.3735 101.604 83.9794 103.062 81.6727L97.9898 78.4673ZM89.5424 67.5611C87.8607 69.1993 86.4804 69.7403 85.4815 69.8398C84.5052 69.937 83.5251 69.6507 82.5318 68.9124C80.4139 67.338 78.6321 63.942 78.2392 60.2247L72.2724 60.8553C72.7895 65.748 75.1377 70.892 78.9523 73.7276C80.9252 75.1943 83.3619 76.0805 86.076 75.8102C88.7674 75.5422 91.3509 74.1757 93.7291 71.8589L89.5424 67.5611ZM78.2418 60.251C77.8306 56.0013 77.7331 51.7218 78.659 47.9564L72.8326 46.5236C71.6585 51.2982 71.841 56.3987 72.2697 60.829L78.2418 60.251ZM78.6372 48.0398C79.0066 46.7042 79.9796 44.5766 81.1639 43.268C81.752 42.6182 82.1533 42.436 82.2987 42.4013C82.342 42.391 82.3599 42.3924 82.3904 42.4C82.4308 42.41 82.5833 42.4564 82.8456 42.6637L86.5659 37.9563C84.8518 36.6016 82.8804 36.0943 80.9069 36.565C79.1076 36.994 77.7108 38.1418 76.7152 39.242C74.732 41.4334 73.3949 44.4858 72.8543 46.4402L78.6372 48.0398ZM82.8382 42.6578C82.841 42.66 82.8421 42.661 82.845 42.6648C82.8485 42.6693 82.8611 42.6864 82.8791 42.7239C82.9174 42.8042 82.9762 42.9707 83.0132 43.2656C83.0915 43.8905 83.0357 44.7689 82.8359 45.9079C82.639 47.03 82.3456 48.1849 82.0492 49.3853C81.7781 50.4833 81.4613 51.776 81.3671 52.8601L87.3445 53.3799C87.3902 52.854 87.5722 52.0467 87.8742 50.8237C88.1509 49.7032 88.505 48.3163 88.7457 46.9446C88.9833 45.5899 89.1551 44.0226 88.9665 42.5191C88.7742 40.9851 88.1631 39.2268 86.5734 37.9622L82.8382 42.6578ZM81.3656 52.8776C81.2599 54.1809 81.1053 57.2923 81.6791 59.6214C81.8302 60.2347 82.069 60.9584 82.4789 61.629C82.8906 62.3028 83.6117 63.1369 84.7852 63.5326C86.0031 63.9432 87.1605 63.6996 88.0475 63.2777C88.8933 62.8754 89.6372 62.2525 90.2916 61.5763L85.98 57.4037C85.5844 57.8125 85.4161 57.8852 85.4703 57.8594C85.5657 57.814 86.0521 57.6278 86.7023 57.8471C87.3082 58.0514 87.5649 58.4453 87.5985 58.5002C87.6302 58.5521 87.577 58.4785 87.5049 58.1861C87.362 57.6058 87.282 56.7468 87.2668 55.7718C87.2522 54.8313 87.2994 53.9371 87.346 53.3624L81.3656 52.8776ZM90.2831 61.585C92.1577 59.6635 93.1509 57.0235 93.8779 55.3896C94.7255 53.4848 95.3759 52.4161 96.3455 51.7887L93.086 46.7513C90.4856 48.4339 89.2461 51.0402 88.3961 52.9504C87.4256 55.1315 86.9138 56.4465 85.9884 57.395L90.2831 61.585ZM96.3455 51.7887C96.6785 51.5733 96.8921 51.5088 96.9917 51.489C97.0797 51.4716 97.1185 51.48 97.1425 51.4864C97.2151 51.5056 97.5116 51.627 97.9462 52.1923C98.8541 53.3732 99.502 55.3793 99.639 56.8318L105.613 56.2682C105.4 54.0107 104.472 50.8368 102.703 48.5352C101.799 47.3593 100.481 46.1637 98.6788 45.6864C96.7699 45.1808 94.8399 45.6165 93.086 46.7513L96.3455 51.7887ZM99.6318 56.7401C99.9004 60.9696 99.428 64.8742 99.2773 69.5433L105.274 69.7367C105.404 65.7258 105.911 60.9504 105.62 56.3599L99.6318 56.7401ZM99.2764 69.58C99.2382 71.4903 99.2744 73.0977 99.1004 74.7186C98.9326 76.2822 98.5916 77.5088 97.9851 78.4747L103.066 81.6653C104.35 79.6212 104.849 77.3828 105.066 75.3589C105.277 73.3923 105.243 71.2897 105.275 69.7L99.2764 69.58ZM113.11 69.85L112.587 72.804L112.592 72.8049L113.11 69.85ZM109.4 45.56L111.58 47.6219L111.585 47.6161L111.591 47.6103L109.4 45.56ZM122.14 41.71L122.999 38.8353L122.994 38.8341L122.14 41.71ZM126.83 53.33L129.068 55.3281L129.077 55.3185L126.83 53.33ZM119.69 56.55L120.263 59.4948L120.263 59.4948L119.69 56.55ZM113.74 59.91L110.745 59.7372L110.745 59.7436L113.74 59.91ZM122.42 57.88L123.602 60.6374L123.602 60.6374L122.42 57.88ZM124.66 66.42L126.782 68.5413L126.782 68.5413L124.66 66.42ZM117.73 52.14L115.003 50.89L113.631 53.8837L116.739 54.9716L117.73 52.14ZM121.86 49.97L124.618 48.7882L123.967 47.2688L122.334 47.0077L121.86 49.97ZM113.634 66.896C111.628 66.5406 110.315 65.608 109.428 64.3835C108.497 63.0984 107.924 61.3247 107.792 59.2231C107.521 54.9164 109.151 50.188 111.58 47.6219L107.221 43.4981C103.489 47.442 101.444 53.8786 101.804 59.5994C101.987 62.5115 102.805 65.4672 104.569 67.903C106.377 70.3995 109.063 72.1794 112.587 72.804L113.634 66.896ZM111.591 47.6103C114.044 44.9892 118.092 43.6374 121.287 44.5859L122.994 38.8341C117.229 37.1226 110.917 39.5508 107.21 43.5097L111.591 47.6103ZM121.282 44.5847C122.8 45.0376 124.258 46.2921 124.959 47.7465C125.601 49.0778 125.52 50.2841 124.584 51.3415L129.077 55.3185C131.921 52.1059 131.84 48.2022 130.364 45.141C128.948 42.2029 126.171 39.7824 122.999 38.8353L121.282 44.5847ZM124.593 51.332C123.586 52.4592 121.679 53.1071 119.118 53.6052L120.263 59.4948C122.742 59.0129 126.575 58.1208 129.068 55.328L124.593 51.332ZM119.118 53.6052C118.694 53.6876 118.23 53.7191 117.484 53.7797C116.843 53.8318 115.924 53.9102 115.034 54.1617C114.097 54.4262 112.978 54.9376 112.095 56.0038C111.207 57.0744 110.824 58.3816 110.745 59.7372L116.735 60.0828C116.762 59.6184 116.86 59.6568 116.714 59.8327C116.572 60.0042 116.455 59.9951 116.665 59.9358C116.92 59.8635 117.292 59.8151 117.97 59.76C118.544 59.7134 119.427 59.6574 120.263 59.4948L119.118 53.6052ZM110.745 59.7436C110.69 60.7428 110.757 61.8666 111.217 62.8889C111.751 64.0755 112.754 64.9656 114.081 65.2654C115.204 65.5192 116.235 65.274 116.917 65.0407C117.645 64.7914 118.34 64.4267 118.94 64.0672C120.137 63.3499 121.347 62.4133 122.244 61.7116C122.722 61.3373 123.094 61.0428 123.404 60.8115C123.799 60.517 123.799 60.553 123.602 60.6374L121.239 55.1226C120.674 55.3645 120.116 55.779 119.818 56.0015C119.434 56.2873 118.978 56.6485 118.546 56.9862C117.623 57.7086 116.689 58.4214 115.856 58.9203C115.441 59.1689 115.149 59.3041 114.974 59.3641C114.752 59.4399 114.963 59.3134 115.404 59.413C116.048 59.5586 116.506 60.0216 116.688 60.4259C116.796 60.6659 116.704 60.6522 116.736 60.0764L110.745 59.7436ZM123.602 60.6374C124.627 60.1984 124.39 60.6386 123.834 60.2351C123.431 59.9428 123.625 59.7376 123.67 60.4696C123.708 61.0879 123.592 61.9319 123.32 62.7641C123.034 63.6371 122.692 64.1458 122.539 64.2987L126.782 68.5413C127.854 67.4692 128.579 65.9829 129.022 64.6312C129.478 63.2387 129.752 61.6284 129.659 60.1029C129.572 58.6912 129.114 56.6528 127.357 55.3783C125.447 53.9927 123.154 54.3016 121.239 55.1226L123.602 60.6374ZM122.539 64.2987C120.376 66.4617 116.781 67.4482 113.629 66.8951L112.592 72.8049C117.42 73.6518 123.065 72.2583 126.782 68.5413L122.539 64.2987ZM116.739 54.9716C117.712 55.3121 118.713 55.2846 119.444 55.1891C120.231 55.0861 121.046 54.8586 121.785 54.5272C122.479 54.2159 123.359 53.6999 124.021 52.8712C124.771 51.9335 125.319 50.424 124.618 48.7882L119.103 51.1518C118.949 50.7921 118.892 50.3558 118.979 49.9193C119.06 49.5155 119.234 49.2506 119.334 49.125C119.5 48.9176 119.571 48.9441 119.329 49.0528C119.131 49.1414 118.883 49.2114 118.666 49.2397C118.563 49.2532 118.503 49.2524 118.489 49.2516C118.465 49.2504 118.557 49.2507 118.722 49.3084L116.739 54.9716ZM122.334 47.0077C119.343 46.5291 116.372 47.9046 115.003 50.89L120.458 53.39C120.576 53.1322 120.707 53.0355 120.796 52.9901C120.895 52.9394 121.082 52.8835 121.386 52.9323L122.334 47.0077ZM139.654 76.36L140.691 79.175L140.698 79.1723L139.654 76.36ZM131.254 75.87L133.305 73.6814L133.287 73.6641L133.268 73.647L131.254 75.87ZM130.694 69.29L128.351 67.4159L128.34 67.4294L128.33 67.4431L130.694 69.29ZM141.264 60.96L138.465 59.8788L138.463 59.8854L138.46 59.892L141.264 60.96ZM138.254 54.73L136.065 56.7818L136.079 56.7965L136.093 56.8109L138.254 54.73ZM135.944 46.54L138.854 47.2676L138.861 47.2381L138.868 47.2085L135.944 46.54ZM145.884 37.72L145.01 34.85L144.999 34.8532L144.989 34.8566L145.884 37.72ZM156.594 39.82L153.777 40.8528L153.783 40.8692L153.789 40.8857L156.594 39.82ZM145.394 51.93L142.402 51.7056L142.402 51.7111L145.394 51.93ZM150.154 58.37L152.733 56.8384L152.726 56.8265L150.154 58.37ZM150.714 65.58L147.859 64.6565L147.856 64.6675L147.852 64.6785L150.714 65.58ZM138.616 73.545C137.453 73.9735 136.274 74.2583 135.261 74.2702C134.277 74.2818 133.69 74.0417 133.305 73.6814L129.202 78.0586C131.057 79.7983 133.34 80.2932 135.331 80.2698C137.294 80.2467 139.194 79.7265 140.691 79.175L138.616 73.545ZM133.268 73.647C132.557 73.0023 132.48 72.5906 132.47 72.4467C132.458 72.2833 132.493 71.8597 133.058 71.1369L128.33 67.4431C127.144 68.9603 126.339 70.8117 126.485 72.8708C126.632 74.9494 127.711 76.7077 129.239 78.093L133.268 73.647ZM133.036 71.1641C133.428 70.6741 134.005 70.2067 134.845 69.6977C135.731 69.1605 136.625 68.7357 137.794 68.1222C139.861 67.0363 142.787 65.3875 144.067 62.028L138.46 59.892C138.06 60.9425 137.101 61.7087 135.004 62.8103C134.089 63.2905 132.831 63.9026 131.735 64.5663C130.594 65.2583 129.359 66.1559 128.351 67.4159L133.036 71.1641ZM144.062 62.0412C144.51 60.8819 144.691 59.7025 144.52 58.5224C144.35 57.3469 143.862 56.3963 143.322 55.6464C142.805 54.9279 142.193 54.3314 141.712 53.8799C141.165 53.3664 140.799 53.0488 140.415 52.6491L136.093 56.8109C136.618 57.3562 137.233 57.9048 137.606 58.2555C138.046 58.668 138.296 58.9333 138.452 59.1511C138.522 59.248 138.554 59.3101 138.568 59.3424C138.581 59.3709 138.582 59.3814 138.582 59.3835C138.583 59.3853 138.587 59.4133 138.578 59.4814C138.568 59.5532 138.541 59.6824 138.465 59.8788L144.062 62.0412ZM140.442 52.6782C138.927 51.0617 138.369 49.2088 138.854 47.2676L133.033 45.8124C131.978 50.0312 133.38 53.9183 136.065 56.7818L140.442 52.6782ZM138.868 47.2085C139.614 43.9443 142.555 41.9033 146.778 40.5834L144.989 34.8566C140.252 36.3367 134.513 39.3357 133.019 45.8715L138.868 47.2085ZM146.757 40.59C148.255 40.1341 150.143 39.7312 151.692 39.8223C153.211 39.9116 153.598 40.3652 153.777 40.8528L159.41 38.7872C158.049 35.0748 154.691 33.9883 152.045 33.8327C149.43 33.6788 146.732 34.3259 145.01 34.85L146.757 40.59ZM153.789 40.8857C153.973 41.3687 153.942 41.58 153.936 41.6164C153.931 41.6448 153.916 41.7308 153.761 41.9088C153.337 42.3972 152.456 42.9384 150.869 43.6866C149.529 44.3183 147.552 45.1501 146.032 46.1629C144.46 47.21 142.61 48.9351 142.402 51.7056L148.385 52.1544C148.387 52.1249 148.375 51.8112 149.358 51.1565C150.392 50.4674 151.688 49.9342 153.428 49.1134C154.922 48.4091 156.928 47.4103 158.288 45.8468C159.026 44.9989 159.628 43.9309 159.851 42.6244C160.072 41.3259 159.879 40.0213 159.398 38.7543L153.789 40.8857ZM142.402 51.7111C142.188 54.6342 144.05 56.5808 145.175 57.6313C145.483 57.9196 145.797 58.193 146.071 58.4308C146.358 58.68 146.597 58.8873 146.822 59.0934C147.293 59.5249 147.497 59.7729 147.581 59.9135L152.726 56.8265C152.18 55.9171 151.448 55.1938 150.875 54.6694C150.579 54.3976 150.27 54.1307 150.006 53.9016C149.729 53.6612 149.491 53.4522 149.27 53.2462C148.813 52.8198 148.577 52.5337 148.457 52.33C148.405 52.242 148.391 52.195 148.388 52.1822C148.386 52.1746 148.384 52.1692 148.386 52.1489L142.402 51.7111ZM147.574 59.9016C148.35 61.2079 148.442 62.8558 147.859 64.6565L153.568 66.5035C154.525 63.5442 154.618 60.0121 152.733 56.8384L147.574 59.9016ZM147.852 64.6785C146.593 68.6752 142.895 71.9556 138.609 73.5477L140.698 79.1723C146.212 77.1244 151.614 72.7048 153.575 66.4815L147.852 64.6785ZM168.228 76.36L169.265 79.175L169.272 79.1723L168.228 76.36ZM159.828 75.87L161.88 73.6814L161.861 73.6641L161.842 73.647L159.828 75.87ZM159.268 69.29L156.925 67.4159L156.914 67.4294L156.904 67.4431L159.268 69.29ZM169.838 60.96L167.039 59.8788L167.037 59.8854L167.034 59.892L169.838 60.96ZM166.828 54.73L164.639 56.7818L164.653 56.7965L164.667 56.8109L166.828 54.73ZM164.518 46.54L167.428 47.2676L167.436 47.2381L167.442 47.2085L164.518 46.54ZM174.458 37.72L173.584 34.85L173.574 34.8532L173.563 34.8566L174.458 37.72ZM185.168 39.82L182.351 40.8528L182.357 40.8692L182.363 40.8857L185.168 39.82ZM173.968 51.93L170.976 51.7056L170.976 51.7111L173.968 51.93ZM178.728 58.37L181.307 56.8384L181.3 56.8265L178.728 58.37ZM179.288 65.58L176.433 64.6565L176.43 64.6675L176.426 64.6785L179.288 65.58ZM167.191 73.545C166.027 73.9735 164.848 74.2583 163.835 74.2702C162.851 74.2818 162.264 74.0417 161.88 73.6814L157.776 78.0586C159.632 79.7983 161.914 80.2932 163.906 80.2698C165.868 80.2467 167.768 79.7265 169.265 79.175L167.191 73.545ZM161.842 73.647C161.131 73.0023 161.054 72.5906 161.044 72.4467C161.032 72.2833 161.067 71.8597 161.632 71.1369L156.904 67.4431C155.718 68.9603 154.913 70.8117 155.059 72.8708C155.206 74.9494 156.285 76.7077 157.813 78.093L161.842 73.647ZM161.61 71.1641C162.002 70.6741 162.579 70.2067 163.419 69.6977C164.306 69.1605 165.2 68.7357 166.368 68.1222C168.435 67.0363 171.361 65.3875 172.641 62.028L167.034 59.892C166.634 60.9425 165.675 61.7087 163.578 62.8103C162.663 63.2905 161.405 63.9026 160.31 64.5663C159.168 65.2583 157.933 66.1559 156.925 67.4159L161.61 71.1641ZM172.636 62.0412C173.084 60.8819 173.266 59.7025 173.094 58.5224C172.924 57.3469 172.436 56.3963 171.897 55.6464C171.38 54.9279 170.767 54.3314 170.286 53.8799C169.739 53.3664 169.374 53.0488 168.989 52.6491L164.667 56.8109C165.192 57.3562 165.807 57.9048 166.181 58.2555C166.62 58.668 166.87 58.9333 167.027 59.1511C167.096 59.248 167.128 59.3101 167.143 59.3424C167.155 59.3709 167.156 59.3814 167.157 59.3835C167.157 59.3853 167.161 59.4133 167.152 59.4814C167.142 59.5532 167.115 59.6824 167.039 59.8788L172.636 62.0412ZM169.016 52.6782C167.501 51.0617 166.943 49.2088 167.428 47.2676L161.607 45.8124C160.553 50.0312 161.955 53.9183 164.639 56.7818L169.016 52.6782ZM167.442 47.2085C168.188 43.9443 171.129 41.9033 175.353 40.5834L173.563 34.8566C168.827 36.3367 163.087 39.3357 161.593 45.8715L167.442 47.2085ZM175.331 40.59C176.829 40.1341 178.717 39.7312 180.267 39.8223C181.785 39.9116 182.172 40.3652 182.351 40.8528L187.984 38.7872C186.623 35.0748 183.265 33.9883 180.619 33.8327C178.004 33.6788 175.306 34.3259 173.584 34.85L175.331 40.59ZM182.363 40.8857C182.547 41.3687 182.516 41.58 182.51 41.6164C182.505 41.6448 182.491 41.7308 182.336 41.9088C181.911 42.3972 181.03 42.9384 179.443 43.6866C178.104 44.3183 176.126 45.1501 174.606 46.1629C173.034 47.21 171.184 48.9351 170.976 51.7056L176.959 52.1544C176.962 52.1249 176.949 51.8112 177.932 51.1565C178.967 50.4674 180.262 49.9342 182.002 49.1134C183.496 48.4091 185.502 47.4103 186.862 45.8468C187.6 44.9989 188.202 43.9309 188.425 42.6244C188.646 41.3259 188.454 40.0213 187.972 38.7543L182.363 40.8857ZM170.976 51.7111C170.762 54.6342 172.624 56.5808 173.749 57.6313C174.058 57.9196 174.371 58.193 174.645 58.4308C174.932 58.68 175.171 58.8873 175.396 59.0934C175.867 59.5249 176.071 59.7729 176.155 59.9135L181.3 56.8265C180.755 55.9171 180.022 55.1938 179.45 54.6694C179.153 54.3976 178.844 54.1307 178.58 53.9016C178.304 53.6612 178.065 53.4522 177.844 53.2462C177.388 52.8198 177.151 52.5337 177.031 52.33C176.979 52.242 176.965 52.195 176.962 52.1822C176.96 52.1746 176.958 52.1692 176.96 52.1489L170.976 51.7111ZM176.148 59.9016C176.924 61.2079 177.016 62.8558 176.433 64.6565L182.142 66.5035C183.1 63.5442 183.192 60.0121 181.307 56.8384L176.148 59.9016ZM176.426 64.6785C175.167 68.6752 171.47 71.9556 167.183 73.5477L169.272 79.1723C174.786 77.1244 180.188 72.7048 182.149 66.4815L176.426 64.6785ZM85.1955 179.97L83.3366 177.615L83.3263 177.624L85.1955 179.97ZM79.3155 172.97L76.3563 173.463L76.3583 173.475L76.3604 173.487L79.3155 172.97ZM77.3555 152.53L80.353 152.406L80.3517 152.376L80.3498 152.346L77.3555 152.53ZM76.4455 140.49L78.1531 138.023L77.5962 137.638L76.9275 137.529L76.4455 140.49ZM73.4355 140L73.9175 137.039L73.8991 137.036L73.8805 137.033L73.4355 140ZM69.2355 139.02L67.9581 141.734L67.9875 141.748L68.0171 141.761L69.2355 139.02ZM67.6255 133.28L69.913 135.221L69.9178 135.215L69.9226 135.21L67.6255 133.28ZM74.1355 131.04L74.4245 134.026L74.7383 133.996L75.0389 133.901L74.1355 131.04ZM78.1255 129.78L79.0289 132.641L80.0628 132.314L80.649 131.402L78.1255 129.78ZM78.8255 125.37L75.8807 124.797L75.8757 124.823L75.8712 124.849L78.8255 125.37ZM82.0455 117.81L83.9733 120.109L84.0652 120.032L84.1506 119.947L82.0455 117.81ZM88.9755 128.38L86.1953 129.507L86.2007 129.521L86.2063 129.534L88.9755 128.38ZM91.3555 129.99L91.5551 126.997L91.5426 126.996L91.3555 129.99ZM98.0755 131.11L97.0221 133.919L97.0336 133.923L98.0755 131.11ZM102.976 135.17L100.077 135.943L100.08 135.956L100.084 135.97L102.976 135.17ZM96.8855 140.21L97.2487 143.188L97.3793 143.172L97.508 143.145L96.8855 140.21ZM91.1455 140.91L90.7823 137.932L90.5399 137.962L90.3055 138.03L91.1455 140.91ZM89.6755 141.82L86.9643 140.536L86.6755 141.145V141.82H89.6755ZM88.4855 169.19L91.458 169.595L91.4632 169.557L91.4675 169.519L88.4855 169.19ZM83.3263 177.624C82.7766 178.061 83.0593 177.609 83.7197 177.873C84.0709 178.014 83.9361 178.147 83.5815 177.428C82.9173 176.08 82.5368 173.974 82.2706 172.453L76.3604 173.487C76.5842 174.766 77.0787 177.805 78.1995 180.08C78.7374 181.172 79.7226 182.735 81.4869 183.443C83.5605 184.274 85.5494 183.524 87.0647 182.316L83.3263 177.624ZM82.2747 172.477C81.1819 165.92 80.6299 159.122 80.353 152.406L74.3581 152.654C74.6411 159.518 75.2091 166.58 76.3563 173.463L82.2747 172.477ZM80.3498 152.346C80.218 150.204 80.4376 147.939 80.4777 145.322C80.4957 144.145 80.4714 142.866 80.2693 141.735C80.0926 140.746 79.6501 139.06 78.1531 138.023L74.7379 142.957C74.1509 142.55 74.2422 142.115 74.3629 142.791C74.4584 143.325 74.4953 144.124 74.4784 145.23C74.4485 147.181 74.213 150.306 74.3612 152.714L80.3498 152.346ZM76.9275 137.529L73.9175 137.039L72.9535 142.961L75.9635 143.451L76.9275 137.529ZM73.8805 137.033C72.3395 136.802 71.261 136.637 70.4539 136.279L68.0171 141.761C69.73 142.523 71.7315 142.778 72.9905 142.967L73.8805 137.033ZM70.5129 136.306C69.8045 135.972 69.643 135.629 69.6365 135.611C69.6362 135.61 69.6397 135.621 69.6408 135.639C69.6419 135.657 69.6393 135.666 69.6411 135.658C69.6435 135.647 69.6797 135.496 69.913 135.221L65.338 131.339C63.7902 133.163 63.2138 135.409 63.9695 137.582C64.663 139.576 66.2866 140.948 67.9581 141.734L70.5129 136.306ZM69.9226 135.21C70.0915 135.009 70.4948 134.722 71.3964 134.48C72.2884 134.24 73.2997 134.135 74.4245 134.026L73.8465 128.054C72.8013 128.155 71.2926 128.295 69.8396 128.685C68.3963 129.073 66.6295 129.801 65.3284 131.35L69.9226 135.21ZM75.0389 133.901L79.0289 132.641L77.2221 126.919L73.2321 128.179L75.0389 133.901ZM80.649 131.402C81.0877 130.72 81.2925 129.995 81.4042 129.475C81.5224 128.925 81.5833 128.37 81.6224 127.905C81.7203 126.743 81.7041 126.321 81.7799 125.891L75.8712 124.849C75.7876 125.322 75.7491 125.83 75.7228 126.223C75.6923 126.679 75.6759 127.018 75.6436 127.402C75.6127 127.769 75.5774 128.032 75.5381 128.214C75.4923 128.428 75.4783 128.35 75.602 128.158L80.649 131.402ZM81.7704 125.943C82.0286 124.615 82.2515 123.418 82.6365 122.32C83.0155 121.239 83.4611 120.538 83.9733 120.109L80.1177 115.511C78.4599 116.902 77.5405 118.721 76.9745 120.335C76.4145 121.932 76.1125 123.605 75.8807 124.797L81.7704 125.943ZM84.1506 119.947C84.495 119.608 84.5017 119.741 84.1678 119.802C83.7129 119.886 83.3225 119.719 83.1552 119.597C83.0709 119.535 83.1716 119.583 83.3854 119.958C83.5842 120.306 83.7995 120.793 84.0217 121.42C84.4691 122.682 84.8361 124.193 85.1759 125.669C85.4703 126.948 85.8157 128.571 86.1953 129.507L91.7557 127.253C91.6103 126.894 91.4045 125.98 91.0229 124.323C90.6868 122.863 90.2532 121.041 89.6768 119.415C89.3871 118.598 89.0348 117.753 88.5978 116.986C88.1759 116.246 87.5727 115.396 86.7043 114.759C85.7528 114.061 84.4977 113.642 83.0856 113.901C81.7943 114.138 80.751 114.874 79.9404 115.673L84.1506 119.947ZM86.2063 129.534C86.3526 129.885 86.3807 130.001 86.5141 130.362C86.5801 130.54 86.8835 131.467 87.7589 132.14C88.6148 132.799 89.565 132.874 89.8504 132.902C90.1826 132.934 90.7454 132.958 91.1684 132.984L91.5426 126.996C91.247 126.977 90.991 126.964 90.8023 126.954C90.7046 126.949 90.6268 126.944 90.5606 126.94C90.4942 126.935 90.4513 126.932 90.4238 126.929C90.3956 126.927 90.3977 126.926 90.4199 126.93C90.4417 126.933 90.5019 126.943 90.5867 126.966C90.673 126.99 90.7975 127.03 90.9435 127.097C91.0933 127.166 91.2553 127.26 91.4171 127.385C91.5795 127.51 91.7155 127.645 91.8268 127.78C91.9352 127.912 92.01 128.031 92.0582 128.116C92.1051 128.199 92.1324 128.261 92.1419 128.283C92.1513 128.305 92.1521 128.309 92.1413 128.28C92.1302 128.25 92.1163 128.211 92.0924 128.143C92.0705 128.081 92.0413 127.998 92.0087 127.907C91.9414 127.721 91.856 127.493 91.7447 127.226L86.2063 129.534ZM91.156 132.983C93.338 133.129 94.2754 133.19 94.9765 133.302C95.5424 133.393 95.9414 133.514 97.0221 133.919L99.1289 128.301C97.9696 127.866 97.1086 127.567 95.9245 127.378C94.8757 127.21 93.5731 127.131 91.5551 126.997L91.156 132.983ZM97.0336 133.923C97.8554 134.228 98.6577 134.605 99.2653 135.045C99.8894 135.497 100.044 135.819 100.077 135.943L105.874 134.397C105.347 132.421 103.997 131.063 102.783 130.185C101.553 129.295 100.186 128.692 99.1175 128.297L97.0336 133.923ZM100.084 135.97C100.097 136.017 100.078 135.872 100.15 135.75C100.16 135.733 100.06 135.895 99.6243 136.15C98.727 136.674 97.3932 137.036 96.263 137.275L97.508 143.145C98.6878 142.894 100.854 142.381 102.652 141.33C103.564 140.797 104.61 139.997 105.315 138.803C106.083 137.505 106.309 135.968 105.867 134.37L100.084 135.97ZM96.5223 137.232L90.7823 137.932L91.5087 143.888L97.2487 143.188L96.5223 137.232ZM90.3055 138.03C90.0488 138.105 90.0516 138.077 90.2173 138.073C90.3139 138.07 90.4173 138.077 90.5156 138.09C90.5388 138.094 90.5908 138.102 90.5285 138.092C90.5106 138.089 90.4529 138.08 90.3814 138.071C90.3109 138.063 90.1802 138.05 90.0168 138.05C89.674 138.05 89.0531 138.108 88.41 138.507C87.7951 138.889 87.4798 139.386 87.3429 139.637C87.2144 139.871 87.1433 140.077 87.1287 140.119C87.1158 140.155 87.1052 140.187 87.0996 140.204C87.0955 140.216 87.0867 140.243 87.0858 140.245C87.0803 140.262 87.0587 140.336 86.9643 140.536L92.3867 143.104C92.4927 142.881 92.5758 142.687 92.6429 142.516C92.7116 142.341 92.7564 142.208 92.7836 142.126C92.802 142.07 92.7933 142.097 92.7858 142.118C92.7795 142.136 92.7634 142.181 92.7393 142.239C92.7159 142.296 92.6723 142.396 92.6062 142.517C92.4803 142.747 92.1763 143.231 91.5748 143.605C91.275 143.791 90.9682 143.907 90.6808 143.974C90.4058 144.038 90.1729 144.05 90.0167 144.05C89.8632 144.05 89.7433 144.038 89.685 144.031C89.6256 144.024 89.5813 144.017 89.5784 144.016C89.5459 144.011 89.6337 144.026 89.7008 144.035C89.8869 144.06 90.1101 144.078 90.3741 144.071C90.8745 144.058 91.4022 143.96 91.9855 143.79L90.3055 138.03ZM86.6755 141.82V144.27H92.6755V141.82H86.6755ZM86.6755 144.27C86.6755 152.468 86.3973 160.749 85.5036 168.861L91.4675 169.519C92.3937 161.111 92.6755 152.592 92.6755 144.27H86.6755ZM85.513 168.785C85.2653 170.601 85.1553 172.409 84.7467 174.321C84.3258 176.291 83.775 177.269 83.3366 177.615L87.0544 182.325C89.276 180.571 90.1602 177.699 90.6143 175.574C91.0807 173.391 91.2857 170.859 91.458 169.595L85.513 168.785ZM127.999 183.4L129.904 185.718L129.921 185.704L129.937 185.69L127.999 183.4ZM123.379 181.23L120.706 182.591L120.712 182.603L120.718 182.614L123.379 181.23ZM119.809 168.49L121.931 166.369L119.939 164.377L117.826 166.239L119.809 168.49ZM104.969 169.96L107.9 169.32L107.898 169.309L107.896 169.298L104.969 169.96ZM106.369 143.78L109.321 144.319L109.324 144.301L109.327 144.282L106.369 143.78ZM109.659 131.95L112.172 133.589L112.178 133.58L109.659 131.95ZM117.639 133.42L120.586 132.857L120.58 132.824L120.573 132.791L117.639 133.42ZM116.239 148.61L113.244 148.436L113.244 148.436L116.239 148.61ZM115.119 163.1L112.151 162.664L110.833 171.629L117.241 165.221L115.119 163.1ZM126.669 160.72L129.194 159.1L129.18 159.078L129.166 159.056L126.669 160.72ZM128.909 175.35H131.909V175.3L131.908 175.25L128.909 175.35ZM126.095 181.082C126.031 181.134 126.186 180.993 126.521 180.987C126.825 180.981 126.982 181.093 126.947 181.07C126.901 181.04 126.764 180.929 126.57 180.682C126.384 180.445 126.201 180.153 126.041 179.846L120.718 182.614C121.261 183.659 122.216 185.138 123.644 186.08C124.406 186.582 125.424 187.009 126.636 186.986C127.879 186.962 128.988 186.471 129.904 185.718L126.095 181.082ZM126.053 179.869C125.769 179.312 125.57 178.595 125.423 177.628C125.268 176.601 125.211 175.644 125.077 174.342C124.84 172.034 124.388 168.826 121.931 166.369L117.688 170.611C118.52 171.444 118.874 172.681 119.109 174.958C119.211 175.949 119.308 177.319 119.491 178.528C119.684 179.796 120.01 181.223 120.706 182.591L126.053 179.869ZM117.826 166.239C115.607 168.195 112.875 170.609 110.552 171.527C109.434 171.969 109.057 171.8 109.014 171.778C108.982 171.761 108.359 171.42 107.9 169.32L102.038 170.6C102.665 173.47 103.923 175.885 106.232 177.094C108.53 178.296 110.952 177.821 112.757 177.108C116.278 175.716 119.881 172.425 121.793 170.741L117.826 166.239ZM107.896 169.298C106.236 161.958 107.824 152.516 109.321 144.319L103.418 143.241C101.975 151.144 100.063 161.862 102.043 170.622L107.896 169.298ZM109.327 144.282C109.663 142.304 109.931 140.332 110.387 138.354C110.84 136.387 111.408 134.76 112.172 133.589L107.147 130.311C105.81 132.36 105.049 134.793 104.54 137.008C104.032 139.213 103.706 141.546 103.412 143.278L109.327 144.282ZM112.178 133.58C112.449 133.16 112.728 132.972 112.935 132.884C113.152 132.792 113.381 132.771 113.606 132.817C114.035 132.904 114.536 133.254 114.706 134.049L120.573 132.791C119.903 129.666 117.568 127.496 114.795 126.936C111.971 126.365 108.957 127.513 107.141 130.32L112.178 133.58ZM114.693 133.983C115.041 135.804 114.848 137.941 114.426 140.5C114.036 142.863 113.397 145.811 113.244 148.436L119.234 148.784C119.362 146.579 119.878 144.312 120.346 141.477C120.781 138.839 121.148 135.796 120.586 132.857L114.693 133.983ZM113.244 148.436C112.957 153.389 112.826 158.076 112.151 162.664L118.087 163.536C118.813 158.604 118.961 153.491 119.234 148.784L113.244 148.436ZM117.241 165.221C118.708 163.755 120.384 162.302 121.871 161.695C122.564 161.412 122.96 161.421 123.16 161.469C123.294 161.501 123.664 161.62 124.173 162.384L129.166 159.056C127.995 157.3 126.449 156.089 124.562 155.635C122.74 155.197 121.01 155.566 119.603 156.14C116.89 157.248 114.471 159.505 112.998 160.979L117.241 165.221ZM124.144 162.34C124.924 163.556 125.405 165.548 125.642 168.126C125.877 170.684 125.835 173.153 125.911 175.45L131.908 175.25C131.844 173.347 131.872 170.356 131.617 167.577C131.363 164.817 130.795 161.594 129.194 159.1L124.144 162.34ZM125.909 175.35C125.909 175.991 125.982 176.804 126.032 177.452C126.089 178.176 126.137 178.873 126.137 179.532C126.137 180.206 126.085 180.701 126.001 181.032C125.914 181.375 125.86 181.28 126.062 181.11L129.937 185.69C131.049 184.75 131.563 183.509 131.818 182.505C132.075 181.488 132.137 180.434 132.137 179.533C132.137 178.617 132.071 177.713 132.014 176.984C131.951 176.18 131.909 175.689 131.909 175.35H125.909ZM139.531 171.85L139.008 174.804L139.013 174.805L139.531 171.85ZM135.821 147.56L138 149.622L138.006 149.616L138.011 149.61L135.821 147.56ZM148.561 143.71L149.419 140.835L149.415 140.834L148.561 143.71ZM153.251 155.33L155.489 157.328L155.498 157.319L153.251 155.33ZM146.111 158.55L146.684 161.495L146.684 161.495L146.111 158.55ZM140.161 161.91L137.166 161.737L137.166 161.744L140.161 161.91ZM148.841 159.88L150.023 162.637L150.023 162.637L148.841 159.88ZM151.081 168.42L153.203 170.541L153.203 170.541L151.081 168.42ZM144.151 154.14L141.424 152.89L140.052 155.884L143.16 156.972L144.151 154.14ZM148.281 151.97L151.039 150.788L150.388 149.269L148.755 149.008L148.281 151.97ZM140.055 168.896C138.049 168.541 136.736 167.608 135.849 166.384C134.918 165.098 134.345 163.325 134.213 161.223C133.942 156.916 135.572 152.188 138 149.622L133.642 145.498C129.91 149.442 127.865 155.879 128.225 161.599C128.408 164.511 129.226 167.467 130.99 169.903C132.798 172.4 135.484 174.179 139.008 174.804L140.055 168.896ZM138.011 149.61C140.465 146.989 144.513 145.637 147.708 146.586L149.415 140.834C143.65 139.123 137.338 141.551 133.631 145.51L138.011 149.61ZM147.703 146.585C149.221 147.038 150.679 148.292 151.38 149.746C152.022 151.078 151.941 152.284 151.005 153.341L155.498 157.319C158.342 154.106 158.261 150.202 156.785 147.141C155.369 144.203 152.592 141.782 149.419 140.835L147.703 146.585ZM151.014 153.332C150.007 154.459 148.1 155.107 145.539 155.605L146.684 161.495C149.162 161.013 152.996 160.121 155.489 157.328L151.014 153.332ZM145.539 155.605C145.115 155.688 144.651 155.719 143.905 155.78C143.264 155.832 142.345 155.91 141.455 156.162C140.518 156.426 139.399 156.938 138.516 158.004C137.628 159.074 137.245 160.382 137.166 161.737L143.156 162.083C143.183 161.618 143.281 161.657 143.135 161.833C142.993 162.004 142.876 161.995 143.086 161.936C143.341 161.864 143.713 161.815 144.391 161.76C144.965 161.713 145.848 161.657 146.684 161.495L145.539 155.605ZM137.166 161.744C137.11 162.743 137.178 163.867 137.638 164.889C138.172 166.075 139.175 166.966 140.502 167.265C141.625 167.519 142.656 167.274 143.338 167.041C144.066 166.791 144.761 166.427 145.361 166.067C146.558 165.35 147.768 164.413 148.664 163.712C149.143 163.337 149.515 163.043 149.825 162.812C150.22 162.517 150.22 162.553 150.023 162.637L147.66 157.123C147.095 157.365 146.537 157.779 146.239 158.002C145.855 158.287 145.399 158.649 144.967 158.986C144.044 159.709 143.11 160.421 142.277 160.92C141.862 161.169 141.57 161.304 141.395 161.364C141.173 161.44 141.384 161.313 141.824 161.413C142.469 161.559 142.927 162.022 143.109 162.426C143.217 162.666 143.125 162.652 143.157 162.076L137.166 161.744ZM150.023 162.637C151.047 162.198 150.811 162.639 150.255 162.235C149.852 161.943 150.046 161.738 150.091 162.47C150.129 163.088 150.013 163.932 149.741 164.764C149.455 165.637 149.113 166.146 148.96 166.299L153.203 170.541C154.275 169.469 155 167.983 155.443 166.631C155.899 165.239 156.173 163.628 156.08 162.103C155.993 160.691 155.535 158.653 153.778 157.378C151.868 155.993 149.575 156.302 147.66 157.123L150.023 162.637ZM148.96 166.299C146.797 168.462 143.202 169.448 140.05 168.895L139.013 174.805C143.841 175.652 149.486 174.258 153.203 170.541L148.96 166.299ZM143.16 156.972C144.133 157.312 145.134 157.285 145.865 157.189C146.652 157.086 147.467 156.859 148.206 156.527C148.899 156.216 149.78 155.7 150.442 154.871C151.192 153.934 151.74 152.424 151.039 150.788L145.524 153.152C145.37 152.792 145.313 152.356 145.4 151.919C145.48 151.515 145.655 151.251 145.755 151.125C145.921 150.918 145.992 150.944 145.75 151.053C145.552 151.141 145.304 151.211 145.087 151.24C144.984 151.253 144.924 151.252 144.91 151.252C144.886 151.25 144.978 151.251 145.142 151.308L143.16 156.972ZM148.755 149.008C145.764 148.529 142.792 149.905 141.424 152.89L146.879 155.39C146.997 155.132 147.128 155.035 147.216 154.99C147.316 154.939 147.502 154.884 147.807 154.932L148.755 149.008ZM53.3026 281.83L55.6194 279.924L55.6062 279.908L55.5927 279.892L53.3026 281.83ZM48.8926 267.2L51.8412 266.647L51.8396 266.639L48.8926 267.2ZM43.9226 260.9L43.651 257.912L43.6423 257.913L43.6336 257.914L43.9226 260.9ZM38.5326 264.12L40.5768 266.316L40.616 266.279L40.6539 266.241L38.5326 264.12ZM36.7826 269.51L39.7804 269.623L39.7826 269.567V269.51H36.7826ZM29.9926 275.32L32.1458 273.231L32.1361 273.221L29.9926 275.32ZM27.4026 260.97L30.3962 261.166L30.3969 261.154L27.4026 260.97ZM31.6726 246.83L33.8804 248.861L33.8871 248.854L33.8937 248.847L31.6726 246.83ZM37.6926 254.6L34.6933 254.664L34.8402 261.569L39.7865 256.748L37.6926 254.6ZM55.2626 255.44L57.9797 254.168L57.9781 254.165L55.2626 255.44ZM55.5927 279.892C54.5262 278.632 53.7635 276.67 53.1801 274.153C52.5753 271.543 52.3204 269.203 51.8412 266.647L45.944 267.753C46.3048 269.677 46.7149 272.832 47.3351 275.507C47.9766 278.275 48.999 281.388 51.0124 283.768L55.5927 279.892ZM51.8396 266.639C51.5977 265.369 51.245 263.135 50.2673 261.366C49.7345 260.401 48.938 259.407 47.7335 258.719C46.5092 258.019 45.1165 257.779 43.651 257.912L44.1942 263.888C44.4342 263.866 44.5798 263.882 44.6544 263.896C44.7242 263.909 44.7504 263.925 44.7557 263.928C44.7566 263.928 44.8569 263.98 45.0154 264.267C45.1842 264.573 45.3509 265.022 45.513 265.663C45.6764 266.308 45.7959 266.975 45.9456 267.761L51.8396 266.639ZM43.6336 257.914C40.2785 258.239 37.8425 260.567 36.4113 261.999L40.6539 266.241C42.1626 264.733 43.2267 263.981 44.2116 263.886L43.6336 257.914ZM36.4883 261.924C35.2371 263.089 34.3451 264.284 33.9748 265.871C33.8097 266.578 33.7771 267.247 33.7707 267.807C33.7657 268.246 33.7826 269.055 33.7826 269.51H39.7826C39.7826 269.162 39.7779 268.843 39.7742 268.572C39.7705 268.292 39.7681 268.072 39.7704 267.875C39.7749 267.477 39.7992 267.314 39.8179 267.234C39.8274 267.193 39.8386 267.151 39.9042 267.051C39.9891 266.923 40.1729 266.692 40.5768 266.316L36.4883 261.924ZM33.7847 269.397C33.7581 270.101 33.6339 271.001 33.4026 271.874C33.1638 272.774 32.8627 273.449 32.59 273.835C32.3083 274.235 32.3607 273.935 32.8283 273.915C33.2295 273.898 33.0241 274.136 32.1458 273.231L27.8394 277.409C29.236 278.849 30.9994 279.997 33.0784 279.91C35.2238 279.82 36.6631 278.47 37.4926 277.295C39.0814 275.043 39.7003 271.748 39.7804 269.623L33.7847 269.397ZM32.1361 273.221C31.2082 272.274 30.5914 270.59 30.343 268.179C30.1015 265.834 30.2542 263.331 30.3961 261.166L24.409 260.774C24.271 262.879 24.0736 265.871 24.3746 268.794C24.6688 271.65 25.4869 275.006 27.849 277.419L32.1361 273.221ZM30.3969 261.154C30.5329 258.945 30.7817 256.497 31.3461 254.231C31.9182 251.935 32.7524 250.087 33.8804 248.861L29.4648 244.799C27.3727 247.073 26.2119 250.02 25.5241 252.781C24.8285 255.573 24.5523 258.445 24.4082 260.786L30.3969 261.154ZM33.8937 248.847C34.9261 247.709 34.7806 248.494 33.8248 248.224C33.155 248.034 33.284 247.621 33.6883 248.616C34.3682 250.289 34.6602 253.111 34.6933 254.664L40.6919 254.536C40.6549 252.799 40.3519 249.076 39.2469 246.357C38.7586 245.155 37.6977 243.084 35.4572 242.45C32.9308 241.736 30.834 243.291 29.4514 244.813L33.8937 248.847ZM39.7865 256.748C42.2074 254.389 44.9874 253.064 47.2476 252.978C48.3302 252.937 49.2785 253.175 50.1011 253.693C50.9285 254.214 51.8024 255.129 52.5471 256.715L57.9781 254.165C56.8328 251.726 55.2567 249.85 53.2994 248.616C51.3373 247.38 49.1662 246.901 47.0201 246.982C42.8228 247.141 38.7078 249.421 35.5986 252.452L39.7865 256.748ZM52.5455 256.712C55.3194 262.638 55.9026 270.863 55.9026 277.91H61.9026C61.9026 270.817 61.3658 261.402 57.9796 254.168L52.5455 256.712ZM55.9026 277.91C55.9026 278.516 55.8119 279.195 55.6427 279.793C55.4625 280.431 55.2587 280.749 55.1881 280.829C55.1678 280.852 55.2425 280.758 55.4392 280.672C55.6626 280.574 55.9221 280.541 56.1518 280.577C56.3547 280.609 56.4041 280.674 56.29 280.594C56.1722 280.512 55.9438 280.319 55.6194 279.924L50.9857 283.736C52.0653 285.048 53.458 286.226 55.2155 286.504C57.2051 286.818 58.7514 285.864 59.6946 284.791C60.5777 283.786 61.1046 282.529 61.4165 281.425C61.7396 280.282 61.9026 279.054 61.9026 277.91H55.9026ZM86.5805 284.07L89.1165 285.673L89.1211 285.665L86.5805 284.07ZM77.6905 273.71L80.6857 273.54L80.3136 266.967L75.5971 271.561L77.6905 273.71ZM61.3105 264.54L58.3244 264.829L58.3257 264.842L58.3271 264.855L61.3105 264.54ZM61.8005 251.24L58.909 250.44L58.8975 250.482L58.8873 250.524L61.8005 251.24ZM70.7605 244.31L72.628 241.962L72.6206 241.956L70.7605 244.31ZM70.4105 257.12L67.4217 256.86L67.421 256.869L67.4203 256.878L70.4105 257.12ZM74.1905 263.49L72.0431 261.395L72.0347 261.404L74.1905 263.49ZM80.7705 253.27L82.4002 255.789L82.4002 255.789L80.7705 253.27ZM88.6805 260.55L91.6744 260.36L91.6715 260.314L91.6672 260.268L88.6805 260.55ZM88.3305 273.64L85.332 273.543L85.3314 273.562L85.3311 273.58L88.3305 273.64ZM84.0445 282.467C82.7373 284.536 82.5992 283.498 83.6211 283.755C83.9186 283.83 83.9201 283.957 83.6807 283.675C83.4567 283.411 83.1709 282.961 82.8583 282.292C81.5563 279.507 80.7754 275.126 80.6857 273.54L74.6953 273.88C74.8155 276.004 75.7147 281.178 77.4227 284.833C77.8626 285.774 78.4124 286.74 79.1049 287.556C79.7821 288.354 80.7811 289.227 82.1548 289.573C85.3293 290.373 87.6586 287.979 89.1165 285.673L84.0445 282.467ZM75.5971 271.561C73.9154 273.199 72.5351 273.74 71.5362 273.84C70.5599 273.937 69.5798 273.651 68.5865 272.912C66.4686 271.338 64.6867 267.942 64.2939 264.225L58.3271 264.855C58.8442 269.748 61.1924 274.892 65.007 277.728C66.9799 279.194 69.4166 280.081 72.1307 279.81C74.8221 279.542 77.4056 278.176 79.7838 275.859L75.5971 271.561ZM64.2965 264.251C63.8853 260.001 63.7877 255.722 64.7137 251.956L58.8873 250.524C57.7132 255.298 57.8957 260.399 58.3244 264.829L64.2965 264.251ZM64.6919 252.04C65.0613 250.704 66.0343 248.577 67.2186 247.268C67.8067 246.618 68.208 246.436 68.3534 246.401C68.3967 246.391 68.4145 246.392 68.4451 246.4C68.4855 246.41 68.638 246.456 68.9003 246.664L72.6206 241.956C70.9065 240.602 68.9351 240.094 66.9616 240.565C65.1623 240.994 63.7655 242.142 62.7699 243.242C60.7867 245.433 59.4496 248.486 58.909 250.44L64.6919 252.04ZM68.8929 246.658C68.8957 246.66 68.8968 246.661 68.8997 246.665C68.9032 246.669 68.9158 246.686 68.9338 246.724C68.972 246.804 69.0309 246.971 69.0678 247.266C69.1462 247.891 69.0904 248.769 68.8906 249.908C68.6937 251.03 68.4003 252.185 68.1039 253.385C67.8328 254.483 67.516 255.776 67.4217 256.86L73.3992 257.38C73.4449 256.854 73.6269 256.047 73.9289 254.824C74.2056 253.703 74.5597 252.316 74.8003 250.945C75.038 249.59 75.2097 248.023 75.0212 246.519C74.8289 244.985 74.2178 243.227 72.628 241.962L68.8929 246.658ZM67.4203 256.878C67.3146 258.181 67.16 261.292 67.7338 263.621C67.8849 264.235 68.1237 264.958 68.5336 265.629C68.9453 266.303 69.6664 267.137 70.8399 267.533C72.0578 267.943 73.2152 267.7 74.1022 267.278C74.9479 266.875 75.6919 266.253 76.3463 265.576L72.0347 261.404C71.6391 261.812 71.4708 261.885 71.525 261.859C71.6204 261.814 72.1067 261.628 72.757 261.847C73.3628 262.051 73.6196 262.445 73.6532 262.5C73.6849 262.552 73.6316 262.478 73.5596 262.186C73.4167 261.606 73.3366 260.747 73.3215 259.772C73.3069 258.831 73.3541 257.937 73.4007 257.362L67.4203 256.878ZM76.3378 265.585C78.2124 263.664 79.2056 261.023 79.9326 259.39C80.7802 257.485 81.4306 256.416 82.4002 255.789L79.1407 250.751C76.5403 252.434 75.3008 255.04 74.4508 256.95C73.4803 259.132 72.9685 260.446 72.0431 261.395L76.3378 265.585ZM82.4002 255.789C82.7331 255.573 82.9468 255.509 83.0463 255.489C83.1344 255.472 83.1731 255.48 83.1972 255.486C83.2698 255.506 83.5662 255.627 84.0009 256.192C84.9088 257.373 85.5567 259.379 85.6937 260.832L91.6672 260.268C91.4542 258.011 90.5271 254.837 88.7575 252.535C87.8534 251.359 86.5355 250.164 84.7335 249.686C82.8246 249.181 80.8945 249.616 79.1407 250.751L82.4002 255.789ZM85.6865 260.74C85.955 264.97 85.4826 268.874 85.332 273.543L91.3289 273.737C91.4583 269.726 91.9659 264.95 91.6744 260.36L85.6865 260.74ZM85.3311 273.58C85.2929 275.49 85.3291 277.098 85.1551 278.719C84.9873 280.282 84.6463 281.509 84.0398 282.475L89.1211 285.665C90.4047 283.621 90.9036 281.383 91.1208 279.359C91.3319 277.392 91.2981 275.29 91.3299 273.7L85.3311 273.58ZM126.465 280.29L128.498 278.083L128.496 278.082L126.465 280.29ZM120.725 264.05L123.622 263.268L117.783 264.638L120.725 264.05ZM113.865 269.16L114.88 271.983L114.899 271.976L114.919 271.969L113.865 269.16ZM107.075 263.28L104.259 264.314L104.261 264.32L107.075 263.28ZM101.055 261.88L102.985 264.177L103.012 264.154L103.038 264.131L101.055 261.88ZM97.9752 274.76L95.026 274.21L95.0201 274.241L95.015 274.273L97.9752 274.76ZM91.9552 273.99L89.0738 274.825L89.0801 274.847L89.0868 274.869L91.9552 273.99ZM91.0452 258.45L94.0379 258.658L94.0392 258.64L94.0402 258.623L91.0452 258.45ZM94.0552 245.78L92.0203 243.576L92.0138 243.582L94.0552 245.78ZM100.215 252.64L97.2327 252.316L96.1324 262.439L102.545 254.529L100.215 252.64ZM109.035 250.4L107.718 253.095L107.727 253.1L107.737 253.105L109.035 250.4ZM112.745 254.6L109.999 255.808L110.016 255.846L110.034 255.884L112.745 254.6ZM114.285 258.94L111.957 260.832L113.663 262.931L115.927 261.451L114.285 258.94ZM125.275 258.1L127.464 256.048L127.45 256.034L127.436 256.019L125.275 258.1ZM130.595 271.68L127.64 272.196L127.643 272.214L127.647 272.233L130.595 271.68ZM128.496 278.082C127.446 277.116 126.477 274.952 125.623 271.826C125.222 270.357 124.884 268.837 124.564 267.359C124.252 265.923 123.944 264.463 123.622 263.268L117.829 264.832C118.101 265.842 118.371 267.112 118.7 268.631C119.021 270.109 119.387 271.769 119.835 273.407C120.678 276.493 121.984 280.244 124.434 282.498L128.496 278.082ZM117.783 264.638C117.568 263.562 118.036 262.796 118.073 262.731C118.136 262.622 118.19 262.548 118.216 262.514C118.244 262.477 118.262 262.457 118.262 262.457C118.263 262.455 118.256 262.464 118.236 262.484C118.216 262.503 118.19 262.529 118.154 262.562C118.082 262.629 117.987 262.712 117.867 262.812C117.372 263.226 116.644 263.766 115.837 264.331C115.043 264.887 114.225 265.43 113.579 265.843C113.255 266.049 112.987 266.215 112.794 266.33C112.487 266.512 112.578 266.439 112.812 266.351L114.919 271.969C115.292 271.829 115.707 271.578 115.859 271.488C116.125 271.33 116.451 271.128 116.807 270.9C117.521 270.444 118.41 269.854 119.278 269.246C120.134 268.647 121.025 267.993 121.715 267.416C122.048 267.137 122.419 266.808 122.725 266.467C122.871 266.304 123.091 266.043 123.282 265.71C123.398 265.507 123.9 264.625 123.667 263.462L117.783 264.638ZM112.851 266.337C112.505 266.461 112.273 266.499 112.135 266.508C112.004 266.517 111.948 266.501 111.937 266.498C111.926 266.495 111.904 266.487 111.858 266.453C111.806 266.414 111.719 266.336 111.603 266.187C111.353 265.867 111.083 265.37 110.78 264.637C110.466 263.877 110.229 263.16 109.889 262.24L104.261 264.32C104.516 265.01 104.866 266.034 105.236 266.93C105.618 267.853 106.131 268.927 106.87 269.875C107.63 270.851 108.713 271.798 110.226 272.249C111.741 272.7 113.322 272.543 114.88 271.983L112.851 266.337ZM109.891 262.246C109.218 260.412 107.979 258.051 105.423 257.412C102.878 256.776 100.636 258.251 99.0721 259.629L103.038 264.131C103.641 263.6 104.035 263.369 104.238 263.282C104.415 263.207 104.275 263.31 103.968 263.233C103.657 263.155 103.57 262.994 103.67 263.119C103.789 263.269 104.005 263.622 104.259 264.314L109.891 262.246ZM99.1256 259.583C96.4407 261.838 95.7619 265.048 95.5066 267.572C95.3773 268.851 95.3402 270.187 95.2919 271.287C95.2407 272.456 95.176 273.406 95.026 274.21L100.924 275.31C101.159 274.049 101.235 272.724 101.286 271.55C101.341 270.308 101.369 269.233 101.476 268.176C101.693 266.027 102.17 264.862 102.985 264.177L99.1256 259.583ZM95.015 274.273C94.9292 274.794 94.8235 275.138 94.7372 275.347C94.6496 275.559 94.6048 275.577 94.6695 275.51C94.7476 275.428 94.9337 275.278 95.2319 275.197C95.5279 275.116 95.7796 275.145 95.9277 275.186C96.0602 275.223 96.0868 275.261 96.0183 275.209C95.9528 275.16 95.8358 275.054 95.6885 274.866C95.3902 274.486 95.0626 273.891 94.8235 273.111L89.0868 274.869C89.5127 276.259 90.1564 277.536 90.9693 278.572C91.7467 279.562 92.866 280.562 94.3176 280.966C95.9878 281.431 97.7322 280.988 99.0058 279.656C100.109 278.503 100.664 276.898 100.935 275.247L95.015 274.273ZM94.8366 273.155C93.5982 268.883 93.6888 263.686 94.0379 258.658L88.0524 258.242C87.7016 263.294 87.5121 269.437 89.0738 274.825L94.8366 273.155ZM94.0402 258.623C94.1574 256.592 94.1615 254.411 94.4927 252.223C94.8332 249.972 95.4179 248.609 96.0965 247.978L92.0138 243.582C89.7524 245.681 88.9371 248.833 88.5602 251.325C88.1738 253.879 88.143 256.668 88.0501 258.277L94.0402 258.623ZM96.09 247.984C96.8553 247.278 96.843 247.677 96.2919 247.546C95.8972 247.452 96.0011 247.252 96.3467 247.878C96.6497 248.427 96.9212 249.242 97.0893 250.16C97.2581 251.081 97.2808 251.873 97.2327 252.316L103.198 252.964C103.324 251.797 103.234 250.402 102.991 249.078C102.748 247.752 102.311 246.266 101.599 244.977C100.929 243.765 99.7119 242.192 97.6809 241.709C95.4936 241.188 93.53 242.182 92.0203 243.576L96.09 247.984ZM102.545 254.529C103.941 252.809 106.057 252.283 107.718 253.095L110.353 247.705C105.714 245.437 100.69 247.291 97.8849 250.751L102.545 254.529ZM107.737 253.105C108.603 253.52 109.39 254.423 109.999 255.808L115.491 253.392C114.561 251.277 112.967 248.96 110.333 247.695L107.737 253.105ZM110.034 255.884C110.181 256.194 110.247 256.553 110.498 257.569C110.687 258.333 111.034 259.696 111.957 260.832L116.613 257.048C116.626 257.064 116.519 256.922 116.322 256.129C116.189 255.587 115.939 254.336 115.456 253.316L110.034 255.884ZM115.927 261.451C117.836 260.203 119.205 259.396 120.395 259.146C120.908 259.039 121.3 259.06 121.645 259.167C121.995 259.276 122.489 259.532 123.114 260.181L127.436 256.019C126.241 254.778 124.906 253.897 123.423 253.437C121.936 252.975 120.49 252.996 119.165 253.274C116.68 253.794 114.374 255.297 112.643 256.429L115.927 261.451ZM123.087 260.152C124.254 261.397 125.219 263.244 125.993 265.479C126.757 267.683 127.267 270.059 127.64 272.196L133.55 271.164C133.154 268.891 132.578 266.157 131.662 263.514C130.757 260.901 129.447 258.163 127.464 256.048L123.087 260.152ZM127.647 272.233C127.814 273.127 128.068 276.13 127.725 278.163C127.644 278.642 127.549 278.935 127.485 279.078C127.408 279.248 127.474 278.993 127.868 278.756C128.385 278.445 128.899 278.497 129.104 278.562C129.2 278.593 129.005 278.55 128.498 278.083L124.433 282.497C125.256 283.255 126.2 283.932 127.27 284.275C128.45 284.654 129.773 284.612 130.96 283.898C132.023 283.259 132.618 282.292 132.956 281.541C133.306 280.763 133.512 279.925 133.641 279.162C134.137 276.225 133.796 272.473 133.544 271.127L127.647 272.233ZM140.645 277L140.687 280L140.693 280L140.645 277ZM133.575 270.14L136.544 269.716L136.542 269.7L136.54 269.684L133.575 270.14ZM133.155 253.69L130.157 253.563L130.157 253.575L133.155 253.69ZM133.715 238.85L136.684 239.274L136.692 239.222L136.697 239.17L133.715 238.85ZM136.375 233.04L135.333 230.227L135.296 230.24L135.26 230.255L136.375 233.04ZM140.855 235.28L143.518 233.899L143.514 233.892L140.855 235.28ZM141.695 241.51L144.694 241.44L144.693 241.423L144.693 241.407L141.695 241.51ZM141.695 250.47L138.708 250.186L137.835 259.352L143.94 252.459L141.695 250.47ZM150.375 247.67L149.151 250.409L149.161 250.414L149.171 250.418L150.375 247.67ZM151.215 270.21L153.679 271.92L153.687 271.91L151.215 270.21ZM140.505 267.69L137.577 267.033L136.681 271.026L140.759 270.679L140.505 267.69ZM147.155 260.34L144.329 259.331L144.319 259.361L144.308 259.391L147.155 260.34ZM145.405 256.35L144.41 253.52L144.386 253.528L144.361 253.537L145.405 256.35ZM140.602 274C138.676 274.028 138.025 273.555 137.718 273.221C137.279 272.743 136.839 271.775 136.544 269.716L130.605 270.564C130.94 272.915 131.585 275.412 133.298 277.279C135.144 279.29 137.713 280.042 140.687 280L140.602 274ZM136.54 269.684C135.751 264.555 135.941 259.312 136.152 253.805L130.157 253.575C129.949 258.988 129.719 264.805 130.609 270.596L136.54 269.684ZM136.152 253.817C136.259 251.271 136.225 248.651 136.251 246.276C136.276 243.836 136.363 241.526 136.684 239.274L130.745 238.426C130.366 241.074 130.278 243.699 130.251 246.212C130.224 248.789 130.26 251.139 130.157 253.563L136.152 253.817ZM136.697 239.17C136.807 238.15 136.923 237.233 137.175 236.494C137.433 235.738 137.627 235.77 137.489 235.825L135.26 230.255C133.022 231.15 131.991 233.107 131.497 234.556C130.996 236.022 130.832 237.59 130.732 238.53L136.697 239.17ZM137.416 235.853C137.443 235.844 137.431 235.851 137.408 235.848C137.396 235.847 137.432 235.848 137.517 235.897C137.715 236.01 137.992 236.279 138.195 236.668L143.514 233.892C142.877 232.671 141.859 231.47 140.5 230.691C139.079 229.877 137.242 229.519 135.333 230.227L137.416 235.853ZM138.191 236.661C138.415 237.092 138.559 237.682 138.624 238.563C138.701 239.612 138.65 240.267 138.696 241.613L144.693 241.407C144.669 240.723 144.688 239.208 144.608 238.122C144.515 236.868 144.275 235.358 143.518 233.899L138.191 236.661ZM138.695 241.58C138.77 244.782 138.966 247.48 138.708 250.186L144.681 250.754C144.983 247.58 144.759 244.258 144.694 241.44L138.695 241.58ZM143.94 252.459C145.813 250.345 147.691 249.757 149.151 250.409L151.598 244.931C146.478 242.643 141.916 245.695 139.449 248.481L143.94 252.459ZM149.171 250.418C151.664 251.51 152.749 254.038 152.425 257.986C152.103 261.9 150.392 266.111 148.742 268.51L153.687 271.91C155.887 268.709 157.991 263.505 158.404 258.477C158.815 253.482 157.555 247.54 151.578 244.922L149.171 250.418ZM148.75 268.5C146.578 271.629 143.495 273.954 140.596 274L140.693 280C146.474 279.906 151.091 275.651 153.679 271.92L148.75 268.5ZM140.759 270.679C143.649 270.433 145.764 268.48 147.089 266.777C148.475 264.996 149.46 262.91 150.001 261.289L144.308 259.391C143.939 260.5 143.244 261.949 142.355 263.091C141.406 264.31 140.65 264.667 140.25 264.701L140.759 270.679ZM149.98 261.349C150.406 260.155 150.828 258.28 150.435 256.59C150.223 255.677 149.659 254.389 148.262 253.657C146.891 252.938 145.463 253.15 144.41 253.52L146.399 259.18C146.641 259.095 146.167 259.333 145.476 258.971C144.76 258.595 144.602 257.994 144.591 257.948C144.58 257.901 144.611 258.03 144.567 258.368C144.526 258.676 144.44 259.021 144.329 259.331L149.98 261.349ZM144.361 253.537C140.792 254.861 139.381 258.067 138.717 260.567C138.374 261.855 138.172 263.167 138.015 264.274C137.846 265.462 137.736 266.326 137.577 267.033L143.432 268.347C143.658 267.339 143.811 266.129 143.955 265.121C144.11 264.032 144.271 263.025 144.515 262.108C145.023 260.198 145.677 259.449 146.448 259.163L144.361 253.537ZM165.884 273.85L165.36 276.804L165.366 276.805L165.884 273.85ZM162.174 249.56L164.353 251.622L164.358 251.616L164.364 251.61L162.174 249.56ZM174.914 245.71L175.772 242.835L175.768 242.834L174.914 245.71ZM179.604 257.33L181.842 259.328L181.85 259.319L179.604 257.33ZM172.464 260.55L173.037 263.495L173.037 263.495L172.464 260.55ZM166.514 263.91L163.519 263.737L163.519 263.744L166.514 263.91ZM175.194 261.88L176.376 264.637L176.376 264.637L175.194 261.88ZM177.434 270.42L179.555 272.541L179.555 272.541L177.434 270.42ZM170.504 256.14L167.777 254.89L166.405 257.884L169.513 258.972L170.504 256.14ZM174.634 253.97L177.391 252.788L176.74 251.269L175.108 251.008L174.634 253.97ZM166.407 270.896C164.402 270.541 163.089 269.608 162.202 268.384C161.271 267.098 160.698 265.325 160.566 263.223C160.295 258.916 161.925 254.188 164.353 251.622L159.995 247.498C156.263 251.442 154.218 257.879 154.577 263.599C154.76 266.511 155.578 269.467 157.342 271.903C159.151 274.4 161.836 276.179 165.36 276.804L166.407 270.896ZM164.364 251.61C166.818 248.989 170.865 247.637 174.06 248.586L175.768 242.834C170.003 241.123 163.69 243.551 159.984 247.51L164.364 251.61ZM174.056 248.585C175.573 249.038 177.032 250.292 177.733 251.746C178.375 253.078 178.294 254.284 177.358 255.341L181.85 259.319C184.694 256.106 184.613 252.202 183.138 249.141C181.721 246.203 178.945 243.782 175.772 242.835L174.056 248.585ZM177.366 255.332C176.36 256.459 174.453 257.107 171.891 257.605L173.037 263.495C175.515 263.013 179.348 262.121 181.842 259.328L177.366 255.332ZM171.891 257.605C171.467 257.688 171.003 257.719 170.258 257.78C169.617 257.832 168.698 257.91 167.807 258.162C166.871 258.426 165.752 258.938 164.868 260.004C163.981 261.074 163.597 262.382 163.519 263.737L169.509 264.083C169.536 263.618 169.633 263.657 169.488 263.833C169.345 264.004 169.228 263.995 169.438 263.936C169.694 263.864 170.066 263.815 170.744 263.76C171.317 263.713 172.201 263.657 173.037 263.495L171.891 257.605ZM163.519 263.744C163.463 264.743 163.53 265.867 163.991 266.889C164.525 268.075 165.528 268.966 166.855 269.265C167.978 269.519 169.009 269.274 169.69 269.041C170.419 268.791 171.113 268.427 171.713 268.067C172.911 267.35 174.12 266.413 175.017 265.712C175.495 265.337 175.868 265.043 176.178 264.812C176.573 264.517 176.573 264.553 176.376 264.637L174.012 259.123C173.448 259.365 172.89 259.779 172.591 260.002C172.208 260.287 171.751 260.649 171.32 260.986C170.396 261.709 169.462 262.421 168.63 262.92C168.215 263.169 167.922 263.304 167.747 263.364C167.526 263.44 167.736 263.313 168.177 263.413C168.821 263.559 169.28 264.022 169.462 264.426C169.57 264.666 169.477 264.652 169.509 264.076L163.519 263.744ZM176.376 264.637C177.4 264.198 177.164 264.639 176.608 264.235C176.205 263.943 176.398 263.738 176.443 264.47C176.481 265.088 176.366 265.932 176.093 266.764C175.807 267.637 175.465 268.146 175.313 268.299L179.555 272.541C180.627 271.469 181.353 269.983 181.795 268.631C182.251 267.239 182.525 265.628 182.432 264.103C182.346 262.691 181.888 260.653 180.131 259.378C178.22 257.993 175.928 258.302 174.012 259.123L176.376 264.637ZM175.313 268.299C173.15 270.462 169.555 271.448 166.402 270.895L165.366 276.805C170.193 277.652 175.838 276.258 179.555 272.541L175.313 268.299ZM169.513 258.972C170.486 259.312 171.487 259.285 172.217 259.189C173.005 259.086 173.819 258.859 174.558 258.527C175.252 258.216 176.132 257.7 176.795 256.871C177.544 255.934 178.092 254.424 177.391 252.788L171.876 255.152C171.722 254.792 171.666 254.356 171.753 253.919C171.833 253.515 172.007 253.251 172.108 253.125C172.274 252.918 172.345 252.944 172.102 253.053C171.905 253.141 171.656 253.211 171.44 253.24C171.336 253.253 171.277 253.252 171.262 253.252C171.239 253.25 171.33 253.251 171.495 253.308L169.513 258.972ZM175.108 251.008C172.117 250.529 169.145 251.905 167.777 254.89L173.231 257.39C173.349 257.132 173.481 257.035 173.569 256.99C173.668 256.939 173.855 256.884 174.16 256.932L175.108 251.008ZM186.127 274.55L183.531 276.054L183.536 276.063L183.541 276.071L186.127 274.55ZM184.867 247.18L187.811 247.759L187.812 247.75L184.867 247.18ZM188.437 239.9L189.579 242.674L189.59 242.67L189.601 242.665L188.437 239.9ZM194.807 247.11L191.854 247.64L193.261 255.475L197.375 248.661L194.807 247.11ZM205.307 240.81L206.023 237.897L206.013 237.894L206.004 237.892L205.307 240.81ZM213.147 250.4L216.133 250.111L216.129 250.073L216.125 250.034L213.147 250.4ZM210.067 254.81L210.164 257.808L210.206 257.807L210.249 257.805L210.067 254.81ZM205.447 252.01L203.669 254.426L203.676 254.431L203.683 254.436L205.447 252.01ZM197.117 255.58L194.54 254.045L194.535 254.052L194.531 254.059L197.117 255.58ZM194.107 263.14L197.056 263.689L197.057 263.683L194.107 263.14ZM193.057 272.17L190.098 271.677L190.097 271.685L193.057 272.17ZM188.723 273.046C186.941 269.97 186.241 265.799 186.266 261.144C186.291 256.537 187.02 251.78 187.811 247.759L181.923 246.601C181.104 250.77 180.294 255.953 180.266 261.111C180.238 266.221 180.973 271.64 183.531 276.054L188.723 273.046ZM187.812 247.75C188.031 246.619 188.286 245.303 188.721 244.16C189.21 242.875 189.613 242.66 189.579 242.674L187.295 237.126C184.881 238.12 183.709 240.46 183.113 242.027C182.463 243.737 182.123 245.571 181.922 246.61L187.812 247.75ZM189.601 242.665C189.752 242.601 189.792 242.615 189.747 242.614C189.698 242.613 189.665 242.597 189.674 242.601C189.741 242.636 190.011 242.827 190.382 243.428C191.129 244.636 191.638 246.435 191.854 247.64L197.76 246.58C197.486 245.055 196.805 242.409 195.487 240.274C194.826 239.205 193.845 238 192.42 237.266C190.851 236.459 189.054 236.385 187.273 237.135L189.601 242.665ZM197.375 248.661C198.386 246.986 199.585 245.513 200.877 244.593C202.099 243.724 203.289 243.412 204.61 243.728L206.004 237.892C202.635 237.088 199.696 238.071 197.399 239.704C195.174 241.287 193.468 243.524 192.239 245.559L197.375 248.661ZM204.591 243.723C205.748 244.007 207.058 244.905 208.183 246.333C209.301 247.751 210.002 249.4 210.169 250.766L216.125 250.034C215.802 247.41 214.578 244.754 212.896 242.619C211.221 240.495 208.856 238.593 206.023 237.897L204.591 243.723ZM210.161 250.689C210.219 251.285 210.085 251.653 210.007 251.779C209.977 251.825 209.971 251.817 209.998 251.801C210.029 251.782 210.011 251.808 209.886 251.815L210.249 257.805C212.408 257.674 214.095 256.561 215.098 254.954C216.034 253.452 216.285 251.685 216.133 250.111L210.161 250.689ZM209.97 251.812C209.866 251.815 209.787 251.836 209.427 251.54C209.191 251.346 208.975 251.132 208.585 250.76C208.238 250.429 207.77 249.99 207.212 249.584L203.683 254.436C203.894 254.59 204.117 254.79 204.442 255.1C204.724 255.369 205.159 255.798 205.615 256.173C206.637 257.014 208.098 257.875 210.164 257.808L209.97 251.812ZM207.225 249.594C205.946 248.653 204.545 248.054 203.044 247.959C201.529 247.864 200.192 248.301 199.085 248.964C197.02 250.199 195.546 252.355 194.54 254.045L199.694 257.115C200.648 255.515 201.484 254.521 202.167 254.111C202.434 253.952 202.579 253.942 202.668 253.948C202.77 253.954 203.093 254.002 203.669 254.426L207.225 249.594ZM194.531 254.059C193.025 256.619 191.732 259.476 191.157 262.597L197.057 263.683C197.463 261.484 198.409 259.301 199.703 257.101L194.531 254.059ZM191.158 262.591C190.847 264.259 190.697 265.917 190.567 267.422C190.433 268.973 190.319 270.348 190.098 271.677L196.016 272.663C196.285 271.052 196.417 269.417 196.545 267.94C196.677 266.418 196.807 265.031 197.056 263.689L191.158 262.591ZM190.097 271.685C189.974 272.433 189.74 273.058 189.481 273.501C189.208 273.969 189.003 274.081 189.023 274.07C189.05 274.057 189.139 274.02 189.273 274.016C189.412 274.012 189.511 274.045 189.545 274.061C189.577 274.075 189.237 273.92 188.713 273.029L183.541 276.071C184.417 277.56 185.556 278.831 187.04 279.513C188.645 280.25 190.318 280.14 191.736 279.422C194.257 278.144 195.596 275.227 196.018 272.655L190.097 271.685Z" fill="#ECFEFF" mask="url(#path-1-outside-1_175_241)"/>
</svg>
