<svg width="200" height="58" viewBox="0 0 200 58" fill="none" xmlns="http://www.w3.org/2000/svg">
<mask id="mask0_255_275" style="mask-type:luminance" maskUnits="userSpaceOnUse" x="4" y="4" width="196" height="54">
<path d="M4.6665 4.08337H200V58H4.6665V4.08337Z" fill="white"/>
</mask>
<g mask="url(#mask0_255_275)">
<path d="M189.062 57.7396H16.5832C15.88 57.7396 15.1821 57.6667 14.4946 57.5313C13.8071 57.3907 13.1353 57.1875 12.4894 56.9167C11.8384 56.6459 11.2238 56.3125 10.6353 55.9219C10.0519 55.5261 9.51546 55.0782 9.01546 54.5782C8.52067 54.0782 8.07796 53.5313 7.68734 52.9428C7.29671 52.3542 6.96859 51.7292 6.69775 51.0782C6.42692 50.4219 6.2238 49.75 6.08838 49.0521C5.95296 48.3594 5.88525 47.6563 5.88525 46.948V15.625C5.88525 14.9167 5.95296 14.2136 6.08838 13.5209C6.2238 12.823 6.42692 12.1511 6.69775 11.4948C6.96859 10.8386 7.29671 10.2188 7.68734 9.63025C8.07796 9.04171 8.52067 8.49483 9.01546 7.99483C9.51546 7.49483 10.0519 7.04692 10.6353 6.65108C11.2238 6.26046 11.8384 5.92712 12.4894 5.65629C13.1353 5.38546 13.8071 5.17712 14.4946 5.04171C15.1821 4.90108 15.88 4.83337 16.5832 4.83337H189.062C189.765 4.83337 190.458 4.90108 191.151 5.04171C191.838 5.17712 192.505 5.38546 193.156 5.65629C193.802 5.92712 194.422 6.26046 195.005 6.65108C195.588 7.04692 196.13 7.49483 196.625 7.99483C197.125 8.49483 197.568 9.04171 197.958 9.63025C198.349 10.2188 198.677 10.8386 198.943 11.4948C199.213 12.1511 199.417 12.823 199.552 13.5209C199.693 14.2136 199.76 14.9167 199.76 15.625V46.948C199.76 47.6563 199.693 48.3594 199.552 49.0521C199.417 49.75 199.213 50.4219 198.943 51.0782C198.677 51.7292 198.349 52.3542 197.958 52.9428C197.568 53.5313 197.125 54.0782 196.625 54.5782C196.13 55.0782 195.588 55.5261 195.005 55.9219C194.422 56.3125 193.802 56.6459 193.156 56.9167C192.505 57.1875 191.838 57.3907 191.151 57.5313C190.458 57.6667 189.765 57.7396 189.062 57.7396Z" fill="#0E7490"/>
<path d="M188.901 57.9532H16.7603C10.6405 57.9532 5.677 52.7552 5.677 46.3646V16.2032C5.677 9.81254 10.651 4.61462 16.7603 4.61462H188.901C195.021 4.61462 199.99 9.81254 199.99 16.2032V46.3646C199.969 52.7552 194.995 57.9532 188.901 57.9532ZM16.7603 5.04692C10.8749 5.04692 6.09367 10.0521 6.09367 16.2032V46.3646C6.09367 52.5157 10.8749 57.5209 16.7603 57.5209H188.901C194.786 57.5209 199.573 52.5157 199.573 46.3646V16.2032C199.573 10.0521 194.786 5.04692 188.901 5.04692H16.7603Z" fill="#0E7490"/>
</g>
<mask id="mask1_255_275" style="mask-type:luminance" maskUnits="userSpaceOnUse" x="0" y="0" width="193" height="51">
<path d="M0 0.083374H192.667V50.75H0V0.083374Z" fill="white"/>
</mask>
<g mask="url(#mask1_255_275)">
<path d="M183.76 50.4427H8.96354C8.39063 50.4427 7.81771 50.3854 7.25521 50.2709C6.69271 50.1563 6.14063 49.9896 5.60938 49.7709C5.07813 49.5469 4.57292 49.2761 4.09896 48.9532C3.61979 48.6302 3.17708 48.2657 2.77083 47.8542C2.36458 47.4427 2 46.9948 1.68229 46.5157C1.35937 46.0313 1.08854 45.5209 0.869792 44.9844C0.651041 44.4532 0.484374 43.8959 0.369792 43.3282C0.260416 42.7604 0.203125 42.1875 0.203125 41.6042V9.06774C0.203125 8.48962 0.260416 7.9167 0.369792 7.34378C0.484374 6.77607 0.651041 6.22399 0.869792 5.68753C1.08854 5.15107 1.35937 4.64066 1.68229 4.16149C2 3.67711 2.36458 3.2292 2.77083 2.82295C3.17708 2.41149 3.61979 2.0469 4.09896 1.72399C4.57292 1.40107 5.07813 1.13024 5.60938 0.906281C6.14063 0.682322 6.69271 0.515656 7.25521 0.401072C7.81771 0.291698 8.39063 0.234406 8.96354 0.234406H183.76C184.339 0.234406 184.906 0.291698 185.469 0.401072C186.036 0.515656 186.583 0.682322 187.115 0.906281C187.646 1.13024 188.151 1.40107 188.63 1.72399C189.104 2.0469 189.547 2.41149 189.958 2.82295C190.365 3.2292 190.724 3.67711 191.047 4.16149C191.365 4.64066 191.635 5.15107 191.854 5.68753C192.073 6.22399 192.24 6.77607 192.354 7.34378C192.464 7.9167 192.521 8.48962 192.521 9.06774V41.6042C192.521 42.1875 192.464 42.7604 192.354 43.3282C192.24 43.8959 192.073 44.4532 191.854 44.9844C191.635 45.5209 191.365 46.0313 191.047 46.5157C190.724 46.9948 190.365 47.4427 189.958 47.8542C189.547 48.2657 189.104 48.6302 188.63 48.9532C188.151 49.2761 187.646 49.5469 187.115 49.7709C186.583 49.9896 186.036 50.1563 185.469 50.2709C184.906 50.3854 184.339 50.4427 183.76 50.4427Z" fill="#0891B2"/>
</g>
<mask id="mask2_255_275" style="mask-type:luminance" maskUnits="userSpaceOnUse" x="0" y="0" width="194" height="51">
<path d="M0 0H194V50.75H0V0Z" fill="white"/>
</mask>
<g mask="url(#mask2_255_275)">
<path d="M183.76 50.6458H8.97396C8.38542 50.6458 7.80208 50.5885 7.22396 50.474C6.64583 50.3594 6.08333 50.1875 5.54167 49.9583C4.99479 49.7292 4.47917 49.4531 3.98958 49.1198C3.5 48.7917 3.04688 48.4167 2.63021 47.9948C2.21354 47.5729 1.83854 47.1198 1.51042 46.625C1.1875 46.1302 0.90625 45.6094 0.682292 45.0573C0.458333 44.5104 0.286459 43.9427 0.171875 43.3594C0.0572923 42.776 0 42.1875 0 41.5938V9.08334C0 8.48438 0.0572923 7.89584 0.171875 7.31251C0.286459 6.73438 0.458333 6.16667 0.682292 5.61459C0.90625 5.06771 1.1875 4.54688 1.51042 4.05209C1.83854 3.5573 2.21354 3.09896 2.63021 2.67709C3.04688 2.26042 3.5 1.88542 3.98958 1.55209C4.47917 1.22396 4.99479 0.942714 5.54167 0.718755C6.08333 0.48959 6.64583 0.317713 7.22396 0.20313C7.80208 0.0833381 8.38542 0.0260468 8.97396 0.0260468H183.76C184.349 0.0260468 184.932 0.0833381 185.51 0.20313C186.089 0.317713 186.651 0.48959 187.198 0.718755C187.74 0.942714 188.26 1.22396 188.75 1.55209C189.24 1.88542 189.693 2.26042 190.109 2.67709C190.526 3.09896 190.896 3.5573 191.224 4.05209C191.552 4.54688 191.828 5.06771 192.052 5.61459C192.281 6.16667 192.448 6.73438 192.568 7.31251C192.682 7.89584 192.74 8.48438 192.74 9.08334V41.5938C192.74 42.1875 192.682 42.776 192.568 43.3594C192.448 43.9427 192.281 44.5104 192.052 45.0573C191.828 45.6094 191.552 46.1302 191.224 46.625C190.896 47.1198 190.526 47.5729 190.109 47.9948C189.693 48.4167 189.24 48.7917 188.75 49.1198C188.26 49.4531 187.74 49.7292 187.198 49.9583C186.651 50.1875 186.089 50.3594 185.51 50.474C184.932 50.5885 184.349 50.6458 183.76 50.6458ZM8.97396 0.437505C8.41146 0.437505 7.85417 0.494797 7.30208 0.604172C6.75521 0.713546 6.21875 0.880213 5.69792 1.09896C5.17708 1.3125 4.68229 1.57813 4.21354 1.89584C3.75 2.20834 3.31771 2.56771 2.91667 2.96876C2.52083 3.3698 2.16667 3.8073 1.85417 4.28126C1.54167 4.75 1.27604 5.25001 1.0625 5.77605C0.843749 6.29688 0.682291 6.83855 0.572917 7.39584C0.463541 7.95313 0.40625 8.51563 0.40625 9.08334V41.5938C0.40625 42.1615 0.463541 42.724 0.572917 43.2813C0.682291 43.8333 0.843749 44.375 1.0625 44.901C1.27604 45.4271 1.54167 45.9219 1.85417 46.3958C2.16667 46.8646 2.52083 47.3021 2.91667 47.7031C3.31771 48.1042 3.75 48.4635 4.21354 48.7813C4.68229 49.0938 5.17708 49.3594 5.69792 49.5781C6.21875 49.7969 6.75521 49.9583 7.30208 50.0677C7.85417 50.1823 8.41146 50.2344 8.97396 50.2344H183.76C184.323 50.2344 184.88 50.1823 185.432 50.0677C185.984 49.9583 186.521 49.7969 187.042 49.5781C187.563 49.3594 188.052 49.0938 188.521 48.7813C188.99 48.4635 189.422 48.1042 189.818 47.7031C190.219 47.3021 190.573 46.8646 190.885 46.3958C191.198 45.9219 191.464 45.4271 191.677 44.901C191.891 44.375 192.057 43.8333 192.167 43.2813C192.276 42.724 192.328 42.1615 192.328 41.5938V9.08334C192.328 8.51563 192.276 7.95313 192.167 7.39584C192.057 6.83855 191.891 6.29688 191.677 5.77605C191.464 5.25001 191.198 4.75 190.885 4.28126C190.573 3.8073 190.219 3.3698 189.818 2.96876C189.422 2.56771 188.99 2.20834 188.521 1.89584C188.052 1.57813 187.563 1.3125 187.042 1.09896C186.521 0.880213 185.984 0.713546 185.432 0.604172C184.88 0.494797 184.323 0.437505 183.76 0.437505H8.97396Z" fill="#0E7490"/>
</g>
<mask id="path-8-outside-1_255_275" maskUnits="userSpaceOnUse" x="73" y="10" width="53" height="27" fill="black">
<rect fill="white" x="73" y="10" width="53" height="27"/>
<path d="M77.7379 32.506C76.4379 33.754 74.9819 32.376 74.7219 31.024C74.3579 29.282 74.5919 28.06 74.5659 26.292C74.5139 23.952 74.4359 21.612 74.4359 19.272C74.4099 17.868 74.3839 16.282 75.9179 15.71C80.1039 14.176 79.0379 20.442 78.8299 22.496C79.9739 22.444 81.0919 22.522 82.2099 22.522C82.0019 20.754 81.4819 18.622 81.9759 16.854C82.3919 15.346 84.2119 13.916 85.6939 15.164C87.4099 16.594 85.9539 26.682 85.7979 28.632C85.7199 29.854 84.9659 33.884 83.0419 31.674C81.7939 30.218 82.3919 27.618 82.4699 25.928C81.6379 26.058 79.7399 25.98 79.0379 26.396C78.4139 26.76 78.6219 27.462 78.5959 28.372C78.5439 29.62 78.7259 31.544 77.7379 32.506ZM89.5939 32.714C87.5919 34.092 87.5139 30.088 87.4619 29.204C87.4099 28.034 87.4879 26.812 87.5659 25.642C87.6179 24.706 87.4619 23.276 88.1899 22.6C90.2179 20.65 90.4779 24.81 90.5819 25.876C90.7379 27.306 90.6079 28.684 90.3999 30.114C90.2699 30.842 90.2959 32.22 89.5939 32.714ZM87.6959 20.65C86.8899 19.142 88.5799 17.348 89.7239 19.038C90.8679 20.702 88.6839 22.444 87.6959 20.65ZM101.146 34.794C100.002 33.442 99.8196 31.024 99.5076 29.36C99.2996 28.268 99.0916 26.89 97.6616 27.02C96.8556 27.098 96.2056 27.67 95.6596 28.216C94.9056 28.918 95.0096 29.256 95.0096 30.218C94.9576 31.596 94.1776 34.118 92.4876 32.376C91.2656 31.128 91.4216 28.632 91.5256 27.046C91.6296 25.356 91.9156 23.094 93.1116 21.794C94.9056 19.818 95.3216 23.458 95.3476 24.68C97.4016 22.678 100.47 22.002 101.874 24.992C103.018 27.436 103.226 30.712 103.226 33.338C103.226 34.638 102.472 36.406 101.146 34.794ZM109.221 34.846C107.687 36.068 107.219 33.286 107.037 32.246C106.621 29.75 106.413 27.176 106.309 24.654C106.205 22.964 106.647 20.65 105.971 20.182L104.853 20C104.333 19.922 103.761 19.844 103.293 19.636C102.409 19.22 101.967 18.362 102.695 17.504C103.241 16.854 104.307 16.75 105.113 16.672L106.595 16.204C106.829 15.84 106.777 15.008 106.855 14.566C107.037 13.63 107.245 12.434 108.051 11.758C109.767 10.068 110.235 14.722 110.625 15.684C110.885 16.308 110.677 16.23 111.509 16.282C113.069 16.386 113.173 16.386 114.005 16.698C114.707 16.958 115.617 17.426 115.825 18.206C116.163 19.428 114.421 19.896 113.563 20.078L111.431 20.338C110.807 20.52 111.119 20.182 110.885 20.676V21.586C110.885 24.654 110.781 27.774 110.443 30.842C110.287 31.986 110.209 34.066 109.221 34.846ZM118.137 34.248C117.149 34.612 115.849 34.846 115.017 34.066C114.185 33.312 114.159 32.454 114.809 31.622C115.849 30.322 118.111 30.166 118.735 28.528C119.177 27.384 118.293 26.916 117.617 26.214C116.837 25.382 116.473 24.316 116.759 23.172C117.175 21.352 118.787 20.416 120.451 19.896C121.647 19.532 123.857 19.116 124.429 20.676C125.417 23.276 120.425 23.094 120.269 25.174C120.191 26.24 121.569 26.786 122.037 27.566C122.531 28.398 122.531 29.36 122.245 30.244C121.647 32.142 119.957 33.572 118.137 34.248Z"/>
</mask>
<path d="M77.7379 32.506C76.4379 33.754 74.9819 32.376 74.7219 31.024C74.3579 29.282 74.5919 28.06 74.5659 26.292C74.5139 23.952 74.4359 21.612 74.4359 19.272C74.4099 17.868 74.3839 16.282 75.9179 15.71C80.1039 14.176 79.0379 20.442 78.8299 22.496C79.9739 22.444 81.0919 22.522 82.2099 22.522C82.0019 20.754 81.4819 18.622 81.9759 16.854C82.3919 15.346 84.2119 13.916 85.6939 15.164C87.4099 16.594 85.9539 26.682 85.7979 28.632C85.7199 29.854 84.9659 33.884 83.0419 31.674C81.7939 30.218 82.3919 27.618 82.4699 25.928C81.6379 26.058 79.7399 25.98 79.0379 26.396C78.4139 26.76 78.6219 27.462 78.5959 28.372C78.5439 29.62 78.7259 31.544 77.7379 32.506ZM89.5939 32.714C87.5919 34.092 87.5139 30.088 87.4619 29.204C87.4099 28.034 87.4879 26.812 87.5659 25.642C87.6179 24.706 87.4619 23.276 88.1899 22.6C90.2179 20.65 90.4779 24.81 90.5819 25.876C90.7379 27.306 90.6079 28.684 90.3999 30.114C90.2699 30.842 90.2959 32.22 89.5939 32.714ZM87.6959 20.65C86.8899 19.142 88.5799 17.348 89.7239 19.038C90.8679 20.702 88.6839 22.444 87.6959 20.65ZM101.146 34.794C100.002 33.442 99.8196 31.024 99.5076 29.36C99.2996 28.268 99.0916 26.89 97.6616 27.02C96.8556 27.098 96.2056 27.67 95.6596 28.216C94.9056 28.918 95.0096 29.256 95.0096 30.218C94.9576 31.596 94.1776 34.118 92.4876 32.376C91.2656 31.128 91.4216 28.632 91.5256 27.046C91.6296 25.356 91.9156 23.094 93.1116 21.794C94.9056 19.818 95.3216 23.458 95.3476 24.68C97.4016 22.678 100.47 22.002 101.874 24.992C103.018 27.436 103.226 30.712 103.226 33.338C103.226 34.638 102.472 36.406 101.146 34.794ZM109.221 34.846C107.687 36.068 107.219 33.286 107.037 32.246C106.621 29.75 106.413 27.176 106.309 24.654C106.205 22.964 106.647 20.65 105.971 20.182L104.853 20C104.333 19.922 103.761 19.844 103.293 19.636C102.409 19.22 101.967 18.362 102.695 17.504C103.241 16.854 104.307 16.75 105.113 16.672L106.595 16.204C106.829 15.84 106.777 15.008 106.855 14.566C107.037 13.63 107.245 12.434 108.051 11.758C109.767 10.068 110.235 14.722 110.625 15.684C110.885 16.308 110.677 16.23 111.509 16.282C113.069 16.386 113.173 16.386 114.005 16.698C114.707 16.958 115.617 17.426 115.825 18.206C116.163 19.428 114.421 19.896 113.563 20.078L111.431 20.338C110.807 20.52 111.119 20.182 110.885 20.676V21.586C110.885 24.654 110.781 27.774 110.443 30.842C110.287 31.986 110.209 34.066 109.221 34.846ZM118.137 34.248C117.149 34.612 115.849 34.846 115.017 34.066C114.185 33.312 114.159 32.454 114.809 31.622C115.849 30.322 118.111 30.166 118.735 28.528C119.177 27.384 118.293 26.916 117.617 26.214C116.837 25.382 116.473 24.316 116.759 23.172C117.175 21.352 118.787 20.416 120.451 19.896C121.647 19.532 123.857 19.116 124.429 20.676C125.417 23.276 120.425 23.094 120.269 25.174C120.191 26.24 121.569 26.786 122.037 27.566C122.531 28.398 122.531 29.36 122.245 30.244C121.647 32.142 119.957 33.572 118.137 34.248Z" fill="white"/>
<path d="M77.7379 32.506L78.4304 33.2274L78.4355 33.2225L77.7379 32.506ZM74.7219 31.024L75.7039 30.8352L75.7024 30.8273L75.7008 30.8195L74.7219 31.024ZM74.5659 26.292L75.5658 26.2773L75.5657 26.2698L74.5659 26.292ZM74.4359 19.272H75.4359V19.2627L75.4357 19.2535L74.4359 19.272ZM75.9179 15.71L75.5738 14.771L75.5685 14.773L75.9179 15.71ZM78.8299 22.496L77.835 22.3952L77.7183 23.5476L78.8753 23.495L78.8299 22.496ZM82.2099 22.522V23.522H83.3344L83.203 22.4052L82.2099 22.522ZM81.9759 16.854L82.939 17.1231L82.9399 17.1199L81.9759 16.854ZM85.6939 15.164L85.0498 15.9289L85.0537 15.9322L85.6939 15.164ZM85.7979 28.632L84.8011 28.5523L84.8004 28.5603L84.7999 28.5683L85.7979 28.632ZM83.0419 31.674L82.2826 32.3248L82.2877 32.3306L83.0419 31.674ZM82.4699 25.928L83.4688 25.9741L83.5253 24.751L82.3155 24.94L82.4699 25.928ZM79.0379 26.396L79.5418 27.2598L79.5477 27.2563L79.0379 26.396ZM78.5959 28.372L79.5951 28.4136L79.5955 28.4006L78.5959 28.372ZM77.0454 31.7846C76.8593 31.9632 76.734 31.9897 76.6771 31.9941C76.6122 31.9991 76.5136 31.9839 76.3787 31.8976C76.0783 31.7054 75.7886 31.2754 75.7039 30.8352L73.7399 31.2128C73.9152 32.1246 74.4835 33.0596 75.3011 33.5824C75.7252 33.8536 76.2506 34.0334 76.8324 33.988C77.4223 33.9421 77.9665 33.6728 78.4304 33.2274L77.0454 31.7846ZM75.7008 30.8195C75.5387 30.0439 75.5079 29.3813 75.5171 28.6808C75.5257 28.0238 75.5788 27.1623 75.5658 26.2773L73.566 26.3067C73.579 27.1897 73.5281 27.8232 73.5172 28.6547C73.5069 29.4427 73.5411 30.2621 73.743 31.2285L75.7008 30.8195ZM75.5657 26.2698C75.5133 23.915 75.4359 21.5972 75.4359 19.272H73.4359C73.4359 21.6268 73.5145 23.989 73.5661 26.3142L75.5657 26.2698ZM75.4357 19.2535C75.4221 18.5165 75.42 17.9255 75.5542 17.4512C75.667 17.0521 75.8545 16.8009 76.2673 16.647L75.5685 14.773C74.4473 15.1911 73.8808 16.0189 73.6296 16.9068C73.3998 17.7195 73.4237 18.6235 73.4361 19.2905L75.4357 19.2535ZM76.262 16.6489C77.1213 16.334 77.4197 16.5125 77.5286 16.6031C77.7197 16.762 77.9258 17.1499 78.0315 17.8975C78.2401 19.3727 77.9486 21.2732 77.835 22.3952L79.8248 22.5968C79.9192 21.6648 80.2647 19.4053 80.0118 17.6175C79.8868 16.7336 79.5875 15.7142 78.8076 15.0655C77.9456 14.3485 76.8075 14.319 75.5738 14.7711L76.262 16.6489ZM78.8753 23.495C80.0047 23.4436 80.9843 23.522 82.2099 23.522V21.522C81.1995 21.522 79.9431 21.4444 78.7845 21.497L78.8753 23.495ZM83.203 22.4052C83.1488 21.9444 83.0742 21.4595 83.0054 20.9931C82.9353 20.5184 82.8695 20.0523 82.825 19.5918C82.735 18.6606 82.7414 17.8305 82.939 17.1231L81.0128 16.5849C80.7164 17.6455 80.7358 18.7654 80.8343 19.7842C80.884 20.2987 80.9563 20.8076 81.0268 21.2852C81.0986 21.771 81.167 22.2156 81.2167 22.6388L83.203 22.4052ZM82.9399 17.1199C83.0793 16.6146 83.473 16.102 83.926 15.8467C84.3236 15.6228 84.6843 15.6212 85.0498 15.9289L86.338 14.3991C85.2215 13.4588 83.9312 13.5482 82.9443 14.1043C82.0128 14.629 81.2885 15.5854 81.0119 16.5881L82.9399 17.1199ZM85.0537 15.9322C85.0407 15.9213 85.1338 16.0057 85.2391 16.3589C85.3362 16.6849 85.4116 17.1297 85.4598 17.6841C85.5559 18.7898 85.5331 20.1896 85.4495 21.6457C85.2792 24.6144 84.8889 27.4548 84.8011 28.5523L86.7947 28.7117C86.8629 27.8592 87.2786 24.6806 87.4463 21.7603C87.5317 20.2719 87.5609 18.7597 87.4523 17.5108C87.3981 16.8879 87.3069 16.2947 87.1558 15.7877C87.0128 15.3079 86.7761 14.7642 86.3341 14.3958L85.0537 15.9322ZM84.7999 28.5683C84.7647 29.1208 84.5703 30.2824 84.2164 30.9954C84.0201 31.391 83.9174 31.3612 84.0294 31.3331C84.2461 31.2786 84.1968 31.4776 83.7961 31.0174L82.2877 32.3306C82.849 32.9754 83.6154 33.4994 84.5171 33.2727C85.3141 33.0723 85.7655 32.373 86.0079 31.8846C86.5315 30.8296 86.7531 29.3652 86.7959 28.6957L84.7999 28.5683ZM83.8012 31.0232C83.419 30.5773 83.2556 29.8724 83.2586 28.8919C83.2601 28.4184 83.2994 27.9274 83.3465 27.4279C83.3918 26.9465 83.4479 26.4281 83.4688 25.9741L81.471 25.8819C81.4529 26.2729 81.405 26.7133 81.3553 27.2402C81.3073 27.749 81.2604 28.3159 81.2587 28.8856C81.2552 29.9916 81.4168 31.3147 82.2826 32.3248L83.8012 31.0232ZM82.3155 24.94C81.9494 24.9972 81.3996 25.0013 80.6322 25.0574C80.2861 25.0827 79.9151 25.1192 79.5726 25.1821C79.2493 25.2415 78.8584 25.34 78.5281 25.5357L79.5477 27.2563C79.5468 27.2568 79.5543 27.2523 79.5731 27.2444C79.5916 27.2365 79.6177 27.2267 79.6526 27.2158C79.7237 27.1935 79.8168 27.1707 79.934 27.1492C80.1708 27.1057 80.458 27.0755 80.7781 27.0521C81.3432 27.0107 82.1584 26.9888 82.6243 26.916L82.3155 24.94ZM78.534 25.5322C78.2244 25.7128 77.9837 25.96 77.8232 26.2667C77.6709 26.5578 77.6174 26.852 77.5964 27.0922C77.5759 27.3269 77.5828 27.5682 77.5886 27.7611C77.5951 27.9711 77.6018 28.1521 77.5963 28.3434L79.5955 28.4006C79.603 28.1369 79.5935 27.8889 79.5877 27.7C79.5814 27.494 79.5801 27.3663 79.5889 27.2663C79.5971 27.1718 79.6103 27.1653 79.5953 27.1939C79.5721 27.2383 79.5394 27.2612 79.5418 27.2598L78.534 25.5322ZM77.5968 28.3304C77.5654 29.084 77.6049 29.7109 77.5241 30.4354C77.4466 31.1299 77.2784 31.5577 77.0403 31.7895L78.4355 33.2225C79.1854 32.4923 79.4202 31.4771 79.5117 30.6571C79.5999 29.8671 79.5744 28.908 79.595 28.4136L77.5968 28.3304ZM89.5939 32.714L90.1609 33.5378L90.1694 33.5318L89.5939 32.714ZM87.4619 29.204L86.4629 29.2484L86.4632 29.2556L86.4636 29.2627L87.4619 29.204ZM87.5659 25.642L88.5637 25.7085L88.5644 25.6975L87.5659 25.642ZM88.1899 22.6L88.8703 23.3328L88.8767 23.3269L88.883 23.3208L88.1899 22.6ZM90.5819 25.876L89.5866 25.9731L89.5878 25.9844L90.5819 25.876ZM90.3999 30.114L91.3843 30.2898L91.3872 30.2739L91.3895 30.2579L90.3999 30.114ZM87.6959 20.65L86.8139 21.1214L86.82 21.1324L87.6959 20.65ZM89.7239 19.038L88.8958 19.5986L88.8999 19.6045L89.7239 19.038ZM89.0269 31.8903C88.8636 32.0027 88.8005 32.0032 88.8236 32.0007C88.8704 31.9957 88.9376 32.0118 88.9827 32.0422C89.0014 32.0548 88.8831 31.9572 88.756 31.5251C88.5204 30.7241 88.4898 29.6487 88.4602 29.1453L86.4636 29.2627C86.486 29.6433 86.5204 31.0119 86.8373 32.0894C86.9864 32.5965 87.2662 33.2968 87.8642 33.7002C88.1991 33.9261 88.6012 34.0358 89.0357 33.9894C89.4464 33.9456 89.8237 33.7698 90.1609 33.5377L89.0269 31.8903ZM88.4609 29.1596C88.4118 28.0538 88.4852 26.8862 88.5637 25.7085L86.5681 25.5755C86.4906 26.7378 86.408 28.0142 86.4629 29.2484L88.4609 29.1596ZM88.5644 25.6975C88.5789 25.4364 88.5791 25.1351 88.5829 24.8816C88.5868 24.6106 88.5946 24.3602 88.619 24.1276C88.6719 23.6221 88.7849 23.4121 88.8703 23.3328L87.5094 21.8672C86.8668 22.4639 86.6939 23.3069 86.6298 23.9194C86.5957 24.2458 86.5872 24.5707 86.5831 24.8522C86.5787 25.1512 86.5789 25.3796 86.5674 25.5865L88.5644 25.6975ZM88.883 23.3208C89.3016 22.9183 89.2724 23.1699 89.013 23.0594C88.9024 23.0124 89.0087 23.0033 89.1655 23.4429C89.4448 24.2261 89.5283 25.3755 89.5866 25.9731L91.5772 25.7789C91.5315 25.3105 91.433 23.8469 91.0493 22.7711C90.8746 22.2812 90.5291 21.5311 89.7962 21.2192C88.9144 20.8439 88.0922 21.3067 87.4968 21.8792L88.883 23.3208ZM89.5878 25.9844C89.73 27.2877 89.6145 28.5663 89.4103 29.9701L91.3895 30.2579C91.6013 28.8017 91.7458 27.3243 91.576 25.7676L89.5878 25.9844ZM89.4155 29.9382C89.3756 30.1614 89.3485 30.4287 89.3241 30.6465C89.2974 30.8842 89.2702 31.1045 89.2301 31.3093C89.1895 31.5163 89.1424 31.6701 89.092 31.7778C89.0425 31.8837 89.0097 31.9023 89.0184 31.8962L90.1694 33.5318C90.8649 33.0424 91.0901 32.2174 91.1927 31.6942C91.2501 31.4017 91.2846 31.1102 91.3116 30.8693C91.3408 30.6085 91.3592 30.4306 91.3843 30.2898L89.4155 29.9382ZM88.5778 20.1786C88.3956 19.8377 88.5175 19.5073 88.6541 19.3821C88.7085 19.3323 88.7097 19.3608 88.663 19.3538C88.6169 19.3469 88.7174 19.3351 88.8958 19.5986L90.552 18.4774C90.1584 17.8959 89.6186 17.4746 88.9591 17.3759C88.299 17.2771 87.7135 17.5314 87.3032 17.9074C86.5103 18.6337 86.1902 19.9543 86.814 21.1214L88.5778 20.1786ZM88.8999 19.6045C89.0481 19.8201 89.0577 19.9833 89.0412 20.0856C89.0223 20.2034 88.9591 20.3006 88.8865 20.3585C88.8516 20.3862 88.822 20.399 88.8037 20.4041C88.787 20.4088 88.7805 20.4072 88.7802 20.4071C88.7793 20.407 88.7762 20.4063 88.7702 20.4035C88.7642 20.4007 88.7525 20.3944 88.7357 20.3811C88.7025 20.3547 88.6415 20.294 88.5718 20.1676L86.82 21.1324C87.1788 21.784 87.725 22.2402 88.4007 22.3708C89.0585 22.4979 89.6788 22.2842 90.1323 21.923C91.0535 21.1895 91.4289 19.7529 90.5479 18.4715L88.8999 19.6045ZM101.146 34.794L101.918 34.1587L101.909 34.1481L101.146 34.794ZM99.5076 29.36L100.49 29.1757L100.49 29.1729L99.5076 29.36ZM97.6616 27.02L97.5711 26.0241L97.5653 26.0246L97.6616 27.02ZM95.6596 28.216L96.341 28.9479L96.3541 28.9357L96.3667 28.9231L95.6596 28.216ZM95.0096 30.218L96.0089 30.2557L96.0096 30.2369V30.218H95.0096ZM92.4876 32.376L93.2054 31.6797L93.2021 31.6764L92.4876 32.376ZM91.5256 27.046L92.5235 27.1114L92.5237 27.1074L91.5256 27.046ZM93.1116 21.794L93.8476 22.4711L93.852 22.4662L93.1116 21.794ZM95.3476 24.68L94.3478 24.7013L94.3968 27.0032L96.0456 25.3961L95.3476 24.68ZM101.874 24.992L102.779 24.5681L102.779 24.567L101.874 24.992ZM101.909 34.1481C101.495 33.6586 101.207 32.9079 100.989 31.9682C100.764 30.9978 100.666 30.113 100.49 29.1757L98.5247 29.5443C98.661 30.271 98.8104 31.4272 99.0404 32.4198C99.2776 33.4431 99.6524 34.5774 100.382 35.4399L101.909 34.1481ZM100.49 29.1729C100.399 28.6936 100.27 27.8858 99.9182 27.2482C99.7274 26.9029 99.4448 26.5517 99.0204 26.3091C98.5893 26.0626 98.0962 25.9764 97.5711 26.0241L97.7522 28.0159C97.942 27.9986 98.0111 28.0359 98.0278 28.0454C98.051 28.0587 98.1016 28.0959 98.1676 28.2153C98.3288 28.5072 98.4086 28.9344 98.5253 29.5471L100.49 29.1729ZM97.5653 26.0246C96.3642 26.1409 95.4856 26.9758 94.9525 27.5089L96.3667 28.9231C96.9256 28.3642 97.347 28.0551 97.7579 28.0153L97.5653 26.0246ZM94.9782 27.4841C94.5225 27.9084 94.2085 28.3333 94.078 28.8923C94.0195 29.1432 94.0076 29.3819 94.0052 29.5866C94.0033 29.7514 94.0096 30.0415 94.0096 30.218H96.0096C96.0096 29.9135 96.0029 29.8006 96.0051 29.6095C96.0068 29.4583 96.016 29.3883 96.0257 29.3467C96.0318 29.3207 96.0428 29.2256 96.341 28.9479L94.9782 27.4841ZM94.0103 30.1803C94.0001 30.4504 93.9527 30.7931 93.8647 31.1252C93.7741 31.4668 93.6578 31.7317 93.5458 31.8905C93.4307 32.0536 93.4218 31.9735 93.5457 31.9684C93.6474 31.9641 93.5415 32.0261 93.2054 31.6797L91.7699 33.0723C92.2788 33.5969 92.904 33.9969 93.629 33.9666C94.3761 33.9355 94.8823 33.4654 95.18 33.0435C95.7519 32.2329 95.9795 31.0347 96.0089 30.2557L94.0103 30.1803ZM93.2021 31.6764C92.8302 31.2965 92.5972 30.6394 92.5041 29.7353C92.4133 28.8533 92.4708 27.9143 92.5235 27.1114L90.5278 26.9806C90.4764 27.7637 90.404 28.8657 90.5146 29.9402C90.623 30.9926 90.9231 32.2075 91.7731 33.0756L93.2021 31.6764ZM92.5237 27.1074C92.5744 26.2843 92.6673 25.367 92.8795 24.5155C93.0942 23.6537 93.4102 22.9464 93.8475 22.4711L92.3757 21.1169C91.617 21.9416 91.1921 23.0153 90.9388 24.032C90.6829 25.059 90.5809 26.1177 90.5275 26.9846L92.5237 27.1074ZM93.852 22.4662C94.2421 22.0365 94.2308 22.2834 93.9421 22.2017C93.7487 22.1471 93.8144 22.0408 93.9662 22.4142C94.2268 23.0556 94.3355 24.1211 94.3478 24.7013L96.3474 24.6587C96.3337 24.0169 96.2214 22.6514 95.819 21.6613C95.6393 21.219 95.263 20.4968 94.4862 20.2772C93.6142 20.0306 92.8781 20.5635 92.3712 21.1218L93.852 22.4662ZM96.0456 25.3961C96.9579 24.5069 98.0159 23.9965 98.8923 23.9633C99.3147 23.9473 99.6902 24.0402 100.017 24.2464C100.346 24.4536 100.684 24.8118 100.968 25.417L102.779 24.567C102.361 23.6772 101.789 22.9987 101.084 22.5542C100.376 22.1088 99.5933 21.9352 98.8165 21.9647C97.2944 22.0225 95.7914 22.8511 94.6496 23.9639L96.0456 25.3961ZM100.968 25.4159C102.01 27.6419 102.226 30.7195 102.226 33.338H104.226C104.226 30.7045 104.025 27.2301 102.779 24.5681L100.968 25.4159ZM102.226 33.338C102.226 33.5734 102.191 33.836 102.125 34.0686C102.055 34.3144 101.973 34.4504 101.932 34.4978C101.916 34.5158 101.931 34.4924 101.985 34.4686C102.048 34.4408 102.123 34.4316 102.186 34.4416C102.284 34.4571 102.187 34.4859 101.918 34.1587L100.373 35.4293C100.767 35.9081 101.262 36.3204 101.874 36.4171C102.564 36.5261 103.101 36.1965 103.434 35.8182C103.747 35.4626 103.936 35.0136 104.049 34.6126C104.166 34.1985 104.226 33.7526 104.226 33.338H102.226ZM109.221 34.846L108.601 34.0611L108.598 34.0638L109.221 34.846ZM107.037 32.246L106.051 32.4104L106.052 32.4184L107.037 32.246ZM106.309 24.654L107.308 24.6128L107.308 24.6027L107.307 24.5926L106.309 24.654ZM105.971 20.182L106.54 19.3598L106.355 19.2313L106.132 19.195L105.971 20.182ZM104.853 20L105.014 19.0129L105.001 19.0111L104.853 20ZM103.293 19.636L102.867 20.5408L102.877 20.5454L102.887 20.5498L103.293 19.636ZM102.695 17.504L103.458 18.151L103.461 18.1472L102.695 17.504ZM105.113 16.672L105.209 17.6673L105.314 17.6572L105.414 17.6256L105.113 16.672ZM106.595 16.204L106.896 17.1576L107.241 17.0488L107.436 16.7448L106.595 16.204ZM106.855 14.566L105.873 14.3751L105.872 14.3837L105.87 14.3922L106.855 14.566ZM108.051 11.758L108.694 12.5242L108.724 12.4985L108.753 12.4705L108.051 11.758ZM110.625 15.684L109.698 16.0597L109.702 16.0686L110.625 15.684ZM111.509 16.282L111.576 15.2842L111.571 15.2839L111.509 16.282ZM114.005 16.698L113.654 17.6343L113.658 17.6357L114.005 16.698ZM115.825 18.206L114.859 18.4637L114.861 18.4726L115.825 18.206ZM113.563 20.078L113.684 21.0706L113.728 21.0653L113.771 21.0562L113.563 20.078ZM111.431 20.338L111.31 19.3454L111.229 19.3552L111.151 19.378L111.431 20.338ZM110.885 20.676L109.981 20.2479L109.885 20.4511V20.676H110.885ZM110.443 30.842L111.434 30.9771L111.436 30.9643L111.437 30.9515L110.443 30.842ZM108.598 34.0638C108.375 34.2411 108.437 34.0959 108.63 34.1734C108.721 34.2095 108.654 34.2266 108.519 33.9522C108.264 33.4339 108.12 32.634 108.022 32.0736L106.052 32.4184C106.136 32.898 106.317 34.0091 106.725 34.8363C106.921 35.2347 107.271 35.7831 107.886 36.0297C108.604 36.3176 109.3 36.0619 109.844 35.6282L108.598 34.0638ZM108.023 32.0816C107.617 29.64 107.411 27.1101 107.308 24.6128L105.31 24.6952C105.415 27.2419 105.626 29.86 106.051 32.4104L108.023 32.0816ZM107.307 24.5926C107.258 23.7919 107.34 22.9343 107.354 21.9751C107.361 21.5391 107.352 21.0732 107.279 20.6646C107.214 20.3032 107.057 19.7173 106.54 19.3598L105.402 21.0042C105.224 20.8807 105.264 20.7596 105.31 21.0165C105.348 21.2262 105.361 21.5321 105.355 21.9444C105.343 22.6817 105.256 23.8261 105.311 24.7154L107.307 24.5926ZM106.132 19.195L105.014 19.013L104.692 20.987L105.81 21.169L106.132 19.195ZM105.001 19.0111C104.434 18.926 104.016 18.8631 103.699 18.7222L102.887 20.5498C103.506 20.8249 104.232 20.918 104.705 20.9889L105.001 19.0111ZM103.719 18.7312C103.437 18.5987 103.35 18.4518 103.334 18.4072C103.329 18.3927 103.328 18.3824 103.332 18.362C103.338 18.3371 103.361 18.2647 103.458 18.151L101.933 16.857C101.379 17.5091 101.18 18.3017 101.445 19.0643C101.69 19.7672 102.265 20.2573 102.867 20.5408L103.719 18.7312ZM103.461 18.1472C103.545 18.0468 103.721 17.932 104.066 17.8393C104.408 17.7474 104.793 17.7076 105.209 17.6673L105.017 15.6766C104.627 15.7144 104.076 15.7656 103.547 15.9077C103.021 16.049 102.391 16.3112 101.929 16.8608L103.461 18.1472ZM105.414 17.6256L106.896 17.1576L106.294 15.2504L104.812 15.7184L105.414 17.6256ZM107.436 16.7448C107.588 16.508 107.661 16.2539 107.701 16.0668C107.744 15.8695 107.766 15.6687 107.78 15.4982C107.815 15.0789 107.811 14.9055 107.84 14.7398L105.87 14.3922C105.84 14.5613 105.826 14.7444 105.817 14.8905C105.805 15.0575 105.799 15.1866 105.787 15.3303C105.775 15.4685 105.762 15.5717 105.746 15.6465C105.727 15.7316 105.719 15.718 105.754 15.6632L107.436 16.7448ZM107.837 14.7569C107.932 14.2662 108.016 13.8127 108.163 13.3954C108.307 12.9838 108.482 12.7021 108.694 12.5242L107.408 10.9918C106.815 11.4899 106.482 12.1442 106.275 12.7336C106.071 13.3172 105.96 13.9298 105.873 14.3751L107.837 14.7569ZM108.753 12.4705C108.89 12.3357 108.912 12.3686 108.819 12.3856C108.685 12.4101 108.572 12.3594 108.531 12.3295C108.518 12.3198 108.565 12.3529 108.648 12.4992C108.726 12.6366 108.809 12.8242 108.893 13.0607C109.061 13.5363 109.199 14.1035 109.325 14.6514C109.436 15.1335 109.562 15.7229 109.698 16.0597L111.552 15.3083C111.493 15.1641 111.414 14.811 111.274 14.2027C111.149 13.6602 110.989 12.9892 110.778 12.3923C110.672 12.0925 110.543 11.7853 110.385 11.5086C110.233 11.2407 110.018 10.9402 109.714 10.7169C109.382 10.4733 108.947 10.3288 108.458 10.4184C108.009 10.5007 107.642 10.7578 107.349 11.0455L108.753 12.4705ZM109.702 16.0686C109.757 16.2017 109.77 16.2518 109.818 16.3804C109.843 16.4481 109.947 16.7623 110.243 16.9901C110.532 17.2129 110.855 17.2397 110.961 17.2498C111.082 17.2614 111.284 17.2699 111.447 17.2801L111.571 15.2839C111.516 15.2805 111.466 15.2776 111.42 15.2751C111.397 15.2738 111.375 15.2727 111.355 15.2716C111.334 15.2704 111.315 15.2694 111.297 15.2685C111.261 15.2665 111.232 15.2648 111.206 15.2631C111.181 15.2615 111.164 15.2601 111.152 15.259C111.14 15.2578 111.138 15.2574 111.144 15.2582C111.149 15.259 111.167 15.262 111.194 15.2692C111.221 15.2766 111.261 15.2893 111.308 15.3112C111.332 15.3223 111.357 15.3355 111.384 15.3512C111.41 15.3671 111.436 15.3849 111.462 15.4049C111.488 15.4249 111.513 15.4461 111.535 15.4682C111.558 15.4903 111.578 15.5125 111.596 15.534C111.631 15.5768 111.655 15.6151 111.671 15.6422C111.678 15.6558 111.684 15.6671 111.688 15.6755C111.692 15.6838 111.695 15.69 111.696 15.6932C111.698 15.6964 111.698 15.6977 111.697 15.6963C111.697 15.6949 111.696 15.6918 111.694 15.6864C111.692 15.6809 111.689 15.674 111.686 15.665C111.683 15.656 111.679 15.646 111.675 15.6339C111.667 15.6107 111.656 15.5803 111.644 15.5472C111.62 15.4792 111.589 15.3964 111.548 15.2994L109.702 16.0686ZM111.443 17.2798C112.25 17.3336 112.605 17.3567 112.872 17.3994C113.094 17.435 113.251 17.4832 113.654 17.6343L114.356 15.7617C113.927 15.6008 113.616 15.493 113.188 15.4246C112.805 15.3633 112.328 15.3344 111.576 15.2842L111.443 17.2798ZM113.658 17.6357C113.968 17.7505 114.276 17.8952 114.514 18.0671C114.757 18.243 114.837 18.3824 114.859 18.4637L116.791 17.9483C116.605 17.2496 116.126 16.765 115.687 16.4469C115.242 16.1248 114.744 15.9055 114.352 15.7603L113.658 17.6357ZM114.861 18.4726C114.871 18.5087 114.867 18.5148 114.868 18.5005C114.87 18.486 114.875 18.4771 114.874 18.4796C114.864 18.4964 114.809 18.5688 114.638 18.6686C114.288 18.8734 113.776 19.0105 113.356 19.0998L113.771 21.0562C114.208 20.9635 114.997 20.7756 115.647 20.3954C115.977 20.2027 116.347 19.9176 116.596 19.4973C116.865 19.042 116.945 18.5033 116.789 17.9394L114.861 18.4726ZM113.442 19.0854L111.31 19.3454L111.552 21.3306L113.684 21.0706L113.442 19.0854ZM111.151 19.378C111.05 19.4076 111.04 19.3997 111.089 19.3985C111.118 19.3977 111.15 19.3997 111.182 19.4039C111.188 19.4049 111.205 19.4075 111.184 19.4041C111.178 19.4031 111.158 19.4 111.134 19.3972C111.11 19.3944 111.066 19.39 111.012 19.39C110.897 19.39 110.69 19.4093 110.475 19.5426C110.27 19.67 110.165 19.8361 110.119 19.9199C110.076 19.9985 110.052 20.0677 110.047 20.0821C110.04 20.1018 110.032 20.1263 110.032 20.127C110.028 20.1368 110.019 20.1688 109.981 20.2479L111.789 21.1041C111.827 21.0232 111.857 20.9536 111.881 20.8928C111.905 20.8305 111.921 20.7833 111.931 20.7538C111.937 20.7341 111.935 20.7422 111.933 20.7486C111.931 20.7542 111.925 20.7689 111.917 20.7881C111.91 20.8067 111.895 20.8399 111.873 20.88C111.832 20.9563 111.73 21.1174 111.53 21.2417C111.43 21.3037 111.328 21.3425 111.233 21.3647C111.141 21.3859 111.064 21.39 111.012 21.39C110.961 21.39 110.921 21.3859 110.902 21.3837C110.882 21.3814 110.868 21.379 110.867 21.3789C110.857 21.3772 110.887 21.3822 110.91 21.3854C110.974 21.3941 111.05 21.4002 111.142 21.3978C111.315 21.3933 111.501 21.3594 111.711 21.298L111.151 19.378ZM109.885 20.676V21.586H111.885V20.676H109.885ZM109.885 21.586C109.885 24.6332 109.782 27.7138 109.449 30.7325L111.437 30.9515C111.78 27.8342 111.885 24.6748 111.885 21.586H109.885ZM109.452 30.7069C109.362 31.3711 109.319 32.0562 109.166 32.7715C109.009 33.5062 108.798 33.9057 108.601 34.0611L109.841 35.6309C110.632 35.0063 110.954 33.9758 111.122 33.1895C111.294 32.3838 111.368 31.4569 111.434 30.9771L109.452 30.7069ZM118.137 34.248L118.483 35.1863L118.485 35.1854L118.137 34.248ZM115.017 34.066L115.701 33.3365L115.695 33.3307L115.688 33.325L115.017 34.066ZM114.809 31.622L114.028 30.9973L114.021 31.0064L114.809 31.622ZM118.735 28.528L117.802 28.1676L117.8 28.172L118.735 28.528ZM117.617 26.214L116.887 26.898L116.897 26.9076L117.617 26.214ZM116.759 23.172L117.729 23.4145L117.731 23.4047L117.734 23.3948L116.759 23.172ZM120.451 19.896L120.16 18.9393L120.153 18.9415L120.451 19.896ZM124.429 20.676L123.49 21.0203L123.494 21.0312L124.429 20.676ZM120.269 25.174L119.272 25.0992L119.271 25.101L120.269 25.174ZM122.037 27.566L122.897 27.0555L122.894 27.0515L122.037 27.566ZM122.245 30.244L121.293 29.9362L121.291 29.9435L122.245 30.244ZM117.791 33.3097C117.353 33.4712 116.901 33.5814 116.507 33.5861C116.122 33.5906 115.872 33.4966 115.701 33.3365L114.333 34.7955C114.994 35.4154 115.81 35.5944 116.53 35.5859C117.241 35.5776 117.933 35.3888 118.483 35.1863L117.791 33.3097ZM115.688 33.325C115.409 33.0714 115.361 32.8929 115.355 32.8026C115.348 32.7058 115.375 32.5212 115.597 32.2376L114.021 31.0064C113.592 31.5548 113.308 32.2152 113.36 32.9439C113.412 33.6791 113.793 34.3066 114.345 34.807L115.688 33.325ZM115.59 32.2467C115.747 32.05 115.974 31.8682 116.291 31.6757C116.625 31.4737 116.964 31.3124 117.393 31.0871C118.161 30.6834 119.211 30.0878 119.669 28.884L117.8 28.172C117.635 28.6062 117.241 28.9076 116.463 29.3164C116.118 29.4973 115.658 29.7211 115.255 29.9652C114.837 30.2188 114.391 30.544 114.028 30.9973L115.59 32.2467ZM119.668 28.8884C119.828 28.4726 119.892 28.0545 119.831 27.639C119.771 27.225 119.599 26.8889 119.407 26.6211C119.222 26.3638 119.001 26.1485 118.823 25.9816C118.623 25.794 118.483 25.6716 118.337 25.5204L116.897 26.9076C117.089 27.1074 117.313 27.3068 117.455 27.4401C117.619 27.5941 117.718 27.6989 117.783 27.7894C117.841 27.8693 117.849 27.9086 117.852 27.926C117.854 27.942 117.862 28.0114 117.802 28.1676L119.668 28.8884ZM118.346 25.5301C117.761 24.9059 117.538 24.1789 117.729 23.4145L115.789 22.9295C115.408 24.4531 115.912 25.8581 116.887 26.8979L118.346 25.5301ZM117.734 23.3948C118.025 22.1201 119.171 21.3438 120.749 20.8505L120.153 18.9415C118.403 19.4882 116.325 20.5839 115.784 22.9492L117.734 23.3948ZM120.742 20.8527C121.303 20.682 122.019 20.5277 122.615 20.5628C123.201 20.5972 123.401 20.7777 123.49 21.0203L125.368 20.3317C124.885 19.0143 123.694 18.6228 122.733 18.5662C121.782 18.5103 120.795 18.746 120.16 18.9393L120.742 20.8527ZM123.494 21.0312C123.568 21.2256 123.561 21.3249 123.554 21.3624C123.548 21.3973 123.532 21.448 123.463 21.5268C123.287 21.7287 122.939 21.9385 122.351 22.2155C121.846 22.4538 121.125 22.757 120.569 23.127C119.997 23.5085 119.345 24.1224 119.272 25.0992L121.266 25.2488C121.271 25.1856 121.302 25.0422 121.678 24.7916C122.071 24.5295 122.566 24.3257 123.204 24.0245C123.761 23.762 124.485 23.3998 124.972 22.8395C125.235 22.5373 125.447 22.1594 125.526 21.6984C125.604 21.2402 125.537 20.7764 125.364 20.3208L123.494 21.0312ZM119.271 25.101C119.196 26.1301 119.85 26.8203 120.266 27.2081C120.379 27.3136 120.494 27.4139 120.595 27.5023C120.701 27.5945 120.792 27.6726 120.877 27.7504C121.054 27.9125 121.139 28.0136 121.179 28.0805L122.894 27.0515C122.7 26.7284 122.438 26.4688 122.228 26.2757C122.119 26.176 122.005 26.0781 121.907 25.9926C121.804 25.9033 121.714 25.8245 121.631 25.7464C121.259 25.3997 121.263 25.2839 121.266 25.247L119.271 25.101ZM121.177 28.0765C121.486 28.5973 121.517 29.2453 121.293 29.9362L123.196 30.5518C123.545 29.4747 123.575 28.1987 122.897 27.0555L121.177 28.0765ZM121.291 29.9435C120.81 31.4704 119.404 32.7105 117.789 33.3106L118.485 35.1854C120.51 34.4335 122.484 32.8136 123.199 30.5445L121.291 29.9435Z" fill="#0E7490" mask="url(#path-8-outside-1_255_275)"/>
</svg>
