<svg width="40" height="40" viewBox="0 0 40 40" fill="none" xmlns="http://www.w3.org/2000/svg">
<mask id="mask0_61_198" style="mask-type:luminance" maskUnits="userSpaceOnUse" x="0" y="0" width="40" height="40">
<path d="M0 0H40V40H0V0Z" fill="white"/>
</mask>
<g mask="url(#mask0_61_198)">
<path fill-rule="evenodd" clip-rule="evenodd" d="M18.0517 0.245159L5.73132 0.501893C5.73132 0.501893 0.414573 0.501893 0.284896 5.4556C0.155218 10.4082 0.478348 29.1919 0.220057 32.1517C-0.0392967 35.1105 -0.428327 38.4554 4.24004 39.2266C8.90841 39.9989 32.837 39.7412 34.0689 39.677C35.3008 39.6128 40.3582 38.5838 39.7747 32.9872C39.1911 27.3906 39.9692 8.09343 39.9692 6.48464C39.9692 4.87689 39.5802 0.245158 34.0689 0.116791C28.5576 -0.0126278 18.0517 0.245159 18.0517 0.245159Z" fill="#155E75"/>
</g>
<path fill-rule="evenodd" clip-rule="evenodd" d="M21.0321 36.7498L31.7656 36.5257C31.7656 36.5257 36.3988 36.5257 36.5115 32.2096C36.6242 27.8946 36.3425 11.5309 36.5678 8.95201C36.7943 6.37415 37.1323 3.46064 33.0655 2.78829C28.9977 2.11594 8.1516 2.34005 7.07805 2.39582C6.00556 2.45159 1.59867 3.34805 2.10675 8.22389C2.61589 13.0997 1.93774 29.9127 1.93774 31.3131C1.93774 32.7146 2.27682 36.7487 7.07805 36.8613C11.8803 36.9739 21.0321 36.7498 21.0321 36.7498Z" fill="#22D3EE"/>
<path fill-rule="evenodd" clip-rule="evenodd" d="M21.032 36.7498L31.7655 36.5257C31.7655 36.5257 34.9808 36.5246 36.1192 34.0288L36.1309 34.0046L36.1415 33.9794L36.1426 33.9783L36.1745 33.9026L36.2064 33.8237L36.2266 33.771L36.2361 33.7447L36.2648 33.6627L36.2829 33.608L36.2925 33.5796L36.3095 33.5238L36.335 33.4386L36.3616 33.3375L36.3732 33.2902L36.3998 33.1724L36.4062 33.145L36.4073 33.1418L36.4126 33.1113L36.436 32.9893L36.4423 32.9524C36.4508 32.9009 36.4593 32.8472 36.4657 32.7936L36.4668 32.7894C36.4732 32.7357 36.4795 32.682 36.4849 32.6284L36.488 32.6021V32.5936C36.4997 32.4705 36.5072 32.3422 36.5114 32.2107L36.5125 32.1507L36.5136 32.1054L36.5146 32.0897L36.5157 32.0265L36.5167 31.9971V31.9623L36.5189 31.8971V31.8845L36.5199 31.8298L36.521 31.7666V31.7614L36.5221 31.6909L36.5231 31.6456V31.6193L36.5242 31.5467V31.5194L36.5252 31.4731L36.5263 31.3973V31.3899L36.5274 31.3205L36.5284 31.2563V31.2426L36.5295 31.1637V31.0827L36.5306 31.0017V30.9775L36.5316 30.9186L36.5327 30.8333V30.6829L36.5337 30.6618V30.5734L36.5348 30.5314V30.3746L36.5359 30.303V30.1157L36.5369 30.0526V29.8874L36.538 29.8285V29.4297L36.5391 29.3708V28.3649L36.538 28.2586V27.7999L36.5369 27.6841V27.4506L36.5359 27.3338V26.976L36.5348 26.855V26.734L36.5337 26.6383V26.4899L36.5327 26.4257V26.2121L36.5316 26.1185V25.9943C36.5231 24.0467 36.5082 21.8939 36.4965 19.7885C36.419 21.7214 35.2763 28.9973 22.7678 33.2965C14.9319 34.9716 6.4147 34.6854 2.63281 34.436C3.2982 35.6892 4.58753 36.8035 7.07797 36.8613C11.8792 36.9739 21.032 36.7498 21.032 36.7498ZM36.4668 32.7894C36.4732 32.7367 36.4795 32.682 36.4849 32.6284L36.4668 32.7894Z" fill="#06B6D4"/>
<path fill-rule="evenodd" clip-rule="evenodd" d="M21.6486 38.1597L32.5808 37.9324C32.5808 37.9324 37.2991 37.9324 37.4139 33.5374C37.5287 29.1424 37.2417 12.4747 37.4713 9.8495C37.653 7.77774 37.9049 5.49449 35.9704 4.28552C36.9005 5.53447 36.7113 7.31162 36.5678 8.95303C36.3424 11.5309 36.6241 27.8945 36.5115 32.2106C36.3988 36.5256 31.7655 36.5256 31.7655 36.5256L21.0321 36.7498C21.0321 36.7498 11.8803 36.9739 7.07799 36.8613C3.96894 36.7887 2.73063 35.0715 2.24487 33.4901C2.42876 35.2662 3.33012 38.1786 7.4362 38.2744C12.3267 38.388 21.6486 38.1597 21.6486 38.1597Z" fill="#083344"/>
<path fill-rule="evenodd" clip-rule="evenodd" d="M7.90488 4.22877C7.90488 4.22877 3.91253 4.06463 3.87108 6.68669C3.82962 9.30979 3.64467 11.2479 5.31347 11.0585C6.23396 10.9533 5.37937 6.98866 7.69442 6.95605C10.0105 6.92238 10.0881 4.18669 7.90488 4.22877ZM11.8972 4.10777C11.8972 4.10777 10.5335 3.98256 10.4495 5.35672C10.3656 6.73088 11.7505 7.04338 12.5265 6.54359C13.3035 6.0438 13.3035 4.08673 11.8972 4.10777Z" fill="#ECFEFF"/>
<path fill-rule="evenodd" clip-rule="evenodd" d="M11.2192 20.5871C10.9184 20.504 10.6527 20.4124 10.4348 20.3114C7.78703 19.0856 15.32 9.456 19.3123 9.29291C23.3047 9.456 30.8387 19.0856 28.1899 20.3114C27.973 20.4124 27.7073 20.504 27.4065 20.5871V27.9451C27.4065 29.0288 26.5136 29.9148 25.421 29.9148H22.1344C22.1344 29.9148 21.3032 29.6475 21.7847 28.0219C22.2651 26.3962 22.6382 21.7329 19.1454 21.9781C15.7707 22.2138 17.6265 27.7841 17.6265 28.8962C17.6265 29.7674 16.5785 29.899 16.1257 29.9148H13.2037C12.1121 29.9148 11.2192 29.0288 11.2192 27.9451V20.5871Z" fill="#083344"/>
<path fill-rule="evenodd" clip-rule="evenodd" d="M11.2191 20.5871C10.9183 20.504 10.6526 20.4124 10.4347 20.3114C10.2253 20.2146 10.0807 20.0652 9.99146 19.8716C10.811 16.734 16.1628 10.7144 19.3122 10.5861C22.4628 10.7144 27.8146 16.734 28.6341 19.8716C28.5448 20.0652 28.4003 20.2146 28.1909 20.3114C27.973 20.4124 27.7072 20.504 27.4064 20.5871V27.9451C27.4064 29.0288 26.5136 29.9148 25.4219 29.9148H22.1343C22.1343 29.9148 21.8824 29.8337 21.7357 29.4897C21.7506 29.4329 21.7665 29.375 21.7846 29.315C21.9791 28.6542 22.1566 27.4947 22.0652 26.3657C22.2108 24.3781 21.7687 21.794 19.1454 21.9781C17.2916 22.1075 17.0163 23.8468 17.1449 25.5724C17.0248 26.8424 17.3331 28.3554 17.5106 29.3403C17.2257 29.8159 16.487 29.9021 16.1256 29.9148H13.2036C12.112 29.9148 11.2191 29.0288 11.2191 27.9451V20.5871Z" fill="#155E75"/>
</svg>
