<svg width="89" height="31" viewBox="0 0 89 31" fill="none" xmlns="http://www.w3.org/2000/svg">
<path d="M82.5823 29.7282C56.5894 30.7416 30.5965 30.6953 4.60368 29.5868C1.07416 20.6834 1.07416 11.78 4.60368 2.8754C30.5965 1.76693 56.5894 1.7206 82.5823 2.73402C84.7756 2.81956 86.6527 4.31297 87.2661 6.41942C89.1706 12.9609 89.1706 19.5025 87.2661 26.0428C86.6527 28.1492 84.7756 29.6427 82.5823 29.7282Z" fill="#0E7490"/>
<path d="M80.6257 27.7207C54.6329 28.7342 28.64 28.6878 2.64714 27.5794C-0.882379 18.676 -0.882379 9.77255 2.64714 0.867958C28.64 -0.240513 54.6329 -0.286847 80.6257 0.726577C82.8191 0.812119 84.6962 2.30552 85.3096 4.41197C87.214 10.9535 87.214 17.495 85.3096 24.0354C84.6962 26.1418 82.8191 27.6352 80.6257 27.7207Z" fill="#22D3EE"/>
</svg>
