<svg width="41" height="40" viewBox="0 0 41 40" fill="none" xmlns="http://www.w3.org/2000/svg">
<mask id="mask0_61_185" style="mask-type:luminance" maskUnits="userSpaceOnUse" x="0" y="0" width="41" height="40">
<path d="M0.569824 0H40.5698V40H0.569824V0Z" fill="white"/>
</mask>
<g mask="url(#mask0_61_185)">
<path fill-rule="evenodd" clip-rule="evenodd" d="M18.6204 0.246287L6.32915 0.504197C6.32915 0.504197 1.02443 0.504197 0.895407 5.46913C0.765739 10.4347 1.08926 29.2647 0.830573 32.231C0.571886 35.198 0.18353 38.5508 4.84121 39.3245C9.49888 40.0983 33.3701 39.8404 34.5987 39.7757C35.828 39.7117 40.874 38.6794 40.2918 33.0694C39.7096 27.4594 40.4857 8.11352 40.4857 6.50142C40.4857 4.88932 40.098 0.246287 34.5994 0.117008C29.1008 -0.0122698 18.6204 0.246287 18.6204 0.246287Z" fill="#155E75"/>
</g>
<path fill-rule="evenodd" clip-rule="evenodd" d="M21.5935 36.8404L32.3015 36.6161C32.3015 36.6161 36.9228 36.6161 37.0356 32.2898C37.1485 27.9641 36.8664 11.5594 37.0921 8.9751C37.317 6.39083 37.6555 3.46914 33.5975 2.79495C29.5395 2.12076 8.74337 2.34571 7.67232 2.40194C6.60191 2.45818 2.20616 3.35666 2.71316 8.24468C3.22016 13.1327 2.54395 29.9867 2.54395 31.3913C2.54395 32.7959 2.88238 36.8404 7.67232 36.9529C12.4629 37.0653 21.5935 36.8404 21.5935 36.8404Z" fill="#22D3EE"/>
<path fill-rule="evenodd" clip-rule="evenodd" d="M21.5934 36.8405L32.3013 36.6162C32.3013 36.6162 35.5087 36.6155 36.6446 34.114L36.6556 34.0888L36.6673 34.0636V34.0629L36.6997 33.9867L36.7101 33.9608L36.7204 33.9343L36.7308 33.9084L36.7509 33.8548L36.7606 33.8283L36.7801 33.774L36.7892 33.7468L36.808 33.6919L36.817 33.6635L36.8339 33.6072L36.8592 33.5219L36.8858 33.4204L36.8974 33.3739L36.9247 33.2543L36.9305 33.2271L36.9311 33.2239L36.937 33.1935L36.9597 33.0714L36.9662 33.0345C36.9746 32.9822 36.983 32.9292 36.9901 32.8755V32.871C36.9973 32.8173 37.0038 32.7637 37.0089 32.7094L37.0115 32.6835L37.0122 32.6751C37.0239 32.551 37.0316 32.423 37.0349 32.2905L37.0368 32.2304L37.0375 32.1858L37.0381 32.169L37.0394 32.1063L37.0401 32.0772L37.0407 32.0417L37.042 31.9764L37.0427 31.9635L37.0433 31.9085L37.0446 31.8458V31.84L37.0459 31.7702L37.0466 31.7243L37.0472 31.6984L37.0478 31.6254L37.0485 31.5982L37.0491 31.5517L37.0504 31.4761V31.4677L37.0511 31.3992L37.0517 31.3339V31.3209L37.053 31.2414L37.0537 31.1962V31.1606L37.0543 31.0785L37.055 31.0546L37.0556 30.9952L37.0563 30.9105V30.8245L37.0569 30.7599L37.0576 30.7379V30.6493L37.0582 30.6067V30.5601L37.0589 30.4696V30.4509L37.0595 30.3779L37.0602 30.2912V30.191L37.0608 30.1277V29.9997L37.0615 29.9616V29.7922L37.0621 29.705V29.2971L37.0628 29.2648V28.6572L37.0621 28.5473V28.0987L37.0615 27.9843V27.7367L37.0608 27.6372V27.5202L37.0602 27.4019V27.2836L37.0595 27.1633V27.0438L37.0589 26.9229V26.9151L37.0582 26.8014V26.7044L37.0576 26.6792V26.5564L37.0569 26.4924V26.4329L37.0563 26.3088V26.2778L37.0556 26.1841V26.0593C37.0466 24.1072 37.0323 21.9489 37.02 19.8384C36.9435 21.7757 35.803 29.0702 23.3238 33.3803C15.5067 35.059 7.01024 34.772 3.23755 34.5219C3.9008 35.7785 5.18711 36.8948 7.67155 36.9536C12.4621 37.0661 21.5927 36.8411 21.5927 36.8411L21.5934 36.8405ZM36.9908 32.8703C36.9979 32.8173 37.0038 32.763 37.0096 32.7087L36.9908 32.8703Z" fill="#06B6D4"/>
<path fill-rule="evenodd" clip-rule="evenodd" d="M22.2081 38.2547L33.1145 38.0265C33.1145 38.0265 37.8208 38.0265 37.9362 33.6207C38.0503 29.2143 37.7637 12.5063 37.9926 9.87422C38.1741 7.79737 38.4263 5.50785 36.4956 4.29651C37.424 5.54792 37.2353 7.33002 37.092 8.97509C36.8671 11.5594 37.1484 27.9641 37.0356 32.2904C36.9228 36.6161 32.3014 36.6161 32.3014 36.6161L21.5935 36.8404C21.5935 36.8404 12.4629 37.0653 7.67229 36.9529C4.57063 36.8798 3.33619 35.1591 2.85059 33.5729C3.03407 35.3537 3.93396 38.2734 8.03018 38.3697C12.9089 38.4835 22.2081 38.2547 22.2081 38.2547Z" fill="#083344"/>
<path fill-rule="evenodd" clip-rule="evenodd" d="M8.49785 4.23967C8.49785 4.23967 4.5151 4.07484 4.4736 6.70371C4.43146 9.33324 4.24798 11.2756 5.91227 11.0856C6.83097 10.9802 5.97775 7.00623 8.28779 6.97326C10.5985 6.94029 10.6756 4.19765 8.49785 4.23967ZM12.48 4.11815C12.48 4.11815 11.1197 3.99275 11.0355 5.37021C10.9525 6.74767 12.3334 7.06052 13.1082 6.55957C13.883 6.05862 13.883 4.09746 12.48 4.11815Z" fill="#ECFEFF"/>
<path fill-rule="evenodd" clip-rule="evenodd" d="M10.9582 11.2964C10.9582 11.2964 11.6552 11.5801 13.1775 12.2517C21.6091 4.71415 32.8559 13.0177 30.8 22.2404C28.6858 31.7236 17.5726 30.1548 16.2662 29.4063C14.9591 28.6584 15.1815 27.6882 15.3766 27.5499C15.5711 27.4109 17.0169 24.751 17.7949 23.5035C18.5736 22.2566 19.4171 22.7265 19.4171 22.7265C25.009 25.102 27.4403 17.2981 23.5016 14.8741C21.4049 13.5846 19.3639 13.9013 17.9129 14.4798C18.6566 14.8593 19.3691 15.2419 20 15.6117C23.4725 17.6484 16.3232 21.3536 14.5662 22.2087C12.8092 23.0646 10.6036 24.0826 9.66346 20.7427C8.72402 17.4035 8.7519 13.5361 8.71105 12.5995C8.67021 11.6629 9.56945 10.4005 10.9582 11.2964Z" fill="#083344"/>
<path fill-rule="evenodd" clip-rule="evenodd" d="M31.0236 20.6625C30.9899 21.1835 30.9179 21.7103 30.7999 22.2404C28.6857 31.7236 17.5731 30.1548 16.2661 29.4063C15.8861 29.1891 15.6359 28.9531 15.4764 28.7237C15.8654 28.1665 17.0979 25.9164 17.7949 24.7994C18.5735 23.5519 19.4177 24.0225 19.4177 24.0225C23.3998 25.7141 25.7785 22.2423 25.3954 19.2288C25.6015 17.5734 25.0336 15.8172 23.5016 14.8741C21.4048 13.5845 19.3638 13.9013 17.9129 14.4798V15.7758C18.6565 16.1552 19.369 16.5379 19.9999 16.9076C20.372 17.1261 20.6216 17.364 20.7694 17.6154C19.8916 19.4997 15.831 21.5933 14.5661 22.2087C12.8091 23.0645 10.6035 24.0826 9.66403 20.7427C8.92103 18.1035 8.78293 15.1352 8.73755 13.5438C8.89639 12.6835 9.73794 11.805 10.9581 12.5923C10.9581 12.5923 11.6551 12.8754 13.1774 13.547C20.7189 6.80583 30.5101 12.7358 31.0236 20.6625ZM18.1262 14.589C18.6118 14.8392 19.0818 15.09 19.5207 15.3369H19.5201C19.0974 15.1003 18.5969 14.8321 18.1262 14.589Z" fill="#155E75"/>
</svg>
