<svg width="70" height="87" viewBox="0 0 70 87" fill="none" xmlns="http://www.w3.org/2000/svg">
<path d="M44.8976 48.0306L48.4959 38.847C48.839 37.9776 49.9672 37.7921 50.5756 38.4673C53.0996 41.0237 55.4511 43.8045 57.6343 46.8139C59.8261 49.8363 61.8475 53.1197 63.6963 56.6619C64.9065 58.9767 59.3601 62.6937 57.7658 63.2827C57.2438 63.4747 56.6807 63.2956 56.3571 62.8793C52.7523 58.6229 49.087 54.3666 44.7185 50.8653C43.7887 50.1145 44.5632 48.887 44.8976 48.0306ZM50.1031 41.5458L46.9837 49.5062C50.9358 52.8025 54.3789 56.7051 57.6968 60.6206C59.2479 59.8957 60.4646 58.8214 61.2283 57.2768C59.5219 54.0624 57.6537 51.0638 55.6323 48.2657C53.887 45.8647 52.0447 43.6297 50.1031 41.5458Z" fill="#083344"/>
<path fill-rule="evenodd" clip-rule="evenodd" d="M45.4929 49.8988L49.65 39.2936C54.6269 44.3266 58.9696 50.2764 62.5981 57.2337C61.6856 59.4923 59.9619 61.1427 57.3365 62.1156C53.3973 57.4623 49.7816 53.3354 45.4929 49.8988Z" fill="#C5D7EB"/>
<path fill-rule="evenodd" clip-rule="evenodd" d="M55.4146 45.9078C58.0508 49.3401 60.4518 53.1132 62.6048 57.238C62.3761 57.8161 62.0892 58.349 61.7484 58.8451C60.0614 54.5327 57.958 50.2203 55.4146 45.9078Z" fill="#ECFEFF"/>
<path fill-rule="evenodd" clip-rule="evenodd" d="M45.4929 49.8988L49.65 39.2936C51.68 41.3409 53.6022 43.5435 55.4079 45.9014C53.1815 47.5345 51.872 50.5611 51.0889 55.0742C49.3027 53.2125 47.4733 51.4801 45.4929 49.8988Z" fill="#90AFCF"/>
<mask id="mask0_66_239" style="mask-type:luminance" maskUnits="userSpaceOnUse" x="55" y="54" width="15" height="19">
<path d="M55.1189 54.2177H69.9999V72.9948H55.1189V54.2177Z" fill="white"/>
</mask>
<g mask="url(#mask0_66_239)">
<path d="M63.293 58.0405C62.6976 58.8452 62.0095 59.5916 61.2522 60.2927C60.3224 61.1535 59.3042 61.943 58.2428 62.7067L59.2805 64.5361C59.5954 65.1013 59.1554 67.099 59.1985 68.0676C61.8239 68.7817 60.7863 67.6707 62.5747 69.9358C62.661 70.0458 62.7537 70.158 62.8465 70.2702C64.8204 69.6489 66.5937 68.6069 67.4005 66.5963C66.5506 63.5632 65.0793 60.6206 63.293 58.0405ZM59.5458 58.4482C60.7064 57.376 61.8671 55.2597 62.4301 54.8196C62.9781 54.3903 63.772 54.4831 64.1991 55.0289C66.762 58.2929 68.8395 62.2278 69.9073 66.249C69.9936 66.4971 70.0001 66.7775 69.9138 67.0493C69.1372 69.39 67.5192 70.9152 65.5021 71.9076C64.6457 72.3304 62.3762 73.5148 61.4939 72.5289C61.1962 72.201 60.9049 71.8644 60.6072 71.4869C60.4282 71.2561 60.2534 71.0274 60.0916 70.7858C59.7874 70.747 59.4725 70.6973 59.1618 70.6369C58.6592 70.5312 58.1501 70.3888 57.6668 70.2076C57.2008 70.0717 56.8341 69.6683 56.7737 69.1527C56.6852 68.4516 56.6615 67.7375 56.6982 67.0191C56.7241 66.4669 56.7845 65.9146 56.8729 65.3731L55.5268 62.9915C55.1859 62.4327 55.3348 61.6885 55.8806 61.3088C57.1944 60.379 58.4607 59.4535 59.5458 58.4482Z" fill="#083344"/>
</g>
<path fill-rule="evenodd" clip-rule="evenodd" d="M63.2067 55.8055C61.8174 58.5043 59.3041 60.435 56.5859 62.327C57.1145 63.2633 57.6473 64.2082 58.1759 65.1444C57.9278 66.428 57.8458 67.7073 58.0076 68.9909C58.9137 69.3404 59.9427 69.5496 60.8056 69.5755C61.2888 70.4061 61.8541 71.0511 62.4193 71.6853C64.9066 71.0403 67.6852 69.7481 68.7099 66.6459C67.6788 62.6873 65.6013 58.8516 63.2067 55.8055Z" fill="#0891B2"/>
<path fill-rule="evenodd" clip-rule="evenodd" d="M58.5597 60.9011C57.9277 61.3843 57.2632 61.8567 56.5923 62.327C57.1208 63.2633 57.6537 64.2082 58.1822 65.1445C57.9341 66.4281 57.8521 67.7073 58.0139 68.9909C58.92 69.3404 59.949 69.5497 60.812 69.5756C61.2952 70.4061 61.8604 71.0511 62.4256 71.6854C63.1634 69.9164 62.3933 69.1592 61.2283 67.0429C60.1799 65.1445 58.7949 62.5945 58.5597 60.9011Z" fill="#0E7490"/>
<path fill-rule="evenodd" clip-rule="evenodd" d="M63.2067 55.8055C63.0773 56.06 62.9327 56.3081 62.7839 56.5497C65.4223 60.3984 66.9237 63.7228 67.8233 66.6588C66.5764 69.0534 64.7017 70.5873 62.4258 71.6918C64.9131 71.0468 67.6917 69.7546 68.7165 66.6524C67.6788 62.6873 65.6013 58.8516 63.2067 55.8055Z" fill="#BDE5FF"/>
<path fill-rule="evenodd" clip-rule="evenodd" d="M59.8694 67.3104L61.2285 70.5442L59.7637 70.24L59.8694 67.3104Z" fill="#083344"/>
<path d="M23.2643 49.5127L20.1449 41.5523C15.7397 46.2681 12.042 51.5923 9.01968 57.2833C9.78336 58.8344 11.0001 59.9001 12.5512 60.6271C15.8691 56.7116 19.3078 52.809 23.2643 49.5127ZM21.7456 38.8405L25.5295 48.5009C25.8336 49.2775 26.373 50.1771 25.523 50.8653C21.1566 54.3731 17.4892 58.623 13.8844 62.8793C13.5629 63.2957 12.9977 63.4747 12.4757 63.2827C10.8814 62.6938 5.33501 58.9768 6.54526 56.662C10.0314 49.9722 14.3633 43.8412 19.6659 38.4673C19.7911 38.325 19.9529 38.2128 20.1384 38.1394C20.7769 37.8913 21.4975 38.2063 21.7456 38.8405Z" fill="#083344"/>
<path fill-rule="evenodd" clip-rule="evenodd" d="M24.7485 49.8988L20.5914 39.2936C15.6145 44.3266 11.2719 50.2764 7.64331 57.2337C8.55585 59.4923 10.2795 61.1427 12.9114 62.1156C16.8442 57.4623 20.462 53.3354 24.7485 49.8988Z" fill="#C5D7EB"/>
<path fill-rule="evenodd" clip-rule="evenodd" d="M14.827 45.9078C12.1908 49.3401 9.7897 53.1132 7.63672 57.238C7.86755 57.8161 8.15231 58.349 8.49317 58.8451C10.1802 54.5327 12.29 50.2203 14.827 45.9078Z" fill="#ECFEFF"/>
<path fill-rule="evenodd" clip-rule="evenodd" d="M24.7484 49.8988L20.5913 39.2936C18.5635 41.3409 16.6392 43.5435 14.8335 45.9014C17.062 47.5345 18.3693 50.5611 19.1524 55.0742C20.9386 53.2125 22.768 51.4801 24.7484 49.8988Z" fill="#90AFCF"/>
<mask id="mask1_66_239" style="mask-type:luminance" maskUnits="userSpaceOnUse" x="0" y="54" width="16" height="19">
<path d="M0 54.2177H15.3556V72.9948H0V54.2177Z" fill="white"/>
</mask>
<g mask="url(#mask1_66_239)">
<path d="M8.18275 55.2834C9.51812 57.8355 12.0616 59.6908 14.3742 61.3044C14.92 61.6884 15.0688 62.4262 14.728 62.985L13.3818 65.3688C13.5868 66.6157 13.6429 67.8928 13.4875 69.1462C13.425 69.6618 13.0604 70.0652 12.5944 70.2011C11.8178 70.4945 10.9937 70.693 10.1696 70.7857C9.74679 71.4049 9.26356 71.9701 8.76738 72.5288C7.6801 73.7456 4.22411 71.6853 3.41944 71.1266C2.0776 70.1903 0.949333 68.8916 0.347448 67.0493C0.000122726 65.9944 2.02367 61.5892 2.56299 60.5213C3.57261 58.5301 4.77206 56.6684 6.06213 55.0289C6.63165 54.2781 7.79875 54.4334 8.18275 55.2834ZM6.95525 58.0404C5.16901 60.6206 3.69773 63.5631 2.85423 66.5898C3.28784 67.6836 4.00838 68.4774 4.85188 69.0599C5.62635 69.5992 6.51516 69.9789 7.40828 70.2572C7.50104 70.145 7.59381 70.035 7.6801 69.9228C8.16981 69.2951 8.4934 68.3458 9.39947 68.3156C9.94526 68.2962 10.5213 68.197 11.0498 68.0546C11.0865 67.2176 10.6205 65.1509 10.9678 64.5231L12.0055 62.6937C10.1502 61.3648 8.32082 59.8892 6.95525 58.0404Z" fill="#083344"/>
</g>
<path fill-rule="evenodd" clip-rule="evenodd" d="M7.035 55.8055C8.4243 58.5043 10.9311 60.435 13.6557 62.327C13.1272 63.2633 12.5944 64.2082 12.068 65.1444C12.3161 66.428 12.3959 67.7073 12.2341 68.9909C11.328 69.3404 10.299 69.5496 9.43607 69.5755C8.95284 70.4061 8.38763 71.0511 7.82242 71.6853C5.33505 71.0403 2.55645 69.7481 1.53174 66.6459C2.56293 62.6873 4.64687 58.8516 7.035 55.8055Z" fill="#0891B2"/>
<path fill-rule="evenodd" clip-rule="evenodd" d="M11.6818 60.9011C12.3161 61.3843 12.9784 61.8567 13.6493 62.327C13.1208 63.2633 12.5879 64.2082 12.0615 65.1445C12.3096 66.4281 12.3894 67.7073 12.2276 68.9909C11.3216 69.3404 10.2926 69.5497 9.42963 69.5756C8.9464 70.4061 8.38119 71.0511 7.81813 71.6854C7.07818 69.9164 7.84833 69.1592 9.01543 67.0429C10.0639 65.1445 11.4467 62.5945 11.6818 60.9011Z" fill="#0E7490"/>
<path fill-rule="evenodd" clip-rule="evenodd" d="M7.03488 55.8055C7.16648 56.06 7.30886 56.3081 7.45771 56.5497C4.8215 60.3984 3.32002 63.7228 2.42042 66.6588C3.66734 69.0534 5.53988 70.5873 7.81798 71.6918C5.32846 71.0468 2.54986 69.7546 1.52515 66.6524C2.56928 62.6873 4.64675 58.8516 7.03488 55.8055Z" fill="#BDE5FF"/>
<path fill-rule="evenodd" clip-rule="evenodd" d="M10.3788 67.3104L9.01538 70.5442L10.478 70.24L10.3788 67.3104Z" fill="#083344"/>
<mask id="mask2_66_239" style="mask-type:luminance" maskUnits="userSpaceOnUse" x="18" y="32" width="38" height="55">
<path d="M18.1169 32.6793H55.1189V87H18.1169V32.6793Z" fill="white"/>
</mask>
<g mask="url(#mask2_66_239)">
<path d="M22.3043 35.5011C21.2364 42.1973 20.7963 50.0844 20.8395 58.1074C20.8891 67.0752 21.5535 76.2265 22.6322 84.1395C24.0215 84.3509 25.3741 84.4674 26.7461 84.5062C28.0988 84.5429 29.4816 84.4997 30.9205 84.3876C31.1513 79.1259 31.4857 73.8686 32.299 68.6565C32.409 67.9317 34.1521 67.483 35.878 67.4592C37.0386 67.4398 39.1722 67.483 39.4138 68.9478C40.2508 74.0239 41.4934 79.0267 42.8957 83.9712C44.6431 84.0273 46.425 84.0143 48.1487 83.9216C49.5898 83.8418 50.9855 83.7102 52.2993 83.5117C50.6878 75.4456 49.7062 67.5779 49.1907 59.6585C48.6772 51.7541 48.6341 43.7851 48.8929 35.5075C40.0286 35.5334 31.1686 35.4708 22.3043 35.5011ZM18.4384 58.1138C18.3888 49.5386 18.8914 41.123 20.0952 34.0988C20.188 33.5336 20.6841 33.1 21.2731 33.1C25.4367 33.0806 29.6002 33.087 33.7617 33.0935C38.8119 33.1065 43.8686 33.1194 48.9188 33.1C49.8422 33.1 51.3825 32.9209 51.3328 34.3361C51.0287 42.9675 51.0524 51.2623 51.5917 59.5031C52.0944 67.2112 53.0371 74.8631 54.5839 82.6876C54.7694 83.6303 55.4511 85.3993 53.9367 85.6776C52.1828 86.0077 50.2585 86.2169 48.2803 86.3291C46.2201 86.4413 44.0865 86.4478 41.9961 86.3485C41.4611 86.3615 40.9649 86.0142 40.8096 85.4727C39.3642 80.4224 38.0676 75.3204 37.1745 70.1408C36.2879 70.1516 35.3947 70.1451 34.5059 70.1149C33.7811 75.2169 33.4834 80.403 33.2784 85.5482C33.2525 86.1436 32.7952 86.6398 32.1933 86.6959C30.2755 86.8814 28.4698 86.9634 26.69 86.9137C24.8844 86.8641 23.1348 86.6894 21.3594 86.3787C20.8589 86.2924 20.449 85.889 20.3735 85.3605C19.2085 77.1714 18.488 67.5455 18.4384 58.1138Z" fill="#083344"/>
</g>
<path fill-rule="evenodd" clip-rule="evenodd" d="M21.2795 34.2973C18.7728 48.9367 19.3444 69.6424 21.5643 85.1814C25.0332 85.7963 28.3339 85.8588 32.0811 85.4856C32.3098 79.8767 32.6463 74.2418 33.4898 68.8378C34.9913 68.9607 36.7646 68.9413 38.1971 68.9046C39.1096 74.5136 40.4989 79.9694 41.9831 85.1318C46.0086 85.3238 50.2283 85.1383 53.7339 84.4868C50.2391 67.6275 49.5401 51.6484 50.1398 34.2908C40.8592 34.3404 30.5538 34.2606 21.2795 34.2973Z" fill="#C5D7EB"/>
<path fill-rule="evenodd" clip-rule="evenodd" d="M51.9347 84.778C52.6897 84.6982 53.037 84.6356 53.7274 84.4932C50.3577 68.2294 49.5832 52.7896 50.0794 36.1417C46.9341 47.6703 48.3039 68.8248 51.9347 84.778Z" fill="#90AFCF"/>
<path fill-rule="evenodd" clip-rule="evenodd" d="M30.6423 85.6107C30.9961 85.5978 31.7274 85.5352 32.0812 85.4856C32.3099 79.8766 32.6464 74.2418 33.4899 68.8378L31.5592 68.6263C31.0328 73.6528 30.4935 79.5897 30.6423 85.6107Z" fill="#90AFCF"/>
<path fill-rule="evenodd" clip-rule="evenodd" d="M20.0326 45.0385C19.1136 58.0448 19.8471 73.161 21.5643 85.1814C22.0562 85.2677 22.5459 85.3432 23.0356 85.4123C21.286 73.3357 20.4554 58.7653 20.0326 45.0385Z" fill="#ECFEFF"/>
<path d="M22.3044 35.501C21.6335 39.7099 21.2106 44.3805 21.0014 49.2646C20.7641 54.6751 20.7964 60.3423 21.038 65.9254C30.2065 68.0611 40.5055 68.0676 49.7258 66.2253C49.2037 61.1103 48.9125 56.0838 48.7938 50.9775C48.6773 45.9272 48.7269 40.8188 48.893 35.514C44.6324 35.5269 40.1711 35.5204 35.7098 35.5075C31.1687 35.4946 26.6341 35.4838 22.3044 35.501ZM18.6003 49.1589C18.8052 44.3999 19.2086 39.8394 19.8343 35.706C19.9766 34.7762 19.9529 33.1064 21.2732 33.1C25.9135 33.0805 30.8084 33.087 35.7033 33.1C40.307 33.1064 44.9172 33.1194 49.3094 33.1C50.1853 33.1 51.3761 33.0374 51.333 34.3361C51.1345 40.0572 51.0654 45.5238 51.1884 50.9149C51.3135 56.265 51.6371 61.5633 52.2196 66.9868C52.3188 67.6146 51.9154 68.2229 51.2833 68.3523C41.3813 70.5053 30.0642 70.5614 20.1622 68.1906C19.4611 68.0244 18.7125 67.8626 18.6629 66.9307C18.3889 61.0003 18.3457 54.9361 18.6003 49.1589Z" fill="#083344"/>
<path fill-rule="evenodd" clip-rule="evenodd" d="M21.2795 34.2973C19.6723 43.6556 19.3315 55.4949 19.8708 66.8768C28.7049 69.0902 40.0976 69.5497 51.0351 67.168C49.8615 56.2327 49.7321 45.7719 50.1355 34.2908C40.8591 34.3404 30.5537 34.2606 21.2795 34.2973Z" fill="#0891B2"/>
<path fill-rule="evenodd" clip-rule="evenodd" d="M49.1301 67.5584C49.8615 67.4333 50.308 67.3405 51.035 67.1744C49.924 56.8302 49.7493 46.9066 50.0729 36.1417C49.6436 37.7166 47.8897 38.7779 47.8142 40.6958C47.5424 47.6013 48.1551 58.0448 49.1301 67.5584Z" fill="#0E7490"/>
<path fill-rule="evenodd" clip-rule="evenodd" d="M20.1383 43.6859C19.5429 50.2397 19.4242 59.1558 19.8773 66.8768C20.2936 66.9803 20.71 67.0817 21.1371 67.1745C20.5978 59.8958 20.3562 50.9969 20.1383 43.6859Z" fill="#BDE5FF"/>
<path fill-rule="evenodd" clip-rule="evenodd" d="M21.2795 34.2973C20.7402 37.283 20.3497 40.2363 20.1318 43.6988C25.3611 44.264 30.3509 44.5919 35.22 44.2877C40.0458 44.1712 44.9472 43.8412 49.937 43.2587C49.9608 40.3226 50.0298 37.3455 50.1355 34.2908C40.8591 34.3404 30.5537 34.2606 21.2795 34.2973Z" fill="#0E7490"/>
<path d="M27.3848 29.7669C27.6135 33.4667 27.9241 37.1643 28.334 40.864C28.7504 44.6479 29.2767 48.4275 29.9282 52.2179C33.4015 52.4617 36.8575 52.4725 40.3329 52.2244C40.9089 48.5009 41.3943 44.717 41.7955 40.8748C42.1946 37.1513 42.5096 33.3739 42.7771 29.5577L27.3848 29.7669ZM25.9394 41.1294C25.5295 37.4188 25.2189 33.6954 24.9837 29.9546C24.9276 29.0226 24.6105 27.3982 26.0947 27.3788L43.1438 27.1436C44.0434 27.1307 45.3572 27.0315 45.2709 28.41C44.9926 32.6793 44.6388 36.9162 44.1923 41.1165C43.75 45.2757 43.2172 49.3897 42.5722 53.4476C42.5225 54.0236 42.063 54.5025 41.4676 54.5521C37.2803 54.9124 33.0175 54.8929 28.8302 54.5521C28.2844 54.5219 27.8055 54.1185 27.7062 53.5533C26.9814 49.4393 26.3989 45.293 25.9394 41.1294Z" fill="#083344"/>
<path fill-rule="evenodd" clip-rule="evenodd" d="M26.1121 28.5826C26.5845 36.8795 27.4474 45.1377 28.9058 53.3483C33.0607 53.6827 37.2178 53.7086 41.3749 53.3483C42.6715 45.2326 43.5085 36.8601 44.0737 28.3345C38.0807 28.4143 32.1007 28.5027 26.1121 28.5826Z" fill="#C5D7EB"/>
<path fill-rule="evenodd" clip-rule="evenodd" d="M27.292 34.2908C27.5336 37.6432 27.8443 40.9806 28.2283 44.3201C30.5797 44.3762 32.9053 44.3632 35.2071 44.2942C37.4421 44.2316 39.6943 44.1216 41.9638 43.9404C42.3046 40.7584 42.5915 37.5505 42.8332 34.3102C37.7009 34.3102 32.3983 34.2865 27.292 34.2908Z" fill="#90AFCF"/>
<path fill-rule="evenodd" clip-rule="evenodd" d="M35.0906 59.5096C37.4787 58.5366 39.7115 57.307 41.8019 55.8184C37.3493 56.1722 32.875 56.2024 28.3835 55.8184C30.5106 57.3134 32.7456 58.5431 35.0906 59.5096Z" fill="#083344"/>
<path fill-rule="evenodd" clip-rule="evenodd" d="M24.7096 75.6742L28.7373 75.8425C28.966 75.8555 29.1472 76.0475 29.1407 76.2826L29.0846 77.618C29.0717 77.8466 28.8797 78.0279 28.6445 78.0214L24.6169 77.8531C24.3882 77.8402 24.2091 77.6482 24.2135 77.413L24.2695 76.0777C24.2825 75.849 24.4745 75.6678 24.7096 75.6742Z" fill="#083344"/>
<path d="M39.5497 48.5268C40.0221 48.557 40.3824 48.9669 40.3565 49.4394C40.3198 50.0412 40.2206 50.6992 40.1516 51.3076C40.0847 51.9634 39.5389 52.0583 39.2024 52.095C36.3612 52.3992 33.4273 52.3927 30.5861 52.0756C30.1697 52.0324 29.8548 51.6916 29.8224 51.2882L29.624 49.4825C29.5808 49.0791 29.8483 48.749 30.2129 48.6196C31.3433 48.2162 37.9123 48.4211 39.5497 48.5268Z" fill="#083344"/>
<path fill-rule="evenodd" clip-rule="evenodd" d="M30.4805 49.3832C31.9625 49.284 33.4834 49.2473 34.9914 49.2473C36.4993 49.2473 38.0116 49.284 39.5001 49.3832L39.3017 51.2126C37.8627 51.3744 36.4303 51.4499 34.9914 51.4499C33.5525 51.4499 32.1179 51.3744 30.6789 51.2126L30.4805 49.3832Z" fill="#EAB308"/>
<path fill-rule="evenodd" clip-rule="evenodd" d="M32.0315 49.3832C33.0044 49.284 34.0033 49.2473 34.9913 49.2473C35.9772 49.2473 36.976 49.284 37.949 49.3832L37.8195 51.2126C36.8768 51.3744 35.934 51.4499 34.9913 51.4499C34.0486 51.4499 33.1037 51.3744 32.1609 51.2126L32.0315 49.3832Z" fill="#FACC15"/>
<path fill-rule="evenodd" clip-rule="evenodd" d="M20.2009 75.7864C24.5802 76.4077 28.9487 76.6622 33.3021 76.5436C33.2849 76.8542 33.2655 77.1714 33.2482 77.4799C28.8732 77.6244 24.5068 77.3569 20.1448 76.7226C20.162 76.4142 20.1814 76.1035 20.2009 75.7864Z" fill="#083344"/>
<path fill-rule="evenodd" clip-rule="evenodd" d="M48.2372 75.4757L44.216 75.7929C43.9874 75.8123 43.8126 76.0172 43.832 76.2459L43.9377 77.5748C43.955 77.8035 44.1599 77.9782 44.3908 77.9588L48.4098 77.6417C48.6407 77.6244 48.8132 77.4195 48.7938 77.1886L48.6903 75.8619C48.6709 75.6311 48.4659 75.4585 48.2372 75.4757Z" fill="#083344"/>
<path fill-rule="evenodd" clip-rule="evenodd" d="M52.746 75.4261C48.3904 76.2028 44.037 76.6127 39.6814 76.6558C39.7116 76.9665 39.7375 77.275 39.7677 77.5856C44.1427 77.5748 48.4961 77.152 52.8344 76.3581C52.8085 76.0474 52.7783 75.7368 52.746 75.4261Z" fill="#083344"/>
<path d="M7.30879 12.3489C7.96029 12.2065 8.60533 12.0771 9.2633 11.9584C9.9148 11.8398 10.5404 12.2756 10.6591 12.9335C10.6957 13.1557 10.6763 13.4599 10.6699 13.6907C10.6461 19.1746 11.0064 24.6606 11.8305 30.084C11.9297 30.742 11.4767 31.3568 10.8187 31.4561C10.0572 31.5683 7.67337 31.2749 6.78025 31.1951C5.94969 31.1217 5.75122 30.5004 5.63904 29.836C4.73298 24.5873 4.34251 19.2997 4.46116 13.969C4.48489 12.6725 6.37684 12.5539 7.30879 12.3489ZM6.84929 14.9247C6.79967 19.5974 7.15994 24.2572 7.92146 28.8673C8.36371 28.9062 8.79732 28.9364 9.23741 28.9666C8.58591 24.2076 8.28173 19.4054 8.27094 14.6011C7.79202 14.7004 7.31958 14.8061 6.84929 14.9247Z" fill="#083344"/>
<path fill-rule="evenodd" clip-rule="evenodd" d="M5.66503 13.9885C6.93568 13.6455 8.20201 13.3672 9.47266 13.1385C9.41872 19.0581 9.80272 24.7598 10.6398 30.2588C9.37989 30.1962 8.13298 30.1035 6.89253 29.9913C5.95626 24.7232 5.53991 19.4227 5.66503 13.9885Z" fill="#BED2E8"/>
<path fill-rule="evenodd" clip-rule="evenodd" d="M9.54177 18.3635C9.62159 20.6524 9.77692 22.911 9.9948 25.1395C8.68533 25.1762 7.41468 25.1956 6.18502 25.2064C5.93693 23.0858 5.77082 20.9501 5.69531 18.7971C6.92929 18.6418 8.21503 18.4994 9.54177 18.3635Z" fill="#ECFEFF"/>
<path d="M62.0224 14.2862C61.5499 14.1805 61.0731 14.0877 60.6007 13.9949C60.6999 18.7971 60.5015 23.6057 59.9621 28.3776C60.4022 28.341 60.8358 28.2978 61.2781 28.2482C61.9339 23.6186 62.1885 18.9589 62.0224 14.2862ZM63.4354 12.1375C63.9639 12.2497 64.3673 12.7027 64.3911 13.2615C64.6327 18.5166 64.3738 23.774 63.6101 28.9795C63.3297 30.8779 62.4064 30.563 60.5877 30.7291C59.9859 30.7852 59.4293 30.8348 58.9266 30.8715C58.1069 30.934 57.2763 30.5436 57.4057 29.5383C58.1133 24.0285 58.3355 18.4627 58.1759 12.9141C58.15 12.0836 58.4607 11.1883 59.5522 11.3566C60.8553 11.5744 62.1388 11.829 63.4354 12.1375Z" fill="#083344"/>
<path fill-rule="evenodd" clip-rule="evenodd" d="M63.1872 13.3176C61.91 13.0069 60.6329 12.7524 59.3601 12.5539C59.5521 18.4735 59.2976 24.1839 58.5964 29.7001C59.8563 29.6073 61.1032 29.4887 62.3372 29.3463C63.144 24.0588 63.4417 18.7475 63.1872 13.3176Z" fill="#BED2E8"/>
<path fill-rule="evenodd" clip-rule="evenodd" d="M59.4164 17.7789C59.384 20.0742 59.2848 22.3329 59.1187 24.5614C60.4281 24.5679 61.7053 24.5549 62.9284 24.5377C63.1269 22.4084 63.2369 20.2749 63.2693 18.1197C62.0288 17.9968 60.7431 17.8846 59.4164 17.7789Z" fill="#ECFEFF"/>
<path d="M11.2286 4.56757C10.6828 14.8385 11.1618 26.7964 12.8617 36.9421C16.4471 37.3952 19.9959 37.7166 23.5015 37.9151C30.9334 38.3379 38.4969 38.2516 45.9158 37.654C49.4408 37.3693 52.9831 36.9723 56.5362 36.433C58.001 26.2506 58.1865 14.2797 57.4056 4.02824C49.3157 3.01 41.8083 2.53971 34.3074 2.626C26.8194 2.71229 19.312 3.35732 11.2286 4.56757ZM8.87718 3.51265C8.88365 2.93018 9.31296 2.42106 9.90837 2.33476C18.4383 1.01881 26.3427 0.317693 34.2837 0.224929C42.1751 0.132165 50.0664 0.63913 58.5899 1.75661C59.1853 1.78897 59.6837 2.24632 59.7333 2.85467C60.6696 13.6714 60.4517 26.9064 58.7884 37.6497C58.7215 38.1632 58.3246 38.5925 57.7853 38.6787C53.8072 39.3 49.9176 39.7531 46.1078 40.0616C38.6198 40.6635 30.8708 40.7519 23.3699 40.3291C19.5666 40.1112 15.6964 39.7531 11.7636 39.2375C11.2114 39.2116 10.7325 38.8082 10.6332 38.2451C8.72186 27.5471 8.19548 14.3423 8.87718 3.51265Z" fill="#083344"/>
<path fill-rule="evenodd" clip-rule="evenodd" d="M10.0811 3.52556C9.51808 12.405 9.91934 27.4155 11.8178 38.0207C19.6789 39.0562 27.2985 39.4597 34.7239 39.3669C42.1493 39.2871 49.7625 38.7089 57.5913 37.4879C59.2416 26.8395 59.2912 11.8225 58.5232 2.96035C41.5043 0.727549 27.0677 0.906605 10.0811 3.52556Z" fill="#0891B2"/>
<path fill-rule="evenodd" clip-rule="evenodd" d="M10.0811 3.52561C9.59788 11.1646 9.82656 23.3447 11.1123 33.3481C11.0066 23.8366 10.5665 13.2809 11.7012 4.95805C21.5968 2.8741 32.901 1.80624 45.1588 1.6768C33.4964 1.00588 22.464 1.61424 10.0811 3.52561Z" fill="#BDE5FF"/>
<path fill-rule="evenodd" clip-rule="evenodd" d="M11.8176 38.0208C19.6788 39.0563 27.2984 39.4597 34.7238 39.3669C42.1492 39.2871 49.7623 38.7089 57.5911 37.4879C58.5533 31.2749 58.9697 23.582 58.9999 16.4823C58.2923 23.2519 57.5415 29.9848 56.2213 36.1849C41.4546 38.4048 26.5973 38.2451 11.8176 38.0208Z" fill="#0E7490"/>
<path d="M24.0343 3.09196C24.2091 14.7392 24.6362 26.38 25.3179 38.0078C31.9689 38.312 38.6694 38.2127 45.301 37.6993C45.1284 26.0629 44.7056 14.435 44.0238 2.81798C37.3492 2.49007 30.6982 2.56342 24.0343 3.09196ZM21.6203 2.32827C21.6095 1.58401 21.7886 0.86347 22.7119 0.78365C30.1891 0.132146 37.7138 0.0566415 45.2082 0.466528C45.823 0.485943 46.3322 0.97565 46.3688 1.60127C47.0829 13.4858 47.5295 25.3941 47.7085 37.2959C47.7215 38.2559 48.0386 39.9019 46.6299 40.0119C39.185 40.6397 31.6215 40.7519 24.1595 40.3614C23.5382 40.3485 23.0226 39.8588 22.9859 39.2245C22.2416 26.9452 21.7886 14.6335 21.6203 2.32827Z" fill="#083344"/>
<path fill-rule="evenodd" clip-rule="evenodd" d="M22.8179 1.98095C22.8998 8.09905 23.0487 14.2301 23.2903 20.6329C23.5255 27.038 23.8296 33.1625 24.1899 39.1576C27.7516 39.3432 31.2615 39.4057 34.7305 39.3604C38.6136 39.3173 42.542 39.1447 46.5309 38.8082C46.4489 32.6599 46.2893 26.1945 46.052 19.7959C45.8168 13.3974 45.532 7.62013 45.1718 1.6703C37.6471 1.25395 30.2886 1.33592 22.8179 1.98095Z" fill="#C5D7EB"/>
<path fill-rule="evenodd" clip-rule="evenodd" d="M22.8179 1.98092L22.8308 3.2149C29.7557 2.24195 37.1445 1.75656 45.1588 1.67027C37.8068 1.22371 30.1527 1.2798 22.8179 1.98092Z" fill="#ECFEFF"/>
<path fill-rule="evenodd" clip-rule="evenodd" d="M24.1208 38.12L24.1834 39.162C31.5851 39.5719 39.0795 39.4661 46.5244 38.8146L46.5114 37.2765C39.0537 38.1696 31.6088 38.2063 24.1208 38.12Z" fill="#90AFCF"/>
<path fill-rule="evenodd" clip-rule="evenodd" d="M14.3633 7.42166C13.8908 14.2473 14.208 25.791 15.7698 33.9435C22.2655 34.7374 28.5691 35.0372 34.7109 34.9552C40.8527 34.8884 47.1434 34.4353 53.6218 33.4904C54.9917 25.2992 55.0477 13.7576 54.4221 6.93843C40.2401 5.30751 28.2973 5.44989 14.3633 7.42166Z" fill="#083344"/>
<path fill-rule="evenodd" clip-rule="evenodd" d="M25.864 14.2797C28.1852 14.3099 30.0211 17.1769 29.9779 20.6826C29.9283 24.1903 28.0105 27.0056 25.6914 26.9754C23.3701 26.9452 21.5343 24.0781 21.5774 20.5661C21.627 17.0648 23.5449 14.2473 25.864 14.2797Z" fill="#FACC15"/>
<path fill-rule="evenodd" clip-rule="evenodd" d="M43.6831 14.5213C46.0022 14.5515 47.8402 17.4185 47.7949 20.9306C47.7453 24.4384 45.8296 27.2558 43.5084 27.2235C41.1893 27.1933 39.3513 24.3262 39.3966 20.8141C39.4462 17.3085 41.3619 14.4911 43.6831 14.5213Z" fill="#FACC15"/>
</svg>
