<svg width="236" height="235" viewBox="0 0 236 235" fill="none" xmlns="http://www.w3.org/2000/svg">
<rect x="5" y="5" width="90" height="90" rx="15" fill="#F7FEE7"/>
<rect x="5" y="5" width="90" height="90" rx="15" stroke="#854D0E" stroke-width="10"/>
<path d="M43.2125 72.1294C43.2125 72.1294 43.2125 71.8261 43.2125 71.2196V69.1176V67.0157V66.1059H44.1223H46.2243H48.3262H49.236C49.236 66.1059 49.236 66.4092 49.236 67.0157V69.1176V71.2196V72.1294C49.236 72.1294 48.9328 72.1294 48.3262 72.1294H46.2243H44.1223H43.2125ZM46.9772 72.1294C46.9772 72.1294 46.9772 71.8261 46.9772 71.2196V69.1176V67.0157V66.1059H47.887H49.989H52.0909H53.0007C53.0007 66.1059 53.0007 66.4092 53.0007 67.0157V69.1176V71.2196V72.1294C53.0007 72.1294 52.6975 72.1294 52.0909 72.1294H49.989H47.887H46.9772ZM50.7419 72.1294C50.7419 72.1294 50.7419 71.8261 50.7419 71.2196V69.1176V67.0157V66.1059H51.6517H53.7537H55.8556H56.7654C56.7654 66.1059 56.7654 66.4092 56.7654 67.0157V69.1176V71.2196V72.1294C56.7654 72.1294 56.4622 72.1294 55.8556 72.1294H53.7537H51.6517H50.7419ZM39.4478 68.3647C39.4478 68.3647 39.4478 68.0614 39.4478 67.4549V65.3529V63.251V62.3412H40.3576H42.4596H44.5615H45.4713C45.4713 62.3412 45.4713 62.6444 45.4713 63.251V65.3529V67.4549V68.3647C45.4713 68.3647 45.1681 68.3647 44.5615 68.3647H42.4596H40.3576H39.4478ZM54.5066 68.3647C54.5066 68.3647 54.5066 68.0614 54.5066 67.4549V65.3529V63.251V62.3412H55.4164H57.5184H59.6203H60.5301C60.5301 62.3412 60.5301 62.6444 60.5301 63.251V65.3529V67.4549V68.3647C60.5301 68.3647 60.2269 68.3647 59.6203 68.3647H57.5184H55.4164H54.5066ZM39.4478 64.6C39.4478 64.6 39.4478 64.2967 39.4478 63.6902V61.5882V59.4863V58.5765H40.3576H42.4596H44.5615H45.4713C45.4713 58.5765 45.4713 58.8797 45.4713 59.4863V61.5882V63.6902V64.6C45.4713 64.6 45.1681 64.6 44.5615 64.6H42.4596H40.3576H39.4478ZM54.5066 64.6C54.5066 64.6 54.5066 64.2967 54.5066 63.6902V61.5882V59.4863V58.5765H55.4164H57.5184H59.6203H60.5301C60.5301 58.5765 60.5301 58.8797 60.5301 59.4863V61.5882V63.6902V64.6C60.5301 64.6 60.2269 64.6 59.6203 64.6H57.5184H55.4164H54.5066ZM54.5066 60.8353C54.5066 60.8353 54.5066 60.532 54.5066 59.9255V57.8235V55.7216V54.8118H55.4164H57.5184H59.6203H60.5301C60.5301 54.8118 60.5301 55.115 60.5301 55.7216V57.8235V59.9255V60.8353C60.5301 60.8353 60.2269 60.8353 59.6203 60.8353H57.5184H55.4164H54.5066ZM54.5066 57.0706C54.5066 57.0706 54.5066 56.7673 54.5066 56.1608V54.0588V51.9569V51.0471H55.4164H57.5184H59.6203H60.5301C60.5301 51.0471 60.5301 51.3503 60.5301 51.9569V54.0588V56.1608V57.0706C60.5301 57.0706 60.2269 57.0706 59.6203 57.0706H57.5184H55.4164H54.5066ZM43.2125 53.3059C43.2125 53.3059 43.2125 53.0026 43.2125 52.3961V50.2941V48.1922V47.2824H44.1223H46.2243H48.3262H49.236C49.236 47.2824 49.236 47.5856 49.236 48.1922V50.2941V52.3961V53.3059C49.236 53.3059 48.9328 53.3059 48.3262 53.3059H46.2243H44.1223H43.2125ZM46.9772 53.3059C46.9772 53.3059 46.9772 53.0026 46.9772 52.3961V50.2941V48.1922V47.2824H47.887H49.989H52.0909H53.0007C53.0007 47.2824 53.0007 47.5856 53.0007 48.1922V50.2941V52.3961V53.3059C53.0007 53.3059 52.6975 53.3059 52.0909 53.3059H49.989H47.887H46.9772ZM50.7419 53.3059C50.7419 53.3059 50.7419 53.0026 50.7419 52.3961V50.2941V48.1922V47.2824H51.6517H53.7537H55.8556H56.7654C56.7654 47.2824 56.7654 47.5856 56.7654 48.1922V50.2941V52.3961V53.3059C56.7654 53.3059 56.4622 53.3059 55.8556 53.3059H53.7537H51.6517H50.7419ZM54.5066 53.3059C54.5066 53.3059 54.5066 53.0026 54.5066 52.3961V50.2941V48.1922V47.2824H55.4164H57.5184H59.6203H60.5301C60.5301 47.2824 60.5301 47.5856 60.5301 48.1922V50.2941V52.3961V53.3059C60.5301 53.3059 60.2269 53.3059 59.6203 53.3059H57.5184H55.4164H54.5066ZM39.4478 49.5412C39.4478 49.5412 39.4478 49.2379 39.4478 48.6314V46.5294V44.4275V43.5176H40.3576H42.4596H44.5615H45.4713C45.4713 43.5176 45.4713 43.8209 45.4713 44.4275V46.5294V48.6314V49.5412C45.4713 49.5412 45.1681 49.5412 44.5615 49.5412H42.4596H40.3576H39.4478ZM54.5066 49.5412C54.5066 49.5412 54.5066 49.2379 54.5066 48.6314V46.5294V44.4275V43.5176H55.4164H57.5184H59.6203H60.5301C60.5301 43.5176 60.5301 43.8209 60.5301 44.4275V46.5294V48.6314V49.5412C60.5301 49.5412 60.2269 49.5412 59.6203 49.5412H57.5184H55.4164H54.5066ZM39.4478 45.7765C39.4478 45.7765 39.4478 45.4732 39.4478 44.8667V42.7647V40.6627V39.7529H40.3576H42.4596H44.5615H45.4713C45.4713 39.7529 45.4713 40.0562 45.4713 40.6627V42.7647V44.8667V45.7765C45.4713 45.7765 45.1681 45.7765 44.5615 45.7765H42.4596H40.3576H39.4478ZM54.5066 45.7765C54.5066 45.7765 54.5066 45.4732 54.5066 44.8667V42.7647V40.6627V39.7529H55.4164H57.5184H59.6203H60.5301C60.5301 39.7529 60.5301 40.0562 60.5301 40.6627V42.7647V44.8667V45.7765C60.5301 45.7765 60.2269 45.7765 59.6203 45.7765H57.5184H55.4164H54.5066ZM39.4478 42.0118C39.4478 42.0118 39.4478 41.7085 39.4478 41.102V39V36.898V35.9882H40.3576H42.4596H44.5615H45.4713C45.4713 35.9882 45.4713 36.2915 45.4713 36.898V39V41.102V42.0118C45.4713 42.0118 45.1681 42.0118 44.5615 42.0118H42.4596H40.3576H39.4478ZM54.5066 42.0118C54.5066 42.0118 54.5066 41.7085 54.5066 41.102V39V36.898V35.9882H55.4164H57.5184H59.6203H60.5301C60.5301 35.9882 60.5301 36.2915 60.5301 36.898V39V41.102V42.0118C60.5301 42.0118 60.2269 42.0118 59.6203 42.0118H57.5184H55.4164H54.5066ZM39.4478 38.2471C39.4478 38.2471 39.4478 37.9438 39.4478 37.3373V35.2353V33.1333V32.2235H40.3576H42.4596H44.5615H45.4713C45.4713 32.2235 45.4713 32.5268 45.4713 33.1333V35.2353V37.3373V38.2471C45.4713 38.2471 45.1681 38.2471 44.5615 38.2471H42.4596H40.3576H39.4478ZM54.5066 38.2471C54.5066 38.2471 54.5066 37.9438 54.5066 37.3373V35.2353V33.1333V32.2235H55.4164H57.5184H59.6203H60.5301C60.5301 32.2235 60.5301 32.5268 60.5301 33.1333V35.2353V37.3373V38.2471C60.5301 38.2471 60.2269 38.2471 59.6203 38.2471H57.5184H55.4164H54.5066ZM43.2125 34.4823C43.2125 34.4823 43.2125 34.1791 43.2125 33.5725V31.4706V29.3686V28.4588H44.1223H46.2243H48.3262H49.236C49.236 28.4588 49.236 28.7621 49.236 29.3686V31.4706V33.5725V34.4823C49.236 34.4823 48.9328 34.4823 48.3262 34.4823H46.2243H44.1223H43.2125ZM46.9772 34.4823C46.9772 34.4823 46.9772 34.1791 46.9772 33.5725V31.4706V29.3686V28.4588H47.887H49.989H52.0909H53.0007C53.0007 28.4588 53.0007 28.7621 53.0007 29.3686V31.4706V33.5725V34.4823C53.0007 34.4823 52.6975 34.4823 52.0909 34.4823H49.989H47.887H46.9772ZM50.7419 34.4823C50.7419 34.4823 50.7419 34.1791 50.7419 33.5725V31.4706V29.3686V28.4588H51.6517H53.7537H55.8556H56.7654C56.7654 28.4588 56.7654 28.7621 56.7654 29.3686V31.4706V33.5725V34.4823C56.7654 34.4823 56.4622 34.4823 55.8556 34.4823H53.7537H51.6517H50.7419Z" fill="#854D0E"/>
<rect x="141" y="5" width="90" height="90" rx="15" fill="#F7FEE7"/>
<rect x="141" y="5" width="90" height="90" rx="15" stroke="#3F6212" stroke-width="10"/>
<path d="M179.781 72.5059C179.781 72.5059 179.781 72.1634 179.781 71.4784V69.1176V66.7569V65.7294H180.8H183.169H185.53H186.557C186.557 65.7294 186.557 66.0719 186.557 66.7569V69.1176V71.4784V72.5059C186.557 72.5059 186.215 72.5059 185.53 72.5059H183.169H180.8H179.781ZM179.781 68.7412C179.781 68.7412 179.781 68.4013 179.781 67.7216V65.3529V62.9922V61.9647H180.8H183.169H185.53H186.557C186.557 61.9647 186.557 62.3072 186.557 62.9922V65.3529V67.7216V68.7412C186.557 68.7412 186.215 68.7412 185.53 68.7412H183.169H180.8H179.781ZM179.781 61.2118C179.781 61.2118 179.781 60.8719 179.781 60.1922V57.8235V55.4627V54.4353H180.8H183.169H185.53H186.557C186.557 54.4353 186.557 54.7778 186.557 55.4627V57.8235V60.1922V61.2118C186.557 61.2118 186.215 61.2118 185.53 61.2118H183.169H180.8H179.781ZM179.781 57.4471C179.781 57.4471 179.781 57.1072 179.781 56.4275V54.0588V51.698V50.6706H180.8H183.169H185.53H186.557C186.557 50.6706 186.557 51.0131 186.557 51.698V54.0588V56.4275V57.4471C186.557 57.4471 186.215 57.4471 185.53 57.4471H183.169H180.8H179.781ZM183.546 53.6824C183.546 53.6824 183.546 53.3425 183.546 52.6627V50.2941V47.9333V46.9059H184.565H186.934H189.295H190.322C190.322 46.9059 190.322 47.2484 190.322 47.9333V50.2941V52.6627V53.6824C190.322 53.6824 189.98 53.6824 189.295 53.6824H186.934H184.565H183.546ZM187.31 53.6824C187.31 53.6824 187.31 53.3425 187.31 52.6627V50.2941V47.9333V46.9059H188.33H190.699H193.059H194.087C194.087 46.9059 194.087 47.2484 194.087 47.9333V50.2941V52.6627V53.6824C194.087 53.6824 193.744 53.6824 193.059 53.6824H190.699H188.33H187.31ZM191.075 49.9176C191.075 49.9176 191.075 49.5778 191.075 48.898V46.5294V44.1686V43.1412H192.095H194.463H196.824H197.851C197.851 43.1412 197.851 43.4837 197.851 44.1686V46.5294V48.898V49.9176C197.851 49.9176 197.509 49.9176 196.824 49.9176H194.463H192.095H191.075ZM172.251 46.1529C172.251 46.1529 172.251 45.8131 172.251 45.1333V42.7647V40.4039V39.3765H173.271H175.64H178H179.028C179.028 39.3765 179.028 39.719 179.028 40.4039V42.7647V45.1333V46.1529C179.028 46.1529 178.685 46.1529 178 46.1529H175.64H173.271H172.251ZM191.075 46.1529C191.075 46.1529 191.075 45.8131 191.075 45.1333V42.7647V40.4039V39.3765H192.095H194.463H196.824H197.851C197.851 39.3765 197.851 39.719 197.851 40.4039V42.7647V45.1333V46.1529C197.851 46.1529 197.509 46.1529 196.824 46.1529H194.463H192.095H191.075ZM172.251 42.3882C172.251 42.3882 172.251 42.0484 172.251 41.3686V39V36.6392V35.6118H173.271H175.64H178H179.028C179.028 35.6118 179.028 35.9542 179.028 36.6392V39V41.3686V42.3882C179.028 42.3882 178.685 42.3882 178 42.3882H175.64H173.271H172.251ZM191.075 42.3882C191.075 42.3882 191.075 42.0484 191.075 41.3686V39V36.6392V35.6118H192.095H194.463H196.824H197.851C197.851 35.6118 197.851 35.9542 197.851 36.6392V39V41.3686V42.3882C197.851 42.3882 197.509 42.3882 196.824 42.3882H194.463H192.095H191.075ZM172.251 38.6235C172.251 38.6235 172.251 38.2837 172.251 37.6039V35.2353V32.8745V31.8471H173.271H175.64H178H179.028C179.028 31.8471 179.028 32.1895 179.028 32.8745V35.2353V37.6039V38.6235C179.028 38.6235 178.685 38.6235 178 38.6235H175.64H173.271H172.251ZM191.075 38.6235C191.075 38.6235 191.075 38.2837 191.075 37.6039V35.2353V32.8745V31.8471H192.095H194.463H196.824H197.851C197.851 31.8471 197.851 32.1895 197.851 32.8745V35.2353V37.6039V38.6235C197.851 38.6235 197.509 38.6235 196.824 38.6235H194.463H192.095H191.075ZM176.016 34.8588C176.016 34.8588 176.016 34.519 176.016 33.8392V31.4706V29.1098V28.0824H177.036H179.404H181.765H182.793C182.793 28.0824 182.793 28.4248 182.793 29.1098V31.4706V33.8392V34.8588C182.793 34.8588 182.45 34.8588 181.765 34.8588H179.404H177.036H176.016ZM179.781 34.8588C179.781 34.8588 179.781 34.519 179.781 33.8392V31.4706V29.1098V28.0824H180.8H183.169H185.53H186.557C186.557 28.0824 186.557 28.4248 186.557 29.1098V31.4706V33.8392V34.8588C186.557 34.8588 186.215 34.8588 185.53 34.8588H183.169H180.8H179.781ZM183.546 34.8588C183.546 34.8588 183.546 34.519 183.546 33.8392V31.4706V29.1098V28.0824H184.565H186.934H189.295H190.322C190.322 28.0824 190.322 28.4248 190.322 29.1098V31.4706V33.8392V34.8588C190.322 34.8588 189.98 34.8588 189.295 34.8588H186.934H184.565H183.546ZM187.31 34.8588C187.31 34.8588 187.31 34.519 187.31 33.8392V31.4706V29.1098V28.0824H188.33H190.699H193.059H194.087C194.087 28.0824 194.087 28.4248 194.087 29.1098V31.4706V33.8392V34.8588C194.087 34.8588 193.744 34.8588 193.059 34.8588H190.699H188.33H187.31Z" fill="#3F6212"/>
<rect x="5" y="140" width="90" height="90" rx="15" fill="#FEFCE8"/>
<rect x="5" y="140" width="90" height="90" rx="15" stroke="#854D0E" stroke-width="10"/>
<path d="M25.8838 207.506C25.8838 207.506 25.8838 207.163 25.8838 206.478V204.118V201.757V200.729H26.9034H29.2721H31.6328H32.6603C32.6603 200.729 32.6603 201.072 32.6603 201.757V204.118V206.478V207.506C32.6603 207.506 32.3178 207.506 31.6328 207.506H29.2721H26.9034H25.8838ZM29.6485 207.506C29.6485 207.506 29.6485 207.163 29.6485 206.478V204.118V201.757V200.729H30.6681H33.0368H35.3975H36.425C36.425 200.729 36.425 201.072 36.425 201.757V204.118V206.478V207.506C36.425 207.506 36.0825 207.506 35.3975 207.506H33.0368H30.6681H29.6485ZM33.4132 207.506C33.4132 207.506 33.4132 207.163 33.4132 206.478V204.118V201.757V200.729H34.4328H36.8015H39.1623H40.1897C40.1897 200.729 40.1897 201.072 40.1897 201.757V204.118V206.478V207.506C40.1897 207.506 39.8472 207.506 39.1623 207.506H36.8015H34.4328H33.4132ZM37.1779 207.506C37.1779 207.506 37.1779 207.163 37.1779 206.478V204.118V201.757V200.729H38.1975H40.5662H42.927H43.9544C43.9544 200.729 43.9544 201.072 43.9544 201.757V204.118V206.478V207.506C43.9544 207.506 43.6119 207.506 42.927 207.506H40.5662H38.1975H37.1779ZM40.9426 207.506C40.9426 207.506 40.9426 207.163 40.9426 206.478V204.118V201.757V200.729H41.9623H44.3309H46.6917H47.7191C47.7191 200.729 47.7191 201.072 47.7191 201.757V204.118V206.478V207.506C47.7191 207.506 47.3766 207.506 46.6917 207.506H44.3309H41.9623H40.9426ZM29.6485 203.741C29.6485 203.741 29.6485 203.401 29.6485 202.722V200.353V197.992V196.965H30.6681H33.0368H35.3975H36.425C36.425 196.965 36.425 197.307 36.425 197.992V200.353V202.722V203.741C36.425 203.741 36.0825 203.741 35.3975 203.741H33.0368H30.6681H29.6485ZM31.5309 199.976C31.5309 199.976 31.5309 199.637 31.5309 198.957V196.588V194.227V193.2H32.5505H34.9191H37.2799H38.3074C38.3074 193.2 38.3074 193.542 38.3074 194.227V196.588V198.957V199.976C38.3074 199.976 37.9649 199.976 37.2799 199.976H34.9191H32.5505H31.5309ZM33.4132 196.212C33.4132 196.212 33.4132 195.872 33.4132 195.192V192.824V190.463V189.435H34.4328H36.8015H39.1623H40.1897C40.1897 189.435 40.1897 189.778 40.1897 190.463V192.824V195.192V196.212C40.1897 196.212 39.8472 196.212 39.1623 196.212H36.8015H34.4328H33.4132ZM35.2956 192.447C35.2956 192.447 35.2956 192.107 35.2956 191.427V189.059V186.698V185.671H36.3152H38.6838H41.0446H42.0721C42.0721 185.671 42.0721 186.013 42.0721 186.698V189.059V191.427V192.447C42.0721 192.447 41.7296 192.447 41.0446 192.447H38.6838H36.3152H35.2956ZM37.1779 188.682C37.1779 188.682 37.1779 188.342 37.1779 187.663V185.294V182.933V181.906H38.1975H40.5662H42.927H43.9544C43.9544 181.906 43.9544 182.248 43.9544 182.933V185.294V187.663V188.682C43.9544 188.682 43.6119 188.682 42.927 188.682H40.5662H38.1975H37.1779ZM39.0603 184.918C39.0603 184.918 39.0603 184.578 39.0603 183.898V181.529V179.169V178.141H40.0799H42.4485H44.8093H45.8368C45.8368 178.141 45.8368 178.484 45.8368 179.169V181.529V183.898V184.918C45.8368 184.918 45.4943 184.918 44.8093 184.918H42.4485H40.0799H39.0603ZM25.8838 181.153C25.8838 181.153 25.8838 180.813 25.8838 180.133V177.765V175.404V174.376H26.9034H29.2721H31.6328H32.6603C32.6603 174.376 32.6603 174.719 32.6603 175.404V177.765V180.133V181.153C32.6603 181.153 32.3178 181.153 31.6328 181.153H29.2721H26.9034H25.8838ZM40.9426 181.153C40.9426 181.153 40.9426 180.813 40.9426 180.133V177.765V175.404V174.376H41.9623H44.3309H46.6917H47.7191C47.7191 174.376 47.7191 174.719 47.7191 175.404V177.765V180.133V181.153C47.7191 181.153 47.3766 181.153 46.6917 181.153H44.3309H41.9623H40.9426ZM25.8838 177.388C25.8838 177.388 25.8838 177.048 25.8838 176.369V174V171.639V170.612H26.9034H29.2721H31.6328H32.6603C32.6603 170.612 32.6603 170.954 32.6603 171.639V174V176.369V177.388C32.6603 177.388 32.3178 177.388 31.6328 177.388H29.2721H26.9034H25.8838ZM40.9426 177.388C40.9426 177.388 40.9426 177.048 40.9426 176.369V174V171.639V170.612H41.9623H44.3309H46.6917H47.7191C47.7191 170.612 47.7191 170.954 47.7191 171.639V174V176.369V177.388C47.7191 177.388 47.3766 177.388 46.6917 177.388H44.3309H41.9623H40.9426ZM25.8838 173.624C25.8838 173.624 25.8838 173.284 25.8838 172.604V170.235V167.875V166.847H26.9034H29.2721H31.6328H32.6603C32.6603 166.847 32.6603 167.19 32.6603 167.875V170.235V172.604V173.624C32.6603 173.624 32.3178 173.624 31.6328 173.624H29.2721H26.9034H25.8838ZM40.9426 173.624C40.9426 173.624 40.9426 173.284 40.9426 172.604V170.235V167.875V166.847H41.9623H44.3309H46.6917H47.7191C47.7191 166.847 47.7191 167.19 47.7191 167.875V170.235V172.604V173.624C47.7191 173.624 47.3766 173.624 46.6917 173.624H44.3309H41.9623H40.9426ZM29.6485 169.859C29.6485 169.859 29.6485 169.519 29.6485 168.839V166.471V164.11V163.082H30.6681H33.0368H35.3975H36.425C36.425 163.082 36.425 163.425 36.425 164.11V166.471V168.839V169.859C36.425 169.859 36.0825 169.859 35.3975 169.859H33.0368H30.6681H29.6485ZM33.4132 169.859C33.4132 169.859 33.4132 169.519 33.4132 168.839V166.471V164.11V163.082H34.4328H36.8015H39.1623H40.1897C40.1897 163.082 40.1897 163.425 40.1897 164.11V166.471V168.839V169.859C40.1897 169.859 39.8472 169.859 39.1623 169.859H36.8015H34.4328H33.4132ZM37.1779 169.859C37.1779 169.859 37.1779 169.519 37.1779 168.839V166.471V164.11V163.082H38.1975H40.5662H42.927H43.9544C43.9544 163.082 43.9544 163.425 43.9544 164.11V166.471V168.839V169.859C43.9544 169.859 43.6119 169.859 42.927 169.859H40.5662H38.1975H37.1779ZM52.2588 207.506C52.2588 207.506 52.2588 207.163 52.2588 206.478V204.118V201.757V200.729H53.2784H55.6471H58.0078H59.0353C59.0353 200.729 59.0353 201.072 59.0353 201.757V204.118V206.478V207.506C59.0353 207.506 58.6928 207.506 58.0078 207.506H55.6471H53.2784H52.2588ZM56.0235 207.506C56.0235 207.506 56.0235 207.163 56.0235 206.478V204.118V201.757V200.729H57.0431H59.4118H61.7725H62.8C62.8 200.729 62.8 201.072 62.8 201.757V204.118V206.478V207.506C62.8 207.506 62.4575 207.506 61.7725 207.506H59.4118H57.0431H56.0235ZM59.7882 207.506C59.7882 207.506 59.7882 207.163 59.7882 206.478V204.118V201.757V200.729H60.8078H63.1765H65.5373H66.5647C66.5647 200.729 66.5647 201.072 66.5647 201.757V204.118V206.478V207.506C66.5647 207.506 66.2222 207.506 65.5373 207.506H63.1765H60.8078H59.7882ZM63.5529 207.506C63.5529 207.506 63.5529 207.163 63.5529 206.478V204.118V201.757V200.729H64.5725H66.9412H69.302H70.3294C70.3294 200.729 70.3294 201.072 70.3294 201.757V204.118V206.478V207.506C70.3294 207.506 69.9869 207.506 69.302 207.506H66.9412H64.5725H63.5529ZM67.3176 207.506C67.3176 207.506 67.3176 207.163 67.3176 206.478V204.118V201.757V200.729H68.3373H70.7059H73.0667H74.0941C74.0941 200.729 74.0941 201.072 74.0941 201.757V204.118V206.478V207.506C74.0941 207.506 73.7516 207.506 73.0667 207.506H70.7059H68.3373H67.3176ZM59.7882 203.741C59.7882 203.741 59.7882 203.401 59.7882 202.722V200.353V197.992V196.965H60.8078H63.1765H65.5373H66.5647C66.5647 196.965 66.5647 197.307 66.5647 197.992V200.353V202.722V203.741C66.5647 203.741 66.2222 203.741 65.5373 203.741H63.1765H60.8078H59.7882ZM59.7882 199.976C59.7882 199.976 59.7882 199.637 59.7882 198.957V196.588V194.227V193.2H60.8078H63.1765H65.5373H66.5647C66.5647 193.2 66.5647 193.542 66.5647 194.227V196.588V198.957V199.976C66.5647 199.976 66.2222 199.976 65.5373 199.976H63.1765H60.8078H59.7882ZM59.7882 196.212C59.7882 196.212 59.7882 195.872 59.7882 195.192V192.824V190.463V189.435H60.8078H63.1765H65.5373H66.5647C66.5647 189.435 66.5647 189.778 66.5647 190.463V192.824V195.192V196.212C66.5647 196.212 66.2222 196.212 65.5373 196.212H63.1765H60.8078H59.7882ZM59.7882 192.447C59.7882 192.447 59.7882 192.107 59.7882 191.427V189.059V186.698V185.671H60.8078H63.1765H65.5373H66.5647C66.5647 185.671 66.5647 186.013 66.5647 186.698V189.059V191.427V192.447C66.5647 192.447 66.2222 192.447 65.5373 192.447H63.1765H60.8078H59.7882ZM59.7882 188.682C59.7882 188.682 59.7882 188.342 59.7882 187.663V185.294V182.933V181.906H60.8078H63.1765H65.5373H66.5647C66.5647 181.906 66.5647 182.248 66.5647 182.933V185.294V187.663V188.682C66.5647 188.682 66.2222 188.682 65.5373 188.682H63.1765H60.8078H59.7882ZM59.7882 184.918C59.7882 184.918 59.7882 184.578 59.7882 183.898V181.529V179.169V178.141H60.8078H63.1765H65.5373H66.5647C66.5647 178.141 66.5647 178.484 66.5647 179.169V181.529V183.898V184.918C66.5647 184.918 66.2222 184.918 65.5373 184.918H63.1765H60.8078H59.7882ZM59.7882 181.153C59.7882 181.153 59.7882 180.813 59.7882 180.133V177.765V175.404V174.376H60.8078H63.1765H65.5373H66.5647C66.5647 174.376 66.5647 174.719 66.5647 175.404V177.765V180.133V181.153C66.5647 181.153 66.2222 181.153 65.5373 181.153H63.1765H60.8078H59.7882ZM59.7882 177.388C59.7882 177.388 59.7882 177.048 59.7882 176.369V174V171.639V170.612H60.8078H63.1765H65.5373H66.5647C66.5647 170.612 66.5647 170.954 66.5647 171.639V174V176.369V177.388C66.5647 177.388 66.2222 177.388 65.5373 177.388H63.1765H60.8078H59.7882ZM52.2588 173.624C52.2588 173.624 52.2588 173.284 52.2588 172.604V170.235V167.875V166.847H53.2784H55.6471H58.0078H59.0353C59.0353 166.847 59.0353 167.19 59.0353 167.875V170.235V172.604V173.624C59.0353 173.624 58.6928 173.624 58.0078 173.624H55.6471H53.2784H52.2588ZM59.7882 173.624C59.7882 173.624 59.7882 173.284 59.7882 172.604V170.235V167.875V166.847H60.8078H63.1765H65.5373H66.5647C66.5647 166.847 66.5647 167.19 66.5647 167.875V170.235V172.604V173.624C66.5647 173.624 66.2222 173.624 65.5373 173.624H63.1765H60.8078H59.7882ZM56.0235 171.741C56.0235 171.741 56.0235 171.401 56.0235 170.722V168.353V165.992V164.965H57.0431H59.4118H61.7725H62.8C62.8 164.965 62.8 165.307 62.8 165.992V168.353V170.722V171.741C62.8 171.741 62.4575 171.741 61.7725 171.741H59.4118H57.0431H56.0235ZM59.7882 169.859C59.7882 169.859 59.7882 169.519 59.7882 168.839V166.471V164.11V163.082H60.8078H63.1765H65.5373H66.5647C66.5647 163.082 66.5647 163.425 66.5647 164.11V166.471V168.839V169.859C66.5647 169.859 66.2222 169.859 65.5373 169.859H63.1765H60.8078H59.7882Z" fill="#854D0E"/>
<rect x="141" y="140" width="90" height="90" rx="15" fill="#FEFCE8"/>
<rect x="141" y="140" width="90" height="90" rx="15" stroke="#854D0E" stroke-width="10"/>
<path d="M161.884 207.506C161.884 207.506 161.884 207.163 161.884 206.478V204.118V201.757V200.729H162.903H165.272H167.633H168.66C168.66 200.729 168.66 201.072 168.66 201.757V204.118V206.478V207.506C168.66 207.506 168.318 207.506 167.633 207.506H165.272H162.903H161.884ZM165.649 207.506C165.649 207.506 165.649 207.163 165.649 206.478V204.118V201.757V200.729H166.668H169.037H171.398H172.425C172.425 200.729 172.425 201.072 172.425 201.757V204.118V206.478V207.506C172.425 207.506 172.083 207.506 171.398 207.506H169.037H166.668H165.649ZM169.413 207.506C169.413 207.506 169.413 207.163 169.413 206.478V204.118V201.757V200.729H170.433H172.801H175.162H176.19C176.19 200.729 176.19 201.072 176.19 201.757V204.118V206.478V207.506C176.19 207.506 175.847 207.506 175.162 207.506H172.801H170.433H169.413ZM173.178 207.506C173.178 207.506 173.178 207.163 173.178 206.478V204.118V201.757V200.729H174.198H176.566H178.927H179.954C179.954 200.729 179.954 201.072 179.954 201.757V204.118V206.478V207.506C179.954 207.506 179.612 207.506 178.927 207.506H176.566H174.198H173.178ZM176.943 207.506C176.943 207.506 176.943 207.163 176.943 206.478V204.118V201.757V200.729H177.962H180.331H182.692H183.719C183.719 200.729 183.719 201.072 183.719 201.757V204.118V206.478V207.506C183.719 207.506 183.377 207.506 182.692 207.506H180.331H177.962H176.943ZM169.413 203.741C169.413 203.741 169.413 203.401 169.413 202.722V200.353V197.992V196.965H170.433H172.801H175.162H176.19C176.19 196.965 176.19 197.307 176.19 197.992V200.353V202.722V203.741C176.19 203.741 175.847 203.741 175.162 203.741H172.801H170.433H169.413ZM169.413 199.976C169.413 199.976 169.413 199.637 169.413 198.957V196.588V194.227V193.2H170.433H172.801H175.162H176.19C176.19 193.2 176.19 193.542 176.19 194.227V196.588V198.957V199.976C176.19 199.976 175.847 199.976 175.162 199.976H172.801H170.433H169.413ZM169.413 196.212C169.413 196.212 169.413 195.872 169.413 195.192V192.824V190.463V189.435H170.433H172.801H175.162H176.19C176.19 189.435 176.19 189.778 176.19 190.463V192.824V195.192V196.212C176.19 196.212 175.847 196.212 175.162 196.212H172.801H170.433H169.413ZM169.413 192.447C169.413 192.447 169.413 192.107 169.413 191.427V189.059V186.698V185.671H170.433H172.801H175.162H176.19C176.19 185.671 176.19 186.013 176.19 186.698V189.059V191.427V192.447C176.19 192.447 175.847 192.447 175.162 192.447H172.801H170.433H169.413ZM169.413 188.682C169.413 188.682 169.413 188.342 169.413 187.663V185.294V182.933V181.906H170.433H172.801H175.162H176.19C176.19 181.906 176.19 182.248 176.19 182.933V185.294V187.663V188.682C176.19 188.682 175.847 188.682 175.162 188.682H172.801H170.433H169.413ZM169.413 184.918C169.413 184.918 169.413 184.578 169.413 183.898V181.529V179.169V178.141H170.433H172.801H175.162H176.19C176.19 178.141 176.19 178.484 176.19 179.169V181.529V183.898V184.918C176.19 184.918 175.847 184.918 175.162 184.918H172.801H170.433H169.413ZM169.413 181.153C169.413 181.153 169.413 180.813 169.413 180.133V177.765V175.404V174.376H170.433H172.801H175.162H176.19C176.19 174.376 176.19 174.719 176.19 175.404V177.765V180.133V181.153C176.19 181.153 175.847 181.153 175.162 181.153H172.801H170.433H169.413ZM169.413 177.388C169.413 177.388 169.413 177.048 169.413 176.369V174V171.639V170.612H170.433H172.801H175.162H176.19C176.19 170.612 176.19 170.954 176.19 171.639V174V176.369V177.388C176.19 177.388 175.847 177.388 175.162 177.388H172.801H170.433H169.413ZM161.884 173.624C161.884 173.624 161.884 173.284 161.884 172.604V170.235V167.875V166.847H162.903H165.272H167.633H168.66C168.66 166.847 168.66 167.19 168.66 167.875V170.235V172.604V173.624C168.66 173.624 168.318 173.624 167.633 173.624H165.272H162.903H161.884ZM169.413 173.624C169.413 173.624 169.413 173.284 169.413 172.604V170.235V167.875V166.847H170.433H172.801H175.162H176.19C176.19 166.847 176.19 167.19 176.19 167.875V170.235V172.604V173.624C176.19 173.624 175.847 173.624 175.162 173.624H172.801H170.433H169.413ZM165.649 171.741C165.649 171.741 165.649 171.401 165.649 170.722V168.353V165.992V164.965H166.668H169.037H171.398H172.425C172.425 164.965 172.425 165.307 172.425 165.992V168.353V170.722V171.741C172.425 171.741 172.083 171.741 171.398 171.741H169.037H166.668H165.649ZM169.413 169.859C169.413 169.859 169.413 169.519 169.413 168.839V166.471V164.11V163.082H170.433H172.801H175.162H176.19C176.19 163.082 176.19 163.425 176.19 164.11V166.471V168.839V169.859C176.19 169.859 175.847 169.859 175.162 169.859H172.801H170.433H169.413ZM188.259 207.506C188.259 207.506 188.259 207.163 188.259 206.478V204.118V201.757V200.729H189.278H191.647H194.008H195.035C195.035 200.729 195.035 201.072 195.035 201.757V204.118V206.478V207.506C195.035 207.506 194.693 207.506 194.008 207.506H191.647H189.278H188.259ZM190.141 203.741C190.141 203.741 190.141 203.401 190.141 202.722V200.353V197.992V196.965H191.161H193.529H195.89H196.918C196.918 196.965 196.918 197.307 196.918 197.992V200.353V202.722V203.741C196.918 203.741 196.575 203.741 195.89 203.741H193.529H191.161H190.141ZM192.024 199.976C192.024 199.976 192.024 199.637 192.024 198.957V196.588V194.227V193.2H193.043H195.412H197.773H198.8C198.8 193.2 198.8 193.542 198.8 194.227V196.588V198.957V199.976C198.8 199.976 198.458 199.976 197.773 199.976H195.412H193.043H192.024ZM193.906 196.212C193.906 196.212 193.906 195.872 193.906 195.192V192.824V190.463V189.435H194.925H197.294H199.655H200.682C200.682 189.435 200.682 189.778 200.682 190.463V192.824V195.192V196.212C200.682 196.212 200.34 196.212 199.655 196.212H197.294H194.925H193.906ZM195.788 192.447C195.788 192.447 195.788 192.107 195.788 191.427V189.059V186.698V185.671H196.808H199.176H201.537H202.565C202.565 185.671 202.565 186.013 202.565 186.698V189.059V191.427V192.447C202.565 192.447 202.222 192.447 201.537 192.447H199.176H196.808H195.788ZM197.671 188.682C197.671 188.682 197.671 188.342 197.671 187.663V185.294V182.933V181.906H198.69H201.059H203.42H204.447C204.447 181.906 204.447 182.248 204.447 182.933V185.294V187.663V188.682C204.447 188.682 204.105 188.682 203.42 188.682H201.059H198.69H197.671ZM199.553 184.918C199.553 184.918 199.553 184.578 199.553 183.898V181.529V179.169V178.141H200.573H202.941H205.302H206.329C206.329 178.141 206.329 178.484 206.329 179.169V181.529V183.898V184.918C206.329 184.918 205.987 184.918 205.302 184.918H202.941H200.573H199.553ZM201.435 181.153C201.435 181.153 201.435 180.813 201.435 180.133V177.765V175.404V174.376H202.455H204.824H207.184H208.212C208.212 174.376 208.212 174.719 208.212 175.404V177.765V180.133V181.153C208.212 181.153 207.869 181.153 207.184 181.153H204.824H202.455H201.435ZM184.494 177.388C184.494 177.388 184.494 177.048 184.494 176.369V174V171.639V170.612H185.522H187.882H190.243H191.271C191.271 170.612 191.271 170.954 191.271 171.639V174V176.369V177.388C191.271 177.388 190.928 177.388 190.243 177.388H187.882H185.522H184.494ZM203.318 177.388C203.318 177.388 203.318 177.048 203.318 176.369V174V171.639V170.612H204.337H206.706H209.067H210.094C210.094 170.612 210.094 170.954 210.094 171.639V174V176.369V177.388C210.094 177.388 209.752 177.388 209.067 177.388H206.706H204.337H203.318ZM184.494 173.624C184.494 173.624 184.494 173.284 184.494 172.604V170.235V167.875V166.847H185.522H187.882H190.243H191.271C191.271 166.847 191.271 167.19 191.271 167.875V170.235V172.604V173.624C191.271 173.624 190.928 173.624 190.243 173.624H187.882H185.522H184.494ZM203.318 173.624C203.318 173.624 203.318 173.284 203.318 172.604V170.235V167.875V166.847H204.337H206.706H209.067H210.094C210.094 166.847 210.094 167.19 210.094 167.875V170.235V172.604V173.624C210.094 173.624 209.752 173.624 209.067 173.624H206.706H204.337H203.318ZM184.494 169.859C184.494 169.859 184.494 169.519 184.494 168.839V166.471V164.11V163.082H185.522H187.882H190.243H191.271C191.271 163.082 191.271 163.425 191.271 164.11V166.471V168.839V169.859C191.271 169.859 190.928 169.859 190.243 169.859H187.882H185.522H184.494ZM188.259 169.859C188.259 169.859 188.259 169.519 188.259 168.839V166.471V164.11V163.082H189.278H191.647H194.008H195.035C195.035 163.082 195.035 163.425 195.035 164.11V166.471V168.839V169.859C195.035 169.859 194.693 169.859 194.008 169.859H191.647H189.278H188.259ZM192.024 169.859C192.024 169.859 192.024 169.519 192.024 168.839V166.471V164.11V163.082H193.043H195.412H197.773H198.8C198.8 163.082 198.8 163.425 198.8 164.11V166.471V168.839V169.859C198.8 169.859 198.458 169.859 197.773 169.859H195.412H193.043H192.024ZM195.788 169.859C195.788 169.859 195.788 169.519 195.788 168.839V166.471V164.11V163.082H196.808H199.176H201.537H202.565C202.565 163.082 202.565 163.425 202.565 164.11V166.471V168.839V169.859C202.565 169.859 202.222 169.859 201.537 169.859H199.176H196.808H195.788ZM199.553 169.859C199.553 169.859 199.553 169.519 199.553 168.839V166.471V164.11V163.082H200.573H202.941H205.302H206.329C206.329 163.082 206.329 163.425 206.329 164.11V166.471V168.839V169.859C206.329 169.859 205.987 169.859 205.302 169.859H202.941H200.573H199.553ZM203.318 169.859C203.318 169.859 203.318 169.519 203.318 168.839V166.471V164.11V163.082H204.337H206.706H209.067H210.094C210.094 163.082 210.094 163.425 210.094 164.11V166.471V168.839V169.859C210.094 169.859 209.752 169.859 209.067 169.859H206.706H204.337H203.318Z" fill="#854D0E"/>
<path d="M106.439 183.985C105.854 184.571 105.854 185.521 106.439 186.107L115.985 195.653C116.571 196.238 117.521 196.238 118.107 195.653C118.692 195.067 118.692 194.117 118.107 193.531L109.621 185.046L118.107 176.561C118.692 175.975 118.692 175.025 118.107 174.439C117.521 173.854 116.571 173.854 115.985 174.439L106.439 183.985ZM131.5 183.546H107.5V186.546H131.5V183.546Z" fill="#854D0E"/>
<path d="M184.985 129.061C185.571 129.646 186.521 129.646 187.107 129.061L196.653 119.515C197.238 118.929 197.238 117.979 196.653 117.393C196.067 116.808 195.117 116.808 194.531 117.393L186.046 125.879L177.561 117.393C176.975 116.808 176.025 116.808 175.439 117.393C174.854 117.979 174.854 118.929 175.439 119.515L184.985 129.061ZM184.546 104V128H187.546V104H184.546Z" fill="#854D0E"/>
<path d="M131.061 51.1067C131.646 50.5209 131.646 49.5711 131.061 48.9853L121.515 39.4394C120.929 38.8536 119.979 38.8536 119.393 39.4394C118.808 40.0252 118.808 40.9749 119.393 41.5607L127.879 50.046L119.393 58.5312C118.808 59.1171 118.808 60.0668 119.393 60.6526C119.979 61.2384 120.929 61.2384 121.515 60.6526L131.061 51.1067ZM106 51.546H130V48.546H106V51.546Z" fill="#3F6212"/>
</svg>
