<svg width="60" height="60" viewBox="0 0 60 60" fill="none" xmlns="http://www.w3.org/2000/svg">
<mask id="mask0_49_170" style="mask-type:luminance" maskUnits="userSpaceOnUse" x="0" y="0" width="60" height="60">
<path d="M0 0H59.798V60H0V0Z" fill="white"/>
</mask>
<g mask="url(#mask0_49_170)">
<path fill-rule="evenodd" clip-rule="evenodd" d="M26.8598 0.38649L8.55806 0.771591C8.55806 0.771591 0.658766 0.771591 0.466216 8.20214C0.273665 15.6311 0.755042 43.8082 0.369941 48.2463C-0.0151597 52.686 -0.592811 57.7034 6.34216 58.8618C13.2787 60.0187 48.8232 59.632 50.6524 59.5358C52.4832 59.4395 59.9958 57.8959 59.1294 49.5011C58.2629 41.1062 59.4182 12.1589 59.4182 9.7457C59.4182 7.33251 58.8405 0.38649 50.6524 0.192361C42.4659 -0.000189006 26.8598 0.38649 26.8598 0.38649Z" fill="#155E75"/>
</g>
<path fill-rule="evenodd" clip-rule="evenodd" d="M32.002 54.685L47.9474 54.3489C47.9474 54.3489 54.8287 54.3489 54.996 47.8747C55.1633 41.4022 54.745 16.8552 55.0796 12.9868C55.4158 9.12001 55.9193 4.74974 49.8776 3.73964C43.8344 2.73112 12.8685 3.06729 11.2744 3.15252C9.67875 3.23617 3.13361 4.58087 3.88961 11.8946C4.64403 19.2084 3.63708 44.4278 3.63708 46.53C3.63708 48.6323 4.14056 54.6834 11.2744 54.8523C18.4067 55.0212 32.002 54.685 32.002 54.685Z" fill="#22D3EE"/>
<path fill-rule="evenodd" clip-rule="evenodd" d="M32.0009 54.6834L47.9463 54.3488C47.9463 54.3488 52.7221 54.3472 54.4125 50.6035L54.4472 50.5278L54.4945 50.4141L54.5419 50.2958L54.5719 50.2169L54.5861 50.1758L54.6161 50.0953L54.6287 50.0543L54.6571 49.9722L54.6697 49.9296L54.6966 49.846L54.7092 49.8033L54.7202 49.7607L54.7329 49.7181L54.7723 49.5666L54.7897 49.4956L54.8307 49.3188L54.8402 49.2762V49.273L54.8497 49.2257L54.8828 49.0442L54.8923 48.9889C54.9049 48.91 54.9175 48.8311 54.9286 48.7506V48.7443C54.9396 48.6638 54.9491 48.5833 54.957 48.5013L54.9601 48.4634L54.9617 48.4508C54.9791 48.2661 54.9901 48.0735 54.9949 47.8747L54.998 47.7863L54.9996 47.7184V47.6932L55.0027 47.6001V47.5559L55.0043 47.5038L55.0059 47.4044V47.3854L55.0075 47.3049L55.0091 47.2102V47.2008L55.0122 47.0966V47.0271L55.0138 46.9893L55.0154 46.8804V46.8393L55.0169 46.7699L55.0185 46.6562V46.541L55.0201 46.4448V46.4242L55.0217 46.3059L55.0233 46.238V46.1843L55.0248 46.0612V45.9366L55.0264 45.8103V45.8071L55.028 45.6824V45.5515L55.0296 45.4205V45.2863L55.0312 45.1506V45.0133L55.0327 44.8838V44.7339L55.0343 44.6392V44.1357L55.0359 44.0063V41.6026L55.0343 41.4321V40.7361L55.0327 40.5593V40.3826L55.0312 40.2027V39.8318L55.0296 39.6613V39.4782L55.028 39.2951V39.1105L55.0264 38.9242V38.738L55.0248 38.5549V38.5502C55.0122 35.6304 54.9917 32.4012 54.9728 29.2431C54.8591 32.1408 53.1609 43.0562 34.5798 49.505C22.9384 52.0177 10.2885 51.5884 4.6698 51.2143C5.6578 53.0941 7.57226 54.7655 11.2733 54.8523C18.4056 55.0211 32.0009 54.685 32.0009 54.685V54.6834ZM54.9286 48.7443C54.9396 48.6638 54.9491 48.5833 54.957 48.5013L54.9286 48.7443Z" fill="#06B6D4"/>
<path fill-rule="evenodd" clip-rule="evenodd" d="M32.9162 56.7999L49.1567 56.459C49.1567 56.459 56.1643 56.459 56.3363 49.8665C56.5067 43.2725 56.079 18.2709 56.4199 14.3331C56.6914 11.2254 57.0655 7.79899 54.1914 5.98712C55.574 7.85897 55.293 10.5263 55.0784 12.9868C54.7438 16.8536 55.162 41.4022 54.9948 47.8748C54.8275 54.3489 47.9461 54.3489 47.9461 54.3489L32.0008 54.6835C32.0008 54.6835 18.4055 55.0212 11.2716 54.8523C6.65359 54.7434 4.81489 52.1677 4.09204 49.7955C4.36508 52.4597 5.70504 56.8284 11.8051 56.972C19.0699 57.1424 32.9162 56.7999 32.9162 56.7999Z" fill="#083344"/>
<path fill-rule="evenodd" clip-rule="evenodd" d="M12.5022 5.90197C12.5022 5.90197 6.57101 5.65418 6.50945 9.58884C6.4479 13.5235 6.17328 16.4307 8.65118 16.1466C10.0196 15.9888 8.74903 10.0418 12.1897 9.99288C15.6303 9.94238 15.744 5.83884 12.5022 5.90197ZM18.4318 5.72047C18.4318 5.72047 16.4053 5.53265 16.2806 7.59389C16.1575 9.65513 18.214 10.1223 19.3677 9.37419C20.5214 8.62451 20.5214 5.6889 18.4318 5.72047Z" fill="#ECFEFF"/>
<path fill-rule="evenodd" clip-rule="evenodd" d="M25.0105 18.2346L26.251 14.4767L26.2889 14.3647C26.3962 14.1074 26.794 13.4982 28.1418 13.4982H30.7634C32.0086 13.4982 32.4427 14.019 32.5863 14.3015L33.8852 18.2346L37.4142 16.4559H37.4158L37.52 16.4038C37.7788 16.2981 38.4891 16.1497 39.4423 17.103L41.2952 18.9606C42.1759 19.8413 42.116 20.5168 42.0181 20.8183L40.1605 24.5209L43.9105 25.763H43.912L44.0225 25.8009C44.2798 25.9082 44.8874 26.3076 44.8874 27.657V30.2817C44.8874 31.5301 44.3682 31.9641 44.0872 32.1093L40.1605 33.4098L41.9345 36.9452L41.936 36.9468L41.9881 37.0509C42.0939 37.3098 42.2422 38.0216 41.2889 38.9764L39.436 40.8325C38.5553 41.7148 37.8814 41.6548 37.58 41.5569L33.8852 39.6961L32.6447 43.4524V43.454L32.6068 43.5661C32.4995 43.8233 32.1017 44.431 30.7539 44.431H28.1339C26.8887 44.431 26.4546 43.9117 26.3094 43.6292L25.0105 39.6961L21.4815 41.4733L21.3757 41.5269C21.1185 41.6327 20.4067 41.781 19.455 40.8262L17.6005 38.9701C16.7214 38.0879 16.7813 37.4124 16.8776 37.1109L18.7368 33.4098L14.9853 32.1677L14.8732 32.1298C14.6159 32.0209 14.0083 31.6232 14.0083 30.2738V27.6475C14.0083 26.4007 14.5276 25.9651 14.8101 25.8214L18.7368 24.5209L16.9613 20.9856V20.984L16.9076 20.8783C16.8034 20.621 16.6551 19.9076 17.6068 18.9543L19.4613 17.0967C20.3404 16.216 21.0143 16.276 21.3158 16.3738L25.0105 18.2346ZM29.0683 23.2141C29.0683 23.2141 23.3454 23.132 23.5364 29.0064C23.7274 34.8808 29.2593 34.9629 30.9007 34.6346C32.5405 34.3047 35.3656 33.0326 35.3656 29.1295C35.3656 25.2264 32.6557 22.9269 29.0683 23.2141Z" fill="#083344"/>
<path fill-rule="evenodd" clip-rule="evenodd" d="M41.7214 21.4088L40.1605 24.5212V26.4593L43.9105 27.703L44.0225 27.7393C44.2798 27.8482 44.8874 28.2459 44.8874 29.5954V30.2819C44.8874 31.5303 44.3682 31.9644 44.0872 32.108L40.1605 33.4101V35.3498L41.7214 38.459C41.6125 38.6215 41.4704 38.7952 41.2889 38.9767L39.436 40.8327C38.5553 41.715 37.8814 41.655 37.58 41.5572L33.8852 39.6964L32.6447 43.4527V43.4542L32.6068 43.5663C32.4995 43.822 32.1017 44.4312 30.7539 44.4312H28.1324C26.8887 44.4312 26.4546 43.9119 26.3094 43.6294L25.0105 39.6964L21.4815 41.4735L21.3757 41.5272C21.1185 41.6329 20.4067 41.7813 19.4534 40.8264L17.6005 38.9703C17.4221 38.792 17.2832 38.6215 17.1743 38.4606L18.7353 35.3498V33.4101L14.9853 32.168V32.1664L14.8732 32.1301C14.6159 32.0212 14.0083 31.6234 14.0083 30.274V29.5875C14.0083 28.3406 14.5276 27.905 14.8085 27.7614L18.7353 26.4593V24.5212L17.1743 21.4104C17.2848 21.2478 17.4253 21.0742 17.6068 20.8927L19.4597 19.0367C20.3404 18.1544 21.0143 18.2144 21.3158 18.3122L25.0105 20.173L26.251 16.4167L26.2889 16.3046C26.3962 16.0474 26.794 15.4382 28.1418 15.4382H30.7634C32.0086 15.4382 32.4427 15.9574 32.5863 16.2399L33.8852 20.173L37.4142 18.3959H37.4158L37.52 18.3422C37.7788 18.2365 38.4891 18.0881 39.4423 19.043L41.2952 20.899C41.4736 21.0774 41.6125 21.2478 41.7214 21.4088ZM23.5885 29.7185C23.5411 30.0957 23.5222 30.5029 23.5364 30.9464C23.7274 36.8192 29.2593 36.9012 30.9007 36.5729C32.5405 36.2447 35.3656 34.971 35.3656 31.0695C35.3656 30.7286 35.3435 30.4003 35.3041 30.0846C35.3435 29.7848 35.3656 29.4675 35.3656 29.1298C35.3656 25.2267 32.6557 22.9271 29.0683 23.2144C29.0683 23.2144 23.3454 23.1323 23.5364 29.0067C23.5443 29.2544 23.5632 29.4912 23.5885 29.7185Z" fill="#155E75"/>
</svg>
