<svg width="61" height="60" viewBox="0 0 61 60" fill="none" xmlns="http://www.w3.org/2000/svg">
<mask id="mask0_49_183" style="mask-type:luminance" maskUnits="userSpaceOnUse" x="0" y="0" width="61" height="60">
<path d="M0 0H60.1397V60H0V0Z" fill="white"/>
</mask>
<g mask="url(#mask0_49_183)">
<path fill-rule="evenodd" clip-rule="evenodd" d="M26.9921 0.380945L8.58416 0.768246C8.58416 0.768246 0.641298 0.768246 0.447647 8.23809C0.253996 15.7079 0.738123 44.0317 0.349234 48.4952C-0.0380673 52.9571 -0.61902 58 6.35717 59.1651C13.3318 60.3286 49.081 59.9413 50.9223 59.8444C52.7619 59.7476 60.3191 58.1952 59.4476 49.7556C58.5746 41.3159 59.7381 12.2159 59.7381 9.79047C59.7381 7.36507 59.1572 0.380944 50.9223 0.187294C42.6873 -0.00794436 26.9921 0.380945 26.9921 0.380945Z" fill="#155E75"/>
</g>
<path fill-rule="evenodd" clip-rule="evenodd" d="M31.4445 55.4286L47.481 55.0905C47.481 55.0905 54.4032 55.0905 54.5715 48.5825C54.7397 42.0762 54.3175 17.3984 54.6556 13.5111C54.9937 9.62381 55.5 5.23016 49.4222 4.21587C43.3461 3.20159 12.2016 3.53968 10.5968 3.62381C8.99367 3.70794 2.41113 5.06032 3.16986 12.4127C3.93018 19.7651 2.91589 45.1175 2.91589 47.2302C2.91589 49.3444 3.42224 55.4286 10.5968 55.5968C17.7715 55.7667 31.4445 55.4286 31.4445 55.4286Z" fill="#22D3EE"/>
<path fill-rule="evenodd" clip-rule="evenodd" d="M31.4445 55.4286L47.481 55.0905C47.481 55.0905 52.2857 55.0905 53.9857 51.327L54.0032 51.2889L54.0191 51.2508L54.0206 51.2492L54.0683 51.1349L54.0841 51.0952L54.1 51.0571L54.1159 51.0175L54.146 50.9365L54.1603 50.8968L54.1889 50.8159L54.2032 50.7746L54.2302 50.6905L54.2445 50.6492L54.2699 50.5635L54.2826 50.5222L54.2952 50.4794L54.3079 50.4349L54.3476 50.2825L54.3651 50.2127L54.4048 50.0333L54.4143 49.9921L54.4159 49.9873L54.4238 49.9413L54.4587 49.7587L54.4683 49.7032C54.481 49.6238 54.4937 49.5445 54.5032 49.4635L54.5048 49.4556C54.5143 49.3762 54.5238 49.2952 54.5318 49.2127L54.5365 49.1746V49.1619C54.554 48.9762 54.5651 48.7825 54.5714 48.5825L54.573 48.4937L54.5746 48.4254L54.5762 48.4L54.5778 48.3064L54.5794 48.2619V48.2095L54.5826 48.1111V48.0921L54.5841 48.0095L54.5857 47.9143V47.9064L54.5873 47.8L54.5889 47.7318V47.6921L54.5905 47.5825L54.5921 47.5413V47.4714L54.5937 47.3587V47.346L54.5952 47.2429L54.5968 47.1445V47.1238L54.5984 47.0048V46.8841L54.6 46.7603L54.6016 46.7238V46.6349L54.6032 46.5079V46.3778L54.6048 46.281V46.1143L54.6064 46.0508V45.8159L54.6079 45.7064V45.5667L54.6095 45.4254V45.1381L54.6111 45.0794V44.3905L54.6127 44.3V42.7857L54.6111 42.6238V41.7333L54.6095 41.5825V41.2286L54.6079 41.1222V40.6905L54.6064 40.5079V40.181L54.6048 40.1413V39.8603L54.6032 39.7714V39.5381L54.6016 39.3984V39.2095C54.5889 36.273 54.5667 33.027 54.5492 29.8524C54.4333 32.7667 52.7254 43.7381 34.0381 50.2222C22.3302 52.7476 9.60636 52.3159 3.95557 51.9397C4.94922 53.8302 6.8762 55.5095 10.5968 55.5968C17.7714 55.7667 31.4445 55.4286 31.4445 55.4286ZM54.5048 49.4556C54.5143 49.3762 54.5238 49.2952 54.5318 49.2127L54.5048 49.4556Z" fill="#06B6D4"/>
<path fill-rule="evenodd" clip-rule="evenodd" d="M32.3651 57.5556L48.6984 57.2111C48.6984 57.2111 55.7477 57.2111 55.9191 50.5841C56.0905 43.9572 55.6619 18.8238 56.0048 14.8651C56.2762 11.7397 56.654 8.29683 53.7635 6.47302C55.1524 8.35715 54.8699 11.0365 54.6556 13.5111C54.3191 17.3984 54.7397 42.0762 54.5715 48.5841C54.4032 55.0905 47.481 55.0905 47.481 55.0905L31.4445 55.4286C31.4445 55.4286 17.7715 55.7667 10.5969 55.5968C5.95241 55.4873 4.10162 52.8984 3.37622 50.5127C3.65082 53.1921 4.99844 57.5826 11.1318 57.7286C18.4381 57.9 32.3651 57.5556 32.3651 57.5556Z" fill="#083344"/>
<path fill-rule="evenodd" clip-rule="evenodd" d="M11.8333 6.38889C11.8333 6.38889 5.86826 6.13969 5.80636 10.0952C5.74286 14.0508 5.46826 16.973 7.96032 16.6857C9.33651 16.5286 8.05874 10.5508 11.5175 10.5C14.9778 10.4508 15.0937 6.3254 11.8333 6.38889ZM17.7968 6.20635C17.7968 6.20635 15.7587 6.01746 15.6333 8.08889C15.5079 10.1619 17.5778 10.6317 18.7381 9.87778C19.8984 9.1254 19.8984 6.17461 17.7968 6.20635Z" fill="#ECFEFF"/>
<path fill-rule="evenodd" clip-rule="evenodd" d="M28.8762 41.0619C28.8762 41.0619 22.2365 46.3762 18.7142 44.8429C15.192 43.3095 18.9682 33.7524 18.9682 33.7524C18.9682 33.7524 12.792 30.5318 12.3333 26.546C11.873 22.5587 22.9508 22.7635 22.9508 22.7635C22.9508 22.7635 23.7666 14.4318 28.8762 14.0254C33.9841 14.4318 34.8 22.7635 34.8 22.7635C34.8 22.7635 45.8777 22.5587 45.4174 26.546C44.9587 30.5318 38.7825 33.7524 38.7825 33.7524C38.7825 33.7524 42.5603 43.3095 39.0365 44.8429C35.5142 46.3762 28.8762 41.0619 28.8762 41.0619Z" fill="#083344"/>
<path fill-rule="evenodd" clip-rule="evenodd" d="M28.8763 41.0619C28.8763 41.0619 22.2366 46.3762 18.7144 44.8429C17.8223 44.4556 17.3985 43.5524 17.2636 42.4206C17.5509 39.2889 18.97 35.7016 18.97 35.7016V33.7524C18.97 33.7524 13.67 30.9905 12.5239 27.4143C13.9938 24.5476 22.9509 24.7127 22.9509 24.7127C22.9509 24.7127 23.7684 16.381 28.8763 15.9746C33.9842 16.381 34.8001 24.7127 34.8001 24.7127C34.8001 24.7127 43.7573 24.5476 45.2271 27.4143C44.0811 30.9905 38.7827 33.7524 38.7827 33.7524V35.7016C38.7827 35.7016 40.2001 39.2889 40.489 42.4206C40.3525 43.5524 39.9287 44.4556 39.0382 44.8429C35.5144 46.3762 28.8763 41.0619 28.8763 41.0619Z" fill="#155E75"/>
</svg>
