<svg width="236" height="235" viewBox="0 0 236 235" fill="none" xmlns="http://www.w3.org/2000/svg">
<rect x="5" y="5" width="90" height="90" rx="15" fill="#F7FEE7"/>
<rect x="5" y="5" width="90" height="90" rx="15" stroke="#3F6212" stroke-width="10"/>
<path d="M44.1574 72.1294C44.1574 72.1294 44.1574 71.8261 44.1574 71.2196V69.1176V67.0157V66.1059H45.0672H47.1691H49.2711H50.1809C50.1809 66.1059 50.1809 66.4092 50.1809 67.0157V69.1176V71.2196V72.1294C50.1809 72.1294 49.8776 72.1294 49.2711 72.1294H47.1691H45.0672H44.1574ZM44.1574 68.3647C44.1574 68.3647 44.1574 68.0614 44.1574 67.4549V65.3529V63.251V62.3412H45.0672H47.1691H49.2711H50.1809C50.1809 62.3412 50.1809 62.6444 50.1809 63.251V65.3529V67.4549V68.3647C50.1809 68.3647 49.8776 68.3647 49.2711 68.3647H47.1691H45.0672H44.1574ZM44.1574 60.8353C44.1574 60.8353 44.1574 60.532 44.1574 59.9255V57.8235V55.7216V54.8118H45.0672H47.1691H49.2711H50.1809C50.1809 54.8118 50.1809 55.115 50.1809 55.7216V57.8235V59.9255V60.8353C50.1809 60.8353 49.8776 60.8353 49.2711 60.8353H47.1691H45.0672H44.1574ZM44.1574 57.0706C44.1574 57.0706 44.1574 56.7673 44.1574 56.1608V54.0588V51.9569V51.0471H45.0672H47.1691H49.2711H50.1809C50.1809 51.0471 50.1809 51.3503 50.1809 51.9569V54.0588V56.1608V57.0706C50.1809 57.0706 49.8776 57.0706 49.2711 57.0706H47.1691H45.0672H44.1574ZM47.9221 53.3059C47.9221 53.3059 47.9221 53.0026 47.9221 52.3961V50.2941V48.1922V47.2824H48.8319H50.9338H53.0358H53.9456C53.9456 47.2824 53.9456 47.5856 53.9456 48.1922V50.2941V52.3961V53.3059C53.9456 53.3059 53.6423 53.3059 53.0358 53.3059H50.9338H48.8319H47.9221ZM51.6868 53.3059C51.6868 53.3059 51.6868 53.0026 51.6868 52.3961V50.2941V48.1922V47.2824H52.5966H54.6985H56.8005H57.7103C57.7103 47.2824 57.7103 47.5856 57.7103 48.1922V50.2941V52.3961V53.3059C57.7103 53.3059 57.407 53.3059 56.8005 53.3059H54.6985H52.5966H51.6868ZM55.4515 49.5412C55.4515 49.5412 55.4515 49.2379 55.4515 48.6314V46.5294V44.4275V43.5176H56.3613H58.4632H60.5652H61.475C61.475 43.5176 61.475 43.8209 61.475 44.4275V46.5294V48.6314V49.5412C61.475 49.5412 61.1717 49.5412 60.5652 49.5412H58.4632H56.3613H55.4515ZM36.6279 45.7765C36.6279 45.7765 36.6279 45.4732 36.6279 44.8667V42.7647V40.6627V39.7529H37.5377H39.6397H41.7417H42.6515C42.6515 39.7529 42.6515 40.0562 42.6515 40.6627V42.7647V44.8667V45.7765C42.6515 45.7765 42.3482 45.7765 41.7417 45.7765H39.6397H37.5377H36.6279ZM55.4515 45.7765C55.4515 45.7765 55.4515 45.4732 55.4515 44.8667V42.7647V40.6627V39.7529H56.3613H58.4632H60.5652H61.475C61.475 39.7529 61.475 40.0562 61.475 40.6627V42.7647V44.8667V45.7765C61.475 45.7765 61.1717 45.7765 60.5652 45.7765H58.4632H56.3613H55.4515ZM36.6279 42.0118C36.6279 42.0118 36.6279 41.7085 36.6279 41.102V39V36.898V35.9882H37.5377H39.6397H41.7417H42.6515C42.6515 35.9882 42.6515 36.2915 42.6515 36.898V39V41.102V42.0118C42.6515 42.0118 42.3482 42.0118 41.7417 42.0118H39.6397H37.5377H36.6279ZM55.4515 42.0118C55.4515 42.0118 55.4515 41.7085 55.4515 41.102V39V36.898V35.9882H56.3613H58.4632H60.5652H61.475C61.475 35.9882 61.475 36.2915 61.475 36.898V39V41.102V42.0118C61.475 42.0118 61.1717 42.0118 60.5652 42.0118H58.4632H56.3613H55.4515ZM36.6279 38.2471C36.6279 38.2471 36.6279 37.9438 36.6279 37.3373V35.2353V33.1333V32.2235H37.5377H39.6397H41.7417H42.6515C42.6515 32.2235 42.6515 32.5268 42.6515 33.1333V35.2353V37.3373V38.2471C42.6515 38.2471 42.3482 38.2471 41.7417 38.2471H39.6397H37.5377H36.6279ZM55.4515 38.2471C55.4515 38.2471 55.4515 37.9438 55.4515 37.3373V35.2353V33.1333V32.2235H56.3613H58.4632H60.5652H61.475C61.475 32.2235 61.475 32.5268 61.475 33.1333V35.2353V37.3373V38.2471C61.475 38.2471 61.1717 38.2471 60.5652 38.2471H58.4632H56.3613H55.4515ZM40.3926 34.4823C40.3926 34.4823 40.3926 34.1791 40.3926 33.5725V31.4706V29.3686V28.4588H41.3025H43.4044H45.5064H46.4162C46.4162 28.4588 46.4162 28.7621 46.4162 29.3686V31.4706V33.5725V34.4823C46.4162 34.4823 46.1129 34.4823 45.5064 34.4823H43.4044H41.3025H40.3926ZM44.1574 34.4823C44.1574 34.4823 44.1574 34.1791 44.1574 33.5725V31.4706V29.3686V28.4588H45.0672H47.1691H49.2711H50.1809C50.1809 28.4588 50.1809 28.7621 50.1809 29.3686V31.4706V33.5725V34.4823C50.1809 34.4823 49.8776 34.4823 49.2711 34.4823H47.1691H45.0672H44.1574ZM47.9221 34.4823C47.9221 34.4823 47.9221 34.1791 47.9221 33.5725V31.4706V29.3686V28.4588H48.8319H50.9338H53.0358H53.9456C53.9456 28.4588 53.9456 28.7621 53.9456 29.3686V31.4706V33.5725V34.4823C53.9456 34.4823 53.6423 34.4823 53.0358 34.4823H50.9338H48.8319H47.9221ZM51.6868 34.4823C51.6868 34.4823 51.6868 34.1791 51.6868 33.5725V31.4706V29.3686V28.4588H52.5966H54.6985H56.8005H57.7103C57.7103 28.4588 57.7103 28.7621 57.7103 29.3686V31.4706V33.5725V34.4823C57.7103 34.4823 57.407 34.4823 56.8005 34.4823H54.6985H52.5966H51.6868Z" fill="#3F6212"/>
<rect x="141" y="5" width="90" height="90" rx="15" fill="#F7FEE7"/>
<rect x="141" y="5" width="90" height="90" rx="15" stroke="#3F6212" stroke-width="10"/>
<path d="M179.781 72.5059C179.781 72.5059 179.781 72.1634 179.781 71.4784V69.1176V66.7569V65.7294H180.8H183.169H185.53H186.557C186.557 65.7294 186.557 66.0719 186.557 66.7569V69.1176V71.4784V72.5059C186.557 72.5059 186.215 72.5059 185.53 72.5059H183.169H180.8H179.781ZM179.781 68.7412C179.781 68.7412 179.781 68.4013 179.781 67.7216V65.3529V62.9922V61.9647H180.8H183.169H185.53H186.557C186.557 61.9647 186.557 62.3072 186.557 62.9922V65.3529V67.7216V68.7412C186.557 68.7412 186.215 68.7412 185.53 68.7412H183.169H180.8H179.781ZM179.781 61.2118C179.781 61.2118 179.781 60.8719 179.781 60.1922V57.8235V55.4627V54.4353H180.8H183.169H185.53H186.557C186.557 54.4353 186.557 54.7778 186.557 55.4627V57.8235V60.1922V61.2118C186.557 61.2118 186.215 61.2118 185.53 61.2118H183.169H180.8H179.781ZM179.781 57.4471C179.781 57.4471 179.781 57.1072 179.781 56.4275V54.0588V51.698V50.6706H180.8H183.169H185.53H186.557C186.557 50.6706 186.557 51.0131 186.557 51.698V54.0588V56.4275V57.4471C186.557 57.4471 186.215 57.4471 185.53 57.4471H183.169H180.8H179.781ZM183.546 53.6824C183.546 53.6824 183.546 53.3425 183.546 52.6627V50.2941V47.9333V46.9059H184.565H186.934H189.295H190.322C190.322 46.9059 190.322 47.2484 190.322 47.9333V50.2941V52.6627V53.6824C190.322 53.6824 189.98 53.6824 189.295 53.6824H186.934H184.565H183.546ZM187.31 53.6824C187.31 53.6824 187.31 53.3425 187.31 52.6627V50.2941V47.9333V46.9059H188.33H190.699H193.059H194.087C194.087 46.9059 194.087 47.2484 194.087 47.9333V50.2941V52.6627V53.6824C194.087 53.6824 193.744 53.6824 193.059 53.6824H190.699H188.33H187.31ZM191.075 49.9176C191.075 49.9176 191.075 49.5778 191.075 48.898V46.5294V44.1686V43.1412H192.095H194.463H196.824H197.851C197.851 43.1412 197.851 43.4837 197.851 44.1686V46.5294V48.898V49.9176C197.851 49.9176 197.509 49.9176 196.824 49.9176H194.463H192.095H191.075ZM172.251 46.1529C172.251 46.1529 172.251 45.8131 172.251 45.1333V42.7647V40.4039V39.3765H173.271H175.64H178H179.028C179.028 39.3765 179.028 39.719 179.028 40.4039V42.7647V45.1333V46.1529C179.028 46.1529 178.685 46.1529 178 46.1529H175.64H173.271H172.251ZM191.075 46.1529C191.075 46.1529 191.075 45.8131 191.075 45.1333V42.7647V40.4039V39.3765H192.095H194.463H196.824H197.851C197.851 39.3765 197.851 39.719 197.851 40.4039V42.7647V45.1333V46.1529C197.851 46.1529 197.509 46.1529 196.824 46.1529H194.463H192.095H191.075ZM172.251 42.3882C172.251 42.3882 172.251 42.0484 172.251 41.3686V39V36.6392V35.6118H173.271H175.64H178H179.028C179.028 35.6118 179.028 35.9542 179.028 36.6392V39V41.3686V42.3882C179.028 42.3882 178.685 42.3882 178 42.3882H175.64H173.271H172.251ZM191.075 42.3882C191.075 42.3882 191.075 42.0484 191.075 41.3686V39V36.6392V35.6118H192.095H194.463H196.824H197.851C197.851 35.6118 197.851 35.9542 197.851 36.6392V39V41.3686V42.3882C197.851 42.3882 197.509 42.3882 196.824 42.3882H194.463H192.095H191.075ZM172.251 38.6235C172.251 38.6235 172.251 38.2837 172.251 37.6039V35.2353V32.8745V31.8471H173.271H175.64H178H179.028C179.028 31.8471 179.028 32.1895 179.028 32.8745V35.2353V37.6039V38.6235C179.028 38.6235 178.685 38.6235 178 38.6235H175.64H173.271H172.251ZM191.075 38.6235C191.075 38.6235 191.075 38.2837 191.075 37.6039V35.2353V32.8745V31.8471H192.095H194.463H196.824H197.851C197.851 31.8471 197.851 32.1895 197.851 32.8745V35.2353V37.6039V38.6235C197.851 38.6235 197.509 38.6235 196.824 38.6235H194.463H192.095H191.075ZM176.016 34.8588C176.016 34.8588 176.016 34.519 176.016 33.8392V31.4706V29.1098V28.0824H177.036H179.404H181.765H182.793C182.793 28.0824 182.793 28.4248 182.793 29.1098V31.4706V33.8392V34.8588C182.793 34.8588 182.45 34.8588 181.765 34.8588H179.404H177.036H176.016ZM179.781 34.8588C179.781 34.8588 179.781 34.519 179.781 33.8392V31.4706V29.1098V28.0824H180.8H183.169H185.53H186.557C186.557 28.0824 186.557 28.4248 186.557 29.1098V31.4706V33.8392V34.8588C186.557 34.8588 186.215 34.8588 185.53 34.8588H183.169H180.8H179.781ZM183.546 34.8588C183.546 34.8588 183.546 34.519 183.546 33.8392V31.4706V29.1098V28.0824H184.565H186.934H189.295H190.322C190.322 28.0824 190.322 28.4248 190.322 29.1098V31.4706V33.8392V34.8588C190.322 34.8588 189.98 34.8588 189.295 34.8588H186.934H184.565H183.546ZM187.31 34.8588C187.31 34.8588 187.31 34.519 187.31 33.8392V31.4706V29.1098V28.0824H188.33H190.699H193.059H194.087C194.087 28.0824 194.087 28.4248 194.087 29.1098V31.4706V33.8392V34.8588C194.087 34.8588 193.744 34.8588 193.059 34.8588H190.699H188.33H187.31Z" fill="#3F6212"/>
<rect x="5" y="140" width="90" height="90" rx="15" fill="#FEFCE8"/>
<rect x="5" y="140" width="90" height="90" rx="15" stroke="#854D0E" stroke-width="10"/>
<path d="M39.0713 207.506C39.0713 207.506 39.0713 207.163 39.0713 206.478V204.118V201.757V200.729H40.0909H42.4596H44.8203H45.8478C45.8478 200.729 45.8478 201.072 45.8478 201.757V204.118V206.478V207.506C45.8478 207.506 45.5053 207.506 44.8203 207.506H42.4596H40.0909H39.0713ZM42.836 207.506C42.836 207.506 42.836 207.163 42.836 206.478V204.118V201.757V200.729H43.8556H46.2243H48.585H49.6125C49.6125 200.729 49.6125 201.072 49.6125 201.757V204.118V206.478V207.506C49.6125 207.506 49.27 207.506 48.585 207.506H46.2243H43.8556H42.836ZM46.6007 207.506C46.6007 207.506 46.6007 207.163 46.6007 206.478V204.118V201.757V200.729H47.6203H49.989H52.3498H53.3772C53.3772 200.729 53.3772 201.072 53.3772 201.757V204.118V206.478V207.506C53.3772 207.506 53.0347 207.506 52.3498 207.506H49.989H47.6203H46.6007ZM50.3654 207.506C50.3654 207.506 50.3654 207.163 50.3654 206.478V204.118V201.757V200.729H51.385H53.7537H56.1145H57.1419C57.1419 200.729 57.1419 201.072 57.1419 201.757V204.118V206.478V207.506C57.1419 207.506 56.7994 207.506 56.1145 207.506H53.7537H51.385H50.3654ZM54.1301 207.506C54.1301 207.506 54.1301 207.163 54.1301 206.478V204.118V201.757V200.729H55.1498H57.5184H59.8792H60.9066C60.9066 200.729 60.9066 201.072 60.9066 201.757V204.118V206.478V207.506C60.9066 207.506 60.5641 207.506 59.8792 207.506H57.5184H55.1498H54.1301ZM42.836 203.741C42.836 203.741 42.836 203.401 42.836 202.722V200.353V197.992V196.965H43.8556H46.2243H48.585H49.6125C49.6125 196.965 49.6125 197.307 49.6125 197.992V200.353V202.722V203.741C49.6125 203.741 49.27 203.741 48.585 203.741H46.2243H43.8556H42.836ZM44.7184 199.976C44.7184 199.976 44.7184 199.637 44.7184 198.957V196.588V194.227V193.2H45.738H48.1066H50.4674H51.4949C51.4949 193.2 51.4949 193.542 51.4949 194.227V196.588V198.957V199.976C51.4949 199.976 51.1524 199.976 50.4674 199.976H48.1066H45.738H44.7184ZM46.6007 196.212C46.6007 196.212 46.6007 195.872 46.6007 195.192V192.824V190.463V189.435H47.6203H49.989H52.3498H53.3772C53.3772 189.435 53.3772 189.778 53.3772 190.463V192.824V195.192V196.212C53.3772 196.212 53.0347 196.212 52.3498 196.212H49.989H47.6203H46.6007ZM48.4831 192.447C48.4831 192.447 48.4831 192.107 48.4831 191.427V189.059V186.698V185.671H49.5027H51.8713H54.2321H55.2596C55.2596 185.671 55.2596 186.013 55.2596 186.698V189.059V191.427V192.447C55.2596 192.447 54.9171 192.447 54.2321 192.447H51.8713H49.5027H48.4831ZM50.3654 188.682C50.3654 188.682 50.3654 188.342 50.3654 187.663V185.294V182.933V181.906H51.385H53.7537H56.1145H57.1419C57.1419 181.906 57.1419 182.248 57.1419 182.933V185.294V187.663V188.682C57.1419 188.682 56.7994 188.682 56.1145 188.682H53.7537H51.385H50.3654ZM52.2478 184.918C52.2478 184.918 52.2478 184.578 52.2478 183.898V181.529V179.169V178.141H53.2674H55.636H57.9968H59.0243C59.0243 178.141 59.0243 178.484 59.0243 179.169V181.529V183.898V184.918C59.0243 184.918 58.6818 184.918 57.9968 184.918H55.636H53.2674H52.2478ZM39.0713 181.153C39.0713 181.153 39.0713 180.813 39.0713 180.133V177.765V175.404V174.376H40.0909H42.4596H44.8203H45.8478C45.8478 174.376 45.8478 174.719 45.8478 175.404V177.765V180.133V181.153C45.8478 181.153 45.5053 181.153 44.8203 181.153H42.4596H40.0909H39.0713ZM54.1301 181.153C54.1301 181.153 54.1301 180.813 54.1301 180.133V177.765V175.404V174.376H55.1498H57.5184H59.8792H60.9066C60.9066 174.376 60.9066 174.719 60.9066 175.404V177.765V180.133V181.153C60.9066 181.153 60.5641 181.153 59.8792 181.153H57.5184H55.1498H54.1301ZM39.0713 177.388C39.0713 177.388 39.0713 177.048 39.0713 176.369V174V171.639V170.612H40.0909H42.4596H44.8203H45.8478C45.8478 170.612 45.8478 170.954 45.8478 171.639V174V176.369V177.388C45.8478 177.388 45.5053 177.388 44.8203 177.388H42.4596H40.0909H39.0713ZM54.1301 177.388C54.1301 177.388 54.1301 177.048 54.1301 176.369V174V171.639V170.612H55.1498H57.5184H59.8792H60.9066C60.9066 170.612 60.9066 170.954 60.9066 171.639V174V176.369V177.388C60.9066 177.388 60.5641 177.388 59.8792 177.388H57.5184H55.1498H54.1301ZM39.0713 173.624C39.0713 173.624 39.0713 173.284 39.0713 172.604V170.235V167.875V166.847H40.0909H42.4596H44.8203H45.8478C45.8478 166.847 45.8478 167.19 45.8478 167.875V170.235V172.604V173.624C45.8478 173.624 45.5053 173.624 44.8203 173.624H42.4596H40.0909H39.0713ZM54.1301 173.624C54.1301 173.624 54.1301 173.284 54.1301 172.604V170.235V167.875V166.847H55.1498H57.5184H59.8792H60.9066C60.9066 166.847 60.9066 167.19 60.9066 167.875V170.235V172.604V173.624C60.9066 173.624 60.5641 173.624 59.8792 173.624H57.5184H55.1498H54.1301ZM42.836 169.859C42.836 169.859 42.836 169.519 42.836 168.839V166.471V164.11V163.082H43.8556H46.2243H48.585H49.6125C49.6125 163.082 49.6125 163.425 49.6125 164.11V166.471V168.839V169.859C49.6125 169.859 49.27 169.859 48.585 169.859H46.2243H43.8556H42.836ZM46.6007 169.859C46.6007 169.859 46.6007 169.519 46.6007 168.839V166.471V164.11V163.082H47.6203H49.989H52.3498H53.3772C53.3772 163.082 53.3772 163.425 53.3772 164.11V166.471V168.839V169.859C53.3772 169.859 53.0347 169.859 52.3498 169.859H49.989H47.6203H46.6007ZM50.3654 169.859C50.3654 169.859 50.3654 169.519 50.3654 168.839V166.471V164.11V163.082H51.385H53.7537H56.1145H57.1419C57.1419 163.082 57.1419 163.425 57.1419 164.11V166.471V168.839V169.859C57.1419 169.859 56.7994 169.859 56.1145 169.859H53.7537H51.385H50.3654Z" fill="#854D0E"/>
<rect x="141" y="140" width="90" height="90" rx="15" fill="#FEFCE8"/>
<rect x="141" y="140" width="90" height="90" rx="15" stroke="#854D0E" stroke-width="10"/>
<path d="M178.836 207.506C178.836 207.506 178.836 207.163 178.836 206.478V204.118V201.757V200.729H179.856H182.224H184.585H185.613C185.613 200.729 185.613 201.072 185.613 201.757V204.118V206.478V207.506C185.613 207.506 185.27 207.506 184.585 207.506H182.224H179.856H178.836ZM182.601 207.506C182.601 207.506 182.601 207.163 182.601 206.478V204.118V201.757V200.729H183.62H185.989H188.35H189.377C189.377 200.729 189.377 201.072 189.377 201.757V204.118V206.478V207.506C189.377 207.506 189.035 207.506 188.35 207.506H185.989H183.62H182.601ZM186.365 207.506C186.365 207.506 186.365 207.163 186.365 206.478V204.118V201.757V200.729H187.385H189.754H192.114H193.142C193.142 200.729 193.142 201.072 193.142 201.757V204.118V206.478V207.506C193.142 207.506 192.799 207.506 192.114 207.506H189.754H187.385H186.365ZM175.071 203.741C175.071 203.741 175.071 203.401 175.071 202.722V200.353V197.992V196.965H176.091H178.46H180.82H181.848C181.848 196.965 181.848 197.307 181.848 197.992V200.353V202.722V203.741C181.848 203.741 181.505 203.741 180.82 203.741H178.46H176.091H175.071ZM190.13 203.741C190.13 203.741 190.13 203.401 190.13 202.722V200.353V197.992V196.965H191.15H193.518H195.879H196.907C196.907 196.965 196.907 197.307 196.907 197.992V200.353V202.722V203.741C196.907 203.741 196.564 203.741 195.879 203.741H193.518H191.15H190.13ZM175.071 199.976C175.071 199.976 175.071 199.637 175.071 198.957V196.588V194.227V193.2H176.091H178.46H180.82H181.848C181.848 193.2 181.848 193.542 181.848 194.227V196.588V198.957V199.976C181.848 199.976 181.505 199.976 180.82 199.976H178.46H176.091H175.071ZM190.13 199.976C190.13 199.976 190.13 199.637 190.13 198.957V196.588V194.227V193.2H191.15H193.518H195.879H196.907C196.907 193.2 196.907 193.542 196.907 194.227V196.588V198.957V199.976C196.907 199.976 196.564 199.976 195.879 199.976H193.518H191.15H190.13ZM190.13 196.212C190.13 196.212 190.13 195.872 190.13 195.192V192.824V190.463V189.435H191.15H193.518H195.879H196.907C196.907 189.435 196.907 189.778 196.907 190.463V192.824V195.192V196.212C196.907 196.212 196.564 196.212 195.879 196.212H193.518H191.15H190.13ZM190.13 192.447C190.13 192.447 190.13 192.107 190.13 191.427V189.059V186.698V185.671H191.15H193.518H195.879H196.907C196.907 185.671 196.907 186.013 196.907 186.698V189.059V191.427V192.447C196.907 192.447 196.564 192.447 195.879 192.447H193.518H191.15H190.13ZM178.836 188.682C178.836 188.682 178.836 188.342 178.836 187.663V185.294V182.933V181.906H179.856H182.224H184.585H185.613C185.613 181.906 185.613 182.248 185.613 182.933V185.294V187.663V188.682C185.613 188.682 185.27 188.682 184.585 188.682H182.224H179.856H178.836ZM182.601 188.682C182.601 188.682 182.601 188.342 182.601 187.663V185.294V182.933V181.906H183.62H185.989H188.35H189.377C189.377 181.906 189.377 182.248 189.377 182.933V185.294V187.663V188.682C189.377 188.682 189.035 188.682 188.35 188.682H185.989H183.62H182.601ZM186.365 188.682C186.365 188.682 186.365 188.342 186.365 187.663V185.294V182.933V181.906H187.385H189.754H192.114H193.142C193.142 181.906 193.142 182.248 193.142 182.933V185.294V187.663V188.682C193.142 188.682 192.799 188.682 192.114 188.682H189.754H187.385H186.365ZM190.13 188.682C190.13 188.682 190.13 188.342 190.13 187.663V185.294V182.933V181.906H191.15H193.518H195.879H196.907C196.907 181.906 196.907 182.248 196.907 182.933V185.294V187.663V188.682C196.907 188.682 196.564 188.682 195.879 188.682H193.518H191.15H190.13ZM175.071 184.918C175.071 184.918 175.071 184.578 175.071 183.898V181.529V179.169V178.141H176.091H178.46H180.82H181.848C181.848 178.141 181.848 178.484 181.848 179.169V181.529V183.898V184.918C181.848 184.918 181.505 184.918 180.82 184.918H178.46H176.091H175.071ZM190.13 184.918C190.13 184.918 190.13 184.578 190.13 183.898V181.529V179.169V178.141H191.15H193.518H195.879H196.907C196.907 178.141 196.907 178.484 196.907 179.169V181.529V183.898V184.918C196.907 184.918 196.564 184.918 195.879 184.918H193.518H191.15H190.13ZM175.071 181.153C175.071 181.153 175.071 180.813 175.071 180.133V177.765V175.404V174.376H176.091H178.46H180.82H181.848C181.848 174.376 181.848 174.719 181.848 175.404V177.765V180.133V181.153C181.848 181.153 181.505 181.153 180.82 181.153H178.46H176.091H175.071ZM190.13 181.153C190.13 181.153 190.13 180.813 190.13 180.133V177.765V175.404V174.376H191.15H193.518H195.879H196.907C196.907 174.376 196.907 174.719 196.907 175.404V177.765V180.133V181.153C196.907 181.153 196.564 181.153 195.879 181.153H193.518H191.15H190.13ZM175.071 177.388C175.071 177.388 175.071 177.048 175.071 176.369V174V171.639V170.612H176.091H178.46H180.82H181.848C181.848 170.612 181.848 170.954 181.848 171.639V174V176.369V177.388C181.848 177.388 181.505 177.388 180.82 177.388H178.46H176.091H175.071ZM190.13 177.388C190.13 177.388 190.13 177.048 190.13 176.369V174V171.639V170.612H191.15H193.518H195.879H196.907C196.907 170.612 196.907 170.954 196.907 171.639V174V176.369V177.388C196.907 177.388 196.564 177.388 195.879 177.388H193.518H191.15H190.13ZM175.071 173.624C175.071 173.624 175.071 173.284 175.071 172.604V170.235V167.875V166.847H176.091H178.46H180.82H181.848C181.848 166.847 181.848 167.19 181.848 167.875V170.235V172.604V173.624C181.848 173.624 181.505 173.624 180.82 173.624H178.46H176.091H175.071ZM190.13 173.624C190.13 173.624 190.13 173.284 190.13 172.604V170.235V167.875V166.847H191.15H193.518H195.879H196.907C196.907 166.847 196.907 167.19 196.907 167.875V170.235V172.604V173.624C196.907 173.624 196.564 173.624 195.879 173.624H193.518H191.15H190.13ZM178.836 169.859C178.836 169.859 178.836 169.519 178.836 168.839V166.471V164.11V163.082H179.856H182.224H184.585H185.613C185.613 163.082 185.613 163.425 185.613 164.11V166.471V168.839V169.859C185.613 169.859 185.27 169.859 184.585 169.859H182.224H179.856H178.836ZM182.601 169.859C182.601 169.859 182.601 169.519 182.601 168.839V166.471V164.11V163.082H183.62H185.989H188.35H189.377C189.377 163.082 189.377 163.425 189.377 164.11V166.471V168.839V169.859C189.377 169.859 189.035 169.859 188.35 169.859H185.989H183.62H182.601ZM186.365 169.859C186.365 169.859 186.365 169.519 186.365 168.839V166.471V164.11V163.082H187.385H189.754H192.114H193.142C193.142 163.082 193.142 163.425 193.142 164.11V166.471V168.839V169.859C193.142 169.859 192.799 169.859 192.114 169.859H189.754H187.385H186.365Z" fill="#854D0E"/>
<path d="M114.477 60.6C114.477 60.6 114.477 60.2967 114.477 59.6902V57.5882V55.4863V54.5765H115.387H117.489H119.591H120.501C120.501 54.5765 120.501 54.8797 120.501 55.4863V57.5882V59.6902V60.6C120.501 60.6 120.197 60.6 119.591 60.6H117.489H115.387H114.477ZM114.477 56.8353C114.477 56.8353 114.477 56.532 114.477 55.9255V53.8235V51.7216V50.8118H115.387H117.489H119.591H120.501C120.501 50.8118 120.501 51.115 120.501 51.7216V53.8235V55.9255V56.8353C120.501 56.8353 120.197 56.8353 119.591 56.8353H117.489H115.387H114.477ZM106.948 53.0706C106.948 53.0706 106.948 52.7673 106.948 52.1608V50.0588V47.9569V47.0471H107.858H109.96H112.062H112.971C112.971 47.0471 112.971 47.3503 112.971 47.9569V50.0588V52.1608V53.0706C112.971 53.0706 112.668 53.0706 112.062 53.0706H109.96H107.858H106.948ZM110.713 53.0706C110.713 53.0706 110.713 52.7673 110.713 52.1608V50.0588V47.9569V47.0471H111.622H113.724H115.826H116.736C116.736 47.0471 116.736 47.3503 116.736 47.9569V50.0588V52.1608V53.0706C116.736 53.0706 116.433 53.0706 115.826 53.0706H113.724H111.622H110.713ZM114.477 53.0706C114.477 53.0706 114.477 52.7673 114.477 52.1608V50.0588V47.9569V47.0471H115.387H117.489H119.591H120.501C120.501 47.0471 120.501 47.3503 120.501 47.9569V50.0588V52.1608V53.0706C120.501 53.0706 120.197 53.0706 119.591 53.0706H117.489H115.387H114.477ZM118.242 53.0706C118.242 53.0706 118.242 52.7673 118.242 52.1608V50.0588V47.9569V47.0471H119.152H121.254H123.356H124.265C124.265 47.0471 124.265 47.3503 124.265 47.9569V50.0588V52.1608V53.0706C124.265 53.0706 123.962 53.0706 123.356 53.0706H121.254H119.152H118.242ZM122.007 53.0706C122.007 53.0706 122.007 52.7673 122.007 52.1608V50.0588V47.9569V47.0471H122.916H125.018H127.12H128.03C128.03 47.0471 128.03 47.3503 128.03 47.9569V50.0588V52.1608V53.0706C128.03 53.0706 127.727 53.0706 127.12 53.0706H125.018H122.916H122.007ZM114.477 49.3059C114.477 49.3059 114.477 49.0026 114.477 48.3961V46.2941V44.1922V43.2824H115.387H117.489H119.591H120.501C120.501 43.2824 120.501 43.5856 120.501 44.1922V46.2941V48.3961V49.3059C120.501 49.3059 120.197 49.3059 119.591 49.3059H117.489H115.387H114.477ZM114.477 45.5412C114.477 45.5412 114.477 45.2379 114.477 44.6314V42.5294V40.4275V39.5176H115.387H117.489H119.591H120.501C120.501 39.5176 120.501 39.8209 120.501 40.4275V42.5294V44.6314V45.5412C120.501 45.5412 120.197 45.5412 119.591 45.5412H117.489H115.387H114.477Z" fill="#854D0E"/>
<path d="M175.701 123.082C175.701 123.082 175.701 122.855 175.701 122.4V120.824V119.247V118.565H176.383H177.96H179.536H180.218C180.218 118.565 180.218 118.792 180.218 119.247V120.824V122.4V123.082C180.218 123.082 179.991 123.082 179.536 123.082H177.96H176.383H175.701ZM179.465 123.082C179.465 123.082 179.465 122.855 179.465 122.4V120.824V119.247V118.565H180.148H181.724H183.301H183.983C183.983 118.565 183.983 118.792 183.983 119.247V120.824V122.4V123.082C183.983 123.082 183.756 123.082 183.301 123.082H181.724H180.148H179.465ZM183.23 123.082C183.23 123.082 183.23 122.855 183.23 122.4V120.824V119.247V118.565H183.913H185.489H187.065H187.748C187.748 118.565 187.748 118.792 187.748 119.247V120.824V122.4V123.082C187.748 123.082 187.52 123.082 187.065 123.082H185.489H183.913H183.23ZM186.995 123.082C186.995 123.082 186.995 122.855 186.995 122.4V120.824V119.247V118.565H187.677H189.254H190.83H191.513C191.513 118.565 191.513 118.792 191.513 119.247V120.824V122.4V123.082C191.513 123.082 191.285 123.082 190.83 123.082H189.254H187.677H186.995ZM190.76 123.082C190.76 123.082 190.76 122.855 190.76 122.4V120.824V119.247V118.565H191.442H193.018H194.595H195.277C195.277 118.565 195.277 118.792 195.277 119.247V120.824V122.4V123.082C195.277 123.082 195.05 123.082 194.595 123.082H193.018H191.442H190.76ZM175.701 115.553C175.701 115.553 175.701 115.325 175.701 114.871V113.294V111.718V111.035H176.383H177.96H179.536H180.218C180.218 111.035 180.218 111.263 180.218 111.718V113.294V114.871V115.553C180.218 115.553 179.991 115.553 179.536 115.553H177.96H176.383H175.701ZM179.465 115.553C179.465 115.553 179.465 115.325 179.465 114.871V113.294V111.718V111.035H180.148H181.724H183.301H183.983C183.983 111.035 183.983 111.263 183.983 111.718V113.294V114.871V115.553C183.983 115.553 183.756 115.553 183.301 115.553H181.724H180.148H179.465ZM183.23 115.553C183.23 115.553 183.23 115.325 183.23 114.871V113.294V111.718V111.035H183.913H185.489H187.065H187.748C187.748 111.035 187.748 111.263 187.748 111.718V113.294V114.871V115.553C187.748 115.553 187.52 115.553 187.065 115.553H185.489H183.913H183.23ZM186.995 115.553C186.995 115.553 186.995 115.325 186.995 114.871V113.294V111.718V111.035H187.677H189.254H190.83H191.513C191.513 111.035 191.513 111.263 191.513 111.718V113.294V114.871V115.553C191.513 115.553 191.285 115.553 190.83 115.553H189.254H187.677H186.995ZM190.76 115.553C190.76 115.553 190.76 115.325 190.76 114.871V113.294V111.718V111.035H191.442H193.018H194.595H195.277C195.277 111.035 195.277 111.263 195.277 111.718V113.294V114.871V115.553C195.277 115.553 195.05 115.553 194.595 115.553H193.018H191.442H190.76Z" fill="#854D0E"/>
</svg>
