<svg width="45" height="38" viewBox="0 0 45 38" fill="none" xmlns="http://www.w3.org/2000/svg">
<mask id="mask0_135_893" style="mask-type:luminance" maskUnits="userSpaceOnUse" x="0" y="0" width="45" height="38">
<path d="M0 0.212494H45V37.7875H0V0.212494Z" fill="white"/>
</mask>
<g mask="url(#mask0_135_893)">
<path d="M3.60938 0.259369H41.3906C41.6273 0.259369 41.8629 0.282806 42.0949 0.32851C42.327 0.375385 42.5531 0.444525 42.7723 0.53476C42.9914 0.626166 43.1988 0.737494 43.3957 0.869916C43.5926 1.00117 43.7754 1.15117 43.943 1.31992C44.1105 1.48749 44.2605 1.67031 44.3918 1.86835C44.523 2.0664 44.6344 2.27499 44.7258 2.49413C44.816 2.71328 44.884 2.94062 44.9309 3.17382C44.9766 3.40703 45 3.6414 45 3.87929V34.0914C45 34.3293 44.9766 34.5648 44.9309 34.798C44.884 35.0312 44.816 35.2574 44.7258 35.4777C44.6344 35.6969 44.523 35.9055 44.3918 36.1035C44.2605 36.3004 44.1105 36.4832 43.943 36.652C43.7754 36.8195 43.5926 36.9695 43.3957 37.102C43.1988 37.2344 42.9902 37.3457 42.7723 37.4371C42.5531 37.5273 42.327 37.5965 42.0949 37.6422C41.8629 37.6891 41.6273 37.7125 41.3906 37.7125H3.60938C3.37266 37.7125 3.13711 37.6891 2.90508 37.6422C2.67305 37.5965 2.44688 37.5273 2.22773 37.4371C2.00859 37.3457 1.80117 37.2344 1.6043 37.102C1.40742 36.9695 1.22461 36.8195 1.05703 36.652C0.889453 36.4832 0.739453 36.3004 0.608203 36.1035C0.476953 35.9055 0.365625 35.6969 0.274219 35.4777C0.183984 35.2574 0.116016 35.0312 0.0691406 34.798C0.0234374 34.5648 0 34.3293 0 34.0914V3.87929C0 3.6414 0.0234374 3.40703 0.0691406 3.17382C0.116016 2.94062 0.183984 2.71328 0.274219 2.49413C0.365625 2.27499 0.476953 2.0664 0.608203 1.86835C0.739453 1.67031 0.889453 1.48749 1.05703 1.31992C1.22461 1.15117 1.40742 1.00117 1.6043 0.869916C1.80117 0.737494 2.00859 0.626166 2.22773 0.53476C2.44688 0.444525 2.67305 0.375385 2.90508 0.32851C3.13711 0.282806 3.37266 0.259369 3.60938 0.259369Z" fill="#DFE8F4"/>
</g>
<mask id="mask1_135_893" style="mask-type:luminance" maskUnits="userSpaceOnUse" x="0" y="0" width="45" height="31">
<path d="M0 0.212494H45V30.468H0V0.212494Z" fill="white"/>
</mask>
<g mask="url(#mask1_135_893)">
<path d="M41.3906 0.259369H3.60938C3.37266 0.259369 3.13945 0.282806 2.90742 0.32851C2.67539 0.374213 2.45039 0.443353 2.23242 0.533588C2.01445 0.623822 1.80703 0.733978 1.61016 0.865228C1.41328 0.996478 1.23164 1.14648 1.06406 1.31288C0.896484 1.48046 0.746484 1.6621 0.615234 1.85898C0.482813 2.05468 0.371484 2.2621 0.280078 2.48124C0.188672 2.69921 0.119531 2.92538 0.0726563 3.15742C0.0257813 3.38945 0.0011718 3.62382 0 3.86054V30.2652H45V3.86054C44.9988 3.62382 44.9742 3.38945 44.9273 3.15742C44.8805 2.92538 44.8113 2.69921 44.7199 2.48124C44.6285 2.2621 44.5172 2.05468 44.3848 1.85898C44.2535 1.6621 44.1035 1.48046 43.9359 1.31288C43.7684 1.14648 43.5867 0.996478 43.3898 0.865228C43.193 0.733978 42.9855 0.623822 42.7676 0.533588C42.5496 0.443353 42.3246 0.374213 42.0926 0.32851C41.8605 0.282806 41.6273 0.259369 41.3906 0.259369Z" fill="#DFE8F4"/>
</g>
<mask id="mask2_135_893" style="mask-type:luminance" maskUnits="userSpaceOnUse" x="0" y="30" width="45" height="8">
<path d="M0 30.168H45V37.7875H0V30.168Z" fill="white"/>
</mask>
<g mask="url(#mask2_135_893)">
<path d="M0 30.2653V34.0914C0.0011718 34.3293 0.0246093 34.5649 0.0703125 34.7981C0.117188 35.0301 0.186328 35.2563 0.277734 35.4754C0.367969 35.6957 0.479297 35.9032 0.611719 36.1012C0.742969 36.2981 0.892969 36.4809 1.05938 36.6496C1.22695 36.8172 1.40977 36.9672 1.60664 37.0996C1.80352 37.2309 2.01094 37.3434 2.23008 37.4336C2.44805 37.525 2.67422 37.5942 2.90625 37.641C3.13828 37.6879 3.37266 37.7114 3.60938 37.7125H41.3906C41.6273 37.7114 41.8617 37.6879 42.0938 37.641C42.3258 37.5942 42.552 37.525 42.7699 37.4336C42.9891 37.3434 43.1965 37.2309 43.3934 37.0996C43.5902 36.9672 43.773 36.8172 43.9406 36.6496C44.107 36.4809 44.257 36.2981 44.3883 36.1012C44.5207 35.9032 44.632 35.6957 44.7223 35.4754C44.8137 35.2563 44.8828 35.0301 44.9297 34.7981C44.9754 34.5649 44.9988 34.3293 45 34.0914V30.2653H0Z" fill="#CCD8E5"/>
</g>
<path d="M9.42202 33.1047H35.5783C35.6392 33.1047 35.6978 33.1164 35.7541 33.1398C35.8103 33.1633 35.8595 33.1961 35.9029 33.2394C35.9462 33.2828 35.9791 33.332 36.0025 33.3894C36.0259 33.4457 36.0376 33.5043 36.0376 33.5652V34.4207C36.0376 34.4816 36.0259 34.5414 36.0025 34.5976C35.9791 34.6539 35.9462 34.7031 35.9029 34.7465C35.8595 34.7898 35.8103 34.8238 35.7541 34.8473C35.6978 34.8695 35.6392 34.8812 35.5783 34.8812H9.42202C9.36108 34.8812 9.30249 34.8695 9.24624 34.8473C9.18999 34.8238 9.14077 34.7898 9.09741 34.7465C9.05405 34.7031 9.02124 34.6539 8.9978 34.5976C8.97436 34.5414 8.96265 34.4816 8.96265 34.4207V33.5652C8.96265 33.5043 8.97436 33.4457 8.9978 33.3894C9.02124 33.332 9.05405 33.2828 9.09741 33.2394C9.14077 33.1961 9.18999 33.1633 9.24624 33.1398C9.30249 33.1164 9.36108 33.1047 9.42202 33.1047Z" fill="white"/>
<path d="M30.4408 33.1047H9.42202C9.36108 33.1047 9.30249 33.1164 9.24624 33.1398C9.18999 33.1633 9.14077 33.1961 9.09741 33.2394C9.05405 33.2828 9.02124 33.332 8.9978 33.3894C8.97436 33.4457 8.96265 33.5043 8.96265 33.5652V34.4113C8.96265 34.4723 8.97436 34.532 8.9978 34.5883C9.02124 34.6445 9.05405 34.6937 9.09741 34.7371C9.14077 34.7805 9.18999 34.8144 9.24624 34.8379C9.30249 34.8601 9.36108 34.8719 9.42202 34.8719H30.4408V33.1047Z" fill="#FACC15"/>
<path d="M28.781 33.1047H30.4404V34.8812H28.781V33.1047Z" fill="#EAB308"/>
<path d="M16.875 10.3867V22.0281C16.8679 22.2262 16.9136 22.4125 17.0097 22.5859C17.107 22.7594 17.2406 22.8953 17.4129 22.9938C17.5851 23.0922 17.7703 23.1391 17.9683 23.1344C18.1652 23.1297 18.348 23.0746 18.5156 22.968L27.5906 17.1473C27.6656 17.0992 27.7347 17.0418 27.7957 16.9762C27.8566 16.9106 27.9093 16.8379 27.9515 16.7594C27.9949 16.6809 28.0277 16.5977 28.05 16.5098C28.0722 16.4231 28.0828 16.3352 28.0828 16.2449C28.0828 16.1547 28.0722 16.0668 28.05 15.9789C28.0277 15.8922 27.9949 15.809 27.9515 15.7305C27.9093 15.652 27.8566 15.5793 27.7957 15.5137C27.7347 15.4481 27.6656 15.3906 27.5906 15.3426L18.5343 9.50313C18.3715 9.39415 18.191 9.33438 17.9953 9.32501C17.7996 9.31563 17.6156 9.35665 17.4422 9.44923C17.2687 9.5418 17.1316 9.67188 17.0297 9.83946C16.9289 10.0082 16.8761 10.1899 16.875 10.3867Z" fill="#FACC15"/>
</svg>
