<svg width="200" height="196" viewBox="0 0 200 196" fill="none" xmlns="http://www.w3.org/2000/svg">
<path d="M77.8957 18.0313C80.8905 17.224 83.9217 16.5833 86.9894 16.1146C90.0519 15.6406 93.1353 15.3437 96.2342 15.2135C99.3332 15.0885 102.432 15.1354 105.526 15.3542C108.62 15.5677 111.693 15.9583 114.745 16.5208C117.792 17.0833 120.802 17.8073 123.776 18.7031C126.745 19.6042 129.651 20.6615 132.505 21.8802C135.354 23.099 138.13 24.4792 140.828 26.0052C143.526 27.5365 146.125 29.2135 148.635 31.0313L154.052 23.5938C152.088 22.1667 150.078 20.8229 148.01 19.5573C145.943 18.2917 143.833 17.1094 141.672 16.0104C139.515 14.9115 137.312 13.901 135.078 12.974C132.838 12.0469 130.562 11.2083 128.26 10.4583C125.953 9.71354 123.625 9.05729 121.265 8.48958C118.911 7.92708 116.536 7.45312 114.14 7.07292C111.75 6.69792 109.344 6.41146 106.927 6.22396C104.51 6.03125 102.088 5.9375 99.6665 5.9375C97.2446 5.9375 94.8228 6.03646 92.4061 6.22396C89.9894 6.41667 87.5884 6.69792 85.1925 7.07813C82.8019 7.45833 80.4217 7.93229 78.0675 8.5C75.7134 9.0625 73.38 9.71875 71.078 10.4688C68.7707 11.2188 66.4998 12.0573 64.2603 12.9844C62.0207 13.9115 59.8228 14.9271 57.6665 16.026C55.505 17.125 53.3957 18.3073 51.328 19.5729C49.2603 20.8385 47.2498 22.1875 45.2915 23.6094L50.703 31.0469C58.9634 25.0313 68.0259 20.6927 77.8957 18.0313Z" fill="#39B54A"/>
<path d="M19.2344 120.094C18.7032 118.13 18.2449 116.156 17.8594 114.161C17.4688 112.167 17.1563 110.161 16.9167 108.146C16.6771 106.125 16.5105 104.104 16.4219 102.078C16.3282 100.047 16.3126 98.0156 16.3699 95.9844C16.4271 93.9583 16.5626 91.9323 16.7657 89.9115C16.974 87.8906 17.2501 85.8802 17.6042 83.8802C17.9584 81.8802 18.3855 79.8958 18.8855 77.9271C19.3855 75.9583 19.9584 74.0104 20.599 72.0833C21.2396 70.1563 21.9532 68.2552 22.7344 66.3802C23.5157 64.5052 24.3646 62.6615 25.2813 60.849C26.2032 59.0365 27.1824 57.2604 28.2292 55.5208C29.2761 53.776 30.3907 52.0781 31.5626 50.4167C32.7344 48.7604 33.9636 47.1458 35.2553 45.5729C36.5469 44.0052 37.8959 42.4844 39.2969 41.0156C40.698 39.5417 42.1511 38.125 43.6615 36.7604C45.1667 35.3958 46.7188 34.0885 48.323 32.8385C49.1042 32.2292 49.8959 31.6302 50.698 31.0469L45.2865 23.6094C44.3959 24.2604 43.5157 24.9219 42.6459 25.599C40.8699 26.9896 39.1459 28.4427 37.474 29.9583C35.8021 31.474 34.1876 33.0521 32.6355 34.6823C31.0782 36.3177 29.5834 38.0052 28.1511 39.75C26.7188 41.4948 25.3542 43.2865 24.0521 45.1302C22.7553 46.974 21.5209 48.8646 20.3594 50.7969C19.198 52.7292 18.1094 54.7031 17.0886 56.7135C16.073 58.7292 15.1303 60.776 14.2605 62.8542C13.3959 64.9375 12.6042 67.0469 11.8907 69.1875C11.1771 71.3281 10.5417 73.4896 9.98965 75.6771C9.43236 77.8594 8.9584 80.0625 8.56777 82.2865C8.17194 84.5052 7.85944 86.7396 7.63027 88.9792C7.40111 91.224 7.25527 93.474 7.18756 95.724C7.12506 97.9792 7.14069 100.234 7.23965 102.484C7.3386 104.74 7.5209 106.984 7.78652 109.224C8.05215 111.464 8.3959 113.693 8.82298 115.906C9.25006 118.12 9.76048 120.313 10.349 122.49C10.7501 123.979 11.1876 125.453 11.6615 126.911L20.4167 124.068C19.9949 122.755 19.599 121.432 19.2344 120.094Z" fill="#39B54A"/>
<path d="M165.26 47.0781C167.354 49.7552 169.276 52.5469 171.026 55.4583C172.776 58.3646 174.344 61.3698 175.729 64.474C177.114 67.5729 178.302 70.75 179.297 73.9948C180.292 77.2396 181.088 80.5365 181.677 83.875C182.271 87.2188 182.656 90.5885 182.838 93.9792C183.021 97.3646 182.989 100.755 182.755 104.141C182.521 107.531 182.083 110.891 181.437 114.224C180.792 117.557 179.948 120.839 178.901 124.068L187.656 126.911C188.406 124.609 189.057 122.281 189.625 119.927C190.187 117.573 190.656 115.198 191.036 112.807C191.411 110.417 191.693 108.016 191.885 105.604C192.073 103.193 192.167 100.776 192.167 98.3542C192.161 95.9375 192.068 93.5208 191.875 91.1094C191.687 88.6979 191.401 86.2969 191.021 83.9063C190.64 81.5156 190.167 79.1406 189.604 76.7917C189.036 74.4375 188.38 72.1094 187.63 69.8073C186.88 67.5052 186.047 65.2396 185.12 63C184.193 60.7656 183.177 58.5677 182.078 56.4115C180.979 54.2552 179.797 52.1458 178.531 50.0833C177.265 48.0208 175.922 46.0052 174.5 44.0469C173.078 42.0885 171.578 40.1927 170.005 38.349C168.432 36.5104 166.792 34.7292 165.078 33.0208C163.37 31.3073 161.594 29.6615 159.75 28.0885C157.911 26.5156 156.01 25.0156 154.052 23.5938L148.635 31.0313C154.932 35.6042 160.469 40.9531 165.26 47.0781Z" fill="#39B54A"/>
<path d="M89.5783 180.932C85.6616 180.453 81.797 179.703 77.9845 178.677C74.1772 177.646 70.4585 176.359 66.8283 174.802C63.2033 173.25 59.7033 171.448 56.3335 169.396C52.9637 167.344 49.7554 165.068 46.7033 162.563C43.6564 160.057 40.8022 157.349 38.1408 154.438C35.4793 151.526 33.0366 148.443 30.8127 145.188C28.5887 141.932 26.6043 138.537 24.8647 134.995C23.1252 131.458 21.6408 127.818 20.4168 124.068L11.6616 126.911C12.3387 128.99 13.0887 131.042 13.9116 133.068C14.7293 135.094 15.6252 137.089 16.5887 139.052C17.5522 141.016 18.5835 142.943 19.6877 144.833C20.7866 146.724 21.9533 148.573 23.1877 150.38C24.4168 152.188 25.7137 153.948 27.0731 155.662C28.4272 157.38 29.8439 159.042 31.3231 160.656C32.797 162.271 34.3283 163.833 35.9168 165.339C37.5054 166.844 39.1408 168.292 40.8335 169.682C42.521 171.073 44.2606 172.401 46.047 173.667C47.8283 174.932 49.6564 176.135 51.5262 177.271C53.396 178.412 55.3075 179.479 57.2502 180.479C59.1981 181.484 61.1772 182.412 63.1877 183.276C65.2033 184.135 67.245 184.922 69.3127 185.641C71.3804 186.354 73.4689 187 75.5835 187.568C77.6981 188.135 79.8335 188.625 81.9793 189.042C84.1304 189.458 86.2918 189.797 88.4637 190.063C92.1825 190.516 95.9116 190.745 99.6616 190.75V181.563C96.2866 181.552 92.9272 181.344 89.5783 180.932Z" fill="#39B54A"/>
<path d="M178.896 124.068C178.224 126.141 177.469 128.182 176.636 130.198C175.802 132.214 174.886 134.188 173.896 136.13C172.906 138.073 171.844 139.974 170.703 141.833C169.563 143.693 168.349 145.505 167.068 147.266C165.787 149.031 164.438 150.74 163.021 152.401C161.604 154.057 160.12 155.656 158.578 157.198C157.037 158.74 155.432 160.219 153.776 161.63C152.115 163.047 150.401 164.396 148.636 165.677C146.87 166.958 145.057 168.167 143.198 169.307C141.339 170.448 139.432 171.51 137.49 172.5C135.542 173.49 133.563 174.401 131.547 175.234C129.531 176.068 127.485 176.818 125.406 177.495C123.333 178.167 121.235 178.755 119.11 179.266C116.99 179.771 114.849 180.198 112.693 180.537C110.537 180.875 108.37 181.13 106.198 181.302C104.021 181.474 101.844 181.557 99.6616 181.557V190.745C102.083 190.745 104.5 190.651 106.917 190.464C109.333 190.276 111.74 189.99 114.136 189.609C116.526 189.234 118.901 188.76 121.261 188.198C123.615 187.635 125.948 186.979 128.25 186.229C130.557 185.484 132.828 184.646 135.068 183.719C137.307 182.792 139.505 181.781 141.667 180.682C143.823 179.583 145.938 178.401 148.005 177.135C150.073 175.875 152.083 174.531 154.047 173.109C156.005 171.682 157.906 170.188 159.75 168.615C161.594 167.042 163.37 165.401 165.083 163.693C166.797 161.979 168.443 160.203 170.016 158.365C171.589 156.521 173.089 154.62 174.516 152.667C175.938 150.708 177.281 148.693 178.547 146.63C179.818 144.568 181 142.458 182.099 140.302C183.198 138.141 184.214 135.948 185.141 133.708C186.068 131.474 186.906 129.203 187.651 126.901L178.896 124.068Z" fill="#39B54A"/>
<path d="M143.224 38.4739L148.635 31.0312C146.87 29.75 145.057 28.5416 143.198 27.401C141.338 26.2604 139.432 25.1979 137.489 24.2031C135.547 23.2135 133.568 22.302 131.547 21.4687C129.531 20.6354 127.489 19.8802 125.411 19.2083C123.338 18.5312 121.239 17.9427 119.114 17.4323C116.995 16.9218 114.854 16.5 112.698 16.1562C110.542 15.8177 108.375 15.5625 106.203 15.3906C104.026 15.2187 101.849 15.1354 99.6665 15.1354C97.4842 15.1354 95.3019 15.2187 93.1248 15.3906C90.953 15.5625 88.7863 15.8229 86.63 16.1614C84.4738 16.5052 82.3384 16.927 80.2134 17.4375C78.0936 17.9479 75.9946 18.5416 73.9165 19.2135C71.8436 19.8906 69.7967 20.6458 67.7811 21.4791C65.7655 22.3177 63.7863 23.2291 61.8436 24.2187C59.8957 25.2083 57.9946 26.276 56.1353 27.4166C54.2759 28.5573 52.4634 29.7656 50.6978 31.0468L56.1144 38.4895C82.5623 19.2708 117.823 20.0208 143.224 38.4739Z" fill="#8DC63F"/>
<path d="M53.9949 40.0833C54.6928 39.5365 55.4011 39.0052 56.1094 38.4896L50.698 31.0469C49.8959 31.6302 49.1042 32.2292 48.323 32.8385C46.7188 34.0937 45.1667 35.401 43.6615 36.7656C42.1563 38.1302 40.7084 39.5521 39.3074 41.0208C37.9063 42.4948 36.5574 44.0156 35.2709 45.5833C33.9792 47.1563 32.7501 48.7708 31.5782 50.4271C30.4063 52.0885 29.2969 53.7917 28.2553 55.5313C27.2084 57.2708 26.224 59.0469 25.3074 60.8594C24.3907 62.6719 23.5417 64.5156 22.7605 66.3906C21.9792 68.2656 21.2657 70.1667 20.6251 72.0938C19.9844 74.0208 19.4115 75.9688 18.9115 77.9323C18.4115 79.901 17.9844 81.8854 17.6303 83.8854C17.2761 85.8854 17.0001 87.8958 16.7917 89.9167C16.5834 91.9375 16.448 93.9583 16.3907 95.9896C16.3334 98.0208 16.349 100.047 16.4376 102.078C16.5261 104.104 16.6928 106.13 16.9324 108.146C17.1667 110.161 17.4792 112.167 17.8647 114.161C18.2501 116.156 18.7084 118.13 19.2344 120.094C19.599 121.432 19.9897 122.755 20.4167 124.068L29.1772 121.224C19.8334 92.5052 28.8022 59.776 53.9949 40.0833Z" fill="#8DC63F"/>
<path d="M145.328 156.63C142.094 159.167 138.672 161.417 135.063 163.38C131.453 165.344 127.703 166.995 123.818 168.333C119.932 169.672 115.958 170.677 111.906 171.349C107.854 172.026 103.771 172.359 99.6616 172.354V181.557C101.844 181.557 104.021 181.469 106.198 181.302C108.37 181.13 110.537 180.875 112.693 180.537C114.849 180.193 116.99 179.771 119.11 179.26C121.235 178.755 123.328 178.162 125.406 177.49C127.485 176.818 129.526 176.063 131.547 175.229C133.563 174.396 135.542 173.484 137.485 172.495C139.432 171.505 141.333 170.443 143.193 169.302C145.057 168.167 146.87 166.958 148.636 165.677C150.401 164.396 152.115 163.047 153.771 161.63C155.432 160.214 157.031 158.734 158.578 157.193C160.12 155.656 161.599 154.052 163.016 152.396C164.432 150.74 165.781 149.031 167.068 147.266C168.349 145.5 169.557 143.693 170.698 141.833C171.839 139.974 172.906 138.073 173.896 136.13C174.886 134.188 175.797 132.208 176.63 130.198C177.469 128.182 178.219 126.141 178.896 124.068L170.13 121.224C167.865 128.229 164.615 134.75 160.386 140.786C156.162 146.818 151.141 152.104 145.328 156.63Z" fill="#8DC63F"/>
<path d="M41.3125 143.958C35.9219 137.099 31.8802 129.521 29.1771 121.224L20.4219 124.068C21.6406 127.818 23.1146 131.464 24.8542 135.005C26.5937 138.547 28.5729 141.943 30.7969 145.203C33.0156 148.464 35.4583 151.547 38.1198 154.458C40.7813 157.37 43.6406 160.078 46.6875 162.589C49.7344 165.094 52.9427 167.37 56.3177 169.422C59.6875 171.469 63.1875 173.271 66.8177 174.823C70.4479 176.375 74.1667 177.667 77.9792 178.688C81.7917 179.714 85.6615 180.458 89.5781 180.932C92.9271 181.344 96.2865 181.552 99.6615 181.557V172.354C77.6719 172.339 55.9219 162.594 41.3125 143.958Z" fill="#8DC63F"/>
<path d="M180.083 76.6198C178.844 72.0677 177.235 67.6563 175.245 63.3855C173.261 59.1094 170.927 55.0313 168.25 51.1511C165.573 47.2709 162.589 43.6407 159.297 40.2605C156 36.8855 152.448 33.8125 148.636 31.0365L143.224 38.474C148.818 42.5417 153.745 47.3021 158.011 52.75C173.781 72.875 177.469 98.6094 170.136 121.224L178.896 124.068C181.386 116.38 182.729 108.505 182.932 100.427C183.136 92.3542 182.188 84.4167 180.089 76.6146L180.083 76.6198Z" fill="#8DC63F"/>
<path d="M56.1093 38.4896C55.401 39.0052 54.6927 39.5365 53.9947 40.0834C28.802 59.7761 19.8333 92.5053 29.177 121.224L99.6614 98.349L56.1093 38.4896Z" fill="#FF323F"/>
<path d="M99.6616 172.354C101.599 172.354 103.537 172.276 105.474 172.125C107.406 171.974 109.333 171.745 111.25 171.443C113.167 171.141 115.068 170.76 116.953 170.307C118.844 169.854 120.708 169.328 122.557 168.729C124.401 168.13 126.219 167.458 128.011 166.719C129.807 165.979 131.568 165.167 133.297 164.287C135.026 163.406 136.719 162.458 138.37 161.448C140.026 160.432 141.641 159.359 143.208 158.219C144.781 157.078 146.302 155.88 147.781 154.62C149.255 153.365 150.677 152.047 152.052 150.677C153.422 149.307 154.74 147.885 156 146.412C157.261 144.938 158.464 143.417 159.604 141.849C160.745 140.281 161.823 138.672 162.839 137.021C163.849 135.365 164.797 133.677 165.682 131.948C166.563 130.224 167.375 128.464 168.115 126.672C168.86 124.885 169.531 123.068 170.13 121.224L99.6616 98.349V172.354Z" fill="#FF323F"/>
<path d="M29.1772 121.224C31.8804 129.521 35.9272 137.099 41.3127 143.958C55.922 162.594 77.672 172.339 99.6616 172.354V98.349L29.1772 121.224Z" fill="#FF323F"/>
<path d="M170.136 121.224C177.469 98.6094 173.781 72.875 158.011 52.7448C153.745 47.3021 148.818 42.5417 143.224 38.474L99.6616 98.349L170.136 121.224Z" fill="#FF323F"/>
<path d="M56.1094 38.4895L99.6615 98.3489L143.219 38.4687C117.823 20.0208 82.5625 19.2708 56.1094 38.4895Z" fill="#FF323F"/>
<path d="M82.4739 43.0676L81.5624 44.6093C81.5103 44.6978 81.4426 44.7656 81.3541 44.8176C81.2707 44.8697 81.177 44.8958 81.078 44.901C80.9791 44.9062 80.8801 44.8853 80.7916 44.8385C80.703 44.7968 80.6249 44.7343 80.5676 44.651L79.5311 43.1874C79.1822 42.7031 78.9895 42.1562 78.9582 41.5572C78.9322 40.9583 79.0676 40.401 79.3645 39.8801C79.7239 39.2708 80.2395 38.8853 80.828 38.8593C81.4114 38.8385 81.9582 39.177 82.3697 39.7551C82.7082 40.2499 82.8905 40.7968 82.9114 41.3958C82.9322 41.9947 82.7864 42.5572 82.4739 43.0676Z" fill="black"/>
<path d="M80.7711 45.0104C80.6356 44.9531 80.5211 44.8698 80.4377 44.7448L79.4013 43.2865C79.0315 42.7708 78.8284 42.1979 78.7971 41.5677C78.7659 40.9375 78.9117 40.3437 79.2294 39.7969C79.6304 39.1146 80.2034 38.724 80.8231 38.6979C81.4377 38.6719 82.0419 39.0156 82.5002 39.6615C82.8596 40.1823 83.0523 40.7604 83.0732 41.3906C83.094 42.0208 82.9429 42.6094 82.6148 43.151L81.7034 44.6927C81.6044 44.8542 81.469 44.9635 81.2919 45.026C81.12 45.0833 80.9429 45.0781 80.7711 45.0104ZM81.3752 39.1198C81.1982 39.0469 81.0211 39.0156 80.8336 39.0208C80.3232 39.0417 79.8492 39.375 79.5054 39.9635C79.219 40.4531 79.094 40.9844 79.12 41.5521C79.1513 42.1198 79.3284 42.6354 79.6617 43.099L80.6981 44.5625C80.7919 44.6875 80.9117 44.7448 81.0679 44.7396C81.2242 44.7344 81.344 44.6667 81.4221 44.5312L82.3388 42.9896C82.6304 42.5052 82.7711 41.974 82.7502 41.4062C82.7346 40.8385 82.5627 40.3229 82.2346 39.8542C82.0211 39.526 81.7346 39.2812 81.3752 39.1198Z" fill="#231F20"/>
<path d="M99.901 39.5573L98.9896 41.0989C98.9375 41.1875 98.8698 41.2552 98.7865 41.3073C98.6979 41.3593 98.6042 41.3854 98.5052 41.3906C98.4063 41.3958 98.3073 41.375 98.2188 41.3281C98.1302 41.2864 98.0573 41.2239 98 41.1406L96.9635 39.677C96.6094 39.1927 96.4167 38.6458 96.3906 38.0468C96.3594 37.4479 96.4948 36.8906 96.7969 36.3698C97.1563 35.7604 97.6719 35.375 98.2552 35.3489C98.8437 35.3281 99.3854 35.6718 99.7969 36.2448C100.141 36.7395 100.318 37.2864 100.339 37.8854C100.359 38.4843 100.214 39.0416 99.901 39.5573Z" fill="black"/>
<path d="M98.1978 41.5C98.0624 41.4427 97.9478 41.3542 97.8645 41.2344L96.828 39.7709C96.4582 39.2605 96.2551 38.6875 96.2239 38.0573C96.1926 37.4219 96.3384 36.8334 96.6562 36.2865C97.0572 35.6042 97.6301 35.2136 98.2499 35.1875C98.8697 35.1615 99.4687 35.5052 99.927 36.1511C100.292 36.6719 100.479 37.2448 100.5 37.875C100.521 38.5105 100.37 39.0938 100.042 39.6355L99.1301 41.1823C99.0364 41.3386 98.8957 41.448 98.7239 41.5105C98.5468 41.5677 98.3697 41.5625 98.1978 41.4948V41.5ZM98.802 35.6094C98.6249 35.5365 98.4478 35.5052 98.2603 35.5105C97.7499 35.5313 97.2759 35.8646 96.9322 36.448C96.6457 36.9427 96.5207 37.474 96.5468 38.0417C96.578 38.6094 96.7551 39.125 97.0884 39.5834L98.1301 41.0417C98.2187 41.1667 98.3437 41.2292 98.4999 41.2188C98.6509 41.2136 98.7707 41.1459 98.8489 41.0157L99.7655 39.474C100.062 38.9896 100.198 38.4636 100.182 37.8907C100.161 37.323 99.9895 36.8073 99.6666 36.3386C99.4478 36.0105 99.1614 35.7657 98.802 35.6094Z" fill="#231F20"/>
<path d="M117.333 43.0209L116.417 44.5625C116.37 44.6511 116.297 44.7188 116.214 44.7709C116.125 44.8229 116.031 44.849 115.932 44.8542C115.833 44.8542 115.74 44.8386 115.646 44.7917C115.557 44.75 115.485 44.6823 115.427 44.6042L114.391 43.1406C114.037 42.6511 113.849 42.1094 113.818 41.5104C113.787 40.9115 113.922 40.349 114.224 39.8281C114.583 39.224 115.099 38.8334 115.682 38.8125C116.271 38.7865 116.818 39.1354 117.224 39.7084C117.568 40.1979 117.75 40.7448 117.766 41.349C117.787 41.9479 117.641 42.5052 117.333 43.0209Z" fill="black"/>
<path d="M115.625 44.9635C115.489 44.9062 115.38 44.8177 115.292 44.6979L114.255 43.2344C113.885 42.724 113.687 42.151 113.656 41.5156C113.625 40.8854 113.765 40.2969 114.083 39.75C114.489 39.0677 115.057 38.6771 115.677 38.651C116.297 38.625 116.896 38.9687 117.354 39.6146C117.719 40.1302 117.906 40.7083 117.927 41.3385C117.953 41.974 117.797 42.5625 117.474 43.1042L116.557 44.6458C116.417 44.8802 116.213 45.0052 115.937 45.0156C115.833 45.0208 115.729 45 115.625 44.9635ZM116.229 39.0677C116.057 39 115.875 38.9687 115.687 38.974C115.177 38.9948 114.708 39.3281 114.359 39.9115C114.073 40.4062 113.948 40.9375 113.974 41.5052C114.005 42.0729 114.182 42.5885 114.521 43.0469L115.557 44.5104C115.646 44.6354 115.771 44.6979 115.922 44.6875C116.078 44.6823 116.198 44.6146 116.276 44.4844L117.187 42.9375C117.484 42.4531 117.62 41.9271 117.604 41.3594C117.583 40.7917 117.411 40.2708 117.088 39.8021C116.875 39.474 116.588 39.2292 116.229 39.0677Z" fill="#231F20"/>
<path d="M93.0259 59.5312L92.1144 61.0729C92.0623 61.1614 91.9946 61.2291 91.9061 61.2812C91.8228 61.3333 91.729 61.3594 91.63 61.3646C91.5311 61.3698 91.4321 61.3489 91.3436 61.3073C91.255 61.2604 91.1821 61.1979 91.1196 61.1146L90.0832 59.6562C89.7342 59.1666 89.5415 58.625 89.5103 58.026C89.479 57.4219 89.6144 56.8646 89.9165 56.3437C90.2759 55.7344 90.7915 55.3489 91.3748 55.3229C91.9634 55.2969 92.505 55.6458 92.9165 56.2187C93.2603 56.7135 93.4425 57.2604 93.4582 57.8594C93.479 58.4583 93.3384 59.0156 93.0259 59.5312Z" fill="black"/>
<path d="M91.3228 61.474C91.1874 61.4167 91.0728 61.3281 90.9895 61.2083L89.953 59.75C89.5832 59.2344 89.3801 58.6615 89.3489 58.0313C89.3176 57.4011 89.4634 56.8125 89.7812 56.2604C90.1822 55.5781 90.7551 55.1875 91.3749 55.1667C91.9947 55.1406 92.5937 55.4792 93.052 56.1302C93.4114 56.6458 93.6041 57.224 93.6249 57.8542C93.6457 58.4896 93.4895 59.0729 93.1614 59.6146L92.2551 61.1563C92.1562 61.3125 92.0207 61.4271 91.8437 61.4844C91.6666 61.5417 91.4947 61.5365 91.3228 61.4688V61.474ZM91.927 55.5833C91.7499 55.5104 91.5728 55.4792 91.3853 55.4844C90.8749 55.5052 90.4009 55.8386 90.0572 56.4271C89.7707 56.9167 89.6457 57.4479 89.6718 58.0156C89.703 58.5833 89.8801 59.099 90.2134 59.5625L91.2499 61.0208C91.3437 61.1458 91.4634 61.2083 91.6197 61.2031C91.7759 61.1927 91.8905 61.125 91.9739 60.9948L92.8853 59.4531C93.177 58.9636 93.3176 58.4375 93.2968 57.8698C93.2812 57.3021 93.1093 56.7813 92.7864 56.3177C92.5676 55.9896 92.2812 55.7448 91.9218 55.5833H91.927Z" fill="#231F20"/>
<path d="M107.391 59.5781L106.479 61.1198C106.427 61.2083 106.36 61.276 106.276 61.3281C106.188 61.3802 106.094 61.4062 105.995 61.4114C105.896 61.4114 105.802 61.3958 105.708 61.3489C105.62 61.3073 105.547 61.2448 105.49 61.1614L104.453 59.6979C104.099 59.2083 103.912 58.6666 103.88 58.0677C103.849 57.4687 103.985 56.9062 104.287 56.3854C104.646 55.7812 105.162 55.3906 105.745 55.3698C106.333 55.3437 106.875 55.6927 107.287 56.2656C107.625 56.7552 107.807 57.3073 107.828 57.9062C107.844 58.5052 107.698 59.0625 107.391 59.5781Z" fill="black"/>
<path d="M105.682 61.5156C105.547 61.4635 105.432 61.375 105.349 61.2552L104.313 59.7916C103.943 59.276 103.745 58.7031 103.714 58.0729C103.682 57.4427 103.823 56.8541 104.141 56.3021C104.547 55.6198 105.115 55.2343 105.735 55.2083C106.354 55.1823 106.959 55.5208 107.417 56.1718C107.776 56.6875 107.969 57.2656 107.99 57.8958C108.011 58.5312 107.854 59.1198 107.531 59.6614L106.615 61.2031C106.479 61.4375 106.271 61.5625 106 61.5729C105.891 61.5781 105.787 61.5573 105.682 61.5156ZM106.287 55.625C106.11 55.5521 105.932 55.5208 105.745 55.5312C105.235 55.5521 104.761 55.8854 104.417 56.4687C104.13 56.9635 104.005 57.4948 104.031 58.0625C104.063 58.6302 104.24 59.1458 104.573 59.6041L105.615 61.0677C105.703 61.1927 105.828 61.25 105.979 61.2448C106.136 61.2396 106.255 61.1666 106.334 61.0364L107.245 59.4948C107.542 59.0052 107.677 58.4791 107.662 57.9114C107.641 57.3437 107.469 56.8281 107.146 56.3593C106.932 56.0312 106.646 55.7864 106.287 55.625Z" fill="#231F20"/>
<path d="M101.021 76.0417L100.11 77.5834C100.057 77.6719 99.9897 77.7396 99.9012 77.7917C99.8179 77.8386 99.7241 77.8699 99.62 77.8751C99.521 77.8751 99.4272 77.8542 99.3387 77.8126C99.245 77.7657 99.172 77.7032 99.1147 77.6251L98.0783 76.1615C97.7293 75.6719 97.5366 75.1303 97.5054 74.5313C97.4741 73.9324 97.6095 73.3699 97.9116 72.849C98.271 72.2449 98.7866 71.8542 99.3752 71.8334C99.9585 71.8074 100.505 72.1563 100.912 72.7292C101.255 73.2188 101.438 73.7657 101.458 74.3699C101.474 74.9688 101.333 75.5261 101.021 76.0417Z" fill="black"/>
<path d="M99.3176 77.9791C99.1769 77.927 99.0676 77.8385 98.9842 77.7187L97.9426 76.2551C97.5728 75.7395 97.3749 75.1666 97.3436 74.5364C97.3124 73.9062 97.453 73.3176 97.7707 72.7708C98.1769 72.0833 98.7447 71.6979 99.3644 71.6718C99.9842 71.6458 100.588 71.9843 101.047 72.6353C101.406 73.151 101.599 73.7291 101.62 74.3593C101.64 74.9947 101.489 75.5781 101.161 76.1249L100.25 77.6666C100.109 77.901 99.9009 78.026 99.6301 78.0364C99.5207 78.0416 99.4165 78.0208 99.3176 77.9791ZM99.9165 72.0885C99.7447 72.0156 99.5624 71.9843 99.3749 71.9947C98.8644 72.0156 98.3957 72.3489 98.0467 72.9322C97.7655 73.427 97.6353 73.9531 97.6665 74.526C97.6926 75.0937 97.8749 75.6093 98.2082 76.0676L99.2447 77.5312C99.3332 77.6562 99.4582 77.7187 99.6144 77.7135C99.7707 77.7031 99.8853 77.6353 99.9634 77.4947L100.88 75.9531C101.172 75.4687 101.307 74.9374 101.292 74.3697C101.271 73.802 101.104 73.2864 100.776 72.8176C100.562 72.4895 100.276 72.2499 99.9165 72.0885Z" fill="#231F20"/>
<path d="M41.7033 97.5937L42.896 98.9374C42.9637 99.0156 43.0054 99.0989 43.0314 99.1979C43.0523 99.2968 43.0471 99.3958 43.021 99.4895C42.995 99.5885 42.9481 99.6718 42.8752 99.7447C42.8075 99.8124 42.7242 99.8645 42.6304 99.8958L40.9169 100.427C40.3439 100.609 39.7658 100.625 39.1877 100.469C38.6044 100.312 38.1148 100.01 37.7137 99.5624C37.245 99.0312 37.0367 98.427 37.1929 97.8593C37.3492 97.2968 37.8439 96.8854 38.521 96.6718C39.0991 96.4999 39.6721 96.4947 40.2502 96.6666C40.8283 96.8333 41.3127 97.1406 41.7033 97.5937Z" fill="black"/>
<path d="M43.0262 99.8125C42.9325 99.9271 42.8127 100.005 42.6721 100.047L40.9585 100.583C40.3544 100.776 39.7502 100.787 39.1356 100.62C38.5262 100.458 38.0106 100.141 37.5835 99.6667C37.0575 99.073 36.8648 98.4167 37.0314 97.8125C37.1981 97.2136 37.7085 96.7553 38.4689 96.5157C39.0731 96.3334 39.6825 96.3334 40.2919 96.5105C40.896 96.6875 41.4117 97.0105 41.8231 97.4896L43.0158 98.8334C43.1981 99.0417 43.2502 99.2761 43.1773 99.5365C43.146 99.6407 43.0939 99.7292 43.0262 99.8125ZM37.6044 97.4219C37.4794 97.5625 37.396 97.724 37.3439 97.9011C37.2085 98.3907 37.3804 98.9428 37.8283 99.4532C38.2085 99.875 38.6773 100.162 39.2242 100.307C39.771 100.458 40.3179 100.443 40.8596 100.271L42.5731 99.7396C42.7189 99.6928 42.8127 99.5938 42.8544 99.4428C42.896 99.2969 42.87 99.1615 42.7658 99.0469L41.5783 97.698C41.2033 97.2709 40.745 96.9792 40.1981 96.8178C39.6512 96.6615 39.1044 96.6615 38.5575 96.8282C38.1825 96.9323 37.8648 97.1303 37.6044 97.4219Z" fill="#231F20"/>
<path d="M43.7445 79.9532L44.9372 81.2969C45.005 81.375 45.0466 81.4584 45.0675 81.5573C45.0935 81.6563 45.0883 81.75 45.0622 81.849C45.0362 81.9428 44.9893 82.0313 44.9164 82.099C44.8487 82.1719 44.7654 82.224 44.6716 82.2553L42.9581 82.7865C42.3852 82.9688 41.807 82.9844 41.2289 82.8282C40.6456 82.6719 40.156 82.3698 39.7497 81.9219C39.2862 81.3959 39.0727 80.7813 39.2341 80.2188C39.3904 79.6563 39.8852 79.2448 40.5622 79.0313C41.1352 78.8594 41.7133 78.8594 42.2914 79.0261C42.8643 79.1928 43.3539 79.5 43.7445 79.9532Z" fill="black"/>
<path d="M45.0677 82.1719C44.974 82.2865 44.8542 82.3646 44.7136 82.4115L43 82.9427C42.3959 83.1354 41.7865 83.1459 41.1771 82.9792C40.5677 82.8125 40.0469 82.4948 39.625 82.0261C39.099 81.4271 38.9063 80.7709 39.0729 80.1719C39.2396 79.5729 39.75 79.1094 40.5104 78.875C41.1146 78.6927 41.724 78.6875 42.3334 78.8646C42.9375 79.0417 43.4532 79.3698 43.8646 79.8438L45.0573 81.1927C45.1823 81.3281 45.2448 81.4948 45.2448 81.6771C45.2448 81.8646 45.1875 82.0313 45.0677 82.1719ZM39.6407 79.7813C39.5209 79.9219 39.4375 80.0834 39.3854 80.2604C39.25 80.7552 39.4219 81.3021 39.8698 81.8125C40.25 82.2344 40.7136 82.5209 41.2657 82.6719C41.8125 82.8177 42.3594 82.8073 42.9011 82.6302L44.6146 82.099C44.7604 82.0521 44.8542 81.9531 44.8959 81.8021C44.9375 81.6563 44.9115 81.5209 44.8073 81.4063L43.6198 80.0625C43.2448 79.6302 42.7865 79.3386 42.2396 79.1823C41.6927 79.0209 41.1459 79.0261 40.599 79.1875C40.224 79.2917 39.9063 79.4896 39.6407 79.7813Z" fill="#231F20"/>
<path d="M52.4269 64.4688L53.6197 65.8125C53.6874 65.8907 53.729 65.974 53.7551 66.0729C53.7759 66.1719 53.7707 66.2657 53.7447 66.3646C53.7186 66.4636 53.6717 66.5469 53.5988 66.6146C53.5311 66.6875 53.4478 66.7396 53.354 66.7709L51.6405 67.3021C51.0676 67.4844 50.4895 67.5 49.9113 67.3438C49.328 67.1875 48.8384 66.8854 48.4374 66.4375C47.9686 65.9063 47.7603 65.2969 47.9165 64.7344C48.0728 64.1719 48.5676 63.7604 49.2447 63.5469C49.8228 63.375 50.3957 63.3698 50.9738 63.5365C51.5519 63.7084 52.0363 64.0157 52.4269 64.4688Z" fill="black"/>
<path d="M53.7552 66.6928C53.6615 66.8021 53.5417 66.8803 53.4011 66.9219L51.6875 67.4584C51.0834 67.6511 50.4792 67.6615 49.8646 67.5001C49.2552 67.3334 48.7396 67.0157 48.3125 66.5469C47.7865 65.948 47.5938 65.2917 47.7604 64.6928C47.9271 64.0886 48.4375 63.6303 49.1979 63.3959C49.8021 63.2136 50.4115 63.2084 51.0157 63.3855C51.625 63.5626 52.1354 63.8907 52.5521 64.3646L53.7448 65.7136C53.8646 65.8542 53.9271 66.0157 53.9323 66.2032C53.9323 66.3855 53.875 66.5521 53.7552 66.6928ZM48.3282 64.2969C48.2084 64.4376 48.125 64.599 48.0729 64.7813C47.9323 65.2709 48.1094 65.8178 48.5573 66.3282C48.9375 66.7501 49.4011 67.0365 49.9532 67.1876C50.5 67.3334 51.0469 67.323 51.5886 67.1459L53.3021 66.6146C53.4479 66.5678 53.5417 66.4688 53.5834 66.3178C53.625 66.1719 53.599 66.0365 53.4948 65.9219L52.3073 64.5782C51.9323 64.1459 51.474 63.8542 50.9271 63.698C50.3802 63.5365 49.8334 63.5417 49.2865 63.7032C48.9115 63.8074 48.5886 64.0053 48.3282 64.2969Z" fill="#231F20"/>
<path d="M60.6408 92.6563L61.8335 94C61.9012 94.0782 61.9429 94.1615 61.9689 94.2605C61.9898 94.3594 61.9898 94.4584 61.9585 94.5521C61.9325 94.6511 61.8856 94.7344 61.8127 94.8073C61.745 94.875 61.6617 94.9271 61.5679 94.9584L59.8544 95.4896C59.2814 95.6719 58.7033 95.6875 58.1252 95.5313C57.5419 95.375 57.0523 95.073 56.6512 94.625C56.1825 94.099 55.9742 93.4896 56.1304 92.9219C56.2867 92.3594 56.7814 91.9532 57.4585 91.7344C58.0366 91.5625 58.6096 91.5625 59.1877 91.7292C59.7658 91.8959 60.2502 92.2032 60.6408 92.6563Z" fill="black"/>
<path d="M61.9635 94.8802C61.8698 94.9896 61.75 95.0677 61.6093 95.1146L59.8958 95.6459C59.2916 95.8386 58.6875 95.8542 58.0729 95.6875C57.4635 95.5209 56.9479 95.2032 56.526 94.7344C56 94.1407 55.8021 93.4792 55.9687 92.8802C56.1406 92.2813 56.6458 91.8229 57.4062 91.5834C58.0156 91.4011 58.6198 91.4011 59.2291 91.5729C59.8385 91.75 60.3489 92.0782 60.7656 92.5573L61.9531 93.9011C62.0781 94.0417 62.1406 94.2032 62.1406 94.3907C62.1458 94.5782 62.0833 94.7396 61.9635 94.8854V94.8802ZM56.5416 92.4844C56.4166 92.625 56.3333 92.7865 56.2812 92.9688C56.1458 93.4584 56.3177 94.0104 56.7656 94.5157C57.1458 94.9375 57.6146 95.224 58.1614 95.375C58.7135 95.5209 59.2552 95.5104 59.7968 95.3334L61.5104 94.8021C61.6562 94.7552 61.7552 94.6563 61.7968 94.5104C61.8385 94.3594 61.8073 94.2292 61.7083 94.1094L60.5156 92.7657C60.1406 92.3334 59.6823 92.0417 59.1354 91.8854C58.5885 91.724 58.0416 91.7292 57.4948 91.8907C57.1198 91.9948 56.8021 92.1927 56.5416 92.4844Z" fill="#231F20"/>
<path d="M65.1198 79.0313L66.3125 80.375C66.3802 80.4532 66.4219 80.5365 66.4479 80.6354C66.4688 80.7344 66.4636 80.8282 66.4375 80.9271C66.4115 81.0209 66.3646 81.1094 66.2917 81.1771C66.224 81.25 66.1407 81.3021 66.0469 81.3334L64.3334 81.8646C63.7604 82.0469 63.1823 82.0625 62.6042 81.9063C62.0209 81.7448 61.5313 81.4479 61.1302 81C60.6615 80.4688 60.4532 79.8594 60.6094 79.2969C60.7657 78.7344 61.2604 78.3229 61.9375 78.1094C62.5157 77.9375 63.0886 77.9323 63.6667 78.099C64.2448 78.2709 64.7292 78.5782 65.1198 79.0313Z" fill="black"/>
<path d="M66.4427 81.25C66.3489 81.3646 66.2291 81.4428 66.0885 81.4844L64.375 82.0261C63.776 82.2136 63.1666 82.2292 62.5573 82.0625C61.9479 81.8959 61.4323 81.5782 61.0104 81.1042C60.4843 80.5105 60.2864 79.8542 60.4531 79.2553C60.625 78.6511 61.1354 78.1928 61.8906 77.9532C62.5 77.7709 63.1041 77.7709 63.7135 77.948C64.3229 78.125 64.8333 78.448 65.25 78.9271L66.4375 80.2709C66.5625 80.4115 66.625 80.573 66.6302 80.7605C66.6302 80.948 66.5729 81.1146 66.4479 81.2553L66.4427 81.25ZM61.0208 78.8594C60.901 79 60.8125 79.1615 60.7604 79.3386C60.625 79.8282 60.7968 80.3803 61.2448 80.8907C61.625 81.3125 62.0937 81.599 62.6406 81.7448C63.1927 81.8959 63.7343 81.8803 64.276 81.7084L65.9896 81.1771C66.1354 81.1303 66.2291 81.0313 66.2708 80.8803C66.3125 80.7344 66.2864 80.599 66.1823 80.4844L64.9948 79.1407C64.6198 78.7084 64.1614 78.4167 63.6146 78.2605C63.0729 78.099 62.526 78.1042 61.9843 78.2657C61.6041 78.3698 61.2812 78.5678 61.0208 78.8594Z" fill="#231F20"/>
<path d="M78.8332 90.1666L80.026 91.5104C80.0885 91.5885 80.1353 91.6718 80.1562 91.7708C80.177 91.8697 80.177 91.9635 80.151 92.0624C80.1249 92.1562 80.0728 92.2395 80.0051 92.3124C79.9374 92.3854 79.8541 92.4374 79.7551 92.4635L78.0364 92.9999C77.4634 93.1822 76.8905 93.1979 76.3072 93.0364C75.7291 92.8802 75.2343 92.5781 74.8332 92.1354C74.3697 91.6041 74.1562 90.9947 74.3176 90.4322C74.4739 89.8697 74.9634 89.4583 75.6457 89.2447C76.2187 89.0677 76.7968 89.0677 77.3749 89.2343C77.953 89.401 78.4374 89.7135 78.8332 90.1666Z" fill="black"/>
<path d="M80.1563 92.3854C80.0574 92.5 79.9428 92.5781 79.8021 92.6198L78.0886 93.1563C77.4844 93.349 76.8751 93.3594 76.2657 93.1927C75.6563 93.0313 75.1355 92.7135 74.7136 92.2396C74.1876 91.6458 73.9896 90.9896 74.1615 90.3854C74.3282 89.7865 74.8386 89.3281 75.5938 89.0885C76.2032 88.9063 76.8074 88.9063 77.4167 89.0833C78.0261 89.2604 78.5365 89.5833 78.9532 90.0625L80.1407 91.4063C80.2657 91.5469 80.3282 91.7083 80.3334 91.8958C80.3334 92.0833 80.2761 92.2448 80.1563 92.3906V92.3854ZM74.7292 89.9948C74.6094 90.1354 74.5209 90.2969 74.474 90.474C74.3334 90.9635 74.5053 91.5156 74.9584 92.026C75.3386 92.4479 75.8021 92.7344 76.3542 92.8802C76.9011 93.0313 77.448 93.0156 77.9896 92.8438L79.7032 92.3125C79.849 92.2656 79.9428 92.1667 79.9844 92.0156C80.0261 91.8698 79.9949 91.7344 79.8959 91.6198L78.7032 90.276C78.3334 89.8438 77.8699 89.5521 77.323 89.3906C76.7761 89.2344 76.2344 89.2344 75.6876 89.401C75.3126 89.5052 74.9896 89.7031 74.7292 89.9948Z" fill="#231F20"/>
<path d="M81.0262 153.172L82.672 152.458C82.7658 152.422 82.8647 152.406 82.9637 152.417C83.0627 152.422 83.1512 152.458 83.2397 152.51C83.3231 152.568 83.3856 152.641 83.4325 152.729C83.4793 152.818 83.5002 152.912 83.5002 153.01L83.4793 154.802C83.4793 155.401 83.3127 155.953 82.9845 156.458C82.6564 156.958 82.2137 157.333 81.6668 157.578C81.0158 157.859 80.3752 157.87 79.8856 157.547C79.396 157.219 79.1564 156.62 79.1668 155.917C79.1772 155.318 79.3543 154.766 79.6929 154.271C80.0262 153.771 80.4741 153.406 81.0262 153.172Z" fill="black"/>
<path d="M83.5519 152.599C83.6248 152.724 83.6612 152.859 83.656 153.01L83.6352 154.802C83.6352 155.432 83.4581 156.01 83.1092 156.542C82.7654 157.068 82.3019 157.464 81.7237 157.719C80.9946 158.031 80.3071 158.016 79.7862 157.672C79.2706 157.328 78.9894 156.698 78.9998 155.906C79.0102 155.276 79.1925 154.698 79.5519 154.172C79.906 153.646 80.3748 153.26 80.9581 153.016L82.604 152.302C82.854 152.193 83.0935 152.219 83.3227 152.37C83.4165 152.427 83.4894 152.505 83.5519 152.599ZM79.5935 157.01C79.6925 157.172 79.8175 157.302 79.9737 157.406C80.3956 157.687 80.9737 157.693 81.5987 157.422C82.1196 157.193 82.5362 156.839 82.8487 156.365C83.156 155.885 83.3175 155.365 83.3175 154.797L83.3383 153.005C83.3383 152.849 83.2758 152.729 83.1456 152.641C83.0154 152.557 82.88 152.542 82.7394 152.604L81.0935 153.318C80.5675 153.536 80.1456 153.885 79.8279 154.354C79.505 154.823 79.3383 155.344 79.3279 155.911C79.3071 156.302 79.3956 156.672 79.5935 157.01Z" fill="#231F20"/>
<path d="M64.8592 145.776L66.5102 145.062C66.5988 145.021 66.6977 145.005 66.7967 145.016C66.8957 145.026 66.9894 145.057 67.0727 145.115C67.1561 145.167 67.2186 145.24 67.2655 145.328C67.3123 145.417 67.3384 145.51 67.3332 145.615L67.3123 147.406C67.3123 148.005 67.1457 148.557 66.8175 149.057C66.4894 149.562 66.0467 149.937 65.4998 150.182C64.8488 150.458 64.1977 150.469 63.7186 150.146C63.2342 149.823 62.9894 149.224 62.9998 148.521C63.0102 147.917 63.1873 147.37 63.5259 146.875C63.8644 146.38 64.3071 146.01 64.8592 145.776Z" fill="black"/>
<path d="M67.3803 145.208C67.4585 145.333 67.5001 145.469 67.5001 145.62L67.4741 147.411C67.4741 148.042 67.297 148.625 66.9532 149.151C66.6043 149.682 66.1407 150.073 65.5626 150.328C64.8335 150.646 64.1459 150.63 63.6251 150.281C63.1095 149.938 62.8282 149.313 62.8387 148.521C62.8491 147.885 63.0314 147.307 63.3907 146.781C63.7449 146.26 64.2137 145.875 64.797 145.625L66.4428 144.917C66.6928 144.807 66.9324 144.828 67.1616 144.979C67.2501 145.042 67.3282 145.115 67.3803 145.208ZM63.4272 149.62C63.5262 149.781 63.6512 149.911 63.8074 150.016C64.2345 150.297 64.8126 150.307 65.4324 150.036C65.9532 149.802 66.3699 149.448 66.6772 148.974C66.9897 148.495 67.146 147.974 67.1512 147.406L67.172 145.615C67.172 145.458 67.1043 145.339 66.9793 145.255C66.8491 145.167 66.7137 145.156 66.573 145.214L64.9272 145.927C64.4012 146.151 63.9793 146.495 63.6616 146.964C63.3387 147.438 63.172 147.953 63.1616 148.521C63.1407 148.917 63.2345 149.281 63.4272 149.62Z" fill="#231F20"/>
<path d="M52.7967 132.745L54.4478 132.036C54.5363 131.995 54.6353 131.979 54.7342 131.99C54.8332 131.995 54.9269 132.031 55.0103 132.083C55.0936 132.141 55.1561 132.214 55.203 132.302C55.2498 132.391 55.2759 132.484 55.2707 132.583L55.2498 134.375C55.2498 134.974 55.0832 135.526 54.755 136.031C54.4269 136.531 53.9842 136.906 53.4373 137.151C52.7863 137.432 52.1405 137.443 51.6561 137.12C51.1665 136.792 50.9269 136.193 50.9373 135.49C50.9478 134.891 51.1248 134.339 51.4634 133.844C51.8019 133.344 52.2446 132.979 52.7967 132.745Z" fill="black"/>
<path d="M55.323 132.177C55.4012 132.302 55.4376 132.438 55.4376 132.583L55.4116 134.375C55.4116 135.01 55.2345 135.589 54.8907 136.12C54.5418 136.646 54.0782 137.042 53.5001 137.297C52.771 137.609 52.0834 137.594 51.5626 137.25C51.047 136.906 50.7657 136.276 50.7762 135.484C50.7866 134.854 50.9741 134.276 51.3282 133.75C51.6824 133.224 52.1512 132.839 52.7345 132.594L54.3803 131.88C54.5522 131.807 54.7293 131.802 54.9064 131.854C55.0834 131.911 55.2189 132.016 55.323 132.172V132.177ZM51.3647 136.589C51.4637 136.75 51.5887 136.88 51.7449 136.984C52.172 137.266 52.7501 137.271 53.3699 137.005C53.8907 136.771 54.3074 136.417 54.6147 135.943C54.9272 135.464 55.0835 134.943 55.0887 134.375L55.1095 132.583C55.1095 132.427 55.0418 132.307 54.9168 132.224C54.7866 132.135 54.6512 132.125 54.5105 132.182L52.8595 132.896C52.3387 133.115 51.9168 133.464 51.5939 133.932C51.2762 134.401 51.1095 134.922 51.0991 135.49C51.0782 135.88 51.172 136.25 51.3647 136.589Z" fill="#231F20"/>
<path d="M82.1823 133.656L83.8281 132.943C83.9167 132.901 84.0156 132.885 84.1146 132.896C84.2135 132.906 84.3073 132.937 84.3906 132.995C84.474 133.047 84.5365 133.12 84.5833 133.208C84.6302 133.297 84.6563 133.391 84.651 133.49L84.6302 135.281C84.6302 135.885 84.4635 136.437 84.1354 136.937C83.8073 137.443 83.3646 137.818 82.8177 138.057C82.1667 138.339 81.526 138.349 81.0365 138.026C80.5469 137.703 80.3073 137.104 80.3177 136.401C80.3281 135.797 80.5052 135.25 80.8437 134.75C81.1823 134.255 81.625 133.891 82.1823 133.656Z" fill="black"/>
<path d="M84.7032 133.089C84.7762 133.214 84.8126 133.349 84.8126 133.495L84.7918 135.287C84.7866 135.917 84.6095 136.5 84.2657 137.026C83.9168 137.557 83.4532 137.948 82.8751 138.203C82.146 138.521 81.4585 138.505 80.9428 138.156C80.422 137.813 80.1407 137.188 80.1512 136.391C80.1668 135.76 80.3491 135.182 80.7084 134.656C81.0626 134.135 81.5366 133.75 82.1199 133.505L83.7657 132.792C83.9376 132.719 84.1147 132.714 84.2918 132.766C84.4689 132.823 84.6095 132.927 84.7085 133.089H84.7032ZM80.7449 137.495C80.8439 137.651 80.9741 137.781 81.1251 137.885C81.5522 138.172 82.1303 138.177 82.7501 137.906C83.2709 137.677 83.6876 137.323 83.9949 136.844C84.3074 136.37 84.4637 135.849 84.4689 135.276L84.4897 133.484C84.4897 133.333 84.422 133.214 84.2918 133.125C84.1668 133.042 84.0314 133.026 83.8855 133.089L82.2397 133.797C81.7189 134.021 81.297 134.365 80.9741 134.839C80.6564 135.307 80.4897 135.828 80.4741 136.396C80.4584 136.787 80.5522 137.151 80.7449 137.495Z" fill="#231F20"/>
<path d="M70.5883 125.188L72.2341 124.479C72.3279 124.438 72.4216 124.422 72.5206 124.432C72.6248 124.438 72.7133 124.474 72.7966 124.526C72.88 124.583 72.9477 124.656 72.9945 124.745C73.0414 124.833 73.0623 124.927 73.0623 125.026L73.0414 126.818C73.0362 127.417 72.8695 127.969 72.5414 128.474C72.2133 128.974 71.7758 129.349 71.2237 129.594C70.5727 129.875 69.932 129.885 69.4425 129.563C68.9581 129.234 68.7185 128.641 68.7237 127.932C68.7393 127.333 68.9112 126.781 69.2498 126.286C69.5883 125.786 70.0362 125.422 70.5883 125.188Z" fill="black"/>
<path d="M73.1092 124.62C73.1873 124.745 73.2237 124.88 73.2237 125.031L73.2029 126.823C73.1977 127.453 73.0258 128.031 72.6769 128.562C72.3279 129.089 71.8696 129.484 71.2915 129.74C70.5623 130.052 69.8748 130.036 69.354 129.693C68.8331 129.344 68.5519 128.719 68.5623 127.927C68.5779 127.297 68.7602 126.719 69.1144 126.193C69.4685 125.667 69.9425 125.281 70.5258 125.036L72.1717 124.323C72.4217 124.219 72.6613 124.24 72.8852 124.391C72.979 124.448 73.0519 124.526 73.1092 124.62ZM69.156 129.031C69.255 129.193 69.38 129.323 69.5362 129.427C69.9581 129.708 70.5362 129.714 71.156 129.443C71.6769 129.214 72.0935 128.859 72.406 128.385C72.7133 127.906 72.8748 127.385 72.8748 126.818L72.8956 125.026C72.8956 124.87 72.8331 124.75 72.7029 124.667C72.5727 124.578 72.4373 124.568 72.2967 124.625L70.6508 125.339C70.1248 125.557 69.7029 125.906 69.38 126.375C69.0623 126.844 68.8956 127.365 68.8852 127.932C68.8644 128.328 68.9581 128.693 69.156 129.031Z" fill="#231F20"/>
<path d="M85.4271 115.609L87.0729 114.896C87.1667 114.854 87.2656 114.839 87.3646 114.849C87.4635 114.859 87.5521 114.891 87.6406 114.948C87.724 115 87.7865 115.073 87.8333 115.161C87.8802 115.25 87.901 115.344 87.901 115.448L87.8802 117.24C87.8802 117.839 87.7135 118.391 87.3854 118.891C87.0521 119.396 86.6146 119.771 86.0677 120.01C85.4167 120.292 84.7656 120.302 84.2865 119.979C83.8021 119.656 83.5573 119.057 83.5677 118.349C83.5781 117.75 83.7552 117.203 84.0937 116.703C84.4271 116.208 84.875 115.844 85.4271 115.609Z" fill="black"/>
<path d="M87.9478 115.036C88.0259 115.161 88.0676 115.297 88.0624 115.448L88.0416 117.24C88.0416 117.87 87.8645 118.453 87.5155 118.979C87.1718 119.51 86.7082 119.901 86.1301 120.156C85.401 120.474 84.7134 120.458 84.1926 120.109C83.677 119.766 83.3957 119.135 83.4009 118.349C83.4166 117.714 83.6041 117.135 83.9582 116.615C84.3124 116.089 84.7864 115.703 85.3697 115.458L87.0155 114.745C87.2655 114.641 87.5051 114.661 87.7343 114.812C87.8228 114.87 87.8957 114.948 87.9478 115.036ZM83.9947 119.448C84.0937 119.609 84.2187 119.74 84.3749 119.844C84.7968 120.125 85.3749 120.135 85.9999 119.865C86.5207 119.63 86.9322 119.281 87.2447 118.802C87.5572 118.328 87.7135 117.802 87.7135 117.234L87.7343 115.443C87.7343 115.286 87.6718 115.167 87.5416 115.083C87.4166 114.995 87.276 114.984 87.1353 115.042L85.4947 115.76C84.9687 115.979 84.5468 116.328 84.2291 116.797C83.9062 117.266 83.7395 117.786 83.7291 118.354C83.7082 118.745 83.802 119.109 83.9947 119.448Z" fill="#231F20"/>
<path d="M146.104 132.99L145.938 131.208C145.927 131.104 145.943 131.01 145.979 130.917C146.021 130.828 146.078 130.75 146.156 130.688C146.24 130.625 146.328 130.583 146.427 130.568C146.526 130.552 146.62 130.557 146.714 130.589L148.417 131.167C148.985 131.354 149.459 131.682 149.839 132.151C150.214 132.62 150.433 133.151 150.5 133.745C150.563 134.448 150.375 135.068 149.917 135.427C149.453 135.792 148.813 135.833 148.141 135.609C147.573 135.411 147.104 135.073 146.74 134.599C146.37 134.125 146.156 133.589 146.104 132.99Z" fill="black"/>
<path d="M146.339 130.422C146.484 130.385 146.625 130.391 146.766 130.438L148.464 131.01C149.063 131.208 149.563 131.557 149.958 132.047C150.354 132.542 150.589 133.104 150.651 133.729C150.729 134.521 150.5 135.167 150.01 135.557C149.521 135.943 148.839 136.016 148.083 135.76C147.484 135.552 146.995 135.198 146.604 134.703C146.214 134.203 145.995 133.635 145.938 133.005L145.771 131.224C145.745 130.953 145.839 130.729 146.052 130.563C146.135 130.495 146.234 130.448 146.339 130.422ZM149.318 135.542C149.5 135.495 149.661 135.417 149.813 135.302C150.208 134.984 150.396 134.438 150.333 133.76C150.271 133.198 150.063 132.693 149.708 132.25C149.349 131.807 148.901 131.495 148.359 131.318L146.661 130.745C146.51 130.698 146.38 130.719 146.255 130.818C146.135 130.911 146.083 131.036 146.094 131.193L146.266 132.974C146.313 133.542 146.51 134.052 146.859 134.5C147.208 134.948 147.651 135.266 148.193 135.453C148.557 135.594 148.932 135.62 149.318 135.542Z" fill="#231F20"/>
<path d="M134.068 146.062L133.901 144.281C133.891 144.177 133.906 144.083 133.943 143.99C133.984 143.901 134.042 143.823 134.12 143.76C134.198 143.698 134.287 143.656 134.385 143.641C134.484 143.625 134.583 143.63 134.677 143.661L136.375 144.24C136.948 144.427 137.422 144.755 137.802 145.224C138.177 145.687 138.396 146.224 138.458 146.818C138.526 147.521 138.339 148.135 137.88 148.5C137.417 148.865 136.776 148.906 136.104 148.677C135.537 148.479 135.068 148.146 134.698 147.672C134.333 147.198 134.12 146.661 134.068 146.062Z" fill="black"/>
<path d="M134.302 143.49C134.448 143.458 134.588 143.464 134.729 143.511L136.427 144.083C137.031 144.281 137.526 144.63 137.927 145.12C138.323 145.615 138.552 146.172 138.62 146.802C138.693 147.594 138.463 148.24 137.974 148.63C137.489 149.016 136.802 149.089 136.052 148.833C135.453 148.625 134.958 148.271 134.568 147.771C134.182 147.276 133.958 146.708 133.906 146.078L133.734 144.292C133.708 144.021 133.802 143.802 134.021 143.63C134.104 143.568 134.198 143.521 134.302 143.49ZM137.281 148.609C137.463 148.568 137.63 148.49 137.776 148.375C138.177 148.057 138.359 147.511 138.297 146.833C138.234 146.271 138.026 145.766 137.672 145.323C137.312 144.88 136.864 144.568 136.323 144.391L134.625 143.818C134.474 143.771 134.344 143.792 134.219 143.891C134.099 143.984 134.047 144.109 134.057 144.266L134.229 146.047C134.276 146.615 134.474 147.125 134.823 147.573C135.172 148.021 135.62 148.339 136.156 148.526C136.526 148.667 136.901 148.693 137.286 148.609H137.281Z" fill="#231F20"/>
<path d="M117.932 153.495L117.76 151.713C117.75 151.615 117.766 151.516 117.807 151.427C117.844 151.333 117.906 151.255 117.984 151.193C118.063 151.13 118.151 151.094 118.25 151.073C118.349 151.057 118.448 151.068 118.542 151.099L120.24 151.672C120.813 151.859 121.286 152.187 121.661 152.656C122.042 153.125 122.26 153.656 122.323 154.25C122.391 154.953 122.203 155.573 121.74 155.937C121.281 156.297 120.635 156.338 119.969 156.115C119.401 155.917 118.932 155.578 118.563 155.104C118.193 154.63 117.984 154.094 117.932 153.495Z" fill="black"/>
<path d="M118.172 150.922C118.318 150.885 118.459 150.891 118.594 150.938L120.297 151.516C120.896 151.714 121.396 152.057 121.792 152.552C122.193 153.042 122.422 153.604 122.49 154.234C122.563 155.021 122.334 155.672 121.844 156.057C121.354 156.443 120.672 156.516 119.917 156.266C119.323 156.057 118.828 155.703 118.438 155.203C118.047 154.703 117.828 154.141 117.771 153.51L117.604 151.724C117.578 151.453 117.672 151.234 117.886 151.063C117.974 150.995 118.068 150.948 118.172 150.922ZM121.151 156.042C121.334 156 121.495 155.917 121.646 155.802C122.042 155.49 122.229 154.937 122.167 154.266C122.104 153.698 121.896 153.193 121.537 152.75C121.182 152.307 120.735 152 120.193 151.823L118.49 151.245C118.344 151.198 118.209 151.224 118.089 151.318C117.969 151.417 117.917 151.542 117.927 151.693L118.094 153.479C118.146 154.042 118.344 154.552 118.693 155C119.042 155.448 119.485 155.771 120.021 155.958C120.391 156.094 120.766 156.12 121.146 156.042H121.151Z" fill="#231F20"/>
<path d="M127.875 125.865L127.708 124.083C127.698 123.984 127.713 123.885 127.75 123.792C127.792 123.703 127.849 123.625 127.927 123.563C128.005 123.5 128.094 123.458 128.193 123.443C128.292 123.427 128.391 123.432 128.484 123.469L130.182 124.042C130.755 124.229 131.229 124.557 131.609 125.026C131.984 125.495 132.203 126.026 132.266 126.625C132.333 127.323 132.146 127.943 131.687 128.302C131.224 128.667 130.583 128.708 129.911 128.484C129.344 128.287 128.875 127.948 128.505 127.474C128.135 127 127.927 126.464 127.875 125.865Z" fill="black"/>
<path d="M128.114 123.297C128.255 123.26 128.396 123.266 128.536 123.313L130.234 123.885C130.838 124.083 131.338 124.432 131.734 124.922C132.13 125.417 132.364 125.979 132.427 126.604C132.505 127.396 132.276 128.047 131.786 128.432C131.297 128.818 130.614 128.891 129.859 128.635C129.26 128.427 128.765 128.073 128.38 127.578C127.989 127.078 127.765 126.51 127.713 125.88L127.542 124.099C127.526 123.911 127.573 123.745 127.682 123.594C127.786 123.438 127.932 123.344 128.114 123.297ZM131.094 128.417C131.276 128.37 131.437 128.292 131.583 128.177C131.984 127.859 132.167 127.313 132.104 126.635C132.047 126.073 131.838 125.568 131.479 125.125C131.125 124.682 130.672 124.37 130.13 124.193L128.432 123.62C128.286 123.573 128.151 123.599 128.031 123.693C127.911 123.786 127.854 123.911 127.87 124.068L128.036 125.849C128.083 126.417 128.286 126.927 128.635 127.375C128.984 127.823 129.427 128.141 129.963 128.328C130.333 128.469 130.708 128.495 131.094 128.411V128.417Z" fill="#231F20"/>
<path d="M116.229 134.26L116.063 132.479C116.052 132.375 116.068 132.281 116.11 132.188C116.146 132.099 116.203 132.021 116.287 131.958C116.365 131.896 116.453 131.854 116.552 131.839C116.651 131.823 116.745 131.828 116.839 131.859L118.542 132.438C119.11 132.625 119.584 132.953 119.964 133.422C120.339 133.885 120.563 134.422 120.625 135.016C120.688 135.719 120.5 136.333 120.042 136.698C119.584 137.063 118.938 137.104 118.271 136.88C117.703 136.682 117.235 136.344 116.865 135.87C116.495 135.396 116.281 134.859 116.229 134.26Z" fill="black"/>
<path d="M116.469 131.688C116.615 131.656 116.755 131.662 116.891 131.708L118.594 132.281C119.193 132.479 119.693 132.828 120.089 133.318C120.49 133.813 120.719 134.37 120.787 135C120.86 135.792 120.63 136.438 120.141 136.828C119.651 137.214 118.969 137.287 118.214 137.031C117.62 136.823 117.125 136.469 116.735 135.969C116.344 135.469 116.125 134.906 116.068 134.276L115.901 132.49C115.875 132.219 115.969 132 116.182 131.828C116.271 131.76 116.365 131.719 116.469 131.688ZM119.448 136.807C119.63 136.766 119.792 136.688 119.943 136.573C120.339 136.255 120.526 135.708 120.464 135.031C120.401 134.469 120.193 133.964 119.834 133.521C119.479 133.078 119.031 132.766 118.49 132.589L116.787 132.016C116.641 131.969 116.505 131.99 116.386 132.089C116.266 132.182 116.214 132.307 116.224 132.464L116.391 134.245C116.443 134.813 116.641 135.318 116.99 135.771C117.339 136.219 117.781 136.537 118.323 136.724C118.688 136.865 119.063 136.891 119.448 136.807Z" fill="#231F20"/>
<path d="M111.693 117.203L111.526 115.422C111.516 115.323 111.531 115.224 111.568 115.13C111.609 115.042 111.667 114.964 111.745 114.901C111.823 114.839 111.912 114.797 112.01 114.781C112.109 114.766 112.208 114.771 112.302 114.802L114 115.38C114.573 115.568 115.047 115.896 115.427 116.365C115.802 116.828 116.021 117.365 116.083 117.958C116.151 118.661 115.964 119.276 115.505 119.641C115.042 120.005 114.401 120.047 113.729 119.823C113.162 119.625 112.693 119.286 112.323 118.812C111.958 118.339 111.745 117.802 111.693 117.203Z" fill="black"/>
<path d="M111.932 114.635C112.073 114.599 112.213 114.604 112.354 114.651L114.052 115.224C114.656 115.422 115.156 115.771 115.552 116.26C115.948 116.755 116.182 117.318 116.245 117.943C116.323 118.734 116.094 119.38 115.604 119.771C115.115 120.156 114.432 120.229 113.677 119.974C113.078 119.766 112.588 119.412 112.198 118.917C111.807 118.417 111.588 117.849 111.531 117.219L111.365 115.438C111.333 115.162 111.432 114.943 111.646 114.776C111.729 114.708 111.823 114.662 111.932 114.635ZM114.911 119.755C115.094 119.708 115.255 119.63 115.401 119.516C115.802 119.198 115.99 118.651 115.922 117.974C115.865 117.412 115.656 116.906 115.297 116.464C114.943 116.021 114.49 115.708 113.948 115.531L112.25 114.958C112.104 114.912 111.969 114.932 111.849 115.031C111.729 115.125 111.672 115.25 111.687 115.406L111.854 117.188C111.901 117.755 112.104 118.266 112.453 118.714C112.802 119.162 113.245 119.479 113.781 119.667C114.151 119.807 114.526 119.833 114.911 119.755Z" fill="#231F20"/>
<path d="M146.995 64.948L145.245 64.5573C145.146 64.5313 145.057 64.4896 144.984 64.4219C144.906 64.3594 144.854 64.2761 144.818 64.1823C144.781 64.0886 144.771 63.9948 144.786 63.8959C144.802 63.7969 144.838 63.7032 144.901 63.6251L145.969 62.1876C146.328 61.7032 146.786 61.3542 147.349 61.1407C147.911 60.9271 148.484 60.8855 149.073 61.0105C149.76 61.1615 150.292 61.5313 150.495 62.0834C150.698 62.6303 150.542 63.2553 150.12 63.8178C149.755 64.2969 149.286 64.6407 148.724 64.8438C148.156 65.0469 147.583 65.0834 146.995 64.948Z" fill="black"/>
<path d="M144.62 63.927C144.63 63.776 144.682 63.6458 144.771 63.5312L145.838 62.0937C146.213 61.5833 146.698 61.2135 147.291 60.9895C147.885 60.7656 148.489 60.7187 149.109 60.8489C149.88 61.0208 150.427 61.4374 150.646 62.026C150.864 62.6093 150.724 63.2812 150.245 63.9166C149.864 64.4218 149.375 64.7812 148.781 64.9947C148.182 65.2135 147.578 65.2499 146.958 65.1041L145.208 64.7135C145.026 64.677 144.88 64.5781 144.771 64.4322C144.656 64.2812 144.609 64.1145 144.62 63.927ZM150.416 62.677C150.432 62.4895 150.406 62.3124 150.344 62.1354C150.161 61.6614 149.703 61.3124 149.036 61.1614C148.479 61.0468 147.937 61.0885 147.406 61.2916C146.875 61.4947 146.442 61.8281 146.104 62.2864L145.031 63.7239C144.942 63.8489 144.922 63.9843 144.979 64.1249C145.031 64.2708 145.135 64.3593 145.286 64.3958L147.036 64.7864C147.588 64.9166 148.135 64.8854 148.672 64.6927C149.208 64.4999 149.646 64.177 149.989 63.7239C150.234 63.4166 150.375 63.0677 150.416 62.677Z" fill="#231F20"/>
<path d="M155.724 80.4167L153.974 80.0261C153.875 80.0053 153.792 79.9584 153.714 79.8907C153.641 79.8282 153.583 79.7448 153.547 79.6511C153.516 79.5573 153.505 79.4636 153.516 79.3646C153.531 79.2657 153.568 79.1771 153.63 79.0938L154.698 77.6563C155.057 77.1719 155.516 76.823 156.073 76.6094C156.635 76.3959 157.208 76.3542 157.797 76.4792C158.49 76.6303 159.016 77.0001 159.219 77.5521C159.422 78.099 159.266 78.724 158.844 79.2865C158.479 79.7657 158.016 80.1042 157.448 80.3126C156.885 80.5157 156.312 80.5469 155.724 80.4167Z" fill="black"/>
<path d="M153.349 79.3958C153.359 79.2499 153.412 79.1145 153.5 78.9999L154.573 77.5624C154.943 77.052 155.427 76.6822 156.021 76.4583C156.615 76.2343 157.219 76.1874 157.839 76.3177C158.615 76.4895 159.156 76.9062 159.375 77.4947C159.594 78.0781 159.453 78.7499 158.979 79.3854C158.594 79.8906 158.104 80.2499 157.511 80.4635C156.912 80.6822 156.307 80.7187 155.688 80.5729L153.938 80.1874C153.755 80.1458 153.609 80.052 153.5 79.901C153.386 79.7499 153.339 79.5833 153.349 79.3958ZM159.146 78.1458C159.162 77.9635 159.136 77.7812 159.073 77.6041C158.896 77.1302 158.432 76.7812 157.766 76.6302C157.208 76.5156 156.667 76.5572 156.136 76.7604C155.604 76.9635 155.167 77.2916 154.833 77.7499L153.761 79.1874C153.672 79.3124 153.651 79.4479 153.703 79.5937C153.761 79.7343 153.859 79.8229 154.011 79.8593L155.761 80.2552C156.313 80.3802 156.859 80.3489 157.396 80.1562C157.932 79.9635 158.37 79.6406 158.714 79.1874C158.958 78.8802 159.104 78.5364 159.146 78.1458Z" fill="#231F20"/>
<path d="M157.813 98.0365L156.068 97.651C155.969 97.625 155.88 97.5833 155.807 97.5156C155.729 97.4531 155.677 97.3698 155.641 97.276C155.604 97.1823 155.594 97.0885 155.61 96.9896C155.625 96.8906 155.662 96.7969 155.719 96.7187L156.792 95.2812C157.146 94.7969 157.61 94.4479 158.167 94.2344C158.729 94.0208 159.307 93.974 159.896 94.099C160.584 94.2552 161.11 94.625 161.318 95.1719C161.521 95.724 161.36 96.349 160.938 96.9115C160.573 97.3906 160.11 97.7344 159.542 97.9375C158.979 98.1406 158.401 98.1771 157.813 98.0365Z" fill="black"/>
<path d="M155.437 97.0156C155.448 96.8697 155.5 96.7395 155.589 96.6197L156.661 95.1822C157.031 94.6718 157.516 94.3072 158.109 94.0833C158.703 93.8593 159.307 93.8124 159.927 93.9427C160.703 94.1145 161.245 94.5312 161.464 95.1197C161.682 95.7031 161.542 96.3749 161.068 97.0104C160.682 97.5156 160.193 97.8749 159.599 98.0885C159 98.302 158.396 98.3437 157.776 98.1979L156.026 97.8124C155.76 97.7499 155.578 97.5937 155.484 97.3385C155.448 97.2343 155.432 97.1302 155.437 97.0156ZM161.234 95.7708C161.25 95.5833 161.224 95.4062 161.161 95.2291C160.984 94.7499 160.521 94.4062 159.859 94.2552C159.302 94.1354 158.76 94.1822 158.229 94.3802C157.698 94.5833 157.26 94.9166 156.927 95.3749L155.854 96.8124C155.76 96.9374 155.74 97.0729 155.797 97.2187C155.849 97.3645 155.948 97.4531 156.104 97.4843L157.854 97.8802C158.411 98.0052 158.953 97.9739 159.49 97.7812C160.026 97.5885 160.469 97.2656 160.813 96.8124C161.052 96.5052 161.193 96.1614 161.234 95.7708Z" fill="#231F20"/>
<path d="M134.578 80.0573L132.828 79.6667C132.729 79.6459 132.641 79.599 132.568 79.5365C132.49 79.4688 132.438 79.3907 132.401 79.2969C132.365 79.2032 132.36 79.1042 132.37 79.0053C132.386 78.9063 132.422 78.8178 132.485 78.7344L133.552 77.2969C133.912 76.8126 134.37 76.4636 134.932 76.2501C135.495 76.0365 136.068 75.9948 136.656 76.1198C137.344 76.2709 137.875 76.6407 138.078 77.1928C138.281 77.7396 138.125 78.3646 137.698 78.9323C137.339 79.4063 136.87 79.7501 136.307 79.9532C135.74 80.1563 135.167 80.1928 134.578 80.0573Z" fill="black"/>
<path d="M132.203 79.0364C132.213 78.8906 132.265 78.7552 132.354 78.6406L133.422 77.2031C133.797 76.6927 134.281 76.3229 134.875 76.0989C135.469 75.8749 136.073 75.8281 136.693 75.9583C137.469 76.1354 138.01 76.552 138.229 77.1354C138.448 77.7187 138.307 78.3906 137.828 79.026C137.448 79.5312 136.958 79.8906 136.364 80.1041C135.765 80.3229 135.161 80.3593 134.541 80.2135L132.786 79.8229C132.521 79.7656 132.344 79.6093 132.245 79.3489C132.208 79.2499 132.198 79.1458 132.203 79.0364ZM138 77.7864C138.015 77.6041 137.989 77.4218 137.927 77.2499C137.75 76.7708 137.286 76.427 136.62 76.276C136.062 76.1562 135.521 76.1979 134.984 76.401C134.453 76.6041 134.021 76.9374 133.682 77.3958L132.609 78.8333C132.521 78.9583 132.505 79.0885 132.557 79.2343C132.609 79.3802 132.713 79.4687 132.864 79.5052L134.614 79.8958C135.172 80.026 135.713 79.9947 136.25 79.802C136.786 79.6041 137.224 79.2812 137.573 78.8333C137.818 78.526 137.958 78.177 138 77.7864Z" fill="#231F20"/>
<path d="M138.974 93.7083L137.229 93.3177C137.13 93.2969 137.042 93.2552 136.969 93.1875C136.89 93.125 136.838 93.0417 136.802 92.9479C136.765 92.8542 136.755 92.7604 136.771 92.6615C136.786 92.5625 136.823 92.4687 136.88 92.3906L137.953 90.9531C138.307 90.4687 138.765 90.1198 139.328 89.9062C139.89 89.6927 140.469 89.6458 141.052 89.7708C141.745 89.9271 142.271 90.2969 142.474 90.8437C142.677 91.3958 142.521 92.0208 142.099 92.5833C141.734 93.0625 141.271 93.4062 140.703 93.6094C140.135 93.8125 139.562 93.849 138.974 93.7083Z" fill="black"/>
<path d="M136.599 92.6875C136.61 92.5416 136.662 92.4114 136.75 92.2916L137.818 90.8541C138.193 90.3437 138.677 89.9791 139.271 89.7552C139.86 89.526 140.469 89.4843 141.089 89.6145C141.865 89.7864 142.412 90.2031 142.625 90.7864C142.844 91.375 142.703 92.0468 142.229 92.6822C141.844 93.1875 141.354 93.5468 140.761 93.7604C140.162 93.9739 139.557 94.0104 138.938 93.8697L137.188 93.4791C136.922 93.4218 136.74 93.2604 136.646 93.0052C136.61 92.9062 136.594 92.7968 136.599 92.6875ZM142.396 91.4427C142.412 91.2552 142.386 91.0781 142.323 90.901C142.146 90.4218 141.682 90.0781 141.021 89.927C140.464 89.8125 139.922 89.8541 139.391 90.0572C138.854 90.2604 138.422 90.5885 138.083 91.0468L137.016 92.4843C136.922 92.6093 136.906 92.7447 136.958 92.8906C137.011 93.0312 137.115 93.125 137.266 93.1614L139.016 93.552C139.573 93.677 140.115 93.6458 140.651 93.4531C141.188 93.2604 141.625 92.9375 141.974 92.4843C142.214 92.177 142.354 91.8333 142.396 91.4427Z" fill="#231F20"/>
<path d="M121.328 92.7499L119.578 92.3593C119.485 92.3385 119.396 92.2916 119.318 92.2291C119.245 92.1614 119.188 92.0833 119.156 91.9895C119.12 91.8958 119.11 91.7968 119.125 91.6979C119.136 91.5989 119.172 91.5104 119.235 91.427L120.307 89.9895C120.662 89.5104 121.12 89.1614 121.682 88.9479C122.245 88.7291 122.818 88.6874 123.406 88.8124C124.099 88.9635 124.625 89.3333 124.828 89.8854C125.037 90.4322 124.875 91.0572 124.453 91.6249C124.089 92.1041 123.625 92.4427 123.057 92.6458C122.49 92.8489 121.917 92.8854 121.328 92.7499Z" fill="black"/>
<path d="M118.953 91.7292C118.963 91.5834 119.015 91.4532 119.104 91.3334L120.172 89.8959C120.547 89.3854 121.031 89.0157 121.625 88.7917C122.219 88.5677 122.823 88.5209 123.443 88.6563C124.219 88.8282 124.765 89.2448 124.979 89.8282C125.198 90.4115 125.057 91.0834 124.583 91.7188C124.198 92.224 123.708 92.5834 123.114 92.8021C122.521 93.0157 121.911 93.0521 121.297 92.9115L119.542 92.5209C119.359 92.4792 119.213 92.3854 119.104 92.2344C118.995 92.0834 118.943 91.9167 118.953 91.7344V91.7292ZM124.75 90.4844C124.765 90.2969 124.739 90.1146 124.677 89.9427C124.5 89.4636 124.036 89.1198 123.375 88.9688C122.818 88.849 122.276 88.8907 121.745 89.0938C121.213 89.2969 120.776 89.6302 120.443 90.0886L119.37 91.5261C119.276 91.6511 119.26 91.7813 119.312 91.9271C119.364 92.073 119.469 92.1615 119.62 92.1979L121.37 92.5886C121.927 92.7188 122.469 92.6875 123.005 92.4948C123.542 92.3021 123.979 91.9792 124.328 91.5261C124.568 91.2188 124.708 90.8698 124.75 90.4844Z" fill="#231F20"/>
<mask id="mask0_295_336" style="mask-type:luminance" maskUnits="userSpaceOnUse" x="0" y="0" width="200" height="196">
<path d="M0 0H200V196H0V0Z" fill="white"/>
</mask>
<g mask="url(#mask0_295_336)">
<path d="M172.51 41.4114C173.448 42.6041 174.354 43.8177 175.229 45.0521C176.104 46.2864 176.953 47.5416 177.765 48.8177C178.583 50.0937 179.364 51.3906 180.114 52.7031C180.864 54.0208 181.583 55.3541 182.271 56.7031C182.953 58.0521 183.609 59.4166 184.224 60.8021C184.844 62.1823 185.427 63.5781 185.979 64.9896C186.526 66.401 187.042 67.8229 187.521 69.2604C188 70.6979 188.443 72.1406 188.854 73.5989C189.26 75.0573 189.635 76.526 189.969 78C190.307 79.4791 190.604 80.9635 190.87 82.4531C191.13 83.9427 191.359 85.4375 191.547 86.9427C191.734 88.4427 191.89 89.9479 192.005 91.4583C192.12 92.9687 192.198 94.4791 192.239 95.9895C192.281 97.5052 192.281 99.0208 192.25 100.531C192.219 102.047 192.146 103.557 192.036 105.068C191.932 106.578 191.786 108.083 191.604 109.588C191.422 111.088 191.203 112.588 190.948 114.078C190.693 115.573 190.396 117.057 190.068 118.531C189.739 120.01 189.375 121.479 188.974 122.937C188.573 124.401 188.135 125.849 187.667 127.286C187.193 128.724 186.682 130.151 186.14 131.562C185.599 132.979 185.021 134.375 184.411 135.76C183.797 137.146 183.151 138.516 182.474 139.87C181.797 141.224 181.083 142.557 180.338 143.88C179.594 145.198 178.818 146.495 178.01 147.776C177.203 149.057 176.359 150.318 175.489 151.557C174.62 152.797 173.719 154.01 172.786 155.208C171.859 156.401 170.901 157.573 169.911 158.719C168.922 159.87 167.906 160.99 166.864 162.088C165.818 163.187 164.75 164.26 163.656 165.307C162.557 166.349 161.437 167.37 160.292 168.359C159.146 169.349 157.974 170.312 156.781 171.245C155.588 172.177 154.37 173.078 153.13 173.953C151.896 174.828 150.635 175.667 149.354 176.479C148.078 177.292 146.776 178.073 145.458 178.818C144.14 179.568 142.807 180.281 141.453 180.963C140.099 181.646 138.729 182.297 137.344 182.911C135.963 183.526 134.562 184.104 133.146 184.651C131.734 185.198 130.307 185.708 128.87 186.187C127.432 186.661 125.979 187.104 124.521 187.505C123.062 187.911 121.588 188.281 120.114 188.615C118.635 188.948 117.146 189.245 115.656 189.505C114.161 189.766 112.661 189.989 111.156 190.172C109.656 190.359 108.146 190.51 106.635 190.62C105.125 190.734 103.609 190.807 102.094 190.849C100.578 190.885 99.0623 190.885 97.5467 190.849C96.0363 190.812 94.5207 190.74 93.0102 190.63C91.4946 190.521 89.9894 190.37 88.4842 190.187C86.979 190 85.479 189.781 83.9894 189.521C82.4946 189.266 81.0102 188.969 79.5311 188.641C78.0519 188.307 76.5779 187.943 75.1196 187.536C73.6561 187.135 72.2082 186.693 70.7707 186.219C69.3279 185.745 67.9009 185.234 66.4894 184.693C65.0727 184.146 63.6717 183.568 62.2863 182.953C60.9009 182.344 59.5311 181.693 58.1769 181.016C56.8227 180.333 55.4894 179.62 54.1717 178.875C52.8488 178.125 51.5519 177.349 50.2706 176.542C48.9894 175.729 47.729 174.891 46.4894 174.016C45.2498 173.146 44.0363 172.245 42.8384 171.312C41.6456 170.38 40.4738 169.422 39.3279 168.432C38.1821 167.443 37.0571 166.427 35.9581 165.38C34.8644 164.338 33.7915 163.266 32.7446 162.172C31.7029 161.073 30.6873 159.953 29.6977 158.802C28.7081 157.656 27.7446 156.49 26.8123 155.292C25.8748 154.104 24.9686 152.891 24.0936 151.656C23.2186 150.422 22.3696 149.167 21.5571 147.891C20.7394 146.615 19.9581 145.318 19.2081 144C18.4581 142.687 17.7394 141.354 17.0519 140.005C16.3644 138.656 15.7133 137.286 15.0936 135.906C14.479 134.526 13.8956 133.13 13.3436 131.719C12.7967 130.307 12.2811 128.885 11.8019 127.448C11.3227 126.01 10.8748 124.562 10.4686 123.104C10.0623 121.646 9.6873 120.182 9.35397 118.703C9.01543 117.229 8.71855 115.745 8.45293 114.255C8.19251 112.766 7.96335 111.266 7.77585 109.766C7.58314 108.266 7.4321 106.76 7.31751 105.25C7.20293 103.74 7.1248 102.229 7.08314 100.713C7.04147 99.2031 7.03626 97.6875 7.07272 96.177C7.10397 94.6614 7.17689 93.151 7.28626 91.6406C7.39043 90.1302 7.53626 88.625 7.71855 87.1198C7.90085 85.6198 8.1196 84.1198 8.3748 82.6302C8.63001 81.1354 8.92168 79.651 9.25501 78.1718C9.58314 76.6979 9.94772 75.2291 10.3488 73.7656C10.7498 72.3073 11.1873 70.8593 11.6561 69.4218C12.13 67.9791 12.6404 66.5573 13.1821 65.1406C13.7238 63.7291 14.3019 62.3281 14.9113 60.9427C15.5258 59.5573 16.1665 58.1875 16.8488 56.8385C17.5258 55.4844 18.2394 54.1458 18.9842 52.8281C19.729 51.5104 20.505 50.2083 21.3123 48.9323C22.1196 47.651 22.9634 46.3906 23.8331 45.151C24.7029 43.9114 25.604 42.6927 26.5311 41.5C27.4634 40.3073 28.4217 39.1354 29.4113 37.9844C30.4009 36.8385 31.4165 35.7135 32.4581 34.6146C33.4998 33.5208 34.5727 32.4479 35.6665 31.401C36.7654 30.3542 37.8852 29.3385 39.0311 28.3489C40.1769 27.3594 41.3488 26.3958 42.5415 25.4635C43.7342 24.5312 44.9529 23.625 46.1873 22.7552C47.4269 21.8802 48.6873 21.0365 49.9634 20.224C51.2446 19.4167 52.5467 18.6354 53.8644 17.8854C55.1821 17.1406 56.5154 16.4271 57.8696 15.7448C59.2238 15.0625 60.5884 14.4115 61.9738 13.7969C63.3592 13.1823 64.7602 12.599 66.1717 12.0573C67.5884 11.5104 69.0154 11 70.4529 10.5208C71.8904 10.0469 73.3384 9.60416 74.8019 9.19792C76.2602 8.79687 77.729 8.42708 79.2082 8.09375C80.6873 7.76042 82.1717 7.46354 83.6665 7.20312C85.1613 6.94271 86.6613 6.71875 88.1613 6.53125C89.6665 6.34896 91.1769 6.19792 92.6873 6.08333C94.1977 5.97396 95.7134 5.89583 97.229 5.85937C98.7446 5.82292 100.255 5.82292 101.771 5.85937C103.286 5.89062 104.802 5.96875 106.312 6.07812C107.823 6.1875 109.333 6.33333 110.838 6.52083C112.344 6.70312 113.838 6.92708 115.333 7.18229C116.828 7.44271 118.312 7.73958 119.792 8.06771C121.271 8.40104 122.739 8.76562 124.203 9.17187C125.661 9.57291 127.114 10.0104 128.552 10.4896C129.995 10.9635 131.422 11.4687 132.833 12.0156C134.25 12.5625 135.646 13.1406 137.031 13.75C138.422 14.3646 139.791 15.0104 141.146 15.6927C142.495 16.375 143.833 17.0885 145.151 17.8333C146.469 18.5781 147.771 19.3594 149.052 20.1667C150.333 20.9792 151.594 21.8177 152.828 22.6927C154.068 23.5625 155.286 24.4635 156.479 25.3958C157.677 26.3281 158.849 27.2864 159.995 28.276C161.14 29.2656 162.265 30.2812 163.364 31.3281C164.458 32.3698 165.531 33.4427 166.573 34.5364C167.62 35.6354 168.635 36.7552 169.625 37.901C170.614 39.0469 171.578 40.2187 172.51 41.4114Z" stroke="black" stroke-width="2.27214" stroke-miterlimit="10"/>
</g>
<path d="M99.6616 98.3541L29.1772 121.224L20.4168 124.068L11.6616 126.911" fill="black"/>
<mask id="mask1_295_336" style="mask-type:luminance" maskUnits="userSpaceOnUse" x="0" y="65" width="133" height="96">
<path d="M0 65.4584H132.667V160.125H0V65.4584Z" fill="white"/>
</mask>
<g mask="url(#mask1_295_336)">
<path d="M99.6616 98.3541L29.1773 121.224L20.4168 124.068L11.6616 126.911" stroke="black" stroke-width="2.27214" stroke-miterlimit="10"/>
</g>
<path d="M99.6616 98.3541V190.75" stroke="black" stroke-width="2.27214" stroke-miterlimit="10"/>
<path d="M99.6616 98.3541L170.13 121.224L178.896 124.068L187.656 126.906" fill="black"/>
<mask id="mask2_295_336" style="mask-type:luminance" maskUnits="userSpaceOnUse" x="67" y="65" width="133" height="96">
<path d="M67.3335 65.4584H200V160.125H67.3335V65.4584Z" fill="white"/>
</mask>
<g mask="url(#mask2_295_336)">
<path d="M99.6616 98.3541L170.13 121.224L178.896 124.068L187.656 126.906" stroke="black" stroke-width="2.27214" stroke-miterlimit="10"/>
</g>
<path d="M99.6616 98.3542L143.224 38.474L148.636 31.0313L154.047 23.5938" fill="black"/>
<mask id="mask3_295_336" style="mask-type:luminance" maskUnits="userSpaceOnUse" x="67" y="0" width="121" height="131">
<path d="M67.3335 0H187.333V130.792H67.3335V0Z" fill="white"/>
</mask>
<g mask="url(#mask3_295_336)">
<path d="M99.6616 98.3541L143.224 38.474L148.636 31.0312L154.047 23.5938" stroke="black" stroke-width="2.27214" stroke-miterlimit="10"/>
</g>
<path d="M99.6616 98.3542L56.1095 38.4896L50.6981 31.0469L45.2866 23.6094" fill="black"/>
<mask id="mask4_295_336" style="mask-type:luminance" maskUnits="userSpaceOnUse" x="12" y="0" width="121" height="131">
<path d="M12.6665 0H132.667V130.792H12.6665V0Z" fill="white"/>
</mask>
<g mask="url(#mask4_295_336)">
<path d="M99.6611 98.3541L56.1091 38.4896L50.6976 31.0469L45.2861 23.6094" stroke="black" stroke-width="2.27214" stroke-miterlimit="10"/>
</g>
</svg>
