<svg width="43" height="40" viewBox="0 0 43 40" fill="none" xmlns="http://www.w3.org/2000/svg">
<path d="M41.4771 14.9756C40.9552 14.1998 40.1992 13.569 39.2505 13.2149L37.1036 11.5172L33.7262 12.3025L30.3322 11.8094L26.7908 4.64061C26.2559 3.5559 25.4059 2.80741 24.4382 2.39278L20.3821 0L19.097 3.50481C18.7974 3.83034 18.5335 4.20815 18.3195 4.64061L14.7793 11.8094L6.86316 12.9595C2.9889 13.5226 1.44229 18.2797 4.24545 21.011L9.97422 26.5914L9.39766 29.9513L7.00344 36.4762C7.00344 36.4762 8.63089 37.6999 9.97303 38.642C10.4485 39.1042 11.018 39.4677 11.6421 39.7006L11.6433 39.7018C12.8202 40.1414 14.1873 40.1235 15.4747 39.4475L22.5552 35.7265L29.6356 39.4475C33.1009 41.2676 37.1511 38.3272 36.489 34.4707L35.1373 26.5914L40.8649 21.011C42.6374 19.2848 42.6695 16.7506 41.4771 14.9756Z" fill="#0E7490"/>
<path d="M23.9769 2.63177L27.5171 9.80178L35.4344 10.9506C39.3087 11.5138 40.8553 16.272 38.0522 19.0022L32.3234 24.5826L33.6762 32.463C34.3372 36.3195 30.287 39.26 26.8228 37.4387L19.7412 33.7188L12.6608 37.4387C9.19547 39.26 5.14527 36.3195 5.80742 32.463L7.16026 24.5826L1.43149 19.0022C-1.37168 16.272 0.174936 11.5138 4.0492 10.9506L11.9654 9.80178L15.5068 2.63177C17.2388 -0.876605 22.2448 -0.876605 23.9781 2.63177H23.9769Z" fill="#22D3EE"/>
<path d="M17.4698 4.83867C16.8933 4.83867 16.3476 4.49532 16.1158 3.92861C15.8115 3.18131 16.1693 2.32947 16.917 2.02413C17.263 1.88275 17.6184 1.7984 17.9703 1.77464C18.7787 1.72236 19.4741 2.3259 19.53 3.13141C19.5859 3.93574 18.9772 4.63313 18.1724 4.68897C18.132 4.69254 18.0797 4.70561 18.0214 4.72937C17.8407 4.80303 17.6541 4.83748 17.4698 4.83748V4.83867Z" fill="#67E8F9"/>
<path d="M14.1076 13.6274C13.9637 13.6274 13.8163 13.6061 13.6713 13.5597C12.9009 13.3197 12.4718 12.5012 12.7119 11.7313C12.7678 11.5519 14.1052 7.30454 16.0274 4.31654C16.4637 3.63815 17.3684 3.44212 18.0472 3.87814C18.7272 4.31416 18.9233 5.21828 18.487 5.89667C16.7811 8.54844 15.5151 12.5617 15.5032 12.6021C15.307 13.2259 14.7305 13.6274 14.1076 13.6274Z" fill="#67E8F9"/>
</svg>
